<?xml version="1.0" standalone="no"?>
<!DOCTYPE svg PUBLIC "-//W3C//DTD SVG 1.1//EN" "http://www.w3.org/Graphics/SVG/1.1/DTD/svg11.dtd" >
<svg xmlns="http://www.w3.org/2000/svg" xmlns:xlink="http://www.w3.org/1999/xlink" version="1.1">
<metadata>
Created by FontForge 20230101 at Thu Apr  7 08:55:42 2022
 By Unknown
copyright missing
</metadata>
<defs>
<font id="LinkSans-Light" horiz-adv-x="609" >
  <font-face 
    font-family="Link Sans Light"
    font-weight="300"
    font-stretch="normal"
    units-per-em="1000"
    panose-1="0 0 0 0 0 0 0 0 0 0"
    ascent="800"
    descent="-200"
    x-height="547"
    cap-height="762"
    bbox="-74 -253 4515 986"
    underline-thickness="50"
    underline-position="-125"
    stemh="69"
    stemv="79"
    unicode-range="U+0020-A78C"
  />
<missing-glyph horiz-adv-x="623" 
d="M50 291l86 244h86l45 -131h153c-30 15 -46 36 -46 64c0 44 38 73 94 73s92 -24 103 -67l-69 -14c-5 18 -17 27 -32 27s-23 -8 -23 -21c0 -10 10 -18 27 -23l25 -7c52 -15 74 -37 74 -73c0 -48 -35 -76 -95 -76c-46 0 -93 14 -107 60h-1v-185h-65v185h-19l19 -56h-67
l-17 56h-85l-18 -56h-68zM154 404h49l-24 79zM440 371c0 -21 19 -29 39 -29c16 0 27 8 27 20c0 10 -9 16 -39 25l-19 6l-8 3v-25z" />
    <glyph glyph-name="f_f" unicode="ff" horiz-adv-x="669" 
d="M117 603c0 111 63 174 187 174c61 0 119 -15 160 -49c20 32 54 49 99 49c35 0 70 -14 89 -37v-65c-18 18 -45 30 -70 30c-43 0 -62 -26 -62 -87v-71h132v-66h-132v-481h-79v481h-245v-481h-79v481h-102v66h102v56zM196 547h245v86c0 14 1 27 3 39c-39 23 -79 33 -134 33
c-86 0 -114 -23 -114 -97v-61z" />
    <glyph glyph-name="f_f_i" unicode="ffi" horiz-adv-x="912" 
d="M117 603c0 111 63 174 187 174c62 0 121 -15 162 -51c31 33 79 51 145 51c63 0 123 -16 164 -53v-68c-46 35 -92 49 -158 49c-86 0 -114 -23 -114 -97v-61h345v-547h-79v481h-266v-481h-79v481h-228v-481h-79v481h-102v66h102v56zM196 547h228v56c0 28 4 53 12 74
c-36 20 -75 28 -126 28c-86 0 -114 -23 -114 -97v-61z" />
    <glyph glyph-name="f_f_l" unicode="ffl" horiz-adv-x="912" 
d="M117 603c0 111 63 174 187 174c62 0 121 -15 162 -51c31 33 79 51 145 51c60 0 117 -15 158 -48v33h79v-762h-79v481h-266v-481h-79v481h-228v-481h-79v481h-102v66h102v56zM196 547h228v56c0 28 4 53 12 74c-36 20 -75 28 -126 28c-86 0 -114 -23 -114 -97v-61zM503 547
h266v113c-44 32 -89 45 -152 45c-86 0 -114 -23 -114 -97v-61z" />
    <glyph glyph-name="f_i" unicode="fi" horiz-adv-x="605" 
d="M117 603c0 111 63 174 187 174c63 0 123 -16 164 -53v-68c-46 35 -92 49 -158 49c-86 0 -114 -23 -114 -97v-61h345v-547h-79v481h-266v-481h-79v481h-102v66h102v56z" />
    <glyph glyph-name="f_l" unicode="fl" horiz-adv-x="605" 
d="M117 603c0 111 63 174 187 174c60 0 117 -15 158 -48v33h79v-762h-79v481h-266v-481h-79v481h-102v66h102v56zM196 547h266v113c-44 32 -89 45 -152 45c-86 0 -114 -23 -114 -97v-61z" />
    <glyph glyph-name=".notdef" horiz-adv-x="623" 
d="M50 291l86 244h86l45 -131h153c-30 15 -46 36 -46 64c0 44 38 73 94 73s92 -24 103 -67l-69 -14c-5 18 -17 27 -32 27s-23 -8 -23 -21c0 -10 10 -18 27 -23l25 -7c52 -15 74 -37 74 -73c0 -48 -35 -76 -95 -76c-46 0 -93 14 -107 60h-1v-185h-65v185h-19l19 -56h-67
l-17 56h-85l-18 -56h-68zM154 404h49l-24 79zM440 371c0 -21 19 -29 39 -29c16 0 27 8 27 20c0 10 -9 16 -39 25l-19 6l-8 3v-25z" />
    <glyph glyph-name="space" unicode=" " horiz-adv-x="344" 
 />
    <glyph glyph-name="space" unicode="&#xa0;" horiz-adv-x="344" 
 />
    <glyph glyph-name="space" unicode="&#xa0;" horiz-adv-x="344" 
 />
    <glyph glyph-name="A" unicode="A" horiz-adv-x="749" 
d="M7 0l312 762h112l311 -762h-92l-91 230h-368l-91 -230h-93zM223 309h304l-152 383z" />
    <glyph glyph-name="Aacute" unicode="&#xc1;" horiz-adv-x="749" 
d="M7 0l312 762h112l311 -762h-92l-91 230h-368l-91 -230h-93zM223 309h304l-152 383zM338 825l87 153h91l-121 -153h-57z" />
    <glyph glyph-name="Abreve" unicode="&#x102;" horiz-adv-x="749" 
d="M7 0l312 762h112l311 -762h-92l-91 230h-368l-91 -230h-93zM218 977h64c1 -55 39 -95 93 -95s93 40 94 95h64c-1 -91 -66 -155 -158 -155c-91 0 -156 64 -157 155zM223 309h304l-152 383z" />
    <glyph glyph-name="uni01CD" unicode="&#x1cd;" horiz-adv-x="749" 
d="M7 0l312 762h112l311 -762h-92l-91 230h-368l-91 -230h-93zM223 309h304l-152 383zM231 977h82l52 -106l52 106h81l-81 -144h-106z" />
    <glyph glyph-name="Acircumflex" unicode="&#xc2;" horiz-adv-x="749" 
d="M7 0l312 762h112l311 -762h-92l-91 230h-368l-91 -230h-93zM223 309h304l-152 383zM242 833l80 144h106l81 -144h-81l-52 106l-52 -106h-82z" />
    <glyph glyph-name="Adieresis" unicode="&#xc4;" horiz-adv-x="749" 
d="M7 0l312 762h112l311 -762h-92l-91 230h-368l-91 -230h-93zM217 922c0 31 25 55 56 55c32 0 57 -24 57 -55c0 -32 -25 -57 -57 -57c-31 0 -56 25 -56 57zM223 309h304l-152 383zM399 922c0 31 25 55 56 55c32 0 57 -24 57 -55c0 -32 -25 -57 -57 -57c-31 0 -56 25 -56 57
z" />
    <glyph glyph-name="Agrave" unicode="&#xc0;" horiz-adv-x="749" 
d="M7 0l312 762h112l311 -762h-92l-91 230h-368l-91 -230h-93zM223 309h304l-152 383zM225 977h92l86 -153h-56z" />
    <glyph glyph-name="Amacron" unicode="&#x100;" horiz-adv-x="749" 
d="M7 0l312 762h112l311 -762h-92l-91 230h-368l-91 -230h-93zM218 830v65h315v-65h-315zM223 309h304l-152 383z" />
    <glyph glyph-name="Aogonek" unicode="&#x104;" horiz-adv-x="749" 
d="M7 0l312 762h112l311 -762h-13c-40 0 -70 -27 -70 -57c0 -27 21 -47 50 -47c20 0 43 9 59 25v-61c-18 -19 -50 -32 -78 -32c-61 0 -104 37 -104 88c0 37 23 67 64 84l-91 230h-368l-91 -230h-93zM223 309h304l-152 383z" />
    <glyph glyph-name="Aring" unicode="&#xc5;" horiz-adv-x="749" 
d="M7 0l312 762h112l311 -762h-92l-91 230h-368l-91 -230h-93zM223 309h304l-152 383zM289 899c0 49 38 87 86 87s87 -38 87 -87c0 -48 -39 -87 -87 -87s-86 39 -86 87zM330 899c0 -26 19 -46 45 -46s46 20 46 46s-20 47 -46 47s-45 -21 -45 -47z" />
    <glyph glyph-name="Atilde" unicode="&#xc3;" horiz-adv-x="749" 
d="M7 0l312 762h112l311 -762h-92l-91 230h-368l-91 -230h-93zM223 309h304l-152 383zM230 882c5 59 36 95 81 95c62 0 81 -73 127 -73c28 0 49 23 53 60l30 -26c-5 -58 -36 -94 -82 -94c-59 0 -80 73 -125 73c-29 0 -50 -23 -54 -61z" />
    <glyph glyph-name="AE" unicode="&#xc6;" horiz-adv-x="1036" 
d="M7 0l364 762h611v-79h-442v-257h312v-79h-312v-268h446v-79h-527v230h-254l-108 -230h-90zM242 309h217v374h-43z" />
    <glyph glyph-name="AEacute" unicode="&#x1fc;" horiz-adv-x="1036" 
d="M7 0l364 762h611v-79h-442v-257h312v-79h-312v-268h446v-79h-527v230h-254l-108 -230h-90zM242 309h217v374h-43zM624 825l87 153h91l-121 -153h-57z" />
    <glyph glyph-name="uni01E2" unicode="&#x1e2;" horiz-adv-x="1036" 
d="M7 0l364 762h611v-79h-442v-257h312v-79h-312v-268h446v-79h-527v230h-254l-108 -230h-90zM242 309h217v374h-43zM504 830v65h315v-65h-315z" />
    <glyph glyph-name="B" unicode="B" horiz-adv-x="689" 
d="M92 0v762h284c130 0 234 -86 234 -197c0 -83 -38 -145 -104 -172c86 -25 137 -94 137 -191c0 -124 -95 -202 -245 -202h-306zM173 79h225c99 0 162 53 162 137c0 83 -63 136 -162 136h-225v-273zM173 427h204c88 0 149 53 149 128s-61 128 -149 128h-204v-256z" />
    <glyph glyph-name="C" unicode="C" horiz-adv-x="797" 
d="M416 -15c-207 0 -371 174 -371 397c0 222 164 395 371 395c170 0 301 -91 343 -237h-94c-34 99 -130 161 -249 161c-160 0 -287 -140 -287 -319c0 -180 127 -321 287 -321c119 0 216 63 251 164h92c-44 -148 -175 -240 -343 -240z" />
    <glyph glyph-name="Cacute" unicode="&#x106;" horiz-adv-x="797" 
d="M416 -15c-207 0 -371 174 -371 397c0 222 164 395 371 395c170 0 301 -91 343 -237h-94c-34 99 -130 161 -249 161c-160 0 -287 -140 -287 -319c0 -180 127 -321 287 -321c119 0 216 63 251 164h92c-44 -148 -175 -240 -343 -240zM378 825l87 153h91l-121 -153h-57z" />
    <glyph glyph-name="Ccaron" unicode="&#x10c;" horiz-adv-x="797" 
d="M416 -15c-207 0 -371 174 -371 397c0 222 164 395 371 395c170 0 301 -91 343 -237h-94c-34 99 -130 161 -249 161c-160 0 -287 -140 -287 -319c0 -180 127 -321 287 -321c119 0 216 63 251 164h92c-44 -148 -175 -240 -343 -240zM271 977h82l52 -106l52 106h81l-81 -144
h-106z" />
    <glyph glyph-name="Ccedilla" unicode="&#xc7;" horiz-adv-x="797" 
d="M375 -187c-27 4 -56 21 -71 44l11 60c12 -18 34 -32 53 -35c31 -5 53 10 57 35c4 28 -15 53 -48 69v1c-188 20 -332 186 -332 395c0 222 164 395 371 395c170 0 301 -91 343 -237h-94c-34 99 -130 161 -249 161c-160 0 -287 -140 -287 -319c0 -180 127 -321 287 -321
c119 0 216 63 251 164h92c-41 -139 -160 -229 -314 -239v-12c31 -19 47 -54 40 -93c-9 -53 -50 -79 -110 -68z" />
    <glyph glyph-name="Ccircumflex" unicode="&#x108;" horiz-adv-x="797" 
d="M416 -15c-207 0 -371 174 -371 397c0 222 164 395 371 395c170 0 301 -91 343 -237h-94c-34 99 -130 161 -249 161c-160 0 -287 -140 -287 -319c0 -180 127 -321 287 -321c119 0 216 63 251 164h92c-44 -148 -175 -240 -343 -240zM282 833l80 144h106l81 -144h-81
l-52 106l-52 -106h-82z" />
    <glyph glyph-name="Cdotaccent" unicode="&#x10a;" horiz-adv-x="797" 
d="M416 -15c-207 0 -371 174 -371 397c0 222 164 395 371 395c170 0 301 -91 343 -237h-94c-34 99 -130 161 -249 161c-160 0 -287 -140 -287 -319c0 -180 127 -321 287 -321c119 0 216 63 251 164h92c-44 -148 -175 -240 -343 -240zM359 922c0 31 25 55 56 55
c32 0 57 -24 57 -55c0 -32 -25 -57 -57 -57c-31 0 -56 25 -56 57z" />
    <glyph glyph-name="D" unicode="D" horiz-adv-x="778" 
d="M92 0v762h244c244 0 397 -148 397 -382c0 -233 -153 -380 -397 -380h-244zM173 79h161c194 0 316 116 316 301c0 186 -122 303 -316 303h-161v-604z" />
    <glyph glyph-name="Eth" unicode="&#xd0;" horiz-adv-x="823" 
d="M136 0v339h-120v79h120v344h244c244 0 397 -148 397 -382c0 -233 -153 -380 -397 -380h-244zM217 79h161c194 0 316 116 316 301c0 186 -122 303 -316 303h-161v-265h223v-79h-223v-260z" />
    <glyph glyph-name="Dcaron" unicode="&#x10e;" horiz-adv-x="778" 
d="M92 0v762h244c244 0 397 -148 397 -382c0 -233 -153 -380 -397 -380h-244zM173 79h161c194 0 316 116 316 301c0 186 -122 303 -316 303h-161v-604zM219 975h82l52 -106l52 106h81l-81 -144h-106z" />
    <glyph glyph-name="Dcroat" unicode="&#x110;" horiz-adv-x="823" 
d="M136 0v339h-120v79h120v344h244c244 0 397 -148 397 -382c0 -233 -153 -380 -397 -380h-244zM217 79h161c194 0 316 116 316 301c0 186 -122 303 -316 303h-161v-265h223v-79h-223v-260z" />
    <glyph glyph-name="uni1E0C" unicode="&#x1e0c;" horiz-adv-x="778" 
d="M92 0v762h244c244 0 397 -148 397 -382c0 -233 -153 -380 -397 -380h-244zM173 79h161c194 0 316 116 316 301c0 186 -122 303 -316 303h-161v-604zM296 -164c0 31 25 55 56 55c32 0 57 -24 57 -55c0 -32 -25 -57 -57 -57c-31 0 -56 25 -56 57z" />
    <glyph glyph-name="uni1E0E" unicode="&#x1e0e;" horiz-adv-x="778" 
d="M92 0v762h244c244 0 397 -148 397 -382c0 -233 -153 -380 -397 -380h-244zM173 79h161c194 0 316 116 316 301c0 186 -122 303 -316 303h-161v-604zM185 -208v65h315v-65h-315z" />
    <glyph glyph-name="E" unicode="E" horiz-adv-x="669" 
d="M92 0v762h523v-79h-442v-257h322v-79h-322v-268h446v-79h-527z" />
    <glyph glyph-name="Eacute" unicode="&#xc9;" horiz-adv-x="669" 
d="M92 0v762h523v-79h-442v-257h322v-79h-322v-268h446v-79h-527zM308 825l87 153h91l-121 -153h-57z" />
    <glyph glyph-name="Ecaron" unicode="&#x11a;" horiz-adv-x="669" 
d="M92 0v762h523v-79h-442v-257h322v-79h-322v-268h446v-79h-527zM201 977h82l52 -106l52 106h81l-81 -144h-106z" />
    <glyph glyph-name="Ecircumflex" unicode="&#xca;" horiz-adv-x="669" 
d="M92 0v762h523v-79h-442v-257h322v-79h-322v-268h446v-79h-527zM212 833l80 144h106l81 -144h-81l-52 106l-52 -106h-82z" />
    <glyph glyph-name="Edieresis" unicode="&#xcb;" horiz-adv-x="669" 
d="M92 0v762h523v-79h-442v-257h322v-79h-322v-268h446v-79h-527zM187 922c0 31 25 55 56 55c32 0 57 -24 57 -55c0 -32 -25 -57 -57 -57c-31 0 -56 25 -56 57zM369 922c0 31 25 55 56 55c32 0 57 -24 57 -55c0 -32 -25 -57 -57 -57c-31 0 -56 25 -56 57z" />
    <glyph glyph-name="Edotaccent" unicode="&#x116;" horiz-adv-x="669" 
d="M92 0v762h523v-79h-442v-257h322v-79h-322v-268h446v-79h-527zM289 922c0 31 25 55 56 55c32 0 57 -24 57 -55c0 -32 -25 -57 -57 -57c-31 0 -56 25 -56 57z" />
    <glyph glyph-name="Egrave" unicode="&#xc8;" horiz-adv-x="669" 
d="M92 0v762h523v-79h-442v-257h322v-79h-322v-268h446v-79h-527zM195 977h92l86 -153h-56z" />
    <glyph glyph-name="Emacron" unicode="&#x112;" horiz-adv-x="669" 
d="M92 0v762h523v-79h-442v-257h322v-79h-322v-268h446v-79h-527zM188 830v65h315v-65h-315z" />
    <glyph glyph-name="Eogonek" unicode="&#x118;" horiz-adv-x="669" 
d="M92 0v762h523v-79h-442v-257h322v-79h-322v-268h446v-79h5c-40 0 -70 -27 -70 -57c0 -27 21 -47 50 -47c20 0 43 9 59 25v-61c-18 -19 -50 -32 -78 -32c-61 0 -104 37 -104 88c0 37 23 67 64 84h-453z" />
    <glyph glyph-name="uni1EBC" unicode="&#x1ebc;" horiz-adv-x="669" 
d="M92 0v762h523v-79h-442v-257h322v-79h-322v-268h446v-79h-527zM200 882c5 59 36 95 81 95c62 0 81 -73 127 -73c28 0 49 23 53 60l30 -26c-5 -58 -36 -94 -82 -94c-59 0 -80 73 -125 73c-29 0 -50 -23 -54 -61z" />
    <glyph glyph-name="uni018F" unicode="&#x18f;" horiz-adv-x="821" 
d="M412 -15c-217 0 -367 156 -367 384v21h650c-3 185 -124 314 -294 314c-113 0 -209 -68 -248 -175h-93c40 143 171 248 341 248c220 0 375 -160 375 -395c0 -236 -149 -397 -364 -397zM130 322c10 -168 135 -264 282 -264c149 0 257 107 279 264h-561z" />
    <glyph glyph-name="F" unicode="F" horiz-adv-x="633" 
d="M92 0v762h523v-79h-442v-226h313v-79h-313v-378h-81z" />
    <glyph glyph-name="G" unicode="G" horiz-adv-x="820" 
d="M415 -15c-206 0 -370 174 -370 397c0 222 164 395 371 395c170 0 301 -91 343 -237h-94c-34 99 -130 161 -249 161c-160 0 -287 -140 -287 -319c0 -180 127 -321 289 -321c148 0 254 98 260 237h-196v79h278v-378h-82v119c-58 -82 -151 -133 -263 -133z" />
    <glyph glyph-name="Gbreve" unicode="&#x11e;" horiz-adv-x="820" 
d="M415 -15c-206 0 -370 174 -370 397c0 222 164 395 371 395c170 0 301 -91 343 -237h-94c-34 99 -130 161 -249 161c-160 0 -287 -140 -287 -319c0 -180 127 -321 289 -321c148 0 254 98 260 237h-196v79h278v-378h-82v119c-58 -82 -151 -133 -263 -133zM258 977h64
c1 -55 39 -95 93 -95s93 40 94 95h64c-1 -91 -66 -155 -158 -155c-91 0 -156 64 -157 155z" />
    <glyph glyph-name="Gcaron" unicode="&#x1e6;" horiz-adv-x="820" 
d="M415 -15c-206 0 -370 174 -370 397c0 222 164 395 371 395c170 0 301 -91 343 -237h-94c-34 99 -130 161 -249 161c-160 0 -287 -140 -287 -319c0 -180 127 -321 289 -321c148 0 254 98 260 237h-196v79h278v-378h-82v119c-58 -82 -151 -133 -263 -133zM271 977h82
l52 -106l52 106h81l-81 -144h-106z" />
    <glyph glyph-name="Gcircumflex" unicode="&#x11c;" horiz-adv-x="820" 
d="M415 -15c-206 0 -370 174 -370 397c0 222 164 395 371 395c170 0 301 -91 343 -237h-94c-34 99 -130 161 -249 161c-160 0 -287 -140 -287 -319c0 -180 127 -321 289 -321c148 0 254 98 260 237h-196v79h278v-378h-82v119c-58 -82 -151 -133 -263 -133zM282 833l80 144
h106l81 -144h-81l-52 106l-52 -106h-82z" />
    <glyph glyph-name="uni0122" unicode="&#x122;" horiz-adv-x="820" 
d="M415 -15c-206 0 -370 174 -370 397c0 222 164 395 371 395c170 0 301 -91 343 -237h-94c-34 99 -130 161 -249 161c-160 0 -287 -140 -287 -319c0 -180 127 -321 289 -321c148 0 254 98 260 237h-196v79h278v-378h-82v119c-58 -82 -151 -133 -263 -133zM372 -238l9 177
h76l-40 -177h-45z" />
    <glyph glyph-name="Gdotaccent" unicode="&#x120;" horiz-adv-x="820" 
d="M415 -15c-206 0 -370 174 -370 397c0 222 164 395 371 395c170 0 301 -91 343 -237h-94c-34 99 -130 161 -249 161c-160 0 -287 -140 -287 -319c0 -180 127 -321 289 -321c148 0 254 98 260 237h-196v79h278v-378h-82v119c-58 -82 -151 -133 -263 -133zM359 922
c0 31 25 55 56 55c32 0 57 -24 57 -55c0 -32 -25 -57 -57 -57c-31 0 -56 25 -56 57z" />
    <glyph glyph-name="uni1E20" unicode="&#x1e20;" horiz-adv-x="820" 
d="M415 -15c-206 0 -370 174 -370 397c0 222 164 395 371 395c170 0 301 -91 343 -237h-94c-34 99 -130 161 -249 161c-160 0 -287 -140 -287 -319c0 -180 127 -321 289 -321c148 0 254 98 260 237h-196v79h278v-378h-82v119c-58 -82 -151 -133 -263 -133zM258 830v65h315
v-65h-315z" />
    <glyph glyph-name="H" unicode="H" horiz-adv-x="830" 
d="M656 0v340h-483v-340h-81v762h81v-342h483v342h82v-762h-82z" />
    <glyph glyph-name="Hbar" unicode="&#x126;" horiz-adv-x="880" 
d="M32 578v79h85v105h81v-105h483v105h82v-105h85v-79h-85v-578h-82v340h-483v-340h-81v578h-85zM198 420h483v158h-483v-158z" />
    <glyph glyph-name="uni1E2A" unicode="&#x1e2a;" horiz-adv-x="830" 
d="M656 0v340h-483v-340h-81v762h81v-342h483v342h82v-762h-82zM247 -83h64c1 -55 39 -95 93 -95s93 40 94 95h64c-1 -91 -66 -155 -158 -155c-91 0 -156 64 -157 155z" />
    <glyph glyph-name="Hcircumflex" unicode="&#x124;" horiz-adv-x="830" 
d="M656 0v340h-483v-340h-81v762h81v-342h483v342h82v-762h-82zM282 833l80 144h106l81 -144h-81l-52 106l-52 -106h-82z" />
    <glyph glyph-name="uni1E24" unicode="&#x1e24;" horiz-adv-x="830" 
d="M656 0v340h-483v-340h-81v762h81v-342h483v342h82v-762h-82zM348 -164c0 31 25 55 56 55c32 0 57 -24 57 -55c0 -32 -25 -57 -57 -57c-31 0 -56 25 -56 57z" />
    <glyph glyph-name="I" unicode="I" horiz-adv-x="265" 
d="M92 0v762h81v-762h-81z" />
    <glyph glyph-name="IJ" unicode="&#x132;" horiz-adv-x="899" 
d="M92 0v762h81v-762h-81zM282 260v39h81v-49c0 -119 66 -183 184 -183c115 0 187 70 187 184v511h81v-513c0 -163 -103 -264 -267 -264c-171 0 -266 108 -266 275z" />
    <glyph glyph-name="Iacute" unicode="&#xcd;" horiz-adv-x="265" 
d="M92 0v762h81v-762h-81zM96 825l87 153h91l-121 -153h-57z" />
    <glyph glyph-name="uni01CF" unicode="&#x1cf;" horiz-adv-x="265" 
d="M92 0v762h81v-762h-81zM-11 977h82l52 -106l52 106h81l-81 -144h-106z" />
    <glyph glyph-name="Icircumflex" unicode="&#xce;" horiz-adv-x="265" 
d="M92 0v762h81v-762h-81zM0 833l80 144h106l81 -144h-81l-52 106l-52 -106h-82z" />
    <glyph glyph-name="Idieresis" unicode="&#xcf;" horiz-adv-x="265" 
d="M92 0v762h81v-762h-81zM-25 922c0 31 25 55 56 55c32 0 57 -24 57 -55c0 -32 -25 -57 -57 -57c-31 0 -56 25 -56 57zM157 922c0 31 25 55 56 55c32 0 57 -24 57 -55c0 -32 -25 -57 -57 -57c-31 0 -56 25 -56 57z" />
    <glyph glyph-name="Idotaccent" unicode="&#x130;" horiz-adv-x="265" 
d="M92 0v762h81v-762h-81zM77 922c0 31 25 55 56 55c32 0 57 -24 57 -55c0 -32 -25 -57 -57 -57c-31 0 -56 25 -56 57z" />
    <glyph glyph-name="Igrave" unicode="&#xcc;" horiz-adv-x="265" 
d="M92 0v762h81v-762h-81zM-17 977h92l86 -153h-56z" />
    <glyph glyph-name="Imacron" unicode="&#x12a;" horiz-adv-x="265" 
d="M92 0v762h81v-762h-81zM-24 830v65h315v-65h-315z" />
    <glyph glyph-name="Iogonek" unicode="&#x12e;" horiz-adv-x="265" 
d="M92 0v762h81v-762c-40 0 -70 -27 -70 -57c0 -27 21 -47 50 -47c20 0 43 9 59 25v-61c-18 -19 -50 -32 -78 -32c-61 0 -104 37 -104 88c0 37 23 67 64 84h-2z" />
    <glyph glyph-name="Itilde" unicode="&#x128;" horiz-adv-x="265" 
d="M92 0v762h81v-762h-81zM-12 882c5 59 36 95 81 95c62 0 81 -73 127 -73c28 0 49 23 53 60l30 -26c-5 -58 -36 -94 -82 -94c-59 0 -80 73 -125 73c-29 0 -50 -23 -54 -61z" />
    <glyph glyph-name="J" unicode="J" horiz-adv-x="634" 
d="M283 -15c-171 0 -266 108 -266 275v39h81v-49c0 -119 66 -183 184 -183c115 0 187 70 187 184v511h81v-513c0 -163 -103 -264 -267 -264z" />
    <glyph glyph-name="uni004A0301" horiz-adv-x="634" 
d="M283 -15c-171 0 -266 108 -266 275v39h81v-49c0 -119 66 -183 184 -183c115 0 187 70 187 184v511h81v-513c0 -163 -103 -264 -267 -264zM469 825l87 153h91l-121 -153h-57z" />
    <glyph glyph-name="Jcircumflex" unicode="&#x134;" horiz-adv-x="634" 
d="M283 -15c-171 0 -266 108 -266 275v39h81v-49c0 -119 66 -183 184 -183c115 0 187 70 187 184v511h81v-513c0 -163 -103 -264 -267 -264zM373 833l80 144h106l81 -144h-81l-52 106l-52 -106h-82z" />
    <glyph glyph-name="K" unicode="K" horiz-adv-x="678" 
d="M92 0v762h81v-440l396 440h107l-319 -351l293 -411h-94l-252 359l-131 -149v-210h-81z" />
    <glyph glyph-name="uni01E8" unicode="&#x1e8;" horiz-adv-x="678" 
d="M92 0v762h81v-440l396 440h107l-319 -351l293 -411h-94l-252 359l-131 -149v-210h-81zM188 977h82l52 -106l52 106h81l-81 -144h-106z" />
    <glyph glyph-name="uni0136" unicode="&#x136;" horiz-adv-x="678" 
d="M92 0v762h81v-440l396 440h107l-319 -351l293 -411h-94l-252 359l-131 -149v-210h-81zM299 -238l9 177h76l-40 -177h-45z" />
    <glyph glyph-name="uni1E34" unicode="&#x1e34;" horiz-adv-x="678" 
d="M92 0v762h81v-440l396 440h107l-319 -351l293 -411h-94l-252 359l-131 -149v-210h-81zM164 -208v65h315v-65h-315z" />
    <glyph glyph-name="L" unicode="L" horiz-adv-x="589" 
d="M92 0v762h81v-683h409v-79h-490z" />
    <glyph glyph-name="Lacute" unicode="&#x139;" horiz-adv-x="589" 
d="M92 0v762h81v-683h409v-79h-490zM95 825l87 153h91l-121 -153h-57z" />
    <glyph glyph-name="Lcaron" unicode="&#x13d;" horiz-adv-x="589" 
d="M92 0v762h81v-683h409v-79h-490zM319 567l21 194h76l-47 -194h-50z" />
    <glyph glyph-name="uni013B" unicode="&#x13b;" horiz-adv-x="589" 
d="M92 0v762h81v-683h409v-79h-490zM295 -238l9 177h76l-40 -177h-45z" />
    <glyph glyph-name="uni1E36" unicode="&#x1e36;" horiz-adv-x="589" 
d="M92 0v762h81v-683h409v-79h-490zM271 -164c0 31 25 55 56 55c32 0 57 -24 57 -55c0 -32 -25 -57 -57 -57c-31 0 -56 25 -56 57z" />
    <glyph glyph-name="uni1E38" unicode="&#x1e38;" horiz-adv-x="589" 
d="M92 0v762h81v-683h409v-79h-490zM-25 830v65h315v-65h-315zM271 -164c0 31 25 55 56 55c32 0 57 -24 57 -55c0 -32 -25 -57 -57 -57c-31 0 -56 25 -56 57z" />
    <glyph glyph-name="uni1E3A" unicode="&#x1e3a;" horiz-adv-x="589" 
d="M92 0v762h81v-683h409v-79h-490zM160 -208v65h315v-65h-315z" />
    <glyph glyph-name="Lslash" unicode="&#x141;" horiz-adv-x="633" 
d="M18 274v86l118 55v347h81v-309l225 105v-86l-225 -105v-288h409v-79h-490v329z" />
    <glyph glyph-name="M" unicode="M" horiz-adv-x="986" 
d="M92 0v762h128l273 -680l273 680h128v-762h-81v669l-271 -669h-98l-271 669v-669h-81z" />
    <glyph glyph-name="uni1E3E" unicode="&#x1e3e;" horiz-adv-x="986" 
d="M92 0v762h128l273 -680l273 680h128v-762h-81v669l-271 -669h-98l-271 669v-669h-81zM456 825l87 153h91l-121 -153h-57z" />
    <glyph glyph-name="uni1E40" unicode="&#x1e40;" horiz-adv-x="986" 
d="M92 0v762h128l273 -680l273 680h128v-762h-81v669l-271 -669h-98l-271 669v-669h-81zM437 922c0 31 25 55 56 55c32 0 57 -24 57 -55c0 -32 -25 -57 -57 -57c-31 0 -56 25 -56 57z" />
    <glyph glyph-name="uni1E42" unicode="&#x1e42;" horiz-adv-x="986" 
d="M92 0v762h128l273 -680l273 680h128v-762h-81v669l-271 -669h-98l-271 669v-669h-81zM426 -164c0 31 25 55 56 55c32 0 57 -24 57 -55c0 -32 -25 -57 -57 -57c-31 0 -56 25 -56 57z" />
    <glyph glyph-name="N" unicode="N" horiz-adv-x="832" 
d="M92 0v762h119l447 -672v672h82v-762h-120l-447 683v-683h-81z" />
    <glyph glyph-name="Nacute" unicode="&#x143;" horiz-adv-x="832" 
d="M92 0v762h119l447 -672v672h82v-762h-120l-447 683v-683h-81zM379 825l87 153h91l-121 -153h-57z" />
    <glyph glyph-name="Ncaron" unicode="&#x147;" horiz-adv-x="832" 
d="M92 0v762h119l447 -672v672h82v-762h-120l-447 683v-683h-81zM272 977h82l52 -106l52 106h81l-81 -144h-106z" />
    <glyph glyph-name="uni0145" unicode="&#x145;" horiz-adv-x="832" 
d="M92 0v762h119l447 -672v672h82v-762h-120l-447 683v-683h-81zM373 -238l9 177h76l-40 -177h-45z" />
    <glyph glyph-name="uni1E44" unicode="&#x1e44;" horiz-adv-x="832" 
d="M92 0v762h119l447 -672v672h82v-762h-120l-447 683v-683h-81zM360 922c0 31 25 55 56 55c32 0 57 -24 57 -55c0 -32 -25 -57 -57 -57c-31 0 -56 25 -56 57z" />
    <glyph glyph-name="uni1E46" unicode="&#x1e46;" horiz-adv-x="832" 
d="M92 0v762h119l447 -672v672h82v-762h-120l-447 683v-683h-81zM349 -164c0 31 25 55 56 55c32 0 57 -24 57 -55c0 -32 -25 -57 -57 -57c-31 0 -56 25 -56 57z" />
    <glyph glyph-name="uni1E48" unicode="&#x1e48;" horiz-adv-x="832" 
d="M92 0v762h119l447 -672v672h82v-762h-120l-447 683v-683h-81zM238 -208v65h315v-65h-315z" />
    <glyph glyph-name="Ntilde" unicode="&#xd1;" horiz-adv-x="832" 
d="M92 0v762h119l447 -672v672h82v-762h-120l-447 683v-683h-81zM271 882c5 59 36 95 81 95c62 0 81 -73 127 -73c28 0 49 23 53 60l30 -26c-5 -58 -36 -94 -82 -94c-59 0 -80 73 -125 73c-29 0 -50 -23 -54 -61z" />
    <glyph glyph-name="O" unicode="O" horiz-adv-x="884" 
d="M442 -15c-236 0 -397 160 -397 397c0 235 161 395 397 395s397 -160 397 -396s-161 -396 -397 -396zM129 382c0 -187 132 -320 313 -320c182 0 314 132 314 319c0 186 -131 320 -314 320c-181 0 -313 -133 -313 -319z" />
    <glyph glyph-name="Oacute" unicode="&#xd3;" horiz-adv-x="884" 
d="M442 -15c-236 0 -397 160 -397 397c0 235 161 395 397 395s397 -160 397 -396s-161 -396 -397 -396zM129 382c0 -187 132 -320 313 -320c182 0 314 132 314 319c0 186 -131 320 -314 320c-181 0 -313 -133 -313 -319zM405 825l87 153h91l-121 -153h-57z" />
    <glyph glyph-name="uni01D1" unicode="&#x1d1;" horiz-adv-x="884" 
d="M442 -15c-236 0 -397 160 -397 397c0 235 161 395 397 395s397 -160 397 -396s-161 -396 -397 -396zM129 382c0 -187 132 -320 313 -320c182 0 314 132 314 319c0 186 -131 320 -314 320c-181 0 -313 -133 -313 -319zM298 977h82l52 -106l52 106h81l-81 -144h-106z" />
    <glyph glyph-name="Ocircumflex" unicode="&#xd4;" horiz-adv-x="884" 
d="M442 -15c-236 0 -397 160 -397 397c0 235 161 395 397 395s397 -160 397 -396s-161 -396 -397 -396zM129 382c0 -187 132 -320 313 -320c182 0 314 132 314 319c0 186 -131 320 -314 320c-181 0 -313 -133 -313 -319zM309 833l80 144h106l81 -144h-81l-52 106l-52 -106
h-82z" />
    <glyph glyph-name="Odieresis" unicode="&#xd6;" horiz-adv-x="884" 
d="M442 -15c-236 0 -397 160 -397 397c0 235 161 395 397 395s397 -160 397 -396s-161 -396 -397 -396zM129 382c0 -187 132 -320 313 -320c182 0 314 132 314 319c0 186 -131 320 -314 320c-181 0 -313 -133 -313 -319zM284 922c0 31 25 55 56 55c32 0 57 -24 57 -55
c0 -32 -25 -57 -57 -57c-31 0 -56 25 -56 57zM466 922c0 31 25 55 56 55c32 0 57 -24 57 -55c0 -32 -25 -57 -57 -57c-31 0 -56 25 -56 57z" />
    <glyph glyph-name="Ograve" unicode="&#xd2;" horiz-adv-x="884" 
d="M442 -15c-236 0 -397 160 -397 397c0 235 161 395 397 395s397 -160 397 -396s-161 -396 -397 -396zM129 382c0 -187 132 -320 313 -320c182 0 314 132 314 319c0 186 -131 320 -314 320c-181 0 -313 -133 -313 -319zM292 977h92l86 -153h-56z" />
    <glyph glyph-name="Ohungarumlaut" unicode="&#x150;" horiz-adv-x="884" 
d="M442 -15c-236 0 -397 160 -397 397c0 235 161 395 397 395s397 -160 397 -396s-161 -396 -397 -396zM129 382c0 -187 132 -320 313 -320c182 0 314 132 314 319c0 186 -131 320 -314 320c-181 0 -313 -133 -313 -319zM338 824l87 153h91l-121 -153h-57zM458 824l87 153
h91l-121 -153h-57z" />
    <glyph glyph-name="Omacron" unicode="&#x14c;" horiz-adv-x="884" 
d="M442 -15c-236 0 -397 160 -397 397c0 235 161 395 397 395s397 -160 397 -396s-161 -396 -397 -396zM129 382c0 -187 132 -320 313 -320c182 0 314 132 314 319c0 186 -131 320 -314 320c-181 0 -313 -133 -313 -319zM285 830v65h315v-65h-315z" />
    <glyph glyph-name="uni01EA" unicode="&#x1ea;" horiz-adv-x="884" 
d="M442 62c182 0 314 132 314 319c0 186 -131 320 -314 320c-181 0 -313 -133 -313 -319c0 -187 132 -320 313 -320zM45 382c0 235 161 395 397 395s397 -160 397 -396c0 -205 -122 -353 -309 -388h2h-2l-23 -4c-27 -8 -45 -30 -45 -53c0 -27 21 -47 50 -47c20 0 43 9 59 25
v-61c-18 -19 -50 -32 -78 -32c-61 0 -104 37 -104 88c0 32 17 58 48 76c-233 2 -392 162 -392 397z" />
    <glyph glyph-name="Oslash" unicode="&#xd8;" horiz-adv-x="856" 
d="M2 0l114 123c-54 67 -85 156 -85 259c0 235 161 395 397 395c91 0 171 -24 234 -66l85 91h107l-132 -142c66 -69 103 -165 103 -279c0 -236 -161 -396 -397 -396c-101 0 -189 30 -256 82l-62 -67h-108zM114 382c0 -76 22 -144 60 -197l431 465c-49 32 -110 51 -178 51
c-181 0 -313 -133 -313 -319zM229 128c53 -42 121 -66 198 -66c182 0 314 132 314 319c0 86 -28 161 -76 217z" />
    <glyph glyph-name="Oslashacute" unicode="&#x1fe;" horiz-adv-x="856" 
d="M2 0l114 123c-54 67 -85 156 -85 259c0 235 161 395 397 395c91 0 171 -24 234 -66l85 91h107l-132 -142c66 -69 103 -165 103 -279c0 -236 -161 -396 -397 -396c-101 0 -189 30 -256 82l-62 -67h-108zM114 382c0 -76 22 -144 60 -197l431 465c-49 32 -110 51 -178 51
c-181 0 -313 -133 -313 -319zM229 128c53 -42 121 -66 198 -66c182 0 314 132 314 319c0 86 -28 161 -76 217zM403 825l87 153h91l-121 -153h-57z" />
    <glyph glyph-name="Otilde" unicode="&#xd5;" horiz-adv-x="884" 
d="M442 -15c-236 0 -397 160 -397 397c0 235 161 395 397 395s397 -160 397 -396s-161 -396 -397 -396zM129 382c0 -187 132 -320 313 -320c182 0 314 132 314 319c0 186 -131 320 -314 320c-181 0 -313 -133 -313 -319zM297 882c5 59 36 95 81 95c62 0 81 -73 127 -73
c28 0 49 23 53 60l30 -26c-5 -58 -36 -94 -82 -94c-59 0 -80 73 -125 73c-29 0 -50 -23 -54 -61z" />
    <glyph glyph-name="OE" unicode="&#x152;" horiz-adv-x="1333" 
d="M442 -15c-236 0 -397 160 -397 397c0 235 161 395 397 395c134 0 244 -52 314 -140v125h523v-79h-442v-257h322v-79h-321l-1 -11v-257h446v-79h-527v125c-70 -88 -180 -140 -314 -140zM129 382c0 -187 132 -320 313 -320c182 0 314 132 314 319c0 186 -131 320 -314 320
c-181 0 -313 -133 -313 -319z" />
    <glyph glyph-name="P" unicode="P" horiz-adv-x="641" 
d="M92 0v762h270c160 0 261 -90 261 -234s-101 -234 -261 -234h-189v-294h-81zM173 373h189c112 0 182 59 182 155s-70 155 -182 155h-189v-310z" />
    <glyph glyph-name="Thorn" unicode="&#xde;" horiz-adv-x="648" 
d="M92 0v762h74v-147h203c160 0 261 -90 261 -234s-101 -234 -261 -234h-203v-147h-74zM166 226h203c113 0 182 59 182 155s-69 155 -182 155h-203v-310z" />
    <glyph glyph-name="Q" unicode="Q" horiz-adv-x="845" 
d="M734 -1l-55 55c-64 -44 -145 -69 -237 -69c-236 0 -397 160 -397 397c0 235 161 395 397 395s397 -160 397 -396c0 -113 -37 -208 -101 -277l105 -105h-109zM129 382c0 -187 132 -320 313 -320c68 0 129 18 178 51l-208 208h109l158 -158c48 56 77 131 77 218
c0 186 -131 320 -314 320c-181 0 -313 -133 -313 -319z" />
    <glyph glyph-name="R" unicode="R" horiz-adv-x="666" 
d="M565 0l-173 295c-10 -1 -20 -1 -30 -1h-189v-294h-81v762h270c160 0 261 -90 261 -234c0 -109 -58 -188 -156 -219l197 -309h-99zM173 373h189c112 0 182 59 182 155s-70 155 -182 155h-189v-310z" />
    <glyph glyph-name="Racute" unicode="&#x154;" horiz-adv-x="666" 
d="M565 0l-173 295c-10 -1 -20 -1 -30 -1h-189v-294h-81v762h270c160 0 261 -90 261 -234c0 -109 -58 -188 -156 -219l197 -309h-99zM173 373h189c112 0 182 59 182 155s-70 155 -182 155h-189v-310zM268 825l87 153h91l-121 -153h-57z" />
    <glyph glyph-name="Rcaron" unicode="&#x158;" horiz-adv-x="666" 
d="M565 0l-173 295c-10 -1 -20 -1 -30 -1h-189v-294h-81v762h270c160 0 261 -90 261 -234c0 -109 -58 -188 -156 -219l197 -309h-99zM161 977h82l52 -106l52 106h81l-81 -144h-106zM173 373h189c112 0 182 59 182 155s-70 155 -182 155h-189v-310z" />
    <glyph glyph-name="uni0156" unicode="&#x156;" horiz-adv-x="666" 
d="M565 0l-173 295c-10 -1 -20 -1 -30 -1h-189v-294h-81v762h270c160 0 261 -90 261 -234c0 -109 -58 -188 -156 -219l197 -309h-99zM173 373h189c112 0 182 59 182 155s-70 155 -182 155h-189v-310zM340 -238l9 177h76l-40 -177h-45z" />
    <glyph glyph-name="uni1E5C" unicode="&#x1e5c;" horiz-adv-x="666" 
d="M565 0l-173 295c-10 -1 -20 -1 -30 -1h-189v-294h-81v762h270c160 0 261 -90 261 -234c0 -109 -58 -188 -156 -219l197 -309h-99zM148 830v65h315v-65h-315zM173 373h189c112 0 182 59 182 155s-70 155 -182 155h-189v-310zM316 -164c0 31 25 55 56 55
c32 0 57 -24 57 -55c0 -32 -25 -57 -57 -57c-31 0 -56 25 -56 57z" />
    <glyph glyph-name="uni1E5E" unicode="&#x1e5e;" horiz-adv-x="666" 
d="M565 0l-173 295c-10 -1 -20 -1 -30 -1h-189v-294h-81v762h270c160 0 261 -90 261 -234c0 -109 -58 -188 -156 -219l197 -309h-99zM173 373h189c112 0 182 59 182 155s-70 155 -182 155h-189v-310zM205 -208v65h315v-65h-315z" />
    <glyph glyph-name="S" unicode="S" horiz-adv-x="702" 
d="M372 -15c-181 0 -305 101 -322 263h93c13 -117 104 -189 236 -189c126 0 206 52 206 137c0 66 -51 110 -162 137l-137 33c-143 34 -214 100 -214 198c0 133 111 213 287 213c147 0 278 -103 295 -238h-90c-14 92 -109 163 -216 163c-116 0 -190 -51 -190 -135
c0 -59 57 -104 174 -135l136 -36c129 -34 201 -107 201 -209c0 -125 -115 -202 -297 -202z" />
    <glyph glyph-name="Sacute" unicode="&#x15a;" horiz-adv-x="702" 
d="M372 -15c-181 0 -305 101 -322 263h93c13 -117 104 -189 236 -189c126 0 206 52 206 137c0 66 -51 110 -162 137l-137 33c-143 34 -214 100 -214 198c0 133 111 213 287 213c147 0 278 -103 295 -238h-90c-14 92 -109 163 -216 163c-116 0 -190 -51 -190 -135
c0 -59 57 -104 174 -135l136 -36c129 -34 201 -107 201 -209c0 -125 -115 -202 -297 -202zM322 825l87 153h91l-121 -153h-57z" />
    <glyph glyph-name="uniA78B" unicode="&#xa78b;" horiz-adv-x="223" 
d="M90 273l-26 489h99l-26 -489h-47z" />
    <glyph glyph-name="Scaron" unicode="&#x160;" horiz-adv-x="702" 
d="M372 -15c-181 0 -305 101 -322 263h93c13 -117 104 -189 236 -189c126 0 206 52 206 137c0 66 -51 110 -162 137l-137 33c-143 34 -214 100 -214 198c0 133 111 213 287 213c147 0 278 -103 295 -238h-90c-14 92 -109 163 -216 163c-116 0 -190 -51 -190 -135
c0 -59 57 -104 174 -135l136 -36c129 -34 201 -107 201 -209c0 -125 -115 -202 -297 -202zM215 977h82l52 -106l52 106h81l-81 -144h-106z" />
    <glyph glyph-name="Scedilla" unicode="&#x15e;" horiz-adv-x="702" 
d="M338 -188c-27 4 -56 21 -71 44l11 60c12 -18 34 -32 53 -35c31 -5 53 10 57 35c4 28 -15 53 -48 69v1c-164 11 -274 110 -290 262h93c13 -117 104 -189 236 -189c126 0 206 52 206 137c0 66 -51 110 -162 137l-137 33c-143 34 -214 100 -214 198c0 133 111 213 287 213
c147 0 278 -103 295 -238h-90c-14 92 -109 163 -216 163c-116 0 -190 -51 -190 -135c0 -59 57 -104 174 -135l136 -36c129 -34 201 -107 201 -209c0 -117 -100 -191 -261 -201v-13c31 -19 47 -54 40 -93c-9 -53 -50 -79 -110 -68z" />
    <glyph glyph-name="Scircumflex" unicode="&#x15c;" horiz-adv-x="702" 
d="M372 -15c-181 0 -305 101 -322 263h93c13 -117 104 -189 236 -189c126 0 206 52 206 137c0 66 -51 110 -162 137l-137 33c-143 34 -214 100 -214 198c0 133 111 213 287 213c147 0 278 -103 295 -238h-90c-14 92 -109 163 -216 163c-116 0 -190 -51 -190 -135
c0 -59 57 -104 174 -135l136 -36c129 -34 201 -107 201 -209c0 -125 -115 -202 -297 -202zM226 833l80 144h106l81 -144h-81l-52 106l-52 -106h-82z" />
    <glyph glyph-name="uni0218" unicode="&#x218;" horiz-adv-x="702" 
d="M372 -15c-181 0 -305 101 -322 263h93c13 -117 104 -189 236 -189c126 0 206 52 206 137c0 66 -51 110 -162 137l-137 33c-143 34 -214 100 -214 198c0 133 111 213 287 213c147 0 278 -103 295 -238h-90c-14 92 -109 163 -216 163c-116 0 -190 -51 -190 -135
c0 -59 57 -104 174 -135l136 -36c129 -34 201 -107 201 -209c0 -125 -115 -202 -297 -202zM335 -238l9 177h76l-40 -177h-45z" />
    <glyph glyph-name="uni1E62" unicode="&#x1e62;" horiz-adv-x="702" 
d="M372 -15c-181 0 -305 101 -322 263h93c13 -117 104 -189 236 -189c126 0 206 52 206 137c0 66 -51 110 -162 137l-137 33c-143 34 -214 100 -214 198c0 133 111 213 287 213c147 0 278 -103 295 -238h-90c-14 92 -109 163 -216 163c-116 0 -190 -51 -190 -135
c0 -59 57 -104 174 -135l136 -36c129 -34 201 -107 201 -209c0 -125 -115 -202 -297 -202zM311 -164c0 31 25 55 56 55c32 0 57 -24 57 -55c0 -32 -25 -57 -57 -57c-31 0 -56 25 -56 57z" />
    <glyph glyph-name="uni1E9E" unicode="&#x1e9e;" horiz-adv-x="695" 
d="M92 542c0 136 87 220 224 220h276v-81l-144 -257c125 -17 201 -92 201 -203c0 -136 -103 -221 -267 -221h-125v81h125c115 0 188 54 188 140c0 83 -79 136 -205 136h-37l171 326h-179c-90 0 -146 -54 -146 -141v-542h-82v542z" />
    <glyph glyph-name="T" unicode="T" horiz-adv-x="690" 
d="M305 0v683h-291v79h662v-79h-290v-683h-81z" />
    <glyph glyph-name="Tcaron" unicode="&#x164;" horiz-adv-x="690" 
d="M305 0v683h-291v79h662v-79h-290v-683h-81zM201 977h82l52 -106l52 106h81l-81 -144h-106z" />
    <glyph glyph-name="uni0162" unicode="&#x162;" horiz-adv-x="690" 
d="M305 0v683h-291v79h662v-79h-290v-695c31 -19 47 -54 40 -93c-9 -53 -50 -79 -110 -68c-27 4 -56 21 -71 44l11 60c12 -18 34 -32 53 -35c31 -5 53 10 57 35c4 28 -15 53 -48 69h-13z" />
    <glyph glyph-name="uni021A" unicode="&#x21a;" horiz-adv-x="690" 
d="M305 0v683h-291v79h662v-79h-290v-683h-81zM302 -238l9 177h76l-40 -177h-45z" />
    <glyph glyph-name="uni1E6C" unicode="&#x1e6c;" horiz-adv-x="690" 
d="M305 0v683h-291v79h662v-79h-290v-683h-81zM278 -164c0 31 25 55 56 55c32 0 57 -24 57 -55c0 -32 -25 -57 -57 -57c-31 0 -56 25 -56 57z" />
    <glyph glyph-name="uni1E6E" unicode="&#x1e6e;" horiz-adv-x="690" 
d="M305 0v683h-291v79h662v-79h-290v-683h-81zM167 -208v65h315v-65h-315z" />
    <glyph glyph-name="U" unicode="U" horiz-adv-x="807" 
d="M404 -15c-205 0 -320 121 -320 340v437h81v-437c0 -167 86 -258 239 -258s238 91 238 258v437h81v-437c0 -219 -115 -340 -319 -340z" />
    <glyph glyph-name="Uacute" unicode="&#xda;" horiz-adv-x="807" 
d="M404 -15c-205 0 -320 121 -320 340v437h81v-437c0 -167 86 -258 239 -258s238 91 238 258v437h81v-437c0 -219 -115 -340 -319 -340zM367 825l87 153h91l-121 -153h-57z" />
    <glyph glyph-name="Ubreve" unicode="&#x16c;" horiz-adv-x="807" 
d="M404 -15c-205 0 -320 121 -320 340v437h81v-437c0 -167 86 -258 239 -258s238 91 238 258v437h81v-437c0 -219 -115 -340 -319 -340zM247 977h64c1 -55 39 -95 93 -95s93 40 94 95h64c-1 -91 -66 -155 -158 -155c-91 0 -156 64 -157 155z" />
    <glyph glyph-name="uni01D3" unicode="&#x1d3;" horiz-adv-x="807" 
d="M404 -15c-205 0 -320 121 -320 340v437h81v-437c0 -167 86 -258 239 -258s238 91 238 258v437h81v-437c0 -219 -115 -340 -319 -340zM260 977h82l52 -106l52 106h81l-81 -144h-106z" />
    <glyph glyph-name="Ucircumflex" unicode="&#xdb;" horiz-adv-x="807" 
d="M404 -15c-205 0 -320 121 -320 340v437h81v-437c0 -167 86 -258 239 -258s238 91 238 258v437h81v-437c0 -219 -115 -340 -319 -340zM271 833l80 144h106l81 -144h-81l-52 106l-52 -106h-82z" />
    <glyph glyph-name="Udieresis" unicode="&#xdc;" horiz-adv-x="807" 
d="M404 -15c-205 0 -320 121 -320 340v437h81v-437c0 -167 86 -258 239 -258s238 91 238 258v437h81v-437c0 -219 -115 -340 -319 -340zM246 922c0 31 25 55 56 55c32 0 57 -24 57 -55c0 -32 -25 -57 -57 -57c-31 0 -56 25 -56 57zM428 922c0 31 25 55 56 55
c32 0 57 -24 57 -55c0 -32 -25 -57 -57 -57c-31 0 -56 25 -56 57z" />
    <glyph glyph-name="Ugrave" unicode="&#xd9;" horiz-adv-x="807" 
d="M404 -15c-205 0 -320 121 -320 340v437h81v-437c0 -167 86 -258 239 -258s238 91 238 258v437h81v-437c0 -219 -115 -340 -319 -340zM254 977h92l86 -153h-56z" />
    <glyph glyph-name="Uhungarumlaut" unicode="&#x170;" horiz-adv-x="807" 
d="M404 -15c-205 0 -320 121 -320 340v437h81v-437c0 -167 86 -258 239 -258s238 91 238 258v437h81v-437c0 -219 -115 -340 -319 -340zM300 824l87 153h91l-121 -153h-57zM420 824l87 153h91l-121 -153h-57z" />
    <glyph glyph-name="Umacron" unicode="&#x16a;" horiz-adv-x="807" 
d="M404 -15c-205 0 -320 121 -320 340v437h81v-437c0 -167 86 -258 239 -258s238 91 238 258v437h81v-437c0 -219 -115 -340 -319 -340zM247 830v65h315v-65h-315z" />
    <glyph glyph-name="Uogonek" unicode="&#x172;" horiz-adv-x="807" 
d="M426 -183c-61 0 -104 37 -104 88c0 35 20 63 56 81c-189 9 -294 129 -294 339v437h81v-437c0 -167 86 -258 239 -258s238 91 238 258v437h81v-437c0 -204 -99 -323 -277 -338c-30 -7 -51 -30 -51 -55c0 -27 21 -47 50 -47c20 0 43 9 59 25v-61c-18 -19 -50 -32 -78 -32z
" />
    <glyph glyph-name="Uring" unicode="&#x16e;" horiz-adv-x="807" 
d="M404 -15c-205 0 -320 121 -320 340v437h81v-437c0 -167 86 -258 239 -258s238 91 238 258v437h81v-437c0 -219 -115 -340 -319 -340zM318 899c0 49 38 87 86 87s87 -38 87 -87c0 -48 -39 -87 -87 -87s-86 39 -86 87zM359 899c0 -26 19 -46 45 -46s46 20 46 46
s-20 47 -46 47s-45 -21 -45 -47z" />
    <glyph glyph-name="Utilde" unicode="&#x168;" horiz-adv-x="807" 
d="M404 -15c-205 0 -320 121 -320 340v437h81v-437c0 -167 86 -258 239 -258s238 91 238 258v437h81v-437c0 -219 -115 -340 -319 -340zM259 882c5 59 36 95 81 95c62 0 81 -73 127 -73c28 0 49 23 53 60l30 -26c-5 -58 -36 -94 -82 -94c-59 0 -80 73 -125 73
c-29 0 -50 -23 -54 -61z" />
    <glyph glyph-name="V" unicode="V" horiz-adv-x="741" 
d="M315 0l-312 762h93l275 -692l275 692h92l-311 -762h-112z" />
    <glyph glyph-name="W" unicode="W" horiz-adv-x="1013" 
d="M215 0l-212 762h86l185 -686l180 686h109l191 -684l171 684h85l-196 -762h-121l-184 660l-172 -660h-122z" />
    <glyph glyph-name="Wacute" unicode="&#x1e82;" horiz-adv-x="1013" 
d="M215 0l-212 762h86l185 -686l180 686h109l191 -684l171 684h85l-196 -762h-121l-184 660l-172 -660h-122zM465 825l87 153h91l-121 -153h-57z" />
    <glyph glyph-name="Wcircumflex" unicode="&#x174;" horiz-adv-x="1013" 
d="M215 0l-212 762h86l185 -686l180 686h109l191 -684l171 684h85l-196 -762h-121l-184 660l-172 -660h-122zM369 833l80 144h106l81 -144h-81l-52 106l-52 -106h-82z" />
    <glyph glyph-name="Wdieresis" unicode="&#x1e84;" horiz-adv-x="1013" 
d="M215 0l-212 762h86l185 -686l180 686h109l191 -684l171 684h85l-196 -762h-121l-184 660l-172 -660h-122zM344 922c0 31 25 55 56 55c32 0 57 -24 57 -55c0 -32 -25 -57 -57 -57c-31 0 -56 25 -56 57zM526 922c0 31 25 55 56 55c32 0 57 -24 57 -55
c0 -32 -25 -57 -57 -57c-31 0 -56 25 -56 57z" />
    <glyph glyph-name="Wgrave" unicode="&#x1e80;" horiz-adv-x="1013" 
d="M215 0l-212 762h86l185 -686l180 686h109l191 -684l171 684h85l-196 -762h-121l-184 660l-172 -660h-122zM352 977h92l86 -153h-56z" />
    <glyph glyph-name="X" unicode="X" horiz-adv-x="649" 
d="M2 0l273 384l-267 378h105l211 -312l213 312h105l-268 -378l273 -384h-104l-218 317l-218 -317h-105z" />
    <glyph glyph-name="Y" unicode="Y" horiz-adv-x="677" 
d="M298 0v285l-295 477h97l239 -401l239 401h96l-295 -477v-285h-81z" />
    <glyph glyph-name="Yacute" unicode="&#xdd;" horiz-adv-x="677" 
d="M298 0v285l-295 477h97l239 -401l239 401h96l-295 -477v-285h-81zM302 825l87 153h91l-121 -153h-57z" />
    <glyph glyph-name="Ycircumflex" unicode="&#x176;" horiz-adv-x="677" 
d="M298 0v285l-295 477h97l239 -401l239 401h96l-295 -477v-285h-81zM206 833l80 144h106l81 -144h-81l-52 106l-52 -106h-82z" />
    <glyph glyph-name="Ydieresis" unicode="&#x178;" horiz-adv-x="677" 
d="M298 0v285l-295 477h97l239 -401l239 401h96l-295 -477v-285h-81zM181 922c0 31 25 55 56 55c32 0 57 -24 57 -55c0 -32 -25 -57 -57 -57c-31 0 -56 25 -56 57zM363 922c0 31 25 55 56 55c32 0 57 -24 57 -55c0 -32 -25 -57 -57 -57c-31 0 -56 25 -56 57z" />
    <glyph glyph-name="uni1E8E" unicode="&#x1e8e;" horiz-adv-x="677" 
d="M298 0v285l-295 477h97l239 -401l239 401h96l-295 -477v-285h-81zM283 922c0 31 25 55 56 55c32 0 57 -24 57 -55c0 -32 -25 -57 -57 -57c-31 0 -56 25 -56 57z" />
    <glyph glyph-name="Ygrave" unicode="&#x1ef2;" horiz-adv-x="677" 
d="M298 0v285l-295 477h97l239 -401l239 401h96l-295 -477v-285h-81zM189 977h92l86 -153h-56z" />
    <glyph glyph-name="uni0232" unicode="&#x232;" horiz-adv-x="677" 
d="M298 0v285l-295 477h97l239 -401l239 401h96l-295 -477v-285h-81zM182 830v65h315v-65h-315z" />
    <glyph glyph-name="uni1EF8" unicode="&#x1ef8;" horiz-adv-x="677" 
d="M298 0v285l-295 477h97l239 -401l239 401h96l-295 -477v-285h-81zM194 882c5 59 36 95 81 95c62 0 81 -73 127 -73c28 0 49 23 53 60l30 -26c-5 -58 -36 -94 -82 -94c-59 0 -80 73 -125 73c-29 0 -50 -23 -54 -61z" />
    <glyph glyph-name="Z" unicode="Z" horiz-adv-x="695" 
d="M35 0v100l545 583h-516v79h597v-100l-544 -583h546v-79h-628z" />
    <glyph glyph-name="Zacute" unicode="&#x179;" horiz-adv-x="695" 
d="M35 0v100l545 583h-516v79h597v-100l-544 -583h546v-79h-628zM313 825l87 153h91l-121 -153h-57z" />
    <glyph glyph-name="Zcaron" unicode="&#x17d;" horiz-adv-x="695" 
d="M35 0v100l545 583h-516v79h597v-100l-544 -583h546v-79h-628zM206 977h82l52 -106l52 106h81l-81 -144h-106z" />
    <glyph glyph-name="Zdotaccent" unicode="&#x17b;" horiz-adv-x="695" 
d="M35 0v100l545 583h-516v79h597v-100l-544 -583h546v-79h-628zM294 922c0 31 25 55 56 55c32 0 57 -24 57 -55c0 -32 -25 -57 -57 -57c-31 0 -56 25 -56 57z" />
    <glyph glyph-name="uni1E92" unicode="&#x1e92;" horiz-adv-x="695" 
d="M35 0v100l545 583h-516v79h597v-100l-544 -583h546v-79h-628zM283 -164c0 31 25 55 56 55c32 0 57 -24 57 -55c0 -32 -25 -57 -57 -57c-31 0 -56 25 -56 57z" />
    <glyph glyph-name="uni1E94" unicode="&#x1e94;" horiz-adv-x="695" 
d="M35 0v100l545 583h-516v79h597v-100l-544 -583h546v-79h-628zM172 -208v65h315v-65h-315z" />
    <glyph glyph-name="uni013B.loclMAH" horiz-adv-x="589" 
d="M92 0v762h81v-683h409v-79h-490zM295 -238l9 177h76l-40 -177h-45z" />
    <glyph glyph-name="uni0145.loclMAH" horiz-adv-x="832" 
d="M92 0v762h119l447 -672v672h82v-762h-120l-447 683v-683h-81zM373 -238l9 177h76l-40 -177h-45z" />
    <glyph glyph-name="Q.ss01" horiz-adv-x="884" 
d="M600 -159c-110 0 -208 72 -243 151c-189 34 -312 183 -312 390c0 235 161 395 397 395s397 -160 397 -396c0 -225 -146 -381 -364 -395c26 -37 72 -61 129 -61c76 0 126 42 161 72v-97c-28 -32 -101 -59 -165 -59zM129 382c0 -187 132 -320 313 -320
c182 0 314 132 314 319c0 186 -131 320 -314 320c-181 0 -313 -133 -313 -319z" />
    <glyph glyph-name="L.ss02" horiz-adv-x="536" 
d="M92 0v762h81v-683h356v-79h-437z" />
    <glyph glyph-name="Lacute.ss02" horiz-adv-x="536" 
d="M92 0v762h81v-683h356v-79h-437zM95 825l87 153h91l-121 -153h-57z" />
    <glyph glyph-name="Lcaron.ss02" horiz-adv-x="536" 
d="M92 0v762h81v-683h356v-79h-437zM329 567l21 194h76l-47 -194h-50z" />
    <glyph glyph-name="uni013B.ss02" horiz-adv-x="536" 
d="M92 0v762h81v-683h356v-79h-437zM265 -238l9 177h76l-40 -177h-45z" />
    <glyph glyph-name="uni1E36.ss02" horiz-adv-x="536" 
d="M92 0v762h81v-683h356v-79h-437zM241 -164c0 31 25 55 56 55c32 0 57 -24 57 -55c0 -32 -25 -57 -57 -57c-31 0 -56 25 -56 57z" />
    <glyph glyph-name="uni1E38.ss02" horiz-adv-x="536" 
d="M92 0v762h81v-683h356v-79h-437zM-25 830v65h315v-65h-315zM241 -164c0 31 25 55 56 55c32 0 57 -24 57 -55c0 -32 -25 -57 -57 -57c-31 0 -56 25 -56 57z" />
    <glyph glyph-name="Lslash.ss02" horiz-adv-x="536" 
d="M92 0v309l-74 -35v86l74 35v367h81v-330l269 126v-86l-269 -126v-267h356v-79h-437z" />
    <glyph glyph-name="L_i_n_k_t_r_e_e_one" horiz-adv-x="820" 
d="M472 856v-209l143 147l83 -85l-150 -143h211v-118h-212l151 -147l-83 -83l-205 206l-205 -206l-83 83l151 147h-212v118h211l-150 143l83 85l143 -147v209h124zM348 -1v280h124v-280h-124z" />
    <glyph glyph-name="L_i_n_k_t_r_e_e_two" horiz-adv-x="4412" 
d="M92 0v762h123v-648h340v-114h-463zM599 687c0 42 34 75 77 75c42 0 77 -33 77 -75c0 -43 -35 -77 -77 -77c-43 0 -77 34 -77 77zM616 0v549h118v-549h-118zM803 0v549h118v-76c35 58 95 91 174 91c128 0 208 -100 208 -259v-305h-118v295c0 103 -45 161 -126 161
c-89 0 -138 -61 -138 -171v-285h-118zM1365 0v762h118v-482l220 269h148l-235 -275l235 -274h-148l-220 268v-268h-118zM1897 169v520h120v-140h140v-98h-140v-283c0 -36 22 -58 56 -58h79v-110h-95c-103 0 -160 61 -160 169zM2209 0v549h118v-68c29 52 78 83 138 83
c18 0 28 -1 41 -5v-110c-8 2 -20 4 -44 4c-87 0 -135 -73 -135 -199v-254h-118zM2514 275c0 159 103 289 268 289c130 0 271 -79 271 -302v-16h-423c9 -98 66 -152 161 -152c68 0 126 37 139 88h120c-12 -110 -126 -197 -259 -197c-170 0 -277 111 -277 290zM2639 344h288
c-17 68 -70 111 -145 111c-72 0 -123 -44 -143 -111zM3105 275c0 159 103 289 268 289c130 0 271 -79 271 -302v-16h-423c9 -98 66 -152 161 -152c68 0 126 37 139 88h120c-12 -110 -126 -197 -259 -197c-170 0 -277 111 -277 290zM3230 344h288c-17 68 -70 111 -145 111
c-72 0 -123 -44 -143 -111zM3673 448v118h211l-150 143l83 85l143 -147v209h124v-209l143 147l83 -85l-150 -143h211v-118h-212l151 -147l-83 -83l-205 206l-205 -206l-83 83l151 147h-212zM3960 -1v280h124v-280h-124z" />
    <glyph glyph-name="L_i_n_k_t_r_e_e_three" horiz-adv-x="4552" 
d="M84 0v762h146v-630h331v-132h-477zM608 686c0 45 37 79 86 79c48 0 87 -34 87 -79c0 -46 -39 -81 -87 -81c-49 0 -86 35 -86 81zM624 0v551h140v-551h-140zM832 0v551h140v-70c35 54 93 85 168 85c130 0 210 -100 210 -263v-303h-140v296c0 95 -41 149 -114 149
c-80 0 -124 -56 -124 -157v-288h-140zM1414 0v762h140v-481l211 270h167l-226 -276l226 -275h-167l-211 269v-269h-140zM1973 183v508h141v-140h140v-116h-140v-249c0 -38 22 -60 57 -60h78v-126h-105c-109 0 -171 67 -171 183zM2307 0v551h140v-67c29 52 77 82 138 82
c18 0 29 -2 41 -6v-126c-8 2 -21 4 -43 4c-87 0 -136 -69 -136 -189v-249h-140zM2637 276c0 159 102 290 276 290c139 0 279 -81 279 -304v-17h-415c9 -89 59 -138 145 -138c62 0 114 33 126 81h140c-8 -112 -120 -203 -267 -203c-177 0 -284 113 -284 291zM2784 342h261
c-16 63 -63 104 -132 104c-65 0 -111 -41 -129 -104zM3236 276c0 159 102 290 276 290c139 0 279 -81 279 -304v-17h-415c9 -89 59 -138 145 -138c62 0 114 33 126 81h140c-8 -112 -120 -203 -267 -203c-177 0 -284 113 -284 291zM3383 342h261c-16 63 -63 104 -132 104
c-65 0 -111 -41 -129 -104zM3817 448v118h211l-150 143l83 85l143 -147v209h124v-209l143 147l83 -85l-150 -143h211v-118h-212l151 -147l-83 -83l-205 206l-205 -206l-83 83l151 147h-212zM4104 -1v280h124v-280h-124z" />
    <glyph glyph-name="L_i_n_k_t_r_e_e_four" horiz-adv-x="4057" 
d="M92 0v762h81v-683h356v-79h-437zM564 707c0 31 25 55 56 55c32 0 57 -24 57 -55c0 -32 -25 -57 -57 -57c-31 0 -56 25 -56 57zM580 0v547h79v-547h-79zM722 0v547h79v-72c36 55 92 87 164 87c130 0 212 -93 212 -242v-320h-79v310c0 112 -56 182 -145 182
c-93 0 -152 -74 -152 -191v-301h-79zM1241 0v762h79v-478l242 263h98l-250 -268l250 -279h-98l-242 273v-273h-79zM1697 120v562h79v-135h116v-66h-116v-357c0 -40 15 -58 49 -58h65v-66h-82c-68 0 -111 46 -111 120zM1952 0v547h79v-66c24 50 69 81 125 81
c17 0 28 -1 35 -4v-71c-8 1 -18 2 -31 2c-76 0 -129 -86 -129 -209v-280h-79zM2175 273c0 169 109 289 266 289s267 -115 267 -280v-24h-459c6 -121 87 -204 200 -204c78 0 144 47 170 123h81c-25 -108 -125 -192 -251 -192c-160 0 -274 118 -274 288zM2253 324h366
c-3 100 -76 170 -178 170c-97 0 -170 -68 -188 -170zM2763 273c0 169 109 289 266 289s267 -115 267 -280v-24h-459c6 -121 87 -204 200 -204c78 0 144 47 170 123h81c-25 -108 -125 -192 -251 -192c-160 0 -274 118 -274 288zM2841 324h366c-3 100 -76 170 -178 170
c-97 0 -170 -68 -188 -170zM3318 448v118h211l-150 143l83 85l143 -147v209h124v-209l143 147l83 -85l-150 -143h211v-118h-212l151 -147l-83 -83l-205 206l-205 -206l-83 83l151 147h-212zM3605 -1v280h124v-280h-124z" />
    <glyph glyph-name="a" unicode="a" horiz-adv-x="603" 
d="M464 314c0 112 -62 178 -175 178c-76 0 -133 -35 -152 -95h-82c21 91 112 165 242 165c152 0 246 -90 246 -248v-314h-79v109c-48 -77 -132 -124 -232 -124c-122 0 -198 60 -198 157c0 110 81 171 228 171h202v1zM109 150c0 -58 53 -94 136 -94c115 0 205 77 218 191
h-181c-116 0 -173 -33 -173 -97z" />
    <glyph glyph-name="aacute" unicode="&#xe1;" horiz-adv-x="603" 
d="M464 314c0 112 -62 178 -175 178c-76 0 -133 -35 -152 -95h-82c21 91 112 165 242 165c152 0 246 -90 246 -248v-314h-79v109c-48 -77 -132 -124 -232 -124c-122 0 -198 60 -198 157c0 110 81 171 228 171h202v1zM109 150c0 -58 53 -94 136 -94c115 0 205 77 218 191
h-181c-116 0 -173 -33 -173 -97zM258 610l87 153h91l-121 -153h-57z" />
    <glyph glyph-name="abreve" unicode="&#x103;" horiz-adv-x="603" 
d="M464 314c0 112 -62 178 -175 178c-76 0 -133 -35 -152 -95h-82c21 91 112 165 242 165c152 0 246 -90 246 -248v-314h-79v109c-48 -77 -132 -124 -232 -124c-122 0 -198 60 -198 157c0 110 81 171 228 171h202v1zM109 150c0 -58 53 -94 136 -94c115 0 205 77 218 191
h-181c-116 0 -173 -33 -173 -97zM138 762h64c1 -55 39 -95 93 -95s93 40 94 95h64c-1 -91 -66 -155 -158 -155c-91 0 -156 64 -157 155z" />
    <glyph glyph-name="uni01CE" unicode="&#x1ce;" horiz-adv-x="603" 
d="M464 314c0 112 -62 178 -175 178c-76 0 -133 -35 -152 -95h-82c21 91 112 165 242 165c152 0 246 -90 246 -248v-314h-79v109c-48 -77 -132 -124 -232 -124c-122 0 -198 60 -198 157c0 110 81 171 228 171h202v1zM109 150c0 -58 53 -94 136 -94c115 0 205 77 218 191
h-181c-116 0 -173 -33 -173 -97zM151 762h82l52 -106l52 106h81l-81 -144h-106z" />
    <glyph glyph-name="acircumflex" unicode="&#xe2;" horiz-adv-x="603" 
d="M464 314c0 112 -62 178 -175 178c-76 0 -133 -35 -152 -95h-82c21 91 112 165 242 165c152 0 246 -90 246 -248v-314h-79v109c-48 -77 -132 -124 -232 -124c-122 0 -198 60 -198 157c0 110 81 171 228 171h202v1zM109 150c0 -58 53 -94 136 -94c115 0 205 77 218 191
h-181c-116 0 -173 -33 -173 -97zM162 618l80 144h106l81 -144h-81l-52 106l-52 -106h-82z" />
    <glyph glyph-name="adieresis" unicode="&#xe4;" horiz-adv-x="603" 
d="M464 314c0 112 -62 178 -175 178c-76 0 -133 -35 -152 -95h-82c21 91 112 165 242 165c152 0 246 -90 246 -248v-314h-79v109c-48 -77 -132 -124 -232 -124c-122 0 -198 60 -198 157c0 110 81 171 228 171h202v1zM109 150c0 -58 53 -94 136 -94c115 0 205 77 218 191
h-181c-116 0 -173 -33 -173 -97zM137 707c0 31 25 55 56 55c32 0 57 -24 57 -55c0 -32 -25 -57 -57 -57c-31 0 -56 25 -56 57zM319 707c0 31 25 55 56 55c32 0 57 -24 57 -55c0 -32 -25 -57 -57 -57c-31 0 -56 25 -56 57z" />
    <glyph glyph-name="uni1EA1" unicode="&#x1ea1;" horiz-adv-x="603" 
d="M464 314c0 112 -62 178 -175 178c-76 0 -133 -35 -152 -95h-82c21 91 112 165 242 165c152 0 246 -90 246 -248v-314h-79v109c-48 -77 -132 -124 -232 -124c-122 0 -198 60 -198 157c0 110 81 171 228 171h202v1zM109 150c0 -58 53 -94 136 -94c115 0 205 77 218 191
h-181c-116 0 -173 -33 -173 -97zM228 -164c0 31 25 55 56 55c32 0 57 -24 57 -55c0 -32 -25 -57 -57 -57c-31 0 -56 25 -56 57z" />
    <glyph glyph-name="agrave" unicode="&#xe0;" horiz-adv-x="603" 
d="M464 314c0 112 -62 178 -175 178c-76 0 -133 -35 -152 -95h-82c21 91 112 165 242 165c152 0 246 -90 246 -248v-314h-79v109c-48 -77 -132 -124 -232 -124c-122 0 -198 60 -198 157c0 110 81 171 228 171h202v1zM109 150c0 -58 53 -94 136 -94c115 0 205 77 218 191
h-181c-116 0 -173 -33 -173 -97zM145 762h92l86 -153h-56z" />
    <glyph glyph-name="amacron" unicode="&#x101;" horiz-adv-x="603" 
d="M464 314c0 112 -62 178 -175 178c-76 0 -133 -35 -152 -95h-82c21 91 112 165 242 165c152 0 246 -90 246 -248v-314h-79v109c-48 -77 -132 -124 -232 -124c-122 0 -198 60 -198 157c0 110 81 171 228 171h202v1zM109 150c0 -58 53 -94 136 -94c115 0 205 77 218 191
h-181c-116 0 -173 -33 -173 -97zM138 615v65h315v-65h-315z" />
    <glyph glyph-name="aogonek" unicode="&#x105;" horiz-adv-x="603" 
d="M464 314c0 112 -62 178 -175 178c-76 0 -133 -35 -152 -95h-82c21 91 112 165 242 165c152 0 246 -90 246 -248v-314c-40 0 -70 -27 -70 -57c0 -27 21 -47 50 -47c20 0 43 9 59 25v-61c-18 -19 -50 -32 -78 -32c-61 0 -104 37 -104 88c0 37 23 67 64 84v109
c-48 -77 -132 -124 -232 -124c-122 0 -198 60 -198 157c0 110 81 171 228 171h202v1zM109 150c0 -58 53 -94 136 -94c115 0 205 77 218 191h-181c-116 0 -173 -33 -173 -97z" />
    <glyph glyph-name="aring" unicode="&#xe5;" horiz-adv-x="603" 
d="M464 314c0 112 -62 178 -175 178c-76 0 -133 -35 -152 -95h-82c21 91 112 165 242 165c152 0 246 -90 246 -248v-314h-79v109c-48 -77 -132 -124 -232 -124c-122 0 -198 60 -198 157c0 110 81 171 228 171h202v1zM109 150c0 -58 53 -94 136 -94c115 0 205 77 218 191
h-181c-116 0 -173 -33 -173 -97zM209 684c0 49 38 87 86 87s87 -38 87 -87c0 -48 -39 -87 -87 -87s-86 39 -86 87zM250 684c0 -26 19 -46 45 -46s46 20 46 46s-20 47 -46 47s-45 -21 -45 -47z" />
    <glyph glyph-name="atilde" unicode="&#xe3;" horiz-adv-x="603" 
d="M464 314c0 112 -62 178 -175 178c-76 0 -133 -35 -152 -95h-82c21 91 112 165 242 165c152 0 246 -90 246 -248v-314h-79v109c-48 -77 -132 -124 -232 -124c-122 0 -198 60 -198 157c0 110 81 171 228 171h202v1zM109 150c0 -58 53 -94 136 -94c115 0 205 77 218 191
h-181c-116 0 -173 -33 -173 -97zM150 667c5 59 36 95 81 95c62 0 81 -73 127 -73c28 0 49 23 53 60l30 -26c-5 -58 -36 -94 -82 -94c-59 0 -80 73 -125 73c-29 0 -50 -23 -54 -61z" />
    <glyph glyph-name="ae" unicode="&#xe6;" horiz-adv-x="1047" 
d="M747 -15c-119 0 -213 65 -253 169c-41 -103 -136 -169 -255 -169c-122 0 -198 60 -198 157c0 110 82 171 228 171h202v1c0 112 -62 178 -175 178c-76 0 -133 -35 -152 -95h-82c21 91 112 165 242 165c103 0 177 -41 216 -117c46 73 124 117 219 117
c157 0 267 -115 267 -280v-24h-459c6 -121 87 -205 200 -205c78 0 144 48 170 124h81c-25 -108 -125 -192 -251 -192zM116 150c0 -58 53 -95 136 -95c115 0 205 78 218 192h-181c-116 0 -173 -33 -173 -97zM551 324h366c-3 100 -76 170 -178 170c-97 0 -170 -68 -188 -170z
" />
    <glyph glyph-name="aeacute" unicode="&#x1fd;" horiz-adv-x="1047" 
d="M747 -15c-119 0 -213 65 -253 169c-41 -103 -136 -169 -255 -169c-122 0 -198 60 -198 157c0 110 82 171 228 171h202v1c0 112 -62 178 -175 178c-76 0 -133 -35 -152 -95h-82c21 91 112 165 242 165c103 0 177 -41 216 -117c46 73 124 117 219 117
c157 0 267 -115 267 -280v-24h-459c6 -121 87 -205 200 -205c78 0 144 48 170 124h81c-25 -108 -125 -192 -251 -192zM116 150c0 -58 53 -95 136 -95c115 0 205 78 218 192h-181c-116 0 -173 -33 -173 -97zM486 610l87 153h91l-121 -153h-57zM551 324h366
c-3 100 -76 170 -178 170c-97 0 -170 -68 -188 -170z" />
    <glyph glyph-name="uni01E3" unicode="&#x1e3;" horiz-adv-x="1047" 
d="M747 -15c-119 0 -213 65 -253 169c-41 -103 -136 -169 -255 -169c-122 0 -198 60 -198 157c0 110 82 171 228 171h202v1c0 112 -62 178 -175 178c-76 0 -133 -35 -152 -95h-82c21 91 112 165 242 165c103 0 177 -41 216 -117c46 73 124 117 219 117
c157 0 267 -115 267 -280v-24h-459c6 -121 87 -205 200 -205c78 0 144 48 170 124h81c-25 -108 -125 -192 -251 -192zM116 150c0 -58 53 -95 136 -95c115 0 205 78 218 192h-181c-116 0 -173 -33 -173 -97zM366 615v65h315v-65h-315zM551 324h366c-3 100 -76 170 -178 170
c-97 0 -170 -68 -188 -170z" />
    <glyph glyph-name="b" unicode="b" horiz-adv-x="638" 
d="M338 -15c-84 0 -151 35 -196 91v-76h-78v762h78v-294c45 57 112 92 196 92c159 0 259 -129 259 -287c0 -160 -100 -288 -259 -288zM142 272c0 -128 73 -218 186 -218c117 0 195 98 195 219c0 120 -78 218 -195 218c-113 0 -186 -90 -186 -219z" />
    <glyph glyph-name="c" unicode="c" horiz-adv-x="601" 
d="M312 -15c-157 0 -271 119 -271 289s114 288 271 288c127 0 225 -73 254 -188h-83c-23 74 -89 120 -171 120c-114 0 -197 -91 -197 -220s83 -220 197 -220c83 0 150 47 173 123h81c-29 -119 -127 -192 -254 -192z" />
    <glyph glyph-name="cacute" unicode="&#x107;" horiz-adv-x="601" 
d="M312 -15c-157 0 -271 119 -271 289s114 288 271 288c127 0 225 -73 254 -188h-83c-23 74 -89 120 -171 120c-114 0 -197 -91 -197 -220s83 -220 197 -220c83 0 150 47 173 123h81c-29 -119 -127 -192 -254 -192zM292 610l87 153h91l-121 -153h-57z" />
    <glyph glyph-name="ccaron" unicode="&#x10d;" horiz-adv-x="601" 
d="M312 -15c-157 0 -271 119 -271 289s114 288 271 288c127 0 225 -73 254 -188h-83c-23 74 -89 120 -171 120c-114 0 -197 -91 -197 -220s83 -220 197 -220c83 0 150 47 173 123h81c-29 -119 -127 -192 -254 -192zM185 762h82l52 -106l52 106h81l-81 -144h-106z" />
    <glyph glyph-name="ccedilla" unicode="&#xe7;" horiz-adv-x="601" 
d="M281 -186c-27 4 -56 21 -71 44l11 60c12 -18 34 -32 53 -35c31 -5 53 10 57 35c4 28 -14 52 -46 68c-143 13 -244 128 -244 288c0 170 114 288 271 288c127 0 225 -73 254 -188h-83c-23 74 -89 120 -171 120c-114 0 -197 -91 -197 -220s83 -220 197 -220
c83 0 150 47 173 123h81c-26 -107 -107 -176 -215 -190v-12c31 -19 47 -54 40 -93c-9 -53 -50 -79 -110 -68z" />
    <glyph glyph-name="ccircumflex" unicode="&#x109;" horiz-adv-x="601" 
d="M312 -15c-157 0 -271 119 -271 289s114 288 271 288c127 0 225 -73 254 -188h-83c-23 74 -89 120 -171 120c-114 0 -197 -91 -197 -220s83 -220 197 -220c83 0 150 47 173 123h81c-29 -119 -127 -192 -254 -192zM196 618l80 144h106l81 -144h-81l-52 106l-52 -106h-82z
" />
    <glyph glyph-name="cdotaccent" unicode="&#x10b;" horiz-adv-x="601" 
d="M312 -15c-157 0 -271 119 -271 289s114 288 271 288c127 0 225 -73 254 -188h-83c-23 74 -89 120 -171 120c-114 0 -197 -91 -197 -220s83 -220 197 -220c83 0 150 47 173 123h81c-29 -119 -127 -192 -254 -192zM273 707c0 31 25 55 56 55c32 0 57 -24 57 -55
c0 -32 -25 -57 -57 -57c-31 0 -56 25 -56 57z" />
    <glyph glyph-name="d" unicode="d" horiz-adv-x="638" 
d="M300 -15c-159 0 -259 128 -259 288c0 158 100 287 259 287c84 0 151 -35 196 -92v294h78v-762h-78v76c-45 -56 -112 -91 -196 -91zM115 273c0 -121 78 -219 195 -219c113 0 186 90 186 218c0 129 -73 219 -186 219c-117 0 -195 -98 -195 -218z" />
    <glyph glyph-name="eth" unicode="&#xf0;" horiz-adv-x="602" 
d="M297 -16c-150 0 -256 114 -256 276c0 160 105 271 252 271c79 0 144 -36 182 -95c-13 87 -40 151 -83 194c-9 9 -19 17 -31 25l-48 -76l-61 39l41 64c-30 8 -64 11 -103 11h-20v69h20c54 0 101 -6 142 -18l45 72l64 -37l-41 -65c19 -11 35 -25 49 -41
c72 -82 108 -218 108 -410c0 -163 -107 -279 -260 -279zM115 258c0 -121 75 -205 182 -205c106 0 181 84 181 205c0 120 -76 204 -185 204c-104 0 -178 -84 -178 -204z" />
    <glyph glyph-name="dcaron" unicode="&#x10f;" horiz-adv-x="638" 
d="M300 -15c-159 0 -259 128 -259 288c0 158 100 287 259 287c84 0 151 -35 196 -92v294h78v-762h-78v76c-45 -56 -112 -91 -196 -91zM115 273c0 -121 78 -219 195 -219c113 0 186 90 186 218c0 129 -73 219 -186 219c-117 0 -195 -98 -195 -218zM593 568l21 194h76
l-47 -194h-50z" />
    <glyph glyph-name="dcroat" unicode="&#x111;" horiz-adv-x="618" 
d="M302 618v66h194v78h78v-78h50v-66h-50v-618h-78v76c-45 -56 -112 -91 -196 -91c-159 0 -259 128 -259 288c0 158 100 287 259 287c84 0 151 -35 196 -92v150h-194zM115 273c0 -121 78 -219 195 -219c113 0 186 90 186 218c0 129 -73 219 -186 219
c-117 0 -195 -98 -195 -218z" />
    <glyph glyph-name="uni1E0D" unicode="&#x1e0d;" horiz-adv-x="638" 
d="M300 -15c-159 0 -259 128 -259 288c0 158 100 287 259 287c84 0 151 -35 196 -92v294h78v-762h-78v76c-45 -56 -112 -91 -196 -91zM115 273c0 -121 78 -219 195 -219c113 0 186 90 186 218c0 129 -73 219 -186 219c-117 0 -195 -98 -195 -218zM241 -164c0 31 25 55 56 55
c32 0 57 -24 57 -55c0 -32 -25 -57 -57 -57c-31 0 -56 25 -56 57z" />
    <glyph glyph-name="uni1E0F" unicode="&#x1e0f;" horiz-adv-x="638" 
d="M300 -15c-159 0 -259 128 -259 288c0 158 100 287 259 287c84 0 151 -35 196 -92v294h78v-762h-78v76c-45 -56 -112 -91 -196 -91zM115 273c0 -121 78 -219 195 -219c113 0 186 90 186 218c0 129 -73 219 -186 219c-117 0 -195 -98 -195 -218zM130 -208v65h315v-65h-315z
" />
    <glyph glyph-name="e" unicode="e" horiz-adv-x="615" 
d="M315 -15c-160 0 -274 118 -274 288c0 169 109 289 266 289s267 -115 267 -280v-24h-459c6 -121 87 -204 200 -204c78 0 144 47 170 123h81c-25 -108 -125 -192 -251 -192zM119 324h366c-3 100 -76 170 -178 170c-97 0 -170 -68 -188 -170z" />
    <glyph glyph-name="eacute" unicode="&#xe9;" horiz-adv-x="615" 
d="M315 -15c-160 0 -274 118 -274 288c0 169 109 289 266 289s267 -115 267 -280v-24h-459c6 -121 87 -204 200 -204c78 0 144 47 170 123h81c-25 -108 -125 -192 -251 -192zM119 324h366c-3 100 -76 170 -178 170c-97 0 -170 -68 -188 -170zM271 610l87 153h91l-121 -153
h-57z" />
    <glyph glyph-name="ecaron" unicode="&#x11b;" horiz-adv-x="615" 
d="M315 -15c-160 0 -274 118 -274 288c0 169 109 289 266 289s267 -115 267 -280v-24h-459c6 -121 87 -204 200 -204c78 0 144 47 170 123h81c-25 -108 -125 -192 -251 -192zM119 324h366c-3 100 -76 170 -178 170c-97 0 -170 -68 -188 -170zM164 762h82l52 -106l52 106h81
l-81 -144h-106z" />
    <glyph glyph-name="ecircumflex" unicode="&#xea;" horiz-adv-x="615" 
d="M315 -15c-160 0 -274 118 -274 288c0 169 109 289 266 289s267 -115 267 -280v-24h-459c6 -121 87 -204 200 -204c78 0 144 47 170 123h81c-25 -108 -125 -192 -251 -192zM119 324h366c-3 100 -76 170 -178 170c-97 0 -170 -68 -188 -170zM175 618l80 144h106l81 -144
h-81l-52 106l-52 -106h-82z" />
    <glyph glyph-name="edieresis" unicode="&#xeb;" horiz-adv-x="615" 
d="M315 -15c-160 0 -274 118 -274 288c0 169 109 289 266 289s267 -115 267 -280v-24h-459c6 -121 87 -204 200 -204c78 0 144 47 170 123h81c-25 -108 -125 -192 -251 -192zM119 324h366c-3 100 -76 170 -178 170c-97 0 -170 -68 -188 -170zM150 707c0 31 25 55 56 55
c32 0 57 -24 57 -55c0 -32 -25 -57 -57 -57c-31 0 -56 25 -56 57zM332 707c0 31 25 55 56 55c32 0 57 -24 57 -55c0 -32 -25 -57 -57 -57c-31 0 -56 25 -56 57z" />
    <glyph glyph-name="edotaccent" unicode="&#x117;" horiz-adv-x="615" 
d="M315 -15c-160 0 -274 118 -274 288c0 169 109 289 266 289s267 -115 267 -280v-24h-459c6 -121 87 -204 200 -204c78 0 144 47 170 123h81c-25 -108 -125 -192 -251 -192zM119 324h366c-3 100 -76 170 -178 170c-97 0 -170 -68 -188 -170zM252 707c0 31 25 55 56 55
c32 0 57 -24 57 -55c0 -32 -25 -57 -57 -57c-31 0 -56 25 -56 57z" />
    <glyph glyph-name="egrave" unicode="&#xe8;" horiz-adv-x="615" 
d="M315 -15c-160 0 -274 118 -274 288c0 169 109 289 266 289s267 -115 267 -280v-24h-459c6 -121 87 -204 200 -204c78 0 144 47 170 123h81c-25 -108 -125 -192 -251 -192zM119 324h366c-3 100 -76 170 -178 170c-97 0 -170 -68 -188 -170zM158 762h92l86 -153h-56z" />
    <glyph glyph-name="emacron" unicode="&#x113;" horiz-adv-x="615" 
d="M315 -15c-160 0 -274 118 -274 288c0 169 109 289 266 289s267 -115 267 -280v-24h-459c6 -121 87 -204 200 -204c78 0 144 47 170 123h81c-25 -108 -125 -192 -251 -192zM119 324h366c-3 100 -76 170 -178 170c-97 0 -170 -68 -188 -170zM151 615v65h315v-65h-315z" />
    <glyph glyph-name="eogonek" unicode="&#x119;" horiz-adv-x="615" 
d="M348 -178c-61 0 -104 37 -104 88c0 32 17 58 47 76c-147 11 -250 125 -250 287c0 169 109 289 266 289s267 -115 267 -280v-24h-459c6 -121 87 -204 200 -204c78 0 144 47 170 123h81c-20 -87 -89 -159 -181 -183h2h-2c-10 -3 -19 -5 -29 -6c-24 -10 -39 -30 -39 -51
c0 -27 21 -47 50 -47c20 0 43 9 59 25v-61c-18 -19 -50 -32 -78 -32zM119 324h366c-3 100 -76 170 -178 170c-97 0 -170 -68 -188 -170z" />
    <glyph glyph-name="uni1EBD" unicode="&#x1ebd;" horiz-adv-x="615" 
d="M315 -15c-160 0 -274 118 -274 288c0 169 109 289 266 289s267 -115 267 -280v-24h-459c6 -121 87 -204 200 -204c78 0 144 47 170 123h81c-25 -108 -125 -192 -251 -192zM119 324h366c-3 100 -76 170 -178 170c-97 0 -170 -68 -188 -170zM163 667c5 59 36 95 81 95
c62 0 81 -73 127 -73c28 0 49 23 53 60l30 -26c-5 -58 -36 -94 -82 -94c-59 0 -80 73 -125 73c-29 0 -50 -23 -54 -61z" />
    <glyph glyph-name="uni0259" unicode="&#x259;" horiz-adv-x="615" 
d="M300 562c160 0 274 -118 274 -288c0 -169 -109 -289 -266 -289s-267 115 -267 280v24h459c-6 121 -87 204 -200 204c-78 0 -144 -47 -170 -123h-81c25 108 125 192 251 192zM130 223c3 -100 76 -170 178 -170c97 0 170 68 188 170h-366z" />
    <glyph glyph-name="f" unicode="f" horiz-adv-x="345" 
d="M117 633c0 93 44 144 122 144c35 0 70 -14 89 -37v-65c-18 18 -45 30 -70 30c-43 0 -62 -26 -62 -87v-71h132v-66h-132v-481h-79v481h-102v66h102v86z" />
    <glyph glyph-name="g" unicode="g" horiz-adv-x="639" 
d="M301 -238c-138 0 -247 87 -247 201h79c0 -75 79 -133 179 -133c113 0 184 75 184 197v60c-45 -55 -112 -90 -196 -90c-159 0 -259 129 -259 282c0 154 100 283 259 283c84 0 151 -35 196 -90v75h79v-519c0 -164 -105 -266 -274 -266zM115 279c0 -125 81 -213 196 -213
c109 0 185 87 185 212c0 127 -76 216 -185 216c-115 0 -196 -89 -196 -215z" />
    <glyph glyph-name="gbreve" unicode="&#x11f;" horiz-adv-x="639" 
d="M301 -238c-138 0 -247 87 -247 201h79c0 -75 79 -133 179 -133c113 0 184 75 184 197v60c-45 -55 -112 -90 -196 -90c-159 0 -259 129 -259 282c0 154 100 283 259 283c84 0 151 -35 196 -90v75h79v-519c0 -164 -105 -266 -274 -266zM115 279c0 -125 81 -213 196 -213
c109 0 185 87 185 212c0 127 -76 216 -185 216c-115 0 -196 -89 -196 -215zM165 762h64c1 -55 39 -95 93 -95s93 40 94 95h64c-1 -91 -66 -155 -158 -155c-91 0 -156 64 -157 155z" />
    <glyph glyph-name="gcaron" unicode="&#x1e7;" horiz-adv-x="639" 
d="M301 -238c-138 0 -247 87 -247 201h79c0 -75 79 -133 179 -133c113 0 184 75 184 197v60c-45 -55 -112 -90 -196 -90c-159 0 -259 129 -259 282c0 154 100 283 259 283c84 0 151 -35 196 -90v75h79v-519c0 -164 -105 -266 -274 -266zM115 279c0 -125 81 -213 196 -213
c109 0 185 87 185 212c0 127 -76 216 -185 216c-115 0 -196 -89 -196 -215zM178 762h82l52 -106l52 106h81l-81 -144h-106z" />
    <glyph glyph-name="gcircumflex" unicode="&#x11d;" horiz-adv-x="639" 
d="M301 -238c-138 0 -247 87 -247 201h79c0 -75 79 -133 179 -133c113 0 184 75 184 197v60c-45 -55 -112 -90 -196 -90c-159 0 -259 129 -259 282c0 154 100 283 259 283c84 0 151 -35 196 -90v75h79v-519c0 -164 -105 -266 -274 -266zM115 279c0 -125 81 -213 196 -213
c109 0 185 87 185 212c0 127 -76 216 -185 216c-115 0 -196 -89 -196 -215zM189 618l80 144h106l81 -144h-81l-52 106l-52 -106h-82z" />
    <glyph glyph-name="uni0123" unicode="&#x123;" horiz-adv-x="639" 
d="M301 -238c-138 0 -247 87 -247 201h79c0 -75 79 -133 179 -133c113 0 184 75 184 197v60c-45 -55 -112 -90 -196 -90c-159 0 -259 129 -259 282c0 154 100 283 259 283c84 0 151 -35 196 -90v75h79v-519c0 -164 -105 -266 -274 -266zM115 279c0 -125 81 -213 196 -213
c109 0 185 87 185 212c0 127 -76 216 -185 216c-115 0 -196 -89 -196 -215zM256 618l47 198h54v-198h-101z" />
    <glyph glyph-name="gdotaccent" unicode="&#x121;" horiz-adv-x="639" 
d="M301 -238c-138 0 -247 87 -247 201h79c0 -75 79 -133 179 -133c113 0 184 75 184 197v60c-45 -55 -112 -90 -196 -90c-159 0 -259 129 -259 282c0 154 100 283 259 283c84 0 151 -35 196 -90v75h79v-519c0 -164 -105 -266 -274 -266zM115 279c0 -125 81 -213 196 -213
c109 0 185 87 185 212c0 127 -76 216 -185 216c-115 0 -196 -89 -196 -215zM266 707c0 31 25 55 56 55c32 0 57 -24 57 -55c0 -32 -25 -57 -57 -57c-31 0 -56 25 -56 57z" />
    <glyph glyph-name="uni1E21" unicode="&#x1e21;" horiz-adv-x="639" 
d="M301 -238c-138 0 -247 87 -247 201h79c0 -75 79 -133 179 -133c113 0 184 75 184 197v60c-45 -55 -112 -90 -196 -90c-159 0 -259 129 -259 282c0 154 100 283 259 283c84 0 151 -35 196 -90v75h79v-519c0 -164 -105 -266 -274 -266zM115 279c0 -125 81 -213 196 -213
c109 0 185 87 185 212c0 127 -76 216 -185 216c-115 0 -196 -89 -196 -215zM165 615v65h315v-65h-315z" />
    <glyph glyph-name="h" unicode="h" 
d="M470 310c0 113 -59 182 -155 182c-105 0 -172 -73 -172 -191v-301h-79v762h79v-283c41 53 105 83 184 83c136 0 222 -93 222 -242v-320h-79v310z" />
    <glyph glyph-name="hbar" unicode="&#x127;" horiz-adv-x="645" 
d="M-6 621v65h106v76h79v-76h158v-65h-158v-142c41 53 105 83 184 83c136 0 222 -93 222 -242v-320h-79v310c0 113 -59 182 -155 182c-105 0 -172 -73 -172 -191v-301h-79v621h-106z" />
    <glyph glyph-name="uni1E2B" unicode="&#x1e2b;" 
d="M470 310c0 113 -59 182 -155 182c-105 0 -172 -73 -172 -191v-301h-79v762h79v-283c41 53 105 83 184 83c136 0 222 -93 222 -242v-320h-79v310zM139 -83h64c1 -55 39 -95 93 -95s93 40 94 95h64c-1 -91 -66 -155 -158 -155c-91 0 -156 64 -157 155z" />
    <glyph glyph-name="hcircumflex" unicode="&#x125;" 
d="M470 310c0 113 -59 182 -155 182c-105 0 -172 -73 -172 -191v-301h-79v762h79v-283c41 53 105 83 184 83c136 0 222 -93 222 -242v-320h-79v310zM202 618l80 144h106l81 -144h-81l-52 106l-52 -106h-82z" />
    <glyph glyph-name="uni1E25" unicode="&#x1e25;" 
d="M470 310c0 113 -59 182 -155 182c-105 0 -172 -73 -172 -191v-301h-79v762h79v-283c41 53 105 83 184 83c136 0 222 -93 222 -242v-320h-79v310zM240 -164c0 31 25 55 56 55c32 0 57 -24 57 -55c0 -32 -25 -57 -57 -57c-31 0 -56 25 -56 57z" />
    <glyph glyph-name="uni1E96" unicode="&#x1e96;" 
d="M470 310c0 113 -59 182 -155 182c-105 0 -172 -73 -172 -191v-301h-79v762h79v-283c41 53 105 83 184 83c136 0 222 -93 222 -242v-320h-79v310zM129 -208v65h315v-65h-315z" />
    <glyph glyph-name="i" unicode="i" horiz-adv-x="207" 
d="M64 0v547h79v-547h-79zM48 707c0 31 25 55 56 55c32 0 57 -24 57 -55c0 -32 -25 -57 -57 -57c-31 0 -56 25 -56 57z" />
    <glyph glyph-name="dotlessi" unicode="&#x131;" horiz-adv-x="207" 
d="M64 0v547h79v-547h-79z" />
    <glyph glyph-name="iacute" unicode="&#xed;" horiz-adv-x="207" 
d="M64 0v547h79v-547h-79zM67 610l87 153h91l-121 -153h-57z" />
    <glyph glyph-name="uni01D0" unicode="&#x1d0;" horiz-adv-x="207" 
d="M64 0v547h79v-547h-79zM-40 762h82l52 -106l52 106h81l-81 -144h-106z" />
    <glyph glyph-name="icircumflex" unicode="&#xee;" horiz-adv-x="207" 
d="M64 0v547h79v-547h-79zM-29 618l80 144h106l81 -144h-81l-52 106l-52 -106h-82z" />
    <glyph glyph-name="idieresis" unicode="&#xef;" horiz-adv-x="207" 
d="M64 0v547h79v-547h-79zM-54 707c0 31 25 55 56 55c32 0 57 -24 57 -55c0 -32 -25 -57 -57 -57c-31 0 -56 25 -56 57zM128 707c0 31 25 55 56 55c32 0 57 -24 57 -55c0 -32 -25 -57 -57 -57c-31 0 -56 25 -56 57z" />
    <glyph glyph-name="i.loclTRK" horiz-adv-x="207" 
d="M64 0v547h79v-547h-79zM48 707c0 31 25 55 56 55c32 0 57 -24 57 -55c0 -32 -25 -57 -57 -57c-31 0 -56 25 -56 57z" />
    <glyph glyph-name="igrave" unicode="&#xec;" horiz-adv-x="207" 
d="M64 0v547h79v-547h-79zM-46 762h92l86 -153h-56z" />
    <glyph glyph-name="ij" unicode="&#x133;" horiz-adv-x="426" 
d="M64 0v547h79v-547h-79zM48 707c0 31 25 55 56 55c32 0 57 -24 57 -55c0 -32 -25 -57 -57 -57c-31 0 -56 25 -56 57zM151 -217v66c18 -19 45 -31 70 -31c43 0 62 26 62 87v642h79v-657c0 -92 -44 -143 -122 -143c-36 0 -70 13 -89 36zM267 707c0 31 25 55 56 55
c32 0 57 -24 57 -55c0 -32 -25 -57 -57 -57c-31 0 -56 25 -56 57z" />
    <glyph glyph-name="imacron" unicode="&#x12b;" horiz-adv-x="207" 
d="M64 0v547h79v-547h-79zM-53 615v65h315v-65h-315z" />
    <glyph glyph-name="iogonek" unicode="&#x12f;" horiz-adv-x="207" 
d="M64 0v547h79v-547c-40 0 -70 -27 -70 -57c0 -27 21 -47 50 -47c20 0 43 9 59 25v-61c-18 -19 -50 -32 -78 -32c-61 0 -104 37 -104 88c0 37 23 67 64 84zM48 707c0 31 25 55 56 55c32 0 57 -24 57 -55c0 -32 -25 -57 -57 -57c-31 0 -56 25 -56 57z" />
    <glyph glyph-name="itilde" unicode="&#x129;" horiz-adv-x="207" 
d="M64 0v547h79v-547h-79zM-41 667c5 59 36 95 81 95c62 0 81 -73 127 -73c28 0 49 23 53 60l30 -26c-5 -58 -36 -94 -82 -94c-59 0 -80 73 -125 73c-29 0 -50 -23 -54 -61z" />
    <glyph glyph-name="j" unicode="j" horiz-adv-x="219" 
d="M33 -253c-36 0 -70 13 -89 36v66c18 -19 45 -31 70 -31c43 0 62 26 62 87v642h79v-657c0 -92 -44 -143 -122 -143zM60 707c0 31 25 55 56 55c32 0 57 -24 57 -55c0 -32 -25 -57 -57 -57c-31 0 -56 25 -56 57z" />
    <glyph glyph-name="uni0237" unicode="&#x237;" horiz-adv-x="219" 
d="M33 -253c-36 0 -70 13 -89 36v66c18 -19 45 -31 70 -31c43 0 62 26 62 87v642h79v-657c0 -92 -44 -143 -122 -143z" />
    <glyph glyph-name="uni006A0301" horiz-adv-x="219" 
d="M33 -253c-36 0 -70 13 -89 36v66c18 -19 45 -31 70 -31c43 0 62 26 62 87v642h79v-657c0 -92 -44 -143 -122 -143zM79 610l87 153h91l-121 -153h-57z" />
    <glyph glyph-name="jcircumflex" unicode="&#x135;" horiz-adv-x="219" 
d="M33 -253c-36 0 -70 13 -89 36v66c18 -19 45 -31 70 -31c43 0 62 26 62 87v642h79v-657c0 -92 -44 -143 -122 -143zM-17 618l80 144h106l81 -144h-81l-52 106l-52 -106h-82z" />
    <glyph glyph-name="k" unicode="k" horiz-adv-x="559" 
d="M64 0v762h79v-521l295 306h103l-216 -225l231 -322h-93l-191 269l-129 -132v-137h-79z" />
    <glyph glyph-name="uni01E9" unicode="&#x1e9;" horiz-adv-x="559" 
d="M64 0v762h79v-521l295 306h103l-216 -225l231 -322h-93l-191 269l-129 -132v-137h-79zM195 762h82l52 -106l52 106h81l-81 -144h-106z" />
    <glyph glyph-name="uni0137" unicode="&#x137;" horiz-adv-x="559" 
d="M64 0v762h79v-521l295 306h103l-216 -225l231 -322h-93l-191 269l-129 -132v-137h-79zM258 -238l9 177h76l-40 -177h-45z" />
    <glyph glyph-name="uni1E35" unicode="&#x1e35;" horiz-adv-x="559" 
d="M64 0v762h79v-521l295 306h103l-216 -225l231 -322h-93l-191 269l-129 -132v-137h-79zM123 -208v65h315v-65h-315z" />
    <glyph glyph-name="l" unicode="l" horiz-adv-x="207" 
d="M64 0v762h79v-762h-79z" />
    <glyph glyph-name="lacute" unicode="&#x13a;" horiz-adv-x="207" 
d="M64 0v762h79v-762h-79zM67 825l87 153h91l-121 -153h-57z" />
    <glyph glyph-name="lcaron" unicode="&#x13e;" horiz-adv-x="207" 
d="M64 0v762h79v-762h-79zM184 568l21 194h76l-47 -194h-50z" />
    <glyph glyph-name="uni013C" unicode="&#x13c;" horiz-adv-x="207" 
d="M64 0v762h79v-762h-79zM61 -238l9 177h76l-40 -177h-45z" />
    <glyph glyph-name="uni1E37" unicode="&#x1e37;" horiz-adv-x="207" 
d="M64 0v762h79v-762h-79zM37 -164c0 31 25 55 56 55c32 0 57 -24 57 -55c0 -32 -25 -57 -57 -57c-31 0 -56 25 -56 57z" />
    <glyph glyph-name="uni1E39" unicode="&#x1e39;" horiz-adv-x="207" 
d="M64 0v762h79v-762h-79zM-53 830v65h315v-65h-315zM37 -164c0 31 25 55 56 55c32 0 57 -24 57 -55c0 -32 -25 -57 -57 -57c-31 0 -56 25 -56 57z" />
    <glyph glyph-name="uni1E3B" unicode="&#x1e3b;" horiz-adv-x="207" 
d="M64 0v762h79v-762h-79zM-74 -208v65h315v-65h-315z" />
    <glyph glyph-name="lslash" unicode="&#x142;" horiz-adv-x="472" 
d="M24 244v86l173 81v351h79v-314l172 80v-86l-172 -80v-362h-79v325z" />
    <glyph glyph-name="m" unicode="m" horiz-adv-x="973" 
d="M834 310c0 113 -58 182 -144 182c-100 0 -160 -73 -160 -191v-301h-76v310c0 113 -57 182 -153 182c-97 0 -158 -73 -158 -191v-301h-79v547h79v-66c39 52 97 81 168 81c93 0 161 -44 195 -119c36 75 105 119 197 119c128 0 210 -93 210 -242v-320h-79v310z" />
    <glyph glyph-name="uni1E3F" unicode="&#x1e3f;" horiz-adv-x="973" 
d="M834 310c0 113 -58 182 -144 182c-100 0 -160 -73 -160 -191v-301h-76v310c0 113 -57 182 -153 182c-97 0 -158 -73 -158 -191v-301h-79v547h79v-66c39 52 97 81 168 81c93 0 161 -44 195 -119c36 75 105 119 197 119c128 0 210 -93 210 -242v-320h-79v310zM454 611
l87 153h91l-121 -153h-57z" />
    <glyph glyph-name="uni1E41" unicode="&#x1e41;" horiz-adv-x="973" 
d="M834 310c0 113 -58 182 -144 182c-100 0 -160 -73 -160 -191v-301h-76v310c0 113 -57 182 -153 182c-97 0 -158 -73 -158 -191v-301h-79v547h79v-66c39 52 97 81 168 81c93 0 161 -44 195 -119c36 75 105 119 197 119c128 0 210 -93 210 -242v-320h-79v310zM435 708
c0 31 25 55 56 55c32 0 57 -24 57 -55c0 -32 -25 -57 -57 -57c-31 0 -56 25 -56 57z" />
    <glyph glyph-name="uni1E43" unicode="&#x1e43;" horiz-adv-x="973" 
d="M834 310c0 113 -58 182 -144 182c-100 0 -160 -73 -160 -191v-301h-76v310c0 113 -57 182 -153 182c-97 0 -158 -73 -158 -191v-301h-79v547h79v-66c39 52 97 81 168 81c93 0 161 -44 195 -119c36 75 105 119 197 119c128 0 210 -93 210 -242v-320h-79v310zM424 -164
c0 31 25 55 56 55c32 0 57 -24 57 -55c0 -32 -25 -57 -57 -57c-31 0 -56 25 -56 57z" />
    <glyph glyph-name="n" unicode="n" 
d="M470 310c0 113 -59 182 -155 182c-105 0 -172 -73 -172 -191v-301h-79v547h79v-68c41 53 105 83 184 83c136 0 222 -93 222 -242v-320h-79v310z" />
    <glyph glyph-name="nacute" unicode="&#x144;" 
d="M470 310c0 113 -59 182 -155 182c-105 0 -172 -73 -172 -191v-301h-79v547h79v-68c41 53 105 83 184 83c136 0 222 -93 222 -242v-320h-79v310zM283 610l87 153h91l-121 -153h-57z" />
    <glyph glyph-name="ncaron" unicode="&#x148;" 
d="M470 310c0 113 -59 182 -155 182c-105 0 -172 -73 -172 -191v-301h-79v547h79v-68c41 53 105 83 184 83c136 0 222 -93 222 -242v-320h-79v310zM176 762h82l52 -106l52 106h81l-81 -144h-106z" />
    <glyph glyph-name="uni0146" unicode="&#x146;" 
d="M470 310c0 113 -59 182 -155 182c-105 0 -172 -73 -172 -191v-301h-79v547h79v-68c41 53 105 83 184 83c136 0 222 -93 222 -242v-320h-79v310zM277 -238l9 177h76l-40 -177h-45z" />
    <glyph glyph-name="uni1E45" unicode="&#x1e45;" 
d="M470 310c0 113 -59 182 -155 182c-105 0 -172 -73 -172 -191v-301h-79v547h79v-68c41 53 105 83 184 83c136 0 222 -93 222 -242v-320h-79v310zM264 707c0 31 25 55 56 55c32 0 57 -24 57 -55c0 -32 -25 -57 -57 -57c-31 0 -56 25 -56 57z" />
    <glyph glyph-name="uni1E47" unicode="&#x1e47;" 
d="M470 310c0 113 -59 182 -155 182c-105 0 -172 -73 -172 -191v-301h-79v547h79v-68c41 53 105 83 184 83c136 0 222 -93 222 -242v-320h-79v310zM253 -164c0 31 25 55 56 55c32 0 57 -24 57 -55c0 -32 -25 -57 -57 -57c-31 0 -56 25 -56 57z" />
    <glyph glyph-name="uni1E49" unicode="&#x1e49;" 
d="M470 310c0 113 -59 182 -155 182c-105 0 -172 -73 -172 -191v-301h-79v547h79v-68c41 53 105 83 184 83c136 0 222 -93 222 -242v-320h-79v310zM142 -208v65h315v-65h-315z" />
    <glyph glyph-name="ntilde" unicode="&#xf1;" 
d="M470 310c0 113 -59 182 -155 182c-105 0 -172 -73 -172 -191v-301h-79v547h79v-68c41 53 105 83 184 83c136 0 222 -93 222 -242v-320h-79v310zM175 667c5 59 36 95 81 95c62 0 81 -73 127 -73c28 0 49 23 53 60l30 -26c-5 -58 -36 -94 -82 -94c-59 0 -80 73 -125 73
c-29 0 -50 -23 -54 -61z" />
    <glyph glyph-name="o" unicode="o" horiz-adv-x="644" 
d="M322 -15c-173 0 -281 128 -281 289c0 159 108 288 281 288s281 -129 281 -289s-108 -288 -281 -288zM115 274c0 -121 79 -220 207 -220s207 99 207 219c0 121 -79 221 -207 221s-207 -100 -207 -220z" />
    <glyph glyph-name="oacute" unicode="&#xf3;" horiz-adv-x="644" 
d="M322 -15c-173 0 -281 128 -281 289c0 159 108 288 281 288s281 -129 281 -289s-108 -288 -281 -288zM115 274c0 -121 79 -220 207 -220s207 99 207 219c0 121 -79 221 -207 221s-207 -100 -207 -220zM285 610l87 153h91l-121 -153h-57z" />
    <glyph glyph-name="uni01D2" unicode="&#x1d2;" horiz-adv-x="644" 
d="M322 -15c-173 0 -281 128 -281 289c0 159 108 288 281 288s281 -129 281 -289s-108 -288 -281 -288zM115 274c0 -121 79 -220 207 -220s207 99 207 219c0 121 -79 221 -207 221s-207 -100 -207 -220zM178 762h82l52 -106l52 106h81l-81 -144h-106z" />
    <glyph glyph-name="ocircumflex" unicode="&#xf4;" horiz-adv-x="644" 
d="M322 -15c-173 0 -281 128 -281 289c0 159 108 288 281 288s281 -129 281 -289s-108 -288 -281 -288zM115 274c0 -121 79 -220 207 -220s207 99 207 219c0 121 -79 221 -207 221s-207 -100 -207 -220zM189 618l80 144h106l81 -144h-81l-52 106l-52 -106h-82z" />
    <glyph glyph-name="odieresis" unicode="&#xf6;" horiz-adv-x="644" 
d="M322 -15c-173 0 -281 128 -281 289c0 159 108 288 281 288s281 -129 281 -289s-108 -288 -281 -288zM115 274c0 -121 79 -220 207 -220s207 99 207 219c0 121 -79 221 -207 221s-207 -100 -207 -220zM164 707c0 31 25 55 56 55c32 0 57 -24 57 -55c0 -32 -25 -57 -57 -57
c-31 0 -56 25 -56 57zM346 707c0 31 25 55 56 55c32 0 57 -24 57 -55c0 -32 -25 -57 -57 -57c-31 0 -56 25 -56 57z" />
    <glyph glyph-name="ograve" unicode="&#xf2;" horiz-adv-x="644" 
d="M322 -15c-173 0 -281 128 -281 289c0 159 108 288 281 288s281 -129 281 -289s-108 -288 -281 -288zM115 274c0 -121 79 -220 207 -220s207 99 207 219c0 121 -79 221 -207 221s-207 -100 -207 -220zM172 762h92l86 -153h-56z" />
    <glyph glyph-name="ohungarumlaut" unicode="&#x151;" horiz-adv-x="644" 
d="M322 -15c-173 0 -281 128 -281 289c0 159 108 288 281 288s281 -129 281 -289s-108 -288 -281 -288zM115 274c0 -121 79 -220 207 -220s207 99 207 219c0 121 -79 221 -207 221s-207 -100 -207 -220zM218 609l87 153h91l-121 -153h-57zM338 609l87 153h91l-121 -153h-57z
" />
    <glyph glyph-name="omacron" unicode="&#x14d;" horiz-adv-x="644" 
d="M322 -15c-173 0 -281 128 -281 289c0 159 108 288 281 288s281 -129 281 -289s-108 -288 -281 -288zM115 274c0 -121 79 -220 207 -220s207 99 207 219c0 121 -79 221 -207 221s-207 -100 -207 -220zM165 615v65h315v-65h-315z" />
    <glyph glyph-name="uni01EB" unicode="&#x1eb;" horiz-adv-x="644" 
d="M322 54c128 0 207 99 207 219c0 121 -79 221 -207 221s-207 -100 -207 -220c0 -121 79 -220 207 -220zM41 274c0 159 108 288 281 288s281 -129 281 -289c0 -136 -79 -250 -209 -280h1h-1c-9 -2 -18 -4 -28 -5c-25 -9 -41 -30 -41 -52c0 -27 21 -47 50 -47
c20 0 43 9 59 25v-61c-18 -19 -50 -32 -78 -32c-61 0 -104 37 -104 88c0 32 17 59 49 77c-161 10 -260 134 -260 288z" />
    <glyph glyph-name="oslash" unicode="&#xf8;" horiz-adv-x="619" 
d="M10 0l83 92c-36 50 -56 113 -56 182c0 159 108 288 281 288c62 0 116 -17 160 -46l32 36h99l-77 -85c43 -51 67 -119 67 -194c0 -160 -108 -288 -281 -288c-69 0 -127 20 -173 55l-36 -40h-99zM111 274c0 -47 12 -90 33 -126l285 315c-30 20 -68 31 -111 31
c-128 0 -207 -100 -207 -220zM194 94c33 -25 75 -40 124 -40c128 0 207 99 207 219c0 53 -15 101 -42 139z" />
    <glyph glyph-name="oslashacute" unicode="&#x1ff;" horiz-adv-x="619" 
d="M10 0l83 92c-36 50 -56 113 -56 182c0 159 108 288 281 288c62 0 116 -17 160 -46l32 36h99l-77 -85c43 -51 67 -119 67 -194c0 -160 -108 -288 -281 -288c-69 0 -127 20 -173 55l-36 -40h-99zM111 274c0 -47 12 -90 33 -126l285 315c-30 20 -68 31 -111 31
c-128 0 -207 -100 -207 -220zM194 94c33 -25 75 -40 124 -40c128 0 207 99 207 219c0 53 -15 101 -42 139zM281 610l87 153h91l-121 -153h-57z" />
    <glyph glyph-name="otilde" unicode="&#xf5;" horiz-adv-x="644" 
d="M322 -15c-173 0 -281 128 -281 289c0 159 108 288 281 288s281 -129 281 -289s-108 -288 -281 -288zM115 274c0 -121 79 -220 207 -220s207 99 207 219c0 121 -79 221 -207 221s-207 -100 -207 -220zM177 667c5 59 36 95 81 95c62 0 81 -73 127 -73c28 0 49 23 53 60
l30 -26c-5 -58 -36 -94 -82 -94c-59 0 -80 73 -125 73c-29 0 -50 -23 -54 -61z" />
    <glyph glyph-name="oe" unicode="&#x153;" horiz-adv-x="1103" 
d="M322 -16c-173 0 -281 129 -281 290c0 159 108 288 281 288c112 0 197 -54 243 -136c44 84 127 136 230 136c157 0 267 -115 267 -280v-24h-459c6 -121 87 -205 200 -205c78 0 144 48 170 124h81c-25 -108 -125 -193 -251 -193c-106 0 -192 52 -238 137
c-45 -82 -130 -137 -243 -137zM115 274c0 -121 79 -221 207 -221s207 100 207 220c0 121 -79 221 -207 221s-207 -100 -207 -220zM607 324h366c-3 100 -76 170 -178 170c-97 0 -170 -68 -188 -170z" />
    <glyph glyph-name="p" unicode="p" horiz-adv-x="638" 
d="M338 -14c-84 0 -151 36 -196 92v-316h-78v785h78v-77c45 57 112 92 196 92c159 0 259 -129 259 -288c0 -158 -100 -288 -259 -288zM142 275c0 -129 73 -220 186 -220c117 0 195 99 195 219c0 121 -78 220 -195 220c-113 0 -186 -91 -186 -219z" />
    <glyph glyph-name="thorn" unicode="&#xfe;" horiz-adv-x="638" 
d="M338 -15c-84 0 -151 36 -196 93v-316h-78v1000h78v-292c45 57 112 92 196 92c159 0 259 -129 259 -288c0 -158 -100 -289 -259 -289zM142 275c0 -129 73 -221 186 -221c117 0 195 100 195 220c0 121 -78 220 -195 220c-113 0 -186 -91 -186 -219z" />
    <glyph glyph-name="q" unicode="q" horiz-adv-x="638" 
d="M300 -14c-159 0 -259 130 -259 288c0 159 100 288 259 288c84 0 151 -35 196 -92v77h78v-785h-78v316c-45 -56 -112 -92 -196 -92zM115 274c0 -120 78 -219 195 -219c113 0 186 91 186 220c0 128 -73 219 -186 219c-117 0 -195 -99 -195 -220z" />
    <glyph glyph-name="r" unicode="r" horiz-adv-x="379" 
d="M64 0v547h79v-76c28 55 84 91 145 91c31 0 55 -5 78 -15v-77c-9 9 -31 19 -71 19c-95 0 -152 -91 -152 -209v-280h-79z" />
    <glyph glyph-name="racute" unicode="&#x155;" horiz-adv-x="379" 
d="M64 0v547h79v-76c28 55 84 91 145 91c31 0 55 -5 78 -15v-77c-9 9 -31 19 -71 19c-95 0 -152 -91 -152 -209v-280h-79zM173 610l87 153h91l-121 -153h-57z" />
    <glyph glyph-name="rcaron" unicode="&#x159;" horiz-adv-x="379" 
d="M64 0v547h79v-76c28 55 84 91 145 91c31 0 55 -5 78 -15v-77c-9 9 -31 19 -71 19c-95 0 -152 -91 -152 -209v-280h-79zM66 762h82l52 -106l52 106h81l-81 -144h-106z" />
    <glyph glyph-name="uni0157" unicode="&#x157;" horiz-adv-x="379" 
d="M64 0v547h79v-76c28 55 84 91 145 91c31 0 55 -5 78 -15v-77c-9 9 -31 19 -71 19c-95 0 -152 -91 -152 -209v-280h-79zM62 -238l9 177h76l-40 -177h-45z" />
    <glyph glyph-name="uni1E5D" unicode="&#x1e5d;" horiz-adv-x="379" 
d="M64 0v547h79v-76c28 55 84 91 145 91c31 0 55 -5 78 -15v-77c-9 9 -31 19 -71 19c-95 0 -152 -91 -152 -209v-280h-79zM38 -164c0 31 25 55 56 55c32 0 57 -24 57 -55c0 -32 -25 -57 -57 -57c-31 0 -56 25 -56 57zM53 615v65h315v-65h-315z" />
    <glyph glyph-name="uni1E5F" unicode="&#x1e5f;" horiz-adv-x="379" 
d="M64 0v547h79v-76c28 55 84 91 145 91c31 0 55 -5 78 -15v-77c-9 9 -31 19 -71 19c-95 0 -152 -91 -152 -209v-280h-79zM-73 -208v65h315v-65h-315z" />
    <glyph glyph-name="s" unicode="s" horiz-adv-x="535" 
d="M283 -15c-130 0 -227 73 -235 178h85c8 -65 72 -111 156 -111c85 0 138 34 138 90c0 42 -33 71 -108 90l-97 24c-101 25 -158 78 -158 148c0 97 81 158 209 158c112 0 208 -74 219 -168h-86c-8 57 -71 102 -140 102c-79 0 -128 -35 -128 -90c0 -40 42 -72 117 -91l98 -25
c95 -24 148 -79 148 -155c0 -92 -84 -150 -218 -150z" />
    <glyph glyph-name="sacute" unicode="&#x15b;" horiz-adv-x="535" 
d="M283 -15c-130 0 -227 73 -235 178h85c8 -65 72 -111 156 -111c85 0 138 34 138 90c0 42 -33 71 -108 90l-97 24c-101 25 -158 78 -158 148c0 97 81 158 209 158c112 0 208 -74 219 -168h-86c-8 57 -71 102 -140 102c-79 0 -128 -35 -128 -90c0 -40 42 -72 117 -91l98 -25
c95 -24 148 -79 148 -155c0 -92 -84 -150 -218 -150zM234 610l87 153h91l-121 -153h-57z" />
    <glyph glyph-name="uniA78C" unicode="&#xa78c;" horiz-adv-x="285" 
d="M119 429l-26 333h99l-26 -333h-47z" />
    <glyph glyph-name="scaron" unicode="&#x161;" horiz-adv-x="535" 
d="M283 -15c-130 0 -227 73 -235 178h85c8 -65 72 -111 156 -111c85 0 138 34 138 90c0 42 -33 71 -108 90l-97 24c-101 25 -158 78 -158 148c0 97 81 158 209 158c112 0 208 -74 219 -168h-86c-8 57 -71 102 -140 102c-79 0 -128 -35 -128 -90c0 -40 42 -72 117 -91l98 -25
c95 -24 148 -79 148 -155c0 -92 -84 -150 -218 -150zM127 762h82l52 -106l52 106h81l-81 -144h-106z" />
    <glyph glyph-name="scedilla" unicode="&#x15f;" horiz-adv-x="535" 
d="M243 -187c-27 4 -56 21 -71 44l11 60c12 -18 34 -32 53 -35c31 -5 53 10 57 35c4 28 -15 53 -48 69v1c-111 13 -190 82 -197 176h85c8 -65 72 -111 156 -111c85 0 138 34 138 90c0 42 -33 71 -108 90l-97 24c-101 25 -158 78 -158 148c0 97 81 158 209 158
c112 0 208 -74 219 -168h-86c-8 57 -71 102 -140 102c-79 0 -128 -35 -128 -90c0 -40 42 -72 117 -91l98 -25c95 -24 148 -79 148 -155c0 -85 -72 -141 -188 -149v-12c31 -19 47 -54 40 -93c-9 -53 -50 -79 -110 -68z" />
    <glyph glyph-name="scircumflex" unicode="&#x15d;" horiz-adv-x="535" 
d="M283 -15c-130 0 -227 73 -235 178h85c8 -65 72 -111 156 -111c85 0 138 34 138 90c0 42 -33 71 -108 90l-97 24c-101 25 -158 78 -158 148c0 97 81 158 209 158c112 0 208 -74 219 -168h-86c-8 57 -71 102 -140 102c-79 0 -128 -35 -128 -90c0 -40 42 -72 117 -91l98 -25
c95 -24 148 -79 148 -155c0 -92 -84 -150 -218 -150zM138 618l80 144h106l81 -144h-81l-52 106l-52 -106h-82z" />
    <glyph glyph-name="uni0219" unicode="&#x219;" horiz-adv-x="535" 
d="M283 -15c-130 0 -227 73 -235 178h85c8 -65 72 -111 156 -111c85 0 138 34 138 90c0 42 -33 71 -108 90l-97 24c-101 25 -158 78 -158 148c0 97 81 158 209 158c112 0 208 -74 219 -168h-86c-8 57 -71 102 -140 102c-79 0 -128 -35 -128 -90c0 -40 42 -72 117 -91l98 -25
c95 -24 148 -79 148 -155c0 -92 -84 -150 -218 -150zM228 -238l9 177h76l-40 -177h-45z" />
    <glyph glyph-name="uni1E63" unicode="&#x1e63;" horiz-adv-x="535" 
d="M283 -15c-130 0 -227 73 -235 178h85c8 -65 72 -111 156 -111c85 0 138 34 138 90c0 42 -33 71 -108 90l-97 24c-101 25 -158 78 -158 148c0 97 81 158 209 158c112 0 208 -74 219 -168h-86c-8 57 -71 102 -140 102c-79 0 -128 -35 -128 -90c0 -40 42 -72 117 -91l98 -25
c95 -24 148 -79 148 -155c0 -92 -84 -150 -218 -150zM204 -164c0 31 25 55 56 55c32 0 57 -24 57 -55c0 -32 -25 -57 -57 -57c-31 0 -56 25 -56 57z" />
    <glyph glyph-name="germandbls" unicode="&#xdf;" horiz-adv-x="606" 
d="M307 -16c-24 0 -49 6 -66 14v82c23 -12 42 -14 66 -14c100 0 174 72 174 148c0 87 -72 159 -240 159v72c130 -3 190 61 190 133c0 55 -53 119 -141 119c-82 0 -147 -65 -147 -138v-559h-79v559c0 119 100 219 226 219c134 0 220 -96 220 -200c0 -64 -34 -130 -93 -166
c87 -32 143 -110 143 -198c0 -123 -106 -230 -253 -230z" />
    <glyph glyph-name="t" unicode="t" horiz-adv-x="341" 
d="M222 -15c-78 0 -122 51 -122 144v352h-94v66h94v135h79v-135h146v-66h-146v-337c0 -61 19 -87 61 -87c25 0 53 12 70 30v-65c-18 -23 -53 -37 -88 -37z" />
    <glyph glyph-name="tbar" unicode="&#x167;" horiz-adv-x="351" 
d="M16 276v65h94v140h-94v66h94v135h79v-135h146v-66h-146v-140h146v-65h-146v-132c0 -61 19 -87 61 -87c25 0 53 12 70 30v-65c-18 -23 -53 -37 -88 -37c-78 0 -122 51 -122 144v147h-94z" />
    <glyph glyph-name="tcaron" unicode="&#x165;" horiz-adv-x="341" 
d="M222 -15c-78 0 -122 51 -122 144v352h-94v66h94v135h79v-135h146v-66h-146v-337c0 -61 19 -87 61 -87c25 0 53 12 70 30v-65c-18 -23 -53 -37 -88 -37zM257 590l21 194h76l-47 -194h-50z" />
    <glyph glyph-name="uni0163" unicode="&#x163;" horiz-adv-x="341" 
d="M6 481v66h94v135h79v-135h146v-66h-146v-337c0 -61 19 -87 61 -87c25 0 53 12 70 30v-65c-13 -17 -35 -29 -60 -34v-11c31 -19 47 -54 40 -93c-9 -53 -50 -79 -110 -68c-27 4 -56 21 -71 44l11 60c12 -18 34 -32 53 -35c31 -5 53 10 57 35c4 28 -15 53 -48 69v1
c-53 15 -82 63 -82 139v352h-94z" />
    <glyph glyph-name="uni021B" unicode="&#x21b;" horiz-adv-x="341" 
d="M222 -15c-78 0 -122 51 -122 144v352h-94v66h94v135h79v-135h146v-66h-146v-337c0 -61 19 -87 61 -87c25 0 53 12 70 30v-65c-18 -23 -53 -37 -88 -37zM171 -238l9 177h76l-40 -177h-45z" />
    <glyph glyph-name="uni1E97" unicode="&#x1e97;" horiz-adv-x="341" 
d="M222 -15c-78 0 -122 51 -122 144v352h-94v66h94v135h79v-135h146v-66h-146v-337c0 -61 19 -87 61 -87c25 0 53 12 70 30v-65c-18 -23 -53 -37 -88 -37zM-13 842c0 31 25 55 56 55c32 0 57 -24 57 -55c0 -32 -25 -57 -57 -57c-31 0 -56 25 -56 57zM169 842
c0 31 25 55 56 55c32 0 57 -24 57 -55c0 -32 -25 -57 -57 -57c-31 0 -56 25 -56 57z" />
    <glyph glyph-name="uni1E6D" unicode="&#x1e6d;" horiz-adv-x="341" 
d="M222 -15c-78 0 -122 51 -122 144v352h-94v66h94v135h79v-135h146v-66h-146v-337c0 -61 19 -87 61 -87c25 0 53 12 70 30v-65c-18 -23 -53 -37 -88 -37zM147 -164c0 31 25 55 56 55c32 0 57 -24 57 -55c0 -32 -25 -57 -57 -57c-31 0 -56 25 -56 57z" />
    <glyph glyph-name="uni1E6F" unicode="&#x1e6f;" horiz-adv-x="341" 
d="M222 -15c-78 0 -122 51 -122 144v352h-94v66h94v135h79v-135h146v-66h-146v-337c0 -61 19 -87 61 -87c25 0 53 12 70 30v-65c-18 -23 -53 -37 -88 -37zM36 -208v65h315v-65h-315z" />
    <glyph glyph-name="u" unicode="u" 
d="M139 237c0 -113 59 -182 155 -182c105 0 172 73 172 191v301h79v-547h-79v68c-41 -53 -105 -83 -184 -83c-136 0 -222 93 -222 242v320h79v-310z" />
    <glyph glyph-name="uacute" unicode="&#xfa;" 
d="M139 237c0 -113 59 -182 155 -182c105 0 172 73 172 191v301h79v-547h-79v68c-41 -53 -105 -83 -184 -83c-136 0 -222 93 -222 242v320h79v-310zM227 610l87 153h91l-121 -153h-57z" />
    <glyph glyph-name="ubreve" unicode="&#x16d;" 
d="M139 237c0 -113 59 -182 155 -182c105 0 172 73 172 191v301h79v-547h-79v68c-41 -53 -105 -83 -184 -83c-136 0 -222 93 -222 242v320h79v-310zM107 762h64c1 -55 39 -95 93 -95s93 40 94 95h64c-1 -91 -66 -155 -158 -155c-91 0 -156 64 -157 155z" />
    <glyph glyph-name="uni01D4" unicode="&#x1d4;" 
d="M139 237c0 -113 59 -182 155 -182c105 0 172 73 172 191v301h79v-547h-79v68c-41 -53 -105 -83 -184 -83c-136 0 -222 93 -222 242v320h79v-310zM120 762h82l52 -106l52 106h81l-81 -144h-106z" />
    <glyph glyph-name="ucircumflex" unicode="&#xfb;" 
d="M139 237c0 -113 59 -182 155 -182c105 0 172 73 172 191v301h79v-547h-79v68c-41 -53 -105 -83 -184 -83c-136 0 -222 93 -222 242v320h79v-310zM131 618l80 144h106l81 -144h-81l-52 106l-52 -106h-82z" />
    <glyph glyph-name="udieresis" unicode="&#xfc;" 
d="M139 237c0 -113 59 -182 155 -182c105 0 172 73 172 191v301h79v-547h-79v68c-41 -53 -105 -83 -184 -83c-136 0 -222 93 -222 242v320h79v-310zM106 707c0 31 25 55 56 55c32 0 57 -24 57 -55c0 -32 -25 -57 -57 -57c-31 0 -56 25 -56 57zM288 707c0 31 25 55 56 55
c32 0 57 -24 57 -55c0 -32 -25 -57 -57 -57c-31 0 -56 25 -56 57z" />
    <glyph glyph-name="ugrave" unicode="&#xf9;" 
d="M139 237c0 -113 59 -182 155 -182c105 0 172 73 172 191v301h79v-547h-79v68c-41 -53 -105 -83 -184 -83c-136 0 -222 93 -222 242v320h79v-310zM114 762h92l86 -153h-56z" />
    <glyph glyph-name="uhungarumlaut" unicode="&#x171;" 
d="M139 237c0 -113 59 -182 155 -182c105 0 172 73 172 191v301h79v-547h-79v68c-41 -53 -105 -83 -184 -83c-136 0 -222 93 -222 242v320h79v-310zM160 609l87 153h91l-121 -153h-57zM280 609l87 153h91l-121 -153h-57z" />
    <glyph glyph-name="umacron" unicode="&#x16b;" 
d="M139 237c0 -113 59 -182 155 -182c105 0 172 73 172 191v301h79v-547h-79v68c-41 -53 -105 -83 -184 -83c-136 0 -222 93 -222 242v320h79v-310zM107 615v65h315v-65h-315z" />
    <glyph glyph-name="uogonek" unicode="&#x173;" 
d="M139 237c0 -113 59 -182 155 -182c105 0 172 73 172 191v301h79v-547h-37c-40 0 -70 -27 -70 -57c0 -27 21 -47 50 -47c20 0 43 9 59 25v-61c-18 -19 -50 -32 -78 -32c-61 0 -104 37 -104 88c0 37 23 67 64 84h37v68c-41 -53 -105 -83 -184 -83c-136 0 -222 93 -222 242
v320h79v-310z" />
    <glyph glyph-name="uring" unicode="&#x16f;" 
d="M139 237c0 -113 59 -182 155 -182c105 0 172 73 172 191v301h79v-547h-79v68c-41 -53 -105 -83 -184 -83c-136 0 -222 93 -222 242v320h79v-310zM178 684c0 49 38 87 86 87s87 -38 87 -87c0 -48 -39 -87 -87 -87s-86 39 -86 87zM219 684c0 -26 19 -46 45 -46s46 20 46 46
s-20 47 -46 47s-45 -21 -45 -47z" />
    <glyph glyph-name="utilde" unicode="&#x169;" 
d="M139 237c0 -113 59 -182 155 -182c105 0 172 73 172 191v301h79v-547h-79v68c-41 -53 -105 -83 -184 -83c-136 0 -222 93 -222 242v320h79v-310zM119 667c5 59 36 95 81 95c62 0 81 -73 127 -73c28 0 49 23 53 60l30 -26c-5 -58 -36 -94 -82 -94c-59 0 -80 73 -125 73
c-29 0 -50 -23 -54 -61z" />
    <glyph glyph-name="v" unicode="v" horiz-adv-x="535" 
d="M212 0l-208 547h81l182 -487l182 487h82l-209 -547h-110z" />
    <glyph glyph-name="w" unicode="w" horiz-adv-x="828" 
d="M170 0l-166 547h79l146 -486l135 486h110l136 -483l135 483h79l-155 -547h-118l-131 474l-132 -474h-118z" />
    <glyph glyph-name="wacute" unicode="&#x1e83;" horiz-adv-x="828" 
d="M170 0l-166 547h79l146 -486l135 486h110l136 -483l135 483h79l-155 -547h-118l-131 474l-132 -474h-118zM377 611l87 153h91l-121 -153h-57z" />
    <glyph glyph-name="wcircumflex" unicode="&#x175;" horiz-adv-x="828" 
d="M170 0l-166 547h79l146 -486l135 486h110l136 -483l135 483h79l-155 -547h-118l-131 474l-132 -474h-118zM281 619l80 144h106l81 -144h-81l-52 106l-52 -106h-82z" />
    <glyph glyph-name="wdieresis" unicode="&#x1e85;" horiz-adv-x="828" 
d="M170 0l-166 547h79l146 -486l135 486h110l136 -483l135 483h79l-155 -547h-118l-131 474l-132 -474h-118zM256 708c0 31 25 55 56 55c32 0 57 -24 57 -55c0 -32 -25 -57 -57 -57c-31 0 -56 25 -56 57zM438 708c0 31 25 55 56 55c32 0 57 -24 57 -55
c0 -32 -25 -57 -57 -57c-31 0 -56 25 -56 57z" />
    <glyph glyph-name="wgrave" unicode="&#x1e81;" horiz-adv-x="828" 
d="M170 0l-166 547h79l146 -486l135 486h110l136 -483l135 483h79l-155 -547h-118l-131 474l-132 -474h-118zM264 763h92l86 -153h-56z" />
    <glyph glyph-name="x" unicode="x" horiz-adv-x="544" 
d="M4 0l221 285l-207 262h97l156 -206l158 206h96l-206 -262l221 -285h-93l-175 228l-176 -228h-92z" />
    <glyph glyph-name="y" unicode="y" horiz-adv-x="534" 
d="M125 -238l90 218l-211 567h81l171 -472l191 472h83l-327 -785h-78z" />
    <glyph glyph-name="yacute" unicode="&#xfd;" horiz-adv-x="534" 
d="M125 -238l90 218l-211 567h81l171 -472l191 472h83l-327 -785h-78zM230 610l87 153h91l-121 -153h-57z" />
    <glyph glyph-name="ycircumflex" unicode="&#x177;" horiz-adv-x="534" 
d="M125 -238l90 218l-211 567h81l171 -472l191 472h83l-327 -785h-78zM134 618l80 144h106l81 -144h-81l-52 106l-52 -106h-82z" />
    <glyph glyph-name="ydieresis" unicode="&#xff;" horiz-adv-x="534" 
d="M125 -238l90 218l-211 567h81l171 -472l191 472h83l-327 -785h-78zM109 707c0 31 25 55 56 55c32 0 57 -24 57 -55c0 -32 -25 -57 -57 -57c-31 0 -56 25 -56 57zM291 707c0 31 25 55 56 55c32 0 57 -24 57 -55c0 -32 -25 -57 -57 -57c-31 0 -56 25 -56 57z" />
    <glyph glyph-name="uni1E8F" unicode="&#x1e8f;" horiz-adv-x="534" 
d="M125 -238l90 218l-211 567h81l171 -472l191 472h83l-327 -785h-78zM211 707c0 31 25 55 56 55c32 0 57 -24 57 -55c0 -32 -25 -57 -57 -57c-31 0 -56 25 -56 57z" />
    <glyph glyph-name="ygrave" unicode="&#x1ef3;" horiz-adv-x="534" 
d="M125 -238l90 218l-211 567h81l171 -472l191 472h83l-327 -785h-78zM117 762h92l86 -153h-56z" />
    <glyph glyph-name="uni0233" unicode="&#x233;" horiz-adv-x="534" 
d="M125 -238l90 218l-211 567h81l171 -472l191 472h83l-327 -785h-78zM110 615v65h315v-65h-315z" />
    <glyph glyph-name="uni1EF9" unicode="&#x1ef9;" horiz-adv-x="534" 
d="M125 -238l90 218l-211 567h81l171 -472l191 472h83l-327 -785h-78zM122 667c5 59 36 95 81 95c62 0 81 -73 127 -73c28 0 49 23 53 60l30 -26c-5 -58 -36 -94 -82 -94c-59 0 -80 73 -125 73c-29 0 -50 -23 -54 -61z" />
    <glyph glyph-name="z" unicode="z" horiz-adv-x="485" 
d="M20 0v72l341 409h-320v66h413v-72l-340 -409h341v-66h-435z" />
    <glyph glyph-name="zacute" unicode="&#x17a;" horiz-adv-x="485" 
d="M20 0v72l341 409h-320v66h413v-72l-340 -409h341v-66h-435zM201 610l87 153h91l-121 -153h-57z" />
    <glyph glyph-name="zcaron" unicode="&#x17e;" horiz-adv-x="485" 
d="M20 0v72l341 409h-320v66h413v-72l-340 -409h341v-66h-435zM94 762h82l52 -106l52 106h81l-81 -144h-106z" />
    <glyph glyph-name="zdotaccent" unicode="&#x17c;" horiz-adv-x="485" 
d="M20 0v72l341 409h-320v66h413v-72l-340 -409h341v-66h-435zM182 707c0 31 25 55 56 55c32 0 57 -24 57 -55c0 -32 -25 -57 -57 -57c-31 0 -56 25 -56 57z" />
    <glyph glyph-name="uni1E93" unicode="&#x1e93;" horiz-adv-x="485" 
d="M20 0v72l341 409h-320v66h413v-72l-340 -409h341v-66h-435zM171 -164c0 31 25 55 56 55c32 0 57 -24 57 -55c0 -32 -25 -57 -57 -57c-31 0 -56 25 -56 57z" />
    <glyph glyph-name="uni1E95" unicode="&#x1e95;" horiz-adv-x="485" 
d="M20 0v72l341 409h-320v66h413v-72l-340 -409h341v-66h-435zM60 -208v65h315v-65h-315z" />
    <glyph glyph-name="uni013C.loclMAH" horiz-adv-x="207" 
d="M64 0v762h79v-762h-79zM61 -238l9 177h76l-40 -177h-45z" />
    <glyph glyph-name="uni0146.loclMAH" 
d="M470 310c0 113 -59 182 -155 182c-105 0 -172 -73 -172 -191v-301h-79v547h79v-68c41 53 105 83 184 83c136 0 222 -93 222 -242v-320h-79v310zM277 -238l9 177h76l-40 -177h-45z" />
    <glyph glyph-name="a.ss01" horiz-adv-x="634" 
d="M300 -16c-152 0 -259 119 -259 289c0 168 107 287 259 287c81 0 150 -34 196 -91v78h78v-547h-78v75c-46 -57 -115 -91 -196 -91zM115 273c0 -129 81 -220 196 -220c109 0 185 91 185 219c0 129 -76 219 -185 219c-115 0 -196 -90 -196 -218z" />
    <glyph glyph-name="aacute.ss01" horiz-adv-x="634" 
d="M300 -16c-152 0 -259 119 -259 289c0 168 107 287 259 287c81 0 150 -34 196 -91v78h78v-547h-78v75c-46 -57 -115 -91 -196 -91zM115 273c0 -129 81 -220 196 -220c109 0 185 91 185 219c0 129 -76 219 -185 219c-115 0 -196 -90 -196 -218zM275 610l87 153h91
l-121 -153h-57z" />
    <glyph glyph-name="abreve.ss01" horiz-adv-x="634" 
d="M300 -16c-152 0 -259 119 -259 289c0 168 107 287 259 287c81 0 150 -34 196 -91v78h78v-547h-78v75c-46 -57 -115 -91 -196 -91zM115 273c0 -129 81 -220 196 -220c109 0 185 91 185 219c0 129 -76 219 -185 219c-115 0 -196 -90 -196 -218zM155 762h64
c1 -55 39 -95 93 -95s93 40 94 95h64c-1 -91 -66 -155 -158 -155c-91 0 -156 64 -157 155z" />
    <glyph glyph-name="acircumflex.ss01" horiz-adv-x="634" 
d="M300 -16c-152 0 -259 119 -259 289c0 168 107 287 259 287c81 0 150 -34 196 -91v78h78v-547h-78v75c-46 -57 -115 -91 -196 -91zM115 273c0 -129 81 -220 196 -220c109 0 185 91 185 219c0 129 -76 219 -185 219c-115 0 -196 -90 -196 -218zM179 618l80 144h106l81 -144
h-81l-52 106l-52 -106h-82z" />
    <glyph glyph-name="adieresis.ss01" horiz-adv-x="634" 
d="M300 -16c-152 0 -259 119 -259 289c0 168 107 287 259 287c81 0 150 -34 196 -91v78h78v-547h-78v75c-46 -57 -115 -91 -196 -91zM115 273c0 -129 81 -220 196 -220c109 0 185 91 185 219c0 129 -76 219 -185 219c-115 0 -196 -90 -196 -218zM154 707c0 31 25 55 56 55
c32 0 57 -24 57 -55c0 -32 -25 -57 -57 -57c-31 0 -56 25 -56 57zM336 707c0 31 25 55 56 55c32 0 57 -24 57 -55c0 -32 -25 -57 -57 -57c-31 0 -56 25 -56 57z" />
    <glyph glyph-name="uni1EA1.ss01" horiz-adv-x="634" 
d="M300 -16c-152 0 -259 119 -259 289c0 168 107 287 259 287c81 0 150 -34 196 -91v78h78v-547h-78v75c-46 -57 -115 -91 -196 -91zM115 273c0 -129 81 -220 196 -220c109 0 185 91 185 219c0 129 -76 219 -185 219c-115 0 -196 -90 -196 -218zM245 -164c0 31 25 55 56 55
c32 0 57 -24 57 -55c0 -32 -25 -57 -57 -57c-31 0 -56 25 -56 57z" />
    <glyph glyph-name="agrave.ss01" horiz-adv-x="634" 
d="M300 -16c-152 0 -259 119 -259 289c0 168 107 287 259 287c81 0 150 -34 196 -91v78h78v-547h-78v75c-46 -57 -115 -91 -196 -91zM115 273c0 -129 81 -220 196 -220c109 0 185 91 185 219c0 129 -76 219 -185 219c-115 0 -196 -90 -196 -218zM162 762h92l86 -153h-56z
" />
    <glyph glyph-name="amacron.ss01" horiz-adv-x="634" 
d="M300 -16c-152 0 -259 119 -259 289c0 168 107 287 259 287c81 0 150 -34 196 -91v78h78v-547h-78v75c-46 -57 -115 -91 -196 -91zM115 273c0 -129 81 -220 196 -220c109 0 185 91 185 219c0 129 -76 219 -185 219c-115 0 -196 -90 -196 -218zM155 615v65h315v-65h-315z
" />
    <glyph glyph-name="aogonek.ss01" horiz-adv-x="634" 
d="M300 -16c-152 0 -259 119 -259 289c0 168 107 287 259 287c81 0 150 -34 196 -91v78h78v-547h1c-40 0 -70 -27 -70 -57c0 -27 21 -47 50 -47c20 0 43 9 59 25v-61c-18 -19 -50 -32 -78 -32c-61 0 -104 37 -104 88c0 37 23 67 64 84v75c-46 -57 -115 -91 -196 -91z
M115 273c0 -129 81 -220 196 -220c109 0 185 91 185 219c0 129 -76 219 -185 219c-115 0 -196 -90 -196 -218z" />
    <glyph glyph-name="aring.ss01" horiz-adv-x="634" 
d="M300 -16c-152 0 -259 119 -259 289c0 168 107 287 259 287c81 0 150 -34 196 -91v78h78v-547h-78v75c-46 -57 -115 -91 -196 -91zM115 273c0 -129 81 -220 196 -220c109 0 185 91 185 219c0 129 -76 219 -185 219c-115 0 -196 -90 -196 -218zM226 684c0 49 38 87 86 87
s87 -38 87 -87c0 -48 -39 -87 -87 -87s-86 39 -86 87zM267 684c0 -26 19 -46 45 -46s46 20 46 46s-20 47 -46 47s-45 -21 -45 -47z" />
    <glyph glyph-name="atilde.ss01" horiz-adv-x="634" 
d="M300 -16c-152 0 -259 119 -259 289c0 168 107 287 259 287c81 0 150 -34 196 -91v78h78v-547h-78v75c-46 -57 -115 -91 -196 -91zM115 273c0 -129 81 -220 196 -220c109 0 185 91 185 219c0 129 -76 219 -185 219c-115 0 -196 -90 -196 -218zM167 667c5 59 36 95 81 95
c62 0 81 -73 127 -73c28 0 49 23 53 60l30 -26c-5 -58 -36 -94 -82 -94c-59 0 -80 73 -125 73c-29 0 -50 -23 -54 -61z" />
    <glyph glyph-name="k.ss02" horiz-adv-x="486" 
d="M385 547h98l-250 -268l250 -279h-98l-242 273v-273h-79v762h79v-478z" />
    <glyph glyph-name="uni01E9.ss02" horiz-adv-x="486" 
d="M385 547h98l-250 -268l250 -279h-98l-242 273v-273h-79v762h79v-478zM195 762h82l52 -106l52 106h81l-81 -144h-106z" />
    <glyph glyph-name="uni0137.ss02" horiz-adv-x="486" 
d="M385 547h98l-250 -268l250 -279h-98l-242 273v-273h-79v762h79v-478zM206 -238l9 177h76l-40 -177h-45z" />
    <glyph glyph-name="uni1E35.ss02" horiz-adv-x="486" 
d="M385 547h98l-250 -268l250 -279h-98l-242 273v-273h-79v762h79v-478zM71 -208v65h315v-65h-315z" />
    <glyph glyph-name="n.ss02" horiz-adv-x="579" 
d="M440 310c0 112 -56 182 -145 182c-93 0 -152 -74 -152 -191v-301h-79v547h79v-72c36 55 92 87 164 87c130 0 212 -93 212 -242v-320h-79v310z" />
    <glyph glyph-name="nacute.ss02" horiz-adv-x="579" 
d="M440 310c0 112 -56 182 -145 182c-93 0 -152 -74 -152 -191v-301h-79v547h79v-72c36 55 92 87 164 87c130 0 212 -93 212 -242v-320h-79v310zM258 610l87 153h91l-121 -153h-57z" />
    <glyph glyph-name="ncaron.ss02" horiz-adv-x="579" 
d="M440 310c0 112 -56 182 -145 182c-93 0 -152 -74 -152 -191v-301h-79v547h79v-72c36 55 92 87 164 87c130 0 212 -93 212 -242v-320h-79v310zM151 762h82l52 -106l52 106h81l-81 -144h-106z" />
    <glyph glyph-name="uni0146.ss02" horiz-adv-x="579" 
d="M440 310c0 112 -56 182 -145 182c-93 0 -152 -74 -152 -191v-301h-79v547h79v-72c36 55 92 87 164 87c130 0 212 -93 212 -242v-320h-79v310zM251 -238l9 177h76l-40 -177h-45z" />
    <glyph glyph-name="uni1E45.ss02" horiz-adv-x="579" 
d="M440 310c0 112 -56 182 -145 182c-93 0 -152 -74 -152 -191v-301h-79v547h79v-72c36 55 92 87 164 87c130 0 212 -93 212 -242v-320h-79v310zM239 707c0 31 25 55 56 55c32 0 57 -24 57 -55c0 -32 -25 -57 -57 -57c-31 0 -56 25 -56 57z" />
    <glyph glyph-name="uni1E47.ss02" horiz-adv-x="579" 
d="M440 310c0 112 -56 182 -145 182c-93 0 -152 -74 -152 -191v-301h-79v547h79v-72c36 55 92 87 164 87c130 0 212 -93 212 -242v-320h-79v310zM227 -164c0 31 25 55 56 55c32 0 57 -24 57 -55c0 -32 -25 -57 -57 -57c-31 0 -56 25 -56 57z" />
    <glyph glyph-name="uni1E49.ss02" horiz-adv-x="579" 
d="M440 310c0 112 -56 182 -145 182c-93 0 -152 -74 -152 -191v-301h-79v547h79v-72c36 55 92 87 164 87c130 0 212 -93 212 -242v-320h-79v310zM116 -208v65h315v-65h-315z" />
    <glyph glyph-name="ntilde.ss02" horiz-adv-x="579" 
d="M440 310c0 112 -56 182 -145 182c-93 0 -152 -74 -152 -191v-301h-79v547h79v-72c36 55 92 87 164 87c130 0 212 -93 212 -242v-320h-79v310zM150 667c5 59 36 95 81 95c62 0 81 -73 127 -73c28 0 49 23 53 60l30 -26c-5 -58 -36 -94 -82 -94c-59 0 -80 73 -125 73
c-29 0 -50 -23 -54 -61z" />
    <glyph glyph-name="r.ss02" horiz-adv-x="306" 
d="M64 0v547h79v-66c24 50 69 81 125 81c17 0 28 -1 35 -4v-71c-8 1 -18 2 -31 2c-76 0 -129 -86 -129 -209v-280h-79z" />
    <glyph glyph-name="racute.ss02" horiz-adv-x="306" 
d="M64 0v547h79v-66c24 50 69 81 125 81c17 0 28 -1 35 -4v-71c-8 1 -18 2 -31 2c-76 0 -129 -86 -129 -209v-280h-79zM153 610l87 153h91l-121 -153h-57z" />
    <glyph glyph-name="rcaron.ss02" horiz-adv-x="306" 
d="M64 0v547h79v-66c24 50 69 81 125 81c17 0 28 -1 35 -4v-71c-8 1 -18 2 -31 2c-76 0 -129 -86 -129 -209v-280h-79zM46 762h82l52 -106l52 106h81l-81 -144h-106z" />
    <glyph glyph-name="uni0157.ss02" horiz-adv-x="306" 
d="M64 0v547h79v-66c24 50 69 81 125 81c17 0 28 -1 35 -4v-71c-8 1 -18 2 -31 2c-76 0 -129 -86 -129 -209v-280h-79zM82 -238l9 177h76l-40 -177h-45z" />
    <glyph glyph-name="uni1E5D.ss02" horiz-adv-x="306" 
d="M64 0v547h79v-66c24 50 69 81 125 81c17 0 28 -1 35 -4v-71c-8 1 -18 2 -31 2c-76 0 -129 -86 -129 -209v-280h-79zM33 615v65h315v-65h-315zM58 -164c0 31 25 55 56 55c32 0 57 -24 57 -55c0 -32 -25 -57 -57 -57c-31 0 -56 25 -56 57z" />
    <glyph glyph-name="uni1E5F.ss02" horiz-adv-x="306" 
d="M64 0v547h79v-66c24 50 69 81 125 81c17 0 28 -1 35 -4v-71c-8 1 -18 2 -31 2c-76 0 -129 -86 -129 -209v-280h-79zM-53 -208v65h315v-65h-315z" />
    <glyph glyph-name="t.ss02" horiz-adv-x="260" 
d="M128 124c0 -40 15 -58 49 -58h65v-66h-82c-68 0 -111 46 -111 120v562h79v-135h116v-66h-116v-357z" />
    <glyph glyph-name="tbar.ss02" horiz-adv-x="260" 
d="M128 124c0 -40 15 -58 49 -58h65v-66h-82c-68 0 -111 46 -111 120v562h79v-135h116v-66h-116v-140h116v-66h-116v-151z" />
    <glyph glyph-name="tcaron.ss02" horiz-adv-x="260" 
d="M128 124c0 -40 15 -58 49 -58h65v-66h-82c-68 0 -111 46 -111 120v562h79v-135h116v-66h-116v-357zM206 590l21 194h76l-47 -194h-50z" />
    <glyph glyph-name="uni0163.ss02" horiz-adv-x="260" 
d="M128 124c0 -40 15 -58 49 -58h65v-66h-58v-4c31 -19 47 -54 40 -93c-9 -53 -50 -79 -110 -68c-27 4 -56 21 -71 44l11 60c12 -18 34 -32 53 -35c31 -5 53 10 57 35c4 27 -14 51 -45 67c-44 15 -70 56 -70 114v562h79v-135h116v-66h-116v-357z" />
    <glyph glyph-name="uni021B.ss02" horiz-adv-x="260" 
d="M128 124c0 -40 15 -58 49 -58h65v-66h-82c-68 0 -111 46 -111 120v562h79v-135h116v-66h-116v-357zM120 -238l9 177h76l-40 -177h-45z" />
    <glyph glyph-name="uni1E97.ss02" horiz-adv-x="260" 
d="M128 124c0 -40 15 -58 49 -58h65v-66h-82c-68 0 -111 46 -111 120v562h79v-135h116v-66h-116v-357zM-64 842c0 31 25 55 56 55c32 0 57 -24 57 -55c0 -32 -25 -57 -57 -57c-31 0 -56 25 -56 57zM118 842c0 31 25 55 56 55c32 0 57 -24 57 -55c0 -32 -25 -57 -57 -57
c-31 0 -56 25 -56 57z" />
    <glyph glyph-name="uni1E6D.ss02" horiz-adv-x="260" 
d="M128 124c0 -40 15 -58 49 -58h65v-66h-82c-68 0 -111 46 -111 120v562h79v-135h116v-66h-116v-357zM96 -164c0 31 25 55 56 55c32 0 57 -24 57 -55c0 -32 -25 -57 -57 -57c-31 0 -56 25 -56 57z" />
    <glyph glyph-name="uni1E6F.ss02" horiz-adv-x="260" 
d="M128 124c0 -40 15 -58 49 -58h65v-66h-82c-68 0 -111 46 -111 120v562h79v-135h116v-66h-116v-357zM-15 -208v65h315v-65h-315z" />
    <glyph glyph-name="f_f_j" horiz-adv-x="914" 
d="M117 603c0 111 63 174 187 174c62 0 121 -15 162 -51c31 33 79 51 145 51c63 0 123 -16 164 -53v-68c-46 35 -92 49 -158 49c-86 0 -114 -23 -114 -97v-61h347v-657c0 -92 -44 -143 -122 -143c-36 0 -70 13 -89 36v66c18 -19 45 -31 70 -31c43 0 62 26 62 87v576h-268
v-481h-79v481h-228v-481h-79v481h-102v66h102v56zM196 547h228v56c0 28 4 53 12 74c-36 20 -75 28 -126 28c-86 0 -114 -23 -114 -97v-61z" />
    <glyph glyph-name="f_j" horiz-adv-x="607" 
d="M117 603c0 111 63 174 187 174c63 0 123 -16 164 -53v-68c-46 35 -92 49 -158 49c-86 0 -114 -23 -114 -97v-61h347v-657c0 -92 -44 -143 -122 -143c-36 0 -70 13 -89 36v66c18 -19 45 -31 70 -31c43 0 62 26 62 87v576h-268v-481h-79v481h-102v66h102v56z" />
    <glyph glyph-name="f_t" horiz-adv-x="680" 
d="M117 603c0 111 63 174 187 174c63 0 133 -6 214 -95v-135h146v-66h-146v-337c0 -61 19 -87 61 -87c25 0 53 12 70 30v-65c-18 -23 -53 -37 -88 -37c-78 0 -122 51 -122 144v352h-243v-481h-79v481h-102v66h102v56zM196 547h243v123c-48 29 -84 35 -129 35
c-86 0 -114 -23 -114 -97v-61z" />
    <glyph glyph-name="zero" unicode="0" horiz-adv-x="691" 
d="M345 -15c-180 0 -294 151 -294 394c0 245 114 398 294 398c181 0 295 -152 295 -395c0 -245 -114 -397 -295 -397zM133 379c0 -194 82 -315 212 -315c131 0 214 122 214 318c0 195 -83 317 -214 317c-130 0 -212 -123 -212 -320z" />
    <glyph glyph-name="one" unicode="1" horiz-adv-x="358" 
d="M225 0v629c-33 -35 -80 -55 -136 -55h-38v78h29c89 0 145 36 145 109v1h82v-762h-82z" />
    <glyph glyph-name="two" unicode="2" horiz-adv-x="630" 
d="M56 101c327 204 436 315 436 433c0 99 -72 168 -175 168c-101 0 -176 -67 -182 -163h-84c11 140 121 238 267 238c151 0 257 -100 257 -243c0 -144 -115 -270 -405 -455h409v-79h-523v101z" />
    <glyph glyph-name="three" unicode="3" horiz-adv-x="652" 
d="M325 -16c-158 0 -263 82 -274 210h85c14 -83 87 -134 189 -134c114 0 193 61 193 147c0 100 -84 156 -236 156v71c117 0 199 58 199 141c0 75 -64 127 -156 127c-87 0 -152 -43 -166 -112h-83c13 116 110 187 249 187c141 0 240 -84 240 -202c0 -80 -40 -144 -105 -173
c91 -25 141 -93 141 -195c0 -131 -113 -223 -276 -223z" />
    <glyph glyph-name="four" unicode="4" horiz-adv-x="646" 
d="M51 165v69l231 528h92l-231 -518h251v225h82v-225h119v-79h-119v-165h-82v165h-343z" />
    <glyph glyph-name="five" unicode="5" horiz-adv-x="624" 
d="M304 -15c-145 0 -249 101 -253 246h80c0 -100 71 -171 173 -171c110 0 186 82 186 197c0 117 -71 198 -182 198c-78 0 -136 -42 -174 -125l-79 14l65 418h412v-79h-346l-41 -236c40 51 107 84 183 84c144 0 245 -113 245 -274c0 -160 -111 -272 -269 -272z" />
    <glyph glyph-name="six" unicode="6" horiz-adv-x="653" 
d="M336 -15c-182 0 -285 141 -285 394c0 256 108 398 296 398c133 0 226 -78 249 -204h-86c-14 82 -74 130 -163 130c-131 0 -211 -115 -226 -324c32 78 120 132 219 132c161 0 262 -101 262 -262c0 -163 -103 -264 -266 -264zM147 249c0 -112 76 -191 185 -191
c110 0 187 79 187 191c0 110 -77 188 -187 188c-109 0 -185 -78 -185 -188z" />
    <glyph glyph-name="seven" unicode="7" horiz-adv-x="604" 
d="M163 0l297 683h-409v79h502v-63l-299 -699h-91z" />
    <glyph glyph-name="eight" unicode="8" horiz-adv-x="638" 
d="M319 -15c-159 0 -268 108 -268 228c0 92 48 166 132 200c-60 32 -95 89 -95 155c0 112 95 207 231 207s231 -95 231 -207c0 -66 -35 -123 -95 -155c84 -34 132 -108 132 -200c0 -120 -109 -228 -268 -228zM133 213c0 -73 74 -147 186 -147s186 74 186 147
c0 82 -78 160 -186 160s-186 -78 -186 -160zM167 576c0 -67 61 -128 152 -128s152 61 152 128c0 61 -56 117 -152 117s-152 -56 -152 -117z" />
    <glyph glyph-name="nine" unicode="9" horiz-adv-x="653" 
d="M317 777c182 0 285 -141 285 -394c0 -256 -108 -398 -296 -398c-133 0 -226 78 -249 204h86c14 -82 74 -130 163 -130c131 0 211 115 226 324c-32 -78 -120 -132 -219 -132c-161 0 -262 101 -262 262c0 163 103 264 266 264zM134 513c0 -110 77 -188 187 -188
c109 0 185 78 185 188c0 112 -76 191 -185 191c-110 0 -187 -79 -187 -191z" />
    <glyph glyph-name="zero.zero" horiz-adv-x="691" 
d="M345 -15c-180 0 -294 151 -294 394c0 245 114 398 294 398c181 0 295 -152 295 -395c0 -245 -114 -397 -295 -397zM133 379c0 -123 33 -217 91 -269l159 585c-12 3 -25 4 -38 4c-130 0 -212 -123 -212 -320zM292 71c17 -5 34 -7 53 -7c131 0 214 122 214 318
c0 134 -39 233 -106 282z" />
    <glyph glyph-name="zero.tf" horiz-adv-x="683" 
d="M341 -15c-180 0 -294 151 -294 394c0 245 114 398 294 398c181 0 295 -152 295 -395c0 -245 -114 -397 -295 -397zM129 379c0 -194 82 -315 212 -315c131 0 214 122 214 318c0 195 -83 317 -214 317c-130 0 -212 -123 -212 -320z" />
    <glyph glyph-name="one.tf" horiz-adv-x="683" 
d="M241 0v629c-33 -35 -80 -55 -136 -55h-38v78h29c89 0 145 36 145 109v1h82v-762h-82z" />
    <glyph glyph-name="two.tf" horiz-adv-x="683" 
d="M78 101c327 204 436 315 436 433c0 99 -72 168 -175 168c-101 0 -176 -67 -182 -163h-84c11 140 121 238 267 238c151 0 257 -100 257 -243c0 -144 -115 -270 -405 -455h409v-79h-523v101z" />
    <glyph glyph-name="three.tf" horiz-adv-x="683" 
d="M337 -16c-158 0 -263 82 -274 210h85c14 -83 87 -134 189 -134c114 0 193 61 193 147c0 100 -84 156 -236 156v71c117 0 199 58 199 141c0 75 -64 127 -156 127c-87 0 -152 -43 -166 -112h-83c13 116 110 187 249 187c141 0 240 -84 240 -202c0 -80 -40 -144 -105 -173
c91 -25 141 -93 141 -195c0 -131 -113 -223 -276 -223z" />
    <glyph glyph-name="four.tf" horiz-adv-x="683" 
d="M51 165v69l231 528h92l-231 -518h251v225h82v-225h119v-79h-119v-165h-82v165h-343z" />
    <glyph glyph-name="five.tf" horiz-adv-x="683" 
d="M320 -15c-145 0 -249 101 -253 246h80c0 -100 71 -171 173 -171c110 0 186 82 186 197c0 117 -71 198 -182 198c-78 0 -136 -42 -174 -125l-79 14l65 418h412v-79h-346l-41 -236c40 51 107 84 183 84c144 0 245 -113 245 -274c0 -160 -111 -272 -269 -272z" />
    <glyph glyph-name="six.tf" horiz-adv-x="683" 
d="M339 -15c-182 0 -285 141 -285 394c0 256 108 398 296 398c133 0 226 -78 249 -204h-86c-14 82 -74 130 -163 130c-131 0 -211 -115 -226 -324c32 78 120 132 219 132c161 0 262 -101 262 -262c0 -163 -103 -264 -266 -264zM150 249c0 -112 76 -191 185 -191
c110 0 187 79 187 191c0 110 -77 188 -187 188c-109 0 -185 -78 -185 -188z" />
    <glyph glyph-name="seven.tf" horiz-adv-x="683" 
d="M196 0l297 683h-409v79h502v-63l-299 -699h-91z" />
    <glyph glyph-name="eight.tf" horiz-adv-x="683" 
d="M318 -15c-159 0 -268 108 -268 228c0 92 48 166 132 200c-60 32 -95 89 -95 155c0 112 95 207 231 207s231 -95 231 -207c0 -66 -35 -123 -95 -155c84 -34 132 -108 132 -200c0 -120 -109 -228 -268 -228zM132 213c0 -73 74 -147 186 -147s186 74 186 147
c0 82 -78 160 -186 160s-186 -78 -186 -160zM166 576c0 -67 61 -128 152 -128s152 61 152 128c0 61 -56 117 -152 117s-152 -56 -152 -117z" />
    <glyph glyph-name="nine.tf" horiz-adv-x="683" 
d="M344 777c182 0 285 -141 285 -394c0 -256 -108 -398 -296 -398c-133 0 -226 78 -249 204h86c14 -82 74 -130 163 -130c131 0 211 115 226 324c-32 -78 -120 -132 -219 -132c-161 0 -262 101 -262 262c0 163 103 264 266 264zM161 513c0 -110 77 -188 187 -188
c109 0 185 78 185 188c0 112 -76 191 -185 191c-110 0 -187 -79 -187 -191z" />
    <glyph glyph-name="zero.tf.zero" horiz-adv-x="691" 
d="M345 -15c-180 0 -294 151 -294 394c0 245 114 398 294 398c181 0 295 -152 295 -395c0 -245 -114 -397 -295 -397zM133 379c0 -123 33 -217 91 -269l159 585c-12 3 -25 4 -38 4c-130 0 -212 -123 -212 -320zM292 71c17 -5 34 -7 53 -7c131 0 214 122 214 318
c0 134 -39 233 -106 282z" />
    <glyph glyph-name="zero.dnom" horiz-adv-x="340" 
d="M170 -15c-75 0 -135 62 -135 139s60 138 135 138c76 0 135 -61 135 -138s-59 -139 -135 -139zM99 124c0 -41 31 -73 72 -73c39 0 70 32 70 73c0 42 -32 74 -71 74c-40 0 -71 -32 -71 -74z" />
    <glyph glyph-name="zero.numr" horiz-adv-x="340" 
d="M170 500c-75 0 -135 62 -135 139s60 138 135 138c76 0 135 -61 135 -138s-59 -139 -135 -139zM99 639c0 -41 31 -73 72 -73c39 0 70 32 70 73c0 42 -32 74 -71 74c-40 0 -71 -32 -71 -74z" />
    <glyph glyph-name="fraction" unicode="&#x2044;" horiz-adv-x="641" 
d="M5 0l536 762h95l-535 -762h-96z" />
    <glyph glyph-name="period" unicode="." horiz-adv-x="204" 
d="M102 -15c-33 0 -61 29 -61 62c0 34 28 60 61 60c35 0 61 -26 61 -60c0 -33 -26 -62 -61 -62z" />
    <glyph glyph-name="comma" unicode="," horiz-adv-x="193" 
d="M41 -142v259h111l-57 -259h-54z" />
    <glyph glyph-name="colon" unicode=":" horiz-adv-x="204" 
d="M102 -15c-33 0 -61 29 -61 62c0 34 28 60 61 60c35 0 61 -26 61 -60c0 -33 -26 -62 -61 -62zM41 472c0 34 28 60 61 60c35 0 61 -26 61 -60c0 -33 -26 -62 -61 -62c-33 0 -61 29 -61 62z" />
    <glyph glyph-name="semicolon" unicode=";" horiz-adv-x="211" 
d="M59 -142v259h111l-57 -259h-54zM41 458c0 34 28 60 61 60c35 0 61 -26 61 -60c0 -33 -26 -62 -61 -62c-33 0 -61 29 -61 62z" />
    <glyph glyph-name="ellipsis" unicode="&#x2026;" horiz-adv-x="674" 
d="M572 -15c-33 0 -61 29 -61 62c0 34 28 60 61 60c35 0 61 -26 61 -60c0 -33 -26 -62 -61 -62zM41 47c0 34 28 60 61 60c35 0 61 -26 61 -60c0 -33 -26 -62 -61 -62c-33 0 -61 29 -61 62zM276 47c0 34 28 60 61 60c35 0 61 -26 61 -60c0 -33 -26 -62 -61 -62
c-33 0 -61 29 -61 62z" />
    <glyph glyph-name="exclam" unicode="!" horiz-adv-x="246" 
d="M86 217v545h79v-545h-79zM64 47c0 34 28 60 61 60c35 0 61 -26 61 -60c0 -33 -26 -62 -61 -62c-33 0 -61 29 -61 62z" />
    <glyph glyph-name="exclamdown" unicode="&#xa1;" horiz-adv-x="246" 
d="M164 331v-545h-79v545h79zM64 501c0 33 26 62 61 62c33 0 61 -29 61 -62c0 -34 -28 -60 -61 -60c-35 0 -61 26 -61 60z" />
    <glyph glyph-name="question" unicode="?" horiz-adv-x="586" 
d="M215 213c0 96 44 166 136 218c69 39 104 80 104 136c0 76 -64 130 -157 130c-92 0 -161 -65 -167 -158h-80c10 140 112 238 248 238c139 0 236 -86 236 -210c0 -76 -46 -138 -152 -205c-70 -43 -89 -83 -89 -149v-29h-79v29zM195 47c0 34 28 60 61 60c35 0 61 -26 61 -60
c0 -33 -26 -62 -61 -62c-33 0 -61 29 -61 62z" />
    <glyph glyph-name="questiondown" unicode="&#xbf;" horiz-adv-x="586" 
d="M371 333c0 -96 -44 -166 -136 -218c-69 -39 -104 -80 -104 -136c0 -76 64 -130 157 -130c92 0 161 65 167 158h80c-10 -140 -112 -238 -248 -238c-139 0 -236 86 -236 210c0 76 46 138 152 205c70 43 89 83 89 149v29h79v-29zM269 499c0 33 26 62 61 62
c33 0 61 -29 61 -62c0 -34 -28 -60 -61 -60c-35 0 -61 26 -61 60z" />
    <glyph glyph-name="periodcentered" unicode="&#xb7;" horiz-adv-x="246" 
d="M125 278c-33 0 -61 29 -61 62c0 34 28 60 61 60c35 0 61 -26 61 -60c0 -33 -26 -62 -61 -62z" />
    <glyph glyph-name="bullet" unicode="&#x2022;" horiz-adv-x="312" 
d="M158 264c-52 0 -94 43 -94 97c0 51 42 93 94 93s94 -42 94 -93c0 -54 -42 -97 -94 -97z" />
    <glyph glyph-name="asterisk" unicode="*" horiz-adv-x="534" 
d="M233 327v140l-103 -103l-49 48l107 105h-147v69h148l-106 101l50 47l100 -104v147h69v-147l100 104l49 -48l-104 -100h146v-69h-143l104 -103l-49 -47l-103 100v-140h-69z" />
    <glyph glyph-name="numbersign" unicode="#" horiz-adv-x="751" 
d="M360 0l61 225h-200l-61 -225h-85l61 225h-129l21 76h128l46 170h-129l21 76h129l58 215h84l-58 -215h200l58 215h84l-58 -215h157l-22 -76h-156l-46 -170h158l-21 -76h-157l-61 -225h-83zM241 301h200l46 170h-200z" />
    <glyph glyph-name="slash" unicode="/" horiz-adv-x="487" 
d="M41 -146l318 948h87l-322 -948h-83z" />
    <glyph glyph-name="backslash" unicode="\" horiz-adv-x="487" 
d="M446 -146h-83l-322 948h87z" />
    <glyph glyph-name="asterisk.ss01" horiz-adv-x="534" 
d="M131 369l-46 42l111 109h-155v62h155l-111 105l46 44l102 -107v153h68v-153l102 107l44 -44l-110 -105h156v-62h-155l109 -109l-44 -42l-136 138z" />
    <glyph glyph-name="hyphen" unicode="-" horiz-adv-x="503" 
d="M64 307v79h375v-79h-375z" />
    <glyph glyph-name="endash" unicode="&#x2013;" horiz-adv-x="840" 
d="M64 307v79h712v-79h-712z" />
    <glyph glyph-name="emdash" unicode="&#x2014;" horiz-adv-x="1086" 
d="M64 304v79h958v-79h-958z" />
    <glyph glyph-name="underscore" unicode="_" horiz-adv-x="633" 
d="M0 -105v79h633v-79h-633z" />
    <glyph glyph-name="parenleft" unicode="(" horiz-adv-x="387" 
d="M184 -114c-93 133 -139 285 -139 459c0 172 46 323 139 456h111c-109 -134 -163 -285 -163 -457c0 -175 53 -327 161 -458h-109z" />
    <glyph glyph-name="parenright" unicode=")" horiz-adv-x="387" 
d="M94 -114c108 131 161 283 161 458c0 172 -54 323 -163 457h111c93 -133 139 -284 139 -456c0 -174 -46 -326 -139 -459h-109z" />
    <glyph glyph-name="braceleft" unicode="{" horiz-adv-x="463" 
d="M351 -115c-126 0 -181 47 -181 154v179c0 71 -24 103 -78 103v45c54 0 78 32 78 104v179c0 106 55 153 181 153h20v-85c-76 0 -109 -25 -109 -82v-171c0 -67 -22 -106 -71 -121c49 -14 71 -53 71 -120v-171c0 -57 33 -82 109 -82v-85h-20z" />
    <glyph glyph-name="braceright" unicode="}" horiz-adv-x="463" 
d="M112 -115h-20v85c76 0 109 25 109 82v171c0 67 22 106 71 121c-49 14 -71 53 -71 120v171c0 57 -33 82 -109 82v85h20c126 0 181 -47 181 -153v-179c0 -72 24 -104 78 -104v-45c-54 0 -78 -32 -78 -103v-179c0 -107 -55 -154 -181 -154z" />
    <glyph glyph-name="bracketleft" unicode="[" horiz-adv-x="439" 
d="M92 -115v917h255v-73h-174v-771h173v-73h-254z" />
    <glyph glyph-name="bracketright" unicode="]" horiz-adv-x="439" 
d="M347 -115h-254v73h173v771h-174v73h255v-917z" />
    <glyph glyph-name="quotesinglbase" unicode="&#x201a;" horiz-adv-x="267" 
d="M64 -142l32 259h111l-89 -259h-54z" />
    <glyph glyph-name="quotedblbase" unicode="&#x201e;" horiz-adv-x="425" 
d="M64 -142l32 259h111l-89 -259h-54zM222 -142l32 259h111l-89 -259h-54z" />
    <glyph glyph-name="quotedblleft" unicode="&#x201c;" horiz-adv-x="429" 
d="M207 776l-32 -259h-111l89 259h54zM226 517l89 259h54l-32 -259h-111z" />
    <glyph glyph-name="quotedblright" unicode="&#x201d;" horiz-adv-x="429" 
d="M226 516l32 259h111l-89 -259h-54zM64 516l32 259h111l-89 -259h-54z" />
    <glyph glyph-name="quoteleft" unicode="&#x2018;" horiz-adv-x="267" 
d="M207 776l-32 -259h-111l89 259h54z" />
    <glyph glyph-name="quoteright" unicode="&#x2019;" horiz-adv-x="267" 
d="M64 516l32 259h111l-89 -259h-54z" />
    <glyph glyph-name="guillemotleft" unicode="&#xab;" horiz-adv-x="610" 
d="M550 124l-234 114v117l234 115v-105l-152 -68l152 -66v-107zM64 238v117l234 115v-105l-152 -68l152 -66v-107z" />
    <glyph glyph-name="guillemotright" unicode="&#xbb;" horiz-adv-x="610" 
d="M64 124v107l152 66l-152 68v105l234 -115v-117zM316 124v107l152 66l-152 68v105l234 -115v-117z" />
    <glyph glyph-name="guilsinglleft" unicode="&#x2039;" horiz-adv-x="358" 
d="M298 124l-234 114v117l234 115v-105l-152 -68l152 -66v-107z" />
    <glyph glyph-name="guilsinglright" unicode="&#x203a;" horiz-adv-x="358" 
d="M64 124v107l152 66l-152 68v105l234 -115v-117z" />
    <glyph glyph-name="quotedbl" unicode="&#x22;" horiz-adv-x="428" 
d="M93 522l-29 280h133l-29 -280h-75zM235 802h133l-29 -280h-75z" />
    <glyph glyph-name="quotesingle" unicode="'" horiz-adv-x="215" 
d="M70 522l-29 280h133l-29 -280h-75z" />
    <glyph glyph-name="uni0E3F" unicode="&#xe3f;" horiz-adv-x="689" 
d="M292 -129v129h-200v762h200v127h81v-127h3c130 0 234 -86 234 -197c0 -83 -38 -145 -104 -172c86 -25 137 -94 137 -191c0 -124 -95 -202 -245 -202h-25v-129h-81zM173 79h119v273h-119v-273zM173 427h119v256h-119v-256zM373 79h25c99 0 162 53 162 137
c0 83 -63 136 -162 136h-25v-273zM373 427h4c88 0 149 53 149 128s-61 128 -149 128h-4v-256z" />
    <glyph glyph-name="at" unicode="@" horiz-adv-x="998" 
d="M500 -130c-267 0 -455 187 -455 453c0 265 188 453 455 453c266 0 453 -183 453 -443c0 -147 -73 -252 -177 -252c-57 0 -101 31 -122 79c-39 -49 -97 -79 -166 -79c-129 0 -219 100 -219 243c0 140 90 241 219 241c62 0 116 -24 154 -65v50h76v-316c0 -46 27 -83 65 -83
c55 0 94 84 94 194c0 210 -155 356 -377 356s-380 -156 -380 -378s158 -378 380 -378c70 0 168 34 237 82l42 -63c-69 -58 -184 -94 -279 -94zM340 324c0 -103 66 -174 156 -174c87 0 146 71 146 173s-59 174 -146 174c-90 0 -156 -72 -156 -173z" />
    <glyph glyph-name="ampersand" unicode="&#x26;" horiz-adv-x="758" 
d="M288 -15c-149 0 -243 84 -243 214c0 94 64 181 177 247c-56 57 -90 121 -90 177c0 92 71 154 183 154c114 0 185 -62 185 -152c0 -73 -58 -141 -162 -199l188 -218c28 63 43 130 40 180h74c6 -77 -19 -173 -63 -237l136 -151h-96l-83 92c-68 -67 -155 -107 -246 -107z
M130 203c1 -85 62 -142 158 -142c66 0 136 33 195 86l-214 247c-90 -52 -140 -120 -139 -191zM212 625c0 -34 31 -89 81 -147c78 43 126 100 126 145c0 53 -40 86 -104 86c-63 0 -103 -32 -103 -84z" />
    <glyph glyph-name="copyright" unicode="&#xa9;" horiz-adv-x="853" 
d="M428 -15c-224 0 -383 163 -383 396s159 396 383 396c222 0 380 -164 380 -397c0 -232 -158 -395 -380 -395zM111 381c0 -196 131 -334 318 -334c184 0 313 137 313 333c0 197 -129 335 -313 335c-187 0 -318 -138 -318 -334zM207 382c0 143 94 243 226 243
c98 0 183 -70 206 -169h-72c-17 57 -72 97 -134 97c-90 0 -153 -71 -153 -171s63 -171 153 -171c63 0 118 42 134 100h72c-23 -101 -108 -171 -206 -171c-132 0 -226 99 -226 242z" />
    <glyph glyph-name="registered" unicode="&#xae;" horiz-adv-x="853" 
d="M428 -15c-224 0 -383 163 -383 396s159 396 383 396c222 0 380 -164 380 -397c0 -232 -158 -395 -380 -395zM111 381c0 -196 131 -334 318 -334c184 0 313 137 313 333c0 197 -129 335 -313 335c-187 0 -318 -138 -318 -334zM279 172v431h157c92 0 153 -53 153 -132
c0 -56 -30 -100 -80 -121l116 -178h-68l-104 166c-6 -1 -11 -1 -17 -1h-101v-165h-56zM335 389h98c57 0 100 36 100 82c0 45 -43 80 -100 80h-98v-162z" />
    <glyph glyph-name="trademark" unicode="&#x2122;" horiz-adv-x="756" 
d="M339 450v314h72l91 -244l91 244h71v-314h-46v252l-97 -252h-38l-98 254v-254h-46zM45 720v44h261v-44h-107v-270h-46v270h-108z" />
    <glyph glyph-name="bar" unicode="|" horiz-adv-x="265" 
d="M92 -125v948h81v-948h-81z" />
    <glyph glyph-name="cent" unicode="&#xa2;" horiz-adv-x="580" 
d="M254 -99v88c-126 22 -213 133 -213 285s87 262 213 284v95h80v-93c106 -12 186 -82 211 -186h-80c-19 63 -68 106 -131 117v-434c64 11 114 55 133 120h78c-25 -108 -105 -178 -211 -190v-86h-80zM112 274c0 -110 57 -192 142 -214v428c-85 -22 -142 -104 -142 -214z" />
    <glyph glyph-name="currency" unicode="&#xa4;" horiz-adv-x="621" 
d="M311 130c-57 0 -109 19 -149 51l-56 -56l-65 64l61 61c-21 36 -33 78 -33 124c0 54 17 103 45 143l-57 58l64 64l60 -59c37 24 82 37 130 37s93 -14 130 -37l59 59l65 -65l-58 -58c29 -39 45 -88 45 -142c0 -46 -12 -88 -32 -124l60 -61l-64 -64l-56 56
c-41 -32 -93 -51 -149 -51zM144 373c0 -94 73 -167 167 -167c93 0 166 73 166 167s-73 168 -166 168c-94 0 -167 -74 -167 -168z" />
    <glyph glyph-name="dollar" unicode="$" horiz-adv-x="690" 
d="M313 -126v114c-148 19 -248 115 -263 260h92c10 -98 74 -164 171 -183v293l-31 8c-140 34 -210 100 -210 198c0 122 92 200 241 211v111h81v-112c127 -17 234 -113 248 -235h-88c-12 76 -78 138 -160 157v-282l66 -18c126 -34 197 -107 197 -209
c0 -118 -101 -194 -263 -201v-112h-81zM156 567c0 -57 51 -100 157 -131v265c-96 -8 -157 -57 -157 -134zM394 60c111 5 181 56 181 136c0 66 -50 110 -159 137l-22 5v-278z" />
    <glyph glyph-name="Euro" unicode="&#x20ac;" horiz-adv-x="910" 
d="M529 -15c-167 0 -307 114 -354 275h-130v79h115c-1 14 -2 28 -2 43c0 19 1 38 4 56h-117v79h134c51 153 187 260 350 260c170 0 301 -91 343 -237h-94c-34 99 -130 161 -249 161c-117 0 -216 -74 -261 -184h385v-79h-407c-3 -18 -4 -37 -4 -56c0 -15 1 -29 2 -43h409v-79
h-390c42 -118 145 -199 266 -199c119 0 216 63 251 164h92c-44 -148 -175 -240 -343 -240z" />
    <glyph glyph-name="uni20A6" unicode="&#x20a6;" horiz-adv-x="1125" 
d="M92 438v79h147v245h119l163 -245h284v245h82v-245h146v-79h-146v-99h146v-79h-146v-260h-120l-170 260h-277v-260h-81v260h-147v79h147v99h-147zM320 339h225l-65 99h-160v-99zM320 517h109l-109 166v-166zM573 438l66 -99h166v99h-232zM692 260l113 -170v170h-113z" />
    <glyph glyph-name="uni20A8" unicode="&#x20a8;" horiz-adv-x="1154" 
d="M598 0l-175 299c-20 -3 -40 -5 -61 -5h-189v-294h-81v762h270c160 0 261 -90 261 -234c0 -99 -48 -173 -130 -209l204 -319h-99zM173 373h189c112 0 182 59 182 155s-70 155 -182 155h-189v-310zM667 163h85c8 -65 72 -111 156 -111c85 0 138 34 138 90
c0 42 -33 71 -108 90l-97 24c-101 25 -158 78 -158 148c0 97 81 158 209 158c112 0 208 -74 219 -168h-86c-8 57 -71 102 -140 102c-79 0 -128 -35 -128 -90c0 -40 42 -72 117 -91l98 -25c95 -24 148 -79 148 -155c0 -92 -84 -150 -218 -150c-130 0 -227 73 -235 178z" />
    <glyph glyph-name="uni20B9" unicode="&#x20b9;" horiz-adv-x="600" 
d="M598 732v-76h-202c26 -29 43 -65 50 -107h152v-76h-151c-11 -88 -66 -151 -151 -177c123 -34 218 -128 302 -296h-95c-94 186 -219 271 -411 282v76h106c94 0 157 43 172 115h-278v76h276c-18 67 -80 107 -170 107h-106v76h506z" />
    <glyph glyph-name="sterling" unicode="&#xa3;" horiz-adv-x="579" 
d="M50 86c116 0 189 58 189 148c0 30 -13 63 -30 99h-159v77h122c-26 53 -49 110 -49 171c0 112 82 198 210 198c130 0 213 -85 213 -217h-84c0 80 -48 130 -124 130c-75 0 -122 -51 -122 -129c0 -46 24 -99 49 -153h197v-77h-162c16 -38 28 -76 28 -111
c0 -59 -23 -106 -62 -136h258v-85h-474v85z" />
    <glyph glyph-name="uni20A9" unicode="&#x20a9;" horiz-adv-x="1218" 
d="M3 438v79h171l-68 245h86l66 -245h235l64 245h109l68 -245h233l61 245h85l-63 -245h165v-79h-185l-26 -99h211v-79h-231l-67 -260h-121l-72 260h-216l-68 -260h-122l-72 260h-243v79h221l-28 99h-193zM280 438l26 -99h140l26 99h-192zM328 260l49 -184l48 184h-97z
M528 339h174l-28 99h-120zM575 517h77l-40 143zM756 438l28 -99h138l25 99h-191zM806 260l51 -182l45 182h-96z" />
    <glyph glyph-name="yen" unicode="&#xa5;" horiz-adv-x="677" 
d="M69 279v79h184l-250 404h97l239 -401l239 401h96l-250 -404h182v-79h-227v-49h227v-79h-227v-151h-81v151h-229v79h229v49h-229z" />
    <glyph glyph-name="uni20B9.bold" horiz-adv-x="621" 
d="M520 0c-97 194 -228 282 -428 294v79h111c112 0 182 59 182 155s-70 155 -182 155h-111v79h527v-79h-209c35 -39 54 -92 54 -155c0 -34 -6 -65 -16 -92h171v-79h-226c-24 -22 -54 -38 -89 -49c129 -35 228 -133 315 -308h-99z" />
    <glyph glyph-name="plus" unicode="+" horiz-adv-x="718" 
d="M321 73v259h-257v66h257v258h80v-258h257v-66h-257v-259h-80z" />
    <glyph glyph-name="minus" unicode="&#x2212;" horiz-adv-x="759" 
d="M64 332v66h635v-66h-635z" />
    <glyph glyph-name="multiply" unicode="&#xd7;" horiz-adv-x="602" 
d="M110 131l-46 46l193 193l-193 193l46 46l193 -193l193 193l46 -46l-193 -193l193 -193l-46 -46l-193 193z" />
    <glyph glyph-name="divide" unicode="&#xf7;" horiz-adv-x="759" 
d="M64 332v66h635v-66h-635zM324 214c0 33 26 58 58 58c34 0 59 -25 59 -58c0 -32 -25 -59 -59 -59c-32 0 -58 27 -58 59zM324 491c0 33 26 58 58 58c34 0 59 -25 59 -58c0 -32 -25 -59 -59 -59c-32 0 -58 27 -58 59z" />
    <glyph glyph-name="equal" unicode="=" horiz-adv-x="613" 
d="M64 418v66h489v-66h-489zM64 247v66h489v-66h-489z" />
    <glyph glyph-name="notequal" unicode="&#x2260;" horiz-adv-x="613" 
d="M66 113l96 137h-98v66h144l74 105h-218v66h264l94 134h100l-94 -134h125v-66h-171l-74 -105h245v-66h-291l-96 -137h-100z" />
    <glyph glyph-name="plusminus" unicode="&#xb1;" horiz-adv-x="759" 
d="M64 60v66h635v-66h-635zM88 431v66h257v258h80v-258h257v-66h-257v-259h-80v259h-257z" />
    <glyph glyph-name="percent" unicode="%" horiz-adv-x="661" 
d="M170 500c-75 0 -135 62 -135 139s60 138 135 138c76 0 135 -61 135 -138s-59 -139 -135 -139zM15 0l536 762h95l-535 -762h-96zM99 639c0 -41 31 -73 72 -73c39 0 70 32 70 73c0 42 -32 74 -71 74c-40 0 -71 -32 -71 -74zM356 124c0 77 60 138 135 138
c76 0 135 -61 135 -138s-59 -139 -135 -139c-75 0 -135 62 -135 139zM420 124c0 -41 31 -73 72 -73c39 0 70 32 70 73c0 42 -32 74 -71 74c-40 0 -71 -32 -71 -74z" />
    <glyph glyph-name="perthousand" unicode="&#x2030;" horiz-adv-x="1001" 
d="M170 500c-75 0 -135 62 -135 139s60 138 135 138c76 0 135 -61 135 -138s-59 -139 -135 -139zM15 0l536 762h95l-535 -762h-96zM99 639c0 -41 31 -73 72 -73c39 0 70 32 70 73c0 42 -32 74 -71 74c-40 0 -71 -32 -71 -74zM356 124c0 77 60 138 135 138
c76 0 135 -61 135 -138s-59 -139 -135 -139c-75 0 -135 62 -135 139zM420 124c0 -41 31 -73 72 -73c39 0 70 32 70 73c0 42 -32 74 -71 74c-40 0 -71 -32 -71 -74zM696 124c0 77 60 138 135 138c76 0 135 -61 135 -138s-59 -139 -135 -139c-75 0 -135 62 -135 139zM760 124
c0 -41 31 -73 72 -73c39 0 70 32 70 73c0 42 -32 74 -71 74c-40 0 -71 -32 -71 -74z" />
    <glyph glyph-name="arrowup" unicode="&#x2191;" horiz-adv-x="668" 
d="M116 391l-52 53l272 267l272 -267l-52 -53l-184 193v-584h-72v584z" />
    <glyph glyph-name="uni2197" unicode="&#x2197;" horiz-adv-x="656" 
d="M211 480v75l381 -4l4 -381l-74 -1l6 267l-413 -413l-51 51l413 412z" />
    <glyph glyph-name="arrowright" unicode="&#x2192;" horiz-adv-x="835" 
d="M455 544l53 52l267 -272l-267 -272l-53 52l193 184h-584v72h584z" />
    <glyph glyph-name="uni2198" unicode="&#x2198;" horiz-adv-x="656" 
d="M521 400h75l-4 -381l-381 -4l-1 74l267 -6l-413 413l51 51l412 -413z" />
    <glyph glyph-name="arrowdown" unicode="&#x2193;" horiz-adv-x="668" 
d="M116 266l184 -193v584h72v-584l184 193l52 -53l-272 -267l-272 267z" />
    <glyph glyph-name="uni2199" unicode="&#x2199;" horiz-adv-x="656" 
d="M449 31v-75l-381 4l-4 381l74 1l-6 -267l413 413l51 -51l-413 -412z" />
    <glyph glyph-name="arrowleft" unicode="&#x2190;" horiz-adv-x="835" 
d="M384 74l-53 -52l-267 272l267 272l53 -52l-193 -184h584v-72h-584z" />
    <glyph glyph-name="uni2196" unicode="&#x2196;" horiz-adv-x="656" 
d="M139 111h-75l4 381l381 4l1 -74l-267 6l413 -413l-51 -51l-412 413z" />
    <glyph glyph-name="arrowboth" unicode="&#x2194;" horiz-adv-x="913" 
d="M586 103l-52 52l201 193h-544l193 -184l-53 -52l-267 272l267 272l53 -52l-193 -184h525l-182 174l52 53l267 -272z" />
    <glyph glyph-name="arrowupdn" unicode="&#x2195;" horiz-adv-x="677" 
d="M64 230l52 52l193 -201v544l-184 -193l-52 53l272 267l272 -267l-52 -53l-184 193v-525l174 182l53 -52l-272 -267z" />
    <glyph glyph-name="arrowup.ss01" horiz-adv-x="666" 
d="M115 424l-51 51l271 270l271 -270l-51 -51l-220 220zM299 0v444h72v-444h-72z" />
    <glyph glyph-name="uni2197.ss01" horiz-adv-x="677" 
d="M234 493v73l383 -1v-383h-72v311h-311zM64 64l314 314l51 -51l-314 -314z" />
    <glyph glyph-name="arrowright.ss01" horiz-adv-x="869" 
d="M488 545l51 51l270 -271l-270 -271l-51 51l220 220zM64 289v72h444v-72h-444z" />
    <glyph glyph-name="uni2198.ss01" horiz-adv-x="677" 
d="M544 398h73l-1 -383h-383v72h311v311zM64 517l51 51l314 -314l-51 -51z" />
    <glyph glyph-name="arrowdown.ss01" horiz-adv-x="666" 
d="M555 231l51 -51l-271 -270l-271 270l51 51l220 -220zM299 211v444h72v-444h-72z" />
    <glyph glyph-name="uni2199.ss01" horiz-adv-x="677" 
d="M447 29v-73l-383 1v383h72v-311h311zM252 195l314 314l51 -51l-314 -314z" />
    <glyph glyph-name="arrowleft.ss01" horiz-adv-x="869" 
d="M385 73l-51 -51l-270 271l270 271l51 -51l-220 -220zM365 257v72h444v-72h-444z" />
    <glyph glyph-name="uni2196.ss01" horiz-adv-x="677" 
d="M137 113h-73l1 383h383v-72h-311v-311zM252 257l51 51l314 -314l-51 -51z" />
    <glyph glyph-name="uni0308" unicode="&#x308;" horiz-adv-x="0" 
d="M288 650c-31 0 -56 25 -56 57c0 31 25 55 56 55c32 0 57 -24 57 -55c0 -32 -25 -57 -57 -57zM50 707c0 31 25 55 56 55c32 0 57 -24 57 -55c0 -32 -25 -57 -57 -57c-31 0 -56 25 -56 57z" />
    <glyph glyph-name="uni0307" unicode="&#x307;" horiz-adv-x="0" 
d="M106 650c-31 0 -56 25 -56 57c0 31 25 55 56 55c32 0 57 -24 57 -55c0 -32 -25 -57 -57 -57z" />
    <glyph glyph-name="gravecomb" unicode="&#x300;" horiz-adv-x="0" 
d="M172 609l-122 153h92l86 -153h-56z" />
    <glyph glyph-name="acutecomb" unicode="&#x301;" horiz-adv-x="0" 
d="M50 610l87 153h91l-121 -153h-57z" />
    <glyph glyph-name="uni030B" unicode="&#x30b;" horiz-adv-x="0" 
d="M50 609l87 153h91l-121 -153h-57zM170 609l87 153h91l-121 -153h-57z" />
    <glyph glyph-name="uni030C.alt" horiz-adv-x="0" 
d="M50 609l21 194h76l-47 -194h-50z" />
    <glyph glyph-name="uni0302" unicode="&#x302;" horiz-adv-x="0" 
d="M50 618l80 144h106l81 -144h-81l-52 106l-52 -106h-82z" />
    <glyph glyph-name="uni030C" unicode="&#x30c;" horiz-adv-x="0" 
d="M50 762h82l52 -106l52 106h81l-81 -144h-106z" />
    <glyph glyph-name="uni0306" unicode="&#x306;" horiz-adv-x="0" 
d="M207 607c-91 0 -156 64 -157 155h64c1 -55 39 -95 93 -95s93 40 94 95h64c-1 -91 -66 -155 -158 -155z" />
    <glyph glyph-name="uni030A" unicode="&#x30a;" horiz-adv-x="0" 
d="M136 607c-48 0 -86 39 -86 87c0 49 38 87 86 87s87 -38 87 -87c0 -48 -39 -87 -87 -87zM91 694c0 -26 19 -46 45 -46s46 20 46 46s-20 47 -46 47s-45 -21 -45 -47z" />
    <glyph glyph-name="tildecomb" unicode="&#x303;" horiz-adv-x="0" 
d="M259 629c-59 0 -80 73 -125 73c-29 0 -50 -23 -54 -61l-30 26c5 59 36 95 81 95c62 0 81 -73 127 -73c28 0 49 23 53 60l30 -26c-5 -58 -36 -94 -82 -94z" />
    <glyph glyph-name="uni0304" unicode="&#x304;" horiz-adv-x="0" 
d="M50 615v65h315v-65h-315z" />
    <glyph glyph-name="uni0310" unicode="&#x310;" horiz-adv-x="0" 
d="M207 607c-91 0 -156 64 -157 155h64c1 -55 39 -95 93 -95s93 40 94 95h64c-1 -91 -66 -155 -158 -155zM151 902c0 31 25 55 56 55c32 0 57 -24 57 -55c0 -32 -25 -57 -57 -57c-31 0 -56 25 -56 57z" />
    <glyph glyph-name="uni0312" unicode="&#x312;" horiz-adv-x="0" 
d="M151 816v-198h-101l47 198h54z" />
    <glyph glyph-name="dotbelowcomb" unicode="&#x323;" horiz-adv-x="0" 
d="M106 -221c-31 0 -56 25 -56 57c0 31 25 55 56 55c32 0 57 -24 57 -55c0 -32 -25 -57 -57 -57z" />
    <glyph glyph-name="uni0324" unicode="&#x324;" horiz-adv-x="0" 
d="M288 -220c-31 0 -56 25 -56 57c0 31 25 55 56 55c32 0 57 -24 57 -55c0 -32 -25 -57 -57 -57zM50 -163c0 31 25 55 56 55c32 0 57 -24 57 -55c0 -32 -25 -57 -57 -57c-31 0 -56 25 -56 57z" />
    <glyph glyph-name="uni0326" unicode="&#x326;" horiz-adv-x="0" 
d="M50 -238l9 177h76l-40 -177h-45z" />
    <glyph glyph-name="uni0327" unicode="&#x327;" horiz-adv-x="0" 
d="M121 -189c-27 4 -56 21 -71 44l11 60c12 -18 34 -32 53 -35c31 -5 53 10 57 35c4 28 -15 53 -48 69v16h68v-28c31 -19 47 -54 40 -93c-9 -53 -50 -79 -110 -68z" />
    <glyph glyph-name="uni0328" unicode="&#x328;" horiz-adv-x="0" 
d="M154 -172c-61 0 -104 37 -104 88c0 37 23 67 64 84h79c-40 0 -70 -27 -70 -57c0 -27 21 -47 50 -47c20 0 43 9 59 25v-61c-18 -19 -50 -32 -78 -32z" />
    <glyph glyph-name="uni032E" unicode="&#x32e;" horiz-adv-x="0" 
d="M207 -238c-91 0 -156 64 -157 155h64c1 -55 39 -95 93 -95s93 40 94 95h64c-1 -91 -66 -155 -158 -155z" />
    <glyph glyph-name="uni0331" unicode="&#x331;" horiz-adv-x="0" 
d="M50 -208v65h315v-65h-315z" />
    <glyph glyph-name="uni0326.loclMAH" horiz-adv-x="0" 
d="M50 -238l9 177h76l-40 -177h-45z" />
    </font>
</defs>
</svg>
