<?xml version="1.0" standalone="no"?>
<!DOCTYPE svg PUBLIC "-//W3C//DTD SVG 1.1//EN" "http://www.w3.org/Graphics/SVG/1.1/DTD/svg11.dtd" >
<svg xmlns="http://www.w3.org/2000/svg" xmlns:xlink="http://www.w3.org/1999/xlink" version="1.1">
<metadata>
Created by FontForge 20230101 at Thu Apr  7 08:55:42 2022
 By Unknown
copyright missing
</metadata>
<defs>
<font id="LinkSans-Regular" horiz-adv-x="631" >
  <font-face 
    font-family="Link Sans"
    font-weight="400"
    font-stretch="normal"
    units-per-em="1000"
    panose-1="0 0 0 0 0 0 0 0 0 0"
    ascent="800"
    descent="-200"
    x-height="548"
    cap-height="762"
    bbox="-78 -253 4515 1008"
    underline-thickness="50"
    underline-position="-125"
    stemh="93"
    stemv="102"
    unicode-range="U+0020-A78C"
  />
<missing-glyph horiz-adv-x="616" 
d="M50 287l85 241h85l43 -129h152c-30 15 -46 36 -46 63c0 43 38 72 93 72c56 0 91 -24 102 -66l-68 -14c-5 18 -17 27 -32 27c-14 0 -22 -8 -22 -21c0 -10 9 -18 26 -23l25 -7c51 -14 73 -36 73 -72c0 -47 -34 -75 -94 -75c-45 0 -92 14 -105 59h-2v-182h-64v182h-18
l18 -55h-65l-17 55h-84l-18 -55h-67zM153 399h48l-24 77zM435 366c0 -21 18 -29 38 -29c16 0 27 8 27 20c0 10 -9 15 -39 25l-18 6l-8 3v-25z" />
    <glyph glyph-name="f_f" unicode="ff" horiz-adv-x="697" 
d="M104 612c0 103 72 165 201 165c62 0 121 -16 167 -48c24 31 61 48 109 48c42 0 81 -16 101 -39v-85c-20 19 -46 31 -75 31c-45 0 -63 -24 -63 -83v-53h138v-85h-138v-463h-102v463h-236v-463h-102v463h-92v85h92v64zM206 548h236v77c0 12 1 23 2 34
c-42 19 -89 25 -130 25c-74 0 -108 -23 -108 -87v-49z" />
    <glyph glyph-name="f_f_i" unicode="ffi" horiz-adv-x="938" 
d="M104 612c0 103 72 165 201 165c63 0 123 -16 169 -49c34 32 87 49 155 49c65 0 126 -17 173 -52v-86c-49 36 -112 45 -164 45c-74 0 -108 -23 -108 -87v-49h344v-548h-102v463h-242v-463h-102v463h-222v-463h-102v463h-92v85h92v64zM206 548h222v64c0 18 2 35 7 51
c-40 16 -83 21 -121 21c-74 0 -108 -23 -108 -87v-49z" />
    <glyph glyph-name="f_f_l" unicode="ffl" horiz-adv-x="946" 
d="M104 612c0 103 72 165 201 165c63 0 123 -16 169 -49c34 32 87 49 155 49c55 0 108 -12 151 -37v22h102v-762h-102v463h-250v-463h-102v463h-222v-463h-102v463h-92v85h92v64zM206 548h222v64c0 18 2 35 7 51c-40 16 -83 21 -121 21c-74 0 -108 -23 -108 -87v-49z
M530 548h250v105c-45 24 -97 31 -142 31c-74 0 -108 -23 -108 -87v-49z" />
    <glyph glyph-name="f_i" unicode="fi" horiz-adv-x="614" 
d="M104 612c0 103 72 165 201 165c65 0 126 -17 173 -52v-86c-49 36 -112 45 -164 45c-74 0 -108 -23 -108 -87v-49h344v-548h-102v463h-242v-463h-102v463h-92v85h92v64z" />
    <glyph glyph-name="f_l" unicode="fl" horiz-adv-x="622" 
d="M104 612c0 103 72 165 201 165c55 0 108 -12 151 -37v22h102v-762h-102v463h-250v-463h-102v463h-92v85h92v64zM206 548h250v105c-45 24 -97 31 -142 31c-74 0 -108 -23 -108 -87v-49z" />
    <glyph glyph-name=".notdef" horiz-adv-x="616" 
d="M50 287l85 241h85l43 -129h152c-30 15 -46 36 -46 63c0 43 38 72 93 72c56 0 91 -24 102 -66l-68 -14c-5 18 -17 27 -32 27c-14 0 -22 -8 -22 -21c0 -10 9 -18 26 -23l25 -7c51 -14 73 -36 73 -72c0 -47 -34 -75 -94 -75c-45 0 -92 14 -105 59h-2v-182h-64v182h-18
l18 -55h-65l-17 55h-84l-18 -55h-67zM153 399h48l-24 77zM435 366c0 -21 18 -29 38 -29c16 0 27 8 27 20c0 10 -9 15 -39 25l-18 6l-8 3v-25z" />
    <glyph glyph-name="space" unicode=" " horiz-adv-x="326" 
 />
    <glyph glyph-name="space" unicode="&#xa0;" horiz-adv-x="326" 
 />
    <glyph glyph-name="space" unicode="&#xa0;" horiz-adv-x="326" 
 />
    <glyph glyph-name="A" unicode="A" horiz-adv-x="781" 
d="M7 0l311 762h145l311 -762h-114l-85 215h-368l-85 -215h-115zM246 314h289l-144 364z" />
    <glyph glyph-name="Aacute" unicode="&#xc1;" horiz-adv-x="781" 
d="M7 0l311 762h145l311 -762h-114l-85 215h-368l-85 -215h-115zM246 314h289l-144 364zM352 827l91 156h119l-135 -156h-75z" />
    <glyph glyph-name="Abreve" unicode="&#x102;" horiz-adv-x="781" 
d="M7 0l311 762h145l311 -762h-114l-85 215h-368l-85 -215h-115zM228 983h76c1 -57 35 -94 87 -94s86 37 87 94h76c0 -99 -66 -164 -163 -164c-96 0 -163 65 -163 164zM246 314h289l-144 364z" />
    <glyph glyph-name="uni01CD" unicode="&#x1cd;" horiz-adv-x="781" 
d="M7 0l311 762h145l311 -762h-114l-85 215h-368l-85 -215h-115zM237 976h97l53 -105l53 105h96l-84 -149h-131zM246 314h289l-144 364z" />
    <glyph glyph-name="Acircumflex" unicode="&#xc2;" horiz-adv-x="781" 
d="M7 0l311 762h145l311 -762h-114l-85 215h-368l-85 -215h-115zM241 834l84 149h131l84 -149h-96l-53 105l-53 -105h-97zM246 314h289l-144 364z" />
    <glyph glyph-name="Adieresis" unicode="&#xc4;" horiz-adv-x="781" 
d="M7 0l311 762h145l311 -762h-114l-85 215h-368l-85 -215h-115zM215 916c0 38 30 67 68 67s69 -29 69 -67s-31 -69 -69 -69s-68 31 -68 69zM246 314h289l-144 364zM421 916c0 38 30 67 68 67s69 -29 69 -67s-31 -69 -69 -69s-68 31 -68 69z" />
    <glyph glyph-name="Agrave" unicode="&#xc0;" horiz-adv-x="781" 
d="M7 0l311 762h145l311 -762h-114l-85 215h-368l-85 -215h-115zM213 983h120l89 -157h-74zM246 314h289l-144 364z" />
    <glyph glyph-name="Amacron" unicode="&#x100;" horiz-adv-x="781" 
d="M7 0l311 762h145l311 -762h-114l-85 215h-368l-85 -215h-115zM213 827v78h357v-78h-357zM246 314h289l-144 364z" />
    <glyph glyph-name="Aogonek" unicode="&#x104;" horiz-adv-x="781" 
d="M7 0l311 762h145l311 -762h-27c-36 0 -63 -23 -63 -53c0 -27 20 -46 49 -46c21 0 44 9 59 23v-72c-19 -22 -53 -36 -90 -36c-64 0 -108 37 -108 93c0 39 24 72 66 91l-85 215h-368l-85 -215h-115zM246 314h289l-144 364z" />
    <glyph glyph-name="Aring" unicode="&#xc5;" horiz-adv-x="781" 
d="M7 0l311 762h145l311 -762h-114l-85 215h-368l-85 -215h-115zM246 314h289l-144 364zM291 908c0 56 44 100 100 100c55 0 100 -44 100 -100c0 -57 -45 -100 -100 -100c-56 0 -100 43 -100 100zM344 908c0 -26 21 -47 47 -47s46 21 46 47s-20 47 -46 47s-47 -21 -47 -47z
" />
    <glyph glyph-name="Atilde" unicode="&#xc3;" horiz-adv-x="781" 
d="M7 0l311 762h145l311 -762h-114l-85 215h-368l-85 -215h-115zM228 876c5 66 40 107 90 107c71 0 92 -82 144 -82c31 0 54 26 59 67l33 -36c-5 -65 -40 -106 -91 -106c-67 0 -91 82 -141 82c-33 0 -56 -26 -60 -68zM246 314h289l-144 364z" />
    <glyph glyph-name="AE" unicode="&#xc6;" horiz-adv-x="1073" 
d="M7 0l363 762h649v-100h-426v-226h306v-100h-306v-237h430v-99h-536v215h-267l-99 -215h-114zM266 314h221v348h-59z" />
    <glyph glyph-name="AEacute" unicode="&#x1fc;" horiz-adv-x="1073" 
d="M7 0l363 762h649v-100h-426v-226h306v-100h-306v-237h430v-99h-536v215h-267l-99 -215h-114zM266 314h221v348h-59zM641 827l91 156h119l-135 -156h-75z" />
    <glyph glyph-name="uni01E2" unicode="&#x1e2;" horiz-adv-x="1073" 
d="M7 0l363 762h649v-100h-426v-226h306v-100h-306v-237h430v-99h-536v215h-267l-99 -215h-114zM266 314h221v348h-59zM502 827v78h357v-78h-357z" />
    <glyph glyph-name="B" unicode="B" horiz-adv-x="704" 
d="M92 0v762h305c133 0 230 -85 230 -202c0 -74 -33 -133 -88 -167c75 -31 119 -97 119 -185c0 -128 -95 -208 -245 -208h-321zM198 100h215c85 0 139 46 139 120c0 75 -54 123 -139 123h-215v-243zM198 436h195c77 0 128 46 128 114c0 67 -51 112 -128 112h-195v-226z" />
    <glyph glyph-name="C" unicode="C" horiz-adv-x="804" 
d="M418 -15c-210 0 -373 165 -373 396c0 221 157 396 373 396c174 0 313 -100 348 -251h-118c-28 94 -115 152 -230 152c-150 0 -264 -129 -264 -297c0 -170 115 -297 264 -297c114 0 203 60 232 155h116c-37 -153 -175 -254 -348 -254z" />
    <glyph glyph-name="Cacute" unicode="&#x106;" horiz-adv-x="804" 
d="M418 -15c-210 0 -373 165 -373 396c0 221 157 396 373 396c174 0 313 -100 348 -251h-118c-28 94 -115 152 -230 152c-150 0 -264 -129 -264 -297c0 -170 115 -297 264 -297c114 0 203 60 232 155h116c-37 -153 -175 -254 -348 -254zM380 827l91 156h119l-135 -156h-75z
" />
    <glyph glyph-name="Ccaron" unicode="&#x10c;" horiz-adv-x="804" 
d="M418 -15c-210 0 -373 165 -373 396c0 221 157 396 373 396c174 0 313 -100 348 -251h-118c-28 94 -115 152 -230 152c-150 0 -264 -129 -264 -297c0 -170 115 -297 264 -297c114 0 203 60 232 155h116c-37 -153 -175 -254 -348 -254zM265 976h97l53 -105l53 105h96
l-84 -149h-131z" />
    <glyph glyph-name="Ccedilla" unicode="&#xc7;" horiz-adv-x="804" 
d="M372 -198c-32 5 -63 24 -79 49l13 71c12 -16 34 -30 55 -33c29 -5 50 8 55 33c4 27 -13 52 -42 65c-188 22 -329 179 -329 394c0 221 157 396 373 396c174 0 313 -100 348 -251h-118c-28 94 -115 152 -230 152c-150 0 -264 -129 -264 -297c0 -170 115 -297 264 -297
c114 0 203 60 232 155h116c-35 -144 -159 -242 -317 -253v-12c31 -21 48 -59 40 -100c-10 -56 -54 -84 -117 -72z" />
    <glyph glyph-name="Ccircumflex" unicode="&#x108;" horiz-adv-x="804" 
d="M418 -15c-210 0 -373 165 -373 396c0 221 157 396 373 396c174 0 313 -100 348 -251h-118c-28 94 -115 152 -230 152c-150 0 -264 -129 -264 -297c0 -170 115 -297 264 -297c114 0 203 60 232 155h116c-37 -153 -175 -254 -348 -254zM270 834l84 149h131l84 -149h-96
l-53 105l-53 -105h-97z" />
    <glyph glyph-name="Cdotaccent" unicode="&#x10a;" horiz-adv-x="804" 
d="M418 -15c-210 0 -373 165 -373 396c0 221 157 396 373 396c174 0 313 -100 348 -251h-118c-28 94 -115 152 -230 152c-150 0 -264 -129 -264 -297c0 -170 115 -297 264 -297c114 0 203 60 232 155h116c-37 -153 -175 -254 -348 -254zM351 909c0 38 30 67 68 67
s69 -29 69 -67s-31 -69 -69 -69s-68 31 -68 69z" />
    <glyph glyph-name="D" unicode="D" horiz-adv-x="791" 
d="M92 0v762h256c245 0 398 -147 398 -382c0 -233 -153 -380 -398 -380h-256zM198 100h148c181 0 295 108 295 280c0 173 -114 282 -295 282h-148v-562z" />
    <glyph glyph-name="Eth" unicode="&#xd0;" horiz-adv-x="825" 
d="M125 0v326h-109v100h109v336h257c244 0 397 -147 397 -382c0 -233 -153 -380 -397 -380h-257zM231 100h149c180 0 294 108 294 280c0 173 -114 282 -294 282h-149v-236h207v-100h-207v-226z" />
    <glyph glyph-name="Dcaron" unicode="&#x10e;" horiz-adv-x="791" 
d="M92 0v762h256c245 0 398 -147 398 -382c0 -233 -153 -380 -398 -380h-256zM198 100h148c181 0 295 108 295 280c0 173 -114 282 -295 282h-148v-562zM212 975h97l53 -105l53 105h96l-84 -149h-131z" />
    <glyph glyph-name="Dcroat" unicode="&#x110;" horiz-adv-x="825" 
d="M125 0v326h-109v100h109v336h257c244 0 397 -147 397 -382c0 -233 -153 -380 -397 -380h-257zM231 100h149c180 0 294 108 294 280c0 173 -114 282 -294 282h-149v-236h207v-100h-207v-226z" />
    <glyph glyph-name="uni1E0C" unicode="&#x1e0c;" horiz-adv-x="791" 
d="M92 0v762h256c245 0 398 -147 398 -382c0 -233 -153 -380 -398 -380h-256zM198 100h148c181 0 295 108 295 280c0 173 -114 282 -295 282h-148v-562zM293 -154c0 38 30 67 68 67s69 -29 69 -67s-31 -69 -69 -69s-68 31 -68 69z" />
    <glyph glyph-name="uni1E0E" unicode="&#x1e0e;" horiz-adv-x="791" 
d="M92 0v762h256c245 0 398 -147 398 -382c0 -233 -153 -380 -398 -380h-256zM173 -208v78h357v-78h-357zM198 100h148c181 0 295 108 295 280c0 173 -114 282 -295 282h-148v-562z" />
    <glyph glyph-name="E" unicode="E" horiz-adv-x="678" 
d="M92 0v762h532v-100h-426v-226h311v-100h-311v-237h430v-99h-536z" />
    <glyph glyph-name="Eacute" unicode="&#xc9;" horiz-adv-x="678" 
d="M92 0v762h532v-100h-426v-226h311v-100h-311v-237h430v-99h-536zM310 827l91 156h119l-135 -156h-75z" />
    <glyph glyph-name="Ecaron" unicode="&#x11a;" horiz-adv-x="678" 
d="M92 0v762h532v-100h-426v-226h311v-100h-311v-237h430v-99h-536zM195 976h97l53 -105l53 105h96l-84 -149h-131z" />
    <glyph glyph-name="Ecircumflex" unicode="&#xca;" horiz-adv-x="678" 
d="M92 0v762h532v-100h-426v-226h311v-100h-311v-237h430v-99h-536zM199 834l84 149h131l84 -149h-96l-53 105l-53 -105h-97z" />
    <glyph glyph-name="Edieresis" unicode="&#xcb;" horiz-adv-x="678" 
d="M92 0v762h532v-100h-426v-226h311v-100h-311v-237h430v-99h-536zM173 916c0 38 30 67 68 67s69 -29 69 -67s-31 -69 -69 -69s-68 31 -68 69zM379 916c0 38 30 67 68 67s69 -29 69 -67s-31 -69 -69 -69s-68 31 -68 69z" />
    <glyph glyph-name="Edotaccent" unicode="&#x116;" horiz-adv-x="678" 
d="M92 0v762h532v-100h-426v-226h311v-100h-311v-237h430v-99h-536zM280 909c0 38 30 67 68 67s69 -29 69 -67s-31 -69 -69 -69s-68 31 -68 69z" />
    <glyph glyph-name="Egrave" unicode="&#xc8;" horiz-adv-x="678" 
d="M92 0v762h532v-100h-426v-226h311v-100h-311v-237h430v-99h-536zM171 983h120l89 -157h-74z" />
    <glyph glyph-name="Emacron" unicode="&#x112;" horiz-adv-x="678" 
d="M92 0v762h532v-100h-426v-226h311v-100h-311v-237h430v-99h-536zM170 827v78h357v-78h-357z" />
    <glyph glyph-name="Eogonek" unicode="&#x118;" horiz-adv-x="678" 
d="M92 0v762h532v-100h-426v-226h311v-100h-311v-237h430v-99h4c-36 0 -63 -23 -63 -53c0 -27 20 -46 49 -46c21 0 44 9 59 23v-72c-19 -22 -53 -36 -90 -36c-64 0 -108 37 -108 93c0 39 24 72 66 91h-453z" />
    <glyph glyph-name="uni1EBC" unicode="&#x1ebc;" horiz-adv-x="678" 
d="M92 0v762h532v-100h-426v-226h311v-100h-311v-237h430v-99h-536zM186 876c5 66 40 107 90 107c71 0 92 -82 144 -82c31 0 54 26 59 67l33 -36c-5 -65 -40 -106 -91 -106c-67 0 -91 82 -141 82c-33 0 -56 -26 -60 -68z" />
    <glyph glyph-name="uni018F" unicode="&#x18f;" horiz-adv-x="824" 
d="M414 -15c-195 0 -369 126 -369 401v12h625c-7 172 -108 280 -268 280c-106 0 -196 -59 -228 -147h-119c33 141 172 246 347 246c229 0 377 -153 377 -396c0 -228 -144 -396 -365 -396zM162 309c16 -138 117 -225 252 -225c133 0 225 92 250 225h-502z" />
    <glyph glyph-name="F" unicode="F" horiz-adv-x="637" 
d="M92 0v762h532v-100h-426v-201h300v-100h-300v-361h-106z" />
    <glyph glyph-name="G" unicode="G" horiz-adv-x="832" 
d="M417 -15c-210 0 -372 165 -372 396c0 221 157 396 375 396c172 0 311 -100 346 -251h-118c-28 94 -115 152 -228 152c-152 0 -266 -129 -266 -297c0 -170 115 -297 270 -297c128 0 235 83 244 212h-201v100h305v-397h-103v115c-56 -81 -147 -129 -252 -129z" />
    <glyph glyph-name="Gbreve" unicode="&#x11e;" horiz-adv-x="832" 
d="M417 -15c-210 0 -372 165 -372 396c0 221 157 396 375 396c172 0 311 -100 346 -251h-118c-28 94 -115 152 -228 152c-152 0 -266 -129 -266 -297c0 -170 115 -297 270 -297c128 0 235 83 244 212h-201v100h305v-397h-103v115c-56 -81 -147 -129 -252 -129zM255 983h76
c1 -57 35 -94 87 -94s86 37 87 94h76c0 -99 -66 -164 -163 -164c-96 0 -163 65 -163 164z" />
    <glyph glyph-name="Gcaron" unicode="&#x1e6;" horiz-adv-x="832" 
d="M417 -15c-210 0 -372 165 -372 396c0 221 157 396 375 396c172 0 311 -100 346 -251h-118c-28 94 -115 152 -228 152c-152 0 -266 -129 -266 -297c0 -170 115 -297 270 -297c128 0 235 83 244 212h-201v100h305v-397h-103v115c-56 -81 -147 -129 -252 -129zM264 976h97
l53 -105l53 105h96l-84 -149h-131z" />
    <glyph glyph-name="Gcircumflex" unicode="&#x11c;" horiz-adv-x="832" 
d="M417 -15c-210 0 -372 165 -372 396c0 221 157 396 375 396c172 0 311 -100 346 -251h-118c-28 94 -115 152 -228 152c-152 0 -266 -129 -266 -297c0 -170 115 -297 270 -297c128 0 235 83 244 212h-201v100h305v-397h-103v115c-56 -81 -147 -129 -252 -129zM268 834
l84 149h131l84 -149h-96l-53 105l-53 -105h-97z" />
    <glyph glyph-name="uni0122" unicode="&#x122;" horiz-adv-x="832" 
d="M417 -15c-210 0 -372 165 -372 396c0 221 157 396 375 396c172 0 311 -100 346 -251h-118c-28 94 -115 152 -228 152c-152 0 -266 -129 -266 -297c0 -170 115 -297 270 -297c128 0 235 83 244 212h-201v100h305v-397h-103v115c-56 -81 -147 -129 -252 -129zM360 -238
l10 178h97l-50 -178h-57z" />
    <glyph glyph-name="Gdotaccent" unicode="&#x120;" horiz-adv-x="832" 
d="M417 -15c-210 0 -372 165 -372 396c0 221 157 396 375 396c172 0 311 -100 346 -251h-118c-28 94 -115 152 -228 152c-152 0 -266 -129 -266 -297c0 -170 115 -297 270 -297c128 0 235 83 244 212h-201v100h305v-397h-103v115c-56 -81 -147 -129 -252 -129zM350 909
c0 38 30 67 68 67s69 -29 69 -67s-31 -69 -69 -69s-68 31 -68 69z" />
    <glyph glyph-name="uni1E20" unicode="&#x1e20;" horiz-adv-x="832" 
d="M417 -15c-210 0 -372 165 -372 396c0 221 157 396 375 396c172 0 311 -100 346 -251h-118c-28 94 -115 152 -228 152c-152 0 -266 -129 -266 -297c0 -170 115 -297 270 -297c128 0 235 83 244 212h-201v100h305v-397h-103v115c-56 -81 -147 -129 -252 -129zM240 827v78
h357v-78h-357z" />
    <glyph glyph-name="H" unicode="H" horiz-adv-x="852" 
d="M654 0v329h-456v-329h-106v762h106v-333h456v333h106v-762h-106z" />
    <glyph glyph-name="Hbar" unicode="&#x126;" horiz-adv-x="893" 
d="M32 569v99h80v94h106v-94h456v94h107v-94h80v-99h-80v-569h-107v329h-456v-329h-106v569h-80zM218 429h456v140h-456v-140z" />
    <glyph glyph-name="uni1E2A" unicode="&#x1e2a;" horiz-adv-x="852" 
d="M654 0v329h-456v-329h-106v762h106v-333h456v333h106v-762h-106zM259 -74h76c1 -57 35 -94 87 -94s86 37 87 94h76c0 -99 -66 -164 -163 -164c-96 0 -163 65 -163 164z" />
    <glyph glyph-name="Hcircumflex" unicode="&#x124;" horiz-adv-x="852" 
d="M654 0v329h-456v-329h-106v762h106v-333h456v333h106v-762h-106zM277 834l84 149h131l84 -149h-96l-53 105l-53 -105h-97z" />
    <glyph glyph-name="uni1E24" unicode="&#x1e24;" horiz-adv-x="852" 
d="M654 0v329h-456v-329h-106v762h106v-333h456v333h106v-762h-106zM353 -154c0 38 30 67 68 67s69 -29 69 -67s-31 -69 -69 -69s-68 31 -68 69z" />
    <glyph glyph-name="I" unicode="I" horiz-adv-x="290" 
d="M92 0v762h106v-762h-106z" />
    <glyph glyph-name="IJ" unicode="&#x132;" horiz-adv-x="926" 
d="M92 0v762h106v-762h-106zM293 261v45h106v-50c0 -108 60 -168 167 -168c105 0 170 64 170 169v505h106v-506c0 -167 -105 -271 -274 -271c-177 0 -275 109 -275 276z" />
    <glyph glyph-name="Iacute" unicode="&#xcd;" horiz-adv-x="290" 
d="M92 0v762h106v-762h-106zM107 827l91 156h119l-135 -156h-75z" />
    <glyph glyph-name="uni01CF" unicode="&#x1cf;" horiz-adv-x="290" 
d="M92 0v762h106v-762h-106zM-9 976h97l53 -105l53 105h96l-84 -149h-131z" />
    <glyph glyph-name="Icircumflex" unicode="&#xce;" horiz-adv-x="290" 
d="M92 0v762h106v-762h-106zM-4 834l84 149h131l84 -149h-96l-53 105l-53 -105h-97z" />
    <glyph glyph-name="Idieresis" unicode="&#xcf;" horiz-adv-x="290" 
d="M92 0v762h106v-762h-106zM-30 916c0 38 30 67 68 67s69 -29 69 -67s-31 -69 -69 -69s-68 31 -68 69zM176 916c0 38 30 67 68 67s69 -29 69 -67s-31 -69 -69 -69s-68 31 -68 69z" />
    <glyph glyph-name="Idotaccent" unicode="&#x130;" horiz-adv-x="290" 
d="M92 0v762h106v-762h-106zM77 909c0 38 30 67 68 67s69 -29 69 -67s-31 -69 -69 -69s-68 31 -68 69z" />
    <glyph glyph-name="Igrave" unicode="&#xcc;" horiz-adv-x="290" 
d="M92 0v762h106v-762h-106zM-32 983h120l89 -157h-74z" />
    <glyph glyph-name="Imacron" unicode="&#x12a;" horiz-adv-x="290" 
d="M92 0v762h106v-762h-106zM-33 827v78h357v-78h-357z" />
    <glyph glyph-name="Iogonek" unicode="&#x12e;" horiz-adv-x="290" 
d="M92 0v762h106v-762c-36 0 -63 -23 -63 -53c0 -27 20 -46 49 -46c21 0 44 9 59 23v-72c-19 -22 -53 -36 -90 -36c-64 0 -108 37 -108 93c0 39 24 72 66 91h-19z" />
    <glyph glyph-name="Itilde" unicode="&#x128;" horiz-adv-x="290" 
d="M92 0v762h106v-762h-106zM-17 876c5 66 40 107 90 107c71 0 92 -82 144 -82c31 0 54 26 59 67l33 -36c-5 -65 -40 -106 -91 -106c-67 0 -91 82 -141 82c-33 0 -56 -26 -60 -68z" />
    <glyph glyph-name="J" unicode="J" horiz-adv-x="650" 
d="M292 -15c-177 0 -275 109 -275 276v45h106v-50c0 -108 60 -168 167 -168c105 0 170 64 170 169v505h106v-506c0 -167 -105 -271 -274 -271z" />
    <glyph glyph-name="uni004A0301" horiz-adv-x="650" 
d="M292 -15c-177 0 -275 109 -275 276v45h106v-50c0 -108 60 -168 167 -168c105 0 170 64 170 169v505h106v-506c0 -167 -105 -271 -274 -271zM470 827l91 156h119l-135 -156h-75z" />
    <glyph glyph-name="Jcircumflex" unicode="&#x134;" horiz-adv-x="650" 
d="M292 -15c-177 0 -275 109 -275 276v45h106v-50c0 -108 60 -168 167 -168c105 0 170 64 170 169v505h106v-506c0 -167 -105 -271 -274 -271zM359 834l84 149h131l84 -149h-96l-53 105l-53 -105h-97z" />
    <glyph glyph-name="K" unicode="K" horiz-adv-x="713" 
d="M92 0v762h106v-422l376 422h137l-311 -346l298 -416h-124l-243 346l-133 -152v-194h-106z" />
    <glyph glyph-name="uni01E8" unicode="&#x1e8;" horiz-adv-x="713" 
d="M92 0v762h106v-422l376 422h137l-311 -346l298 -416h-124l-243 346l-133 -152v-194h-106zM200 976h97l53 -105l53 105h96l-84 -149h-131z" />
    <glyph glyph-name="uni0136" unicode="&#x136;" horiz-adv-x="713" 
d="M92 0v762h106v-422l376 422h137l-311 -346l298 -416h-124l-243 346l-133 -152v-194h-106zM301 -238l10 178h97l-50 -178h-57z" />
    <glyph glyph-name="uni1E34" unicode="&#x1e34;" horiz-adv-x="713" 
d="M92 0v762h106v-422l376 422h137l-311 -346l298 -416h-124l-243 346l-133 -152v-194h-106zM166 -208v78h357v-78h-357z" />
    <glyph glyph-name="L" unicode="L" horiz-adv-x="625" 
d="M92 0v762h106v-662h420v-100h-526z" />
    <glyph glyph-name="Lacute" unicode="&#x139;" horiz-adv-x="625" 
d="M92 0v762h106v-662h420v-100h-526zM106 827l91 156h119l-135 -156h-75z" />
    <glyph glyph-name="Lcaron" unicode="&#x13d;" horiz-adv-x="625" 
d="M92 0v762h106v-662h420v-100h-526zM339 558l19 201h97l-57 -201h-59z" />
    <glyph glyph-name="uni013B" unicode="&#x13b;" horiz-adv-x="625" 
d="M92 0v762h106v-662h420v-100h-526zM294 -238l10 178h97l-50 -178h-57z" />
    <glyph glyph-name="uni1E36" unicode="&#x1e36;" horiz-adv-x="625" 
d="M92 0v762h106v-662h420v-100h-526zM280 -154c0 38 30 67 68 67s69 -29 69 -67s-31 -69 -69 -69s-68 31 -68 69z" />
    <glyph glyph-name="uni1E38" unicode="&#x1e38;" horiz-adv-x="625" 
d="M92 0v762h106v-662h420v-100h-526zM-34 827v78h357v-78h-357zM280 -154c0 38 30 67 68 67s69 -29 69 -67s-31 -69 -69 -69s-68 31 -68 69z" />
    <glyph glyph-name="uni1E3A" unicode="&#x1e3a;" horiz-adv-x="625" 
d="M92 0v762h106v-662h420v-100h-526zM160 -208v78h357v-78h-357z" />
    <glyph glyph-name="Lslash" unicode="&#x141;" horiz-adv-x="666" 
d="M18 262v109l115 54v337h106v-288l224 105v-109l-224 -105v-265h420v-100h-526v316z" />
    <glyph glyph-name="M" unicode="M" horiz-adv-x="1014" 
d="M92 0v762h166l250 -659l249 659h165v-762h-106v636l-245 -636h-127l-246 638v-638h-106z" />
    <glyph glyph-name="uni1E3E" unicode="&#x1e3e;" horiz-adv-x="1014" 
d="M92 0v762h166l250 -659l249 659h165v-762h-106v636l-245 -636h-127l-246 638v-638h-106zM468 827l91 156h119l-135 -156h-75z" />
    <glyph glyph-name="uni1E40" unicode="&#x1e40;" horiz-adv-x="1014" 
d="M92 0v762h166l250 -659l249 659h165v-762h-106v636l-245 -636h-127l-246 638v-638h-106zM439 909c0 38 30 67 68 67s69 -29 69 -67s-31 -69 -69 -69s-68 31 -68 69z" />
    <glyph glyph-name="uni1E42" unicode="&#x1e42;" horiz-adv-x="1014" 
d="M92 0v762h166l250 -659l249 659h165v-762h-106v636l-245 -636h-127l-246 638v-638h-106zM434 -154c0 38 30 67 68 67s69 -29 69 -67s-31 -69 -69 -69s-68 31 -68 69z" />
    <glyph glyph-name="N" unicode="N" horiz-adv-x="853" 
d="M92 0v762h153l409 -647v647h107v-762h-154l-409 654v-654h-106z" />
    <glyph glyph-name="Nacute" unicode="&#x143;" horiz-adv-x="853" 
d="M92 0v762h153l409 -647v647h107v-762h-154l-409 654v-654h-106zM388 827l91 156h119l-135 -156h-75z" />
    <glyph glyph-name="Ncaron" unicode="&#x147;" horiz-adv-x="853" 
d="M92 0v762h153l409 -647v647h107v-762h-154l-409 654v-654h-106zM273 976h97l53 -105l53 105h96l-84 -149h-131z" />
    <glyph glyph-name="uni0145" unicode="&#x145;" horiz-adv-x="853" 
d="M92 0v762h153l409 -647v647h107v-762h-154l-409 654v-654h-106zM368 -238l10 178h97l-50 -178h-57z" />
    <glyph glyph-name="uni1E44" unicode="&#x1e44;" horiz-adv-x="853" 
d="M92 0v762h153l409 -647v647h107v-762h-154l-409 654v-654h-106zM358 909c0 38 30 67 68 67s69 -29 69 -67s-31 -69 -69 -69s-68 31 -68 69z" />
    <glyph glyph-name="uni1E46" unicode="&#x1e46;" horiz-adv-x="853" 
d="M92 0v762h153l409 -647v647h107v-762h-154l-409 654v-654h-106zM354 -154c0 38 30 67 68 67s69 -29 69 -67s-31 -69 -69 -69s-68 31 -68 69z" />
    <glyph glyph-name="uni1E48" unicode="&#x1e48;" horiz-adv-x="853" 
d="M92 0v762h153l409 -647v647h107v-762h-154l-409 654v-654h-106zM234 -208v78h357v-78h-357z" />
    <glyph glyph-name="Ntilde" unicode="&#xd1;" horiz-adv-x="853" 
d="M92 0v762h153l409 -647v647h107v-762h-154l-409 654v-654h-106zM264 876c5 66 40 107 90 107c71 0 92 -82 144 -82c31 0 54 26 59 67l33 -36c-5 -65 -40 -106 -91 -106c-67 0 -91 82 -141 82c-33 0 -56 -26 -60 -68z" />
    <glyph glyph-name="O" unicode="O" horiz-adv-x="883" 
d="M442 -15c-234 0 -397 162 -397 396s163 396 397 396s396 -162 396 -397c0 -233 -162 -395 -396 -395zM154 381c0 -172 120 -295 288 -295c169 0 288 122 288 294c0 173 -119 297 -288 297c-168 0 -288 -123 -288 -296z" />
    <glyph glyph-name="Oacute" unicode="&#xd3;" horiz-adv-x="883" 
d="M442 -15c-234 0 -397 162 -397 396s163 396 397 396s396 -162 396 -397c0 -233 -162 -395 -396 -395zM154 381c0 -172 120 -295 288 -295c169 0 288 122 288 294c0 173 -119 297 -288 297c-168 0 -288 -123 -288 -296zM403 827l91 156h119l-135 -156h-75z" />
    <glyph glyph-name="uni01D1" unicode="&#x1d1;" horiz-adv-x="883" 
d="M442 -15c-234 0 -397 162 -397 396s163 396 397 396s396 -162 396 -397c0 -233 -162 -395 -396 -395zM154 381c0 -172 120 -295 288 -295c169 0 288 122 288 294c0 173 -119 297 -288 297c-168 0 -288 -123 -288 -296zM287 976h97l53 -105l53 105h96l-84 -149h-131z" />
    <glyph glyph-name="Ocircumflex" unicode="&#xd4;" horiz-adv-x="883" 
d="M442 -15c-234 0 -397 162 -397 396s163 396 397 396s396 -162 396 -397c0 -233 -162 -395 -396 -395zM154 381c0 -172 120 -295 288 -295c169 0 288 122 288 294c0 173 -119 297 -288 297c-168 0 -288 -123 -288 -296zM292 834l84 149h131l84 -149h-96l-53 105l-53 -105
h-97z" />
    <glyph glyph-name="Odieresis" unicode="&#xd6;" horiz-adv-x="883" 
d="M442 -15c-234 0 -397 162 -397 396s163 396 397 396s396 -162 396 -397c0 -233 -162 -395 -396 -395zM154 381c0 -172 120 -295 288 -295c169 0 288 122 288 294c0 173 -119 297 -288 297c-168 0 -288 -123 -288 -296zM266 916c0 38 30 67 68 67s69 -29 69 -67
s-31 -69 -69 -69s-68 31 -68 69zM472 916c0 38 30 67 68 67s69 -29 69 -67s-31 -69 -69 -69s-68 31 -68 69z" />
    <glyph glyph-name="Ograve" unicode="&#xd2;" horiz-adv-x="883" 
d="M442 -15c-234 0 -397 162 -397 396s163 396 397 396s396 -162 396 -397c0 -233 -162 -395 -396 -395zM154 381c0 -172 120 -295 288 -295c169 0 288 122 288 294c0 173 -119 297 -288 297c-168 0 -288 -123 -288 -296zM264 983h120l89 -157h-74z" />
    <glyph glyph-name="Ohungarumlaut" unicode="&#x150;" horiz-adv-x="883" 
d="M442 -15c-234 0 -397 162 -397 396s163 396 397 396s396 -162 396 -397c0 -233 -162 -395 -396 -395zM154 381c0 -172 120 -295 288 -295c169 0 288 122 288 294c0 173 -119 297 -288 297c-168 0 -288 -123 -288 -296zM318 826l91 156h119l-135 -156h-75zM459 826l91 156
h119l-135 -156h-75z" />
    <glyph glyph-name="Omacron" unicode="&#x14c;" horiz-adv-x="883" 
d="M442 -15c-234 0 -397 162 -397 396s163 396 397 396s396 -162 396 -397c0 -233 -162 -395 -396 -395zM154 381c0 -172 120 -295 288 -295c169 0 288 122 288 294c0 173 -119 297 -288 297c-168 0 -288 -123 -288 -296zM263 827v78h357v-78h-357z" />
    <glyph glyph-name="uni01EA" unicode="&#x1ea;" horiz-adv-x="883" 
d="M442 86c169 0 288 122 288 294c0 173 -119 297 -288 297c-168 0 -288 -123 -288 -296c0 -172 120 -295 288 -295zM45 381c0 234 163 396 397 396s396 -162 396 -397c0 -203 -123 -352 -309 -387v0c-7 -1 -15 -3 -23 -4c-24 -8 -39 -26 -39 -49c0 -27 20 -46 49 -46
c21 0 44 9 59 23v-72c-19 -22 -53 -36 -90 -36c-64 0 -108 37 -108 93c0 34 18 64 51 83c-226 7 -383 167 -383 396z" />
    <glyph glyph-name="Oslash" unicode="&#xd8;" horiz-adv-x="872" 
d="M2 0l118 129c-52 66 -81 153 -81 252c0 234 163 396 397 396c86 0 162 -22 225 -61l77 84h132l-135 -147c62 -69 98 -163 98 -273c0 -233 -163 -395 -397 -395c-96 0 -180 27 -246 75l-55 -60h-133zM148 381c0 -65 17 -123 48 -171l392 427c-43 26 -95 40 -153 40
c-168 0 -287 -123 -287 -296zM263 139c47 -34 106 -53 172 -53c169 0 288 122 288 294c0 76 -23 142 -62 192z" />
    <glyph glyph-name="Oslashacute" unicode="&#x1fe;" horiz-adv-x="872" 
d="M2 0l118 129c-52 66 -81 153 -81 252c0 234 163 396 397 396c86 0 162 -22 225 -61l77 84h132l-135 -147c62 -69 98 -163 98 -273c0 -233 -163 -395 -397 -395c-96 0 -180 27 -246 75l-55 -60h-133zM148 381c0 -65 17 -123 48 -171l392 427c-43 26 -95 40 -153 40
c-168 0 -287 -123 -287 -296zM263 139c47 -34 106 -53 172 -53c169 0 288 122 288 294c0 76 -23 142 -62 192zM394 827l91 156h119l-135 -156h-75z" />
    <glyph glyph-name="Otilde" unicode="&#xd5;" horiz-adv-x="883" 
d="M442 -15c-234 0 -397 162 -397 396s163 396 397 396s396 -162 396 -397c0 -233 -162 -395 -396 -395zM154 381c0 -172 120 -295 288 -295c169 0 288 122 288 294c0 173 -119 297 -288 297c-168 0 -288 -123 -288 -296zM279 876c5 66 40 107 90 107c71 0 92 -82 144 -82
c31 0 54 26 59 67l33 -36c-5 -65 -40 -106 -91 -106c-67 0 -91 82 -141 82c-33 0 -56 -26 -60 -68z" />
    <glyph glyph-name="OE" unicode="&#x152;" horiz-adv-x="1317" 
d="M442 -15c-234 0 -397 162 -397 396s163 396 397 396c119 0 219 -42 289 -114v99h532v-100h-427v-226h311v-100h-311v-237h431v-99h-536v98c-70 -71 -170 -113 -289 -113zM154 381c0 -172 120 -295 288 -295c169 0 288 122 288 294c0 173 -119 297 -288 297
c-168 0 -288 -123 -288 -296z" />
    <glyph glyph-name="P" unicode="P" horiz-adv-x="658" 
d="M92 0v762h291c157 0 262 -96 262 -240s-105 -240 -262 -240h-185v-282h-106zM198 381h185c95 0 158 56 158 141s-63 142 -158 142h-185v-283z" />
    <glyph glyph-name="Thorn" unicode="&#xde;" horiz-adv-x="669" 
d="M92 0v762h100v-141h203c156 0 262 -97 262 -240c0 -144 -106 -240 -262 -240h-203v-141h-100zM192 240h203c95 0 158 56 158 141s-63 141 -158 141h-203v-282z" />
    <glyph glyph-name="Q" unicode="Q" horiz-adv-x="850" 
d="M708 0l-44 44c-62 -38 -137 -59 -222 -59c-234 0 -397 162 -397 396s163 396 397 396s396 -162 396 -397c0 -110 -36 -204 -98 -272l108 -108h-140zM154 381c0 -172 120 -295 288 -295c54 0 103 12 145 35l-200 199h139l137 -136c43 50 67 118 67 196
c0 173 -119 297 -288 297c-168 0 -288 -123 -288 -296z" />
    <glyph glyph-name="R" unicode="R" horiz-adv-x="693" 
d="M565 0l-165 282h-17h-185v-282h-106v762h291c157 0 262 -96 262 -240c0 -105 -56 -184 -147 -220l193 -302h-126zM198 381h185c95 0 158 56 158 141s-63 142 -158 142h-185v-283z" />
    <glyph glyph-name="Racute" unicode="&#x154;" horiz-adv-x="693" 
d="M565 0l-165 282h-17h-185v-282h-106v762h291c157 0 262 -96 262 -240c0 -105 -56 -184 -147 -220l193 -302h-126zM198 381h185c95 0 158 56 158 141s-63 142 -158 142h-185v-283zM279 827l91 156h119l-135 -156h-75z" />
    <glyph glyph-name="Rcaron" unicode="&#x158;" horiz-adv-x="693" 
d="M565 0l-165 282h-17h-185v-282h-106v762h291c157 0 262 -96 262 -240c0 -105 -56 -184 -147 -220l193 -302h-126zM163 976h97l53 -105l53 105h96l-84 -149h-131zM198 381h185c95 0 158 56 158 141s-63 142 -158 142h-185v-283z" />
    <glyph glyph-name="uni0156" unicode="&#x156;" horiz-adv-x="693" 
d="M565 0l-165 282h-17h-185v-282h-106v762h291c157 0 262 -96 262 -240c0 -105 -56 -184 -147 -220l193 -302h-126zM198 381h185c95 0 158 56 158 141s-63 142 -158 142h-185v-283zM328 -238l10 178h97l-50 -178h-57z" />
    <glyph glyph-name="uni1E5C" unicode="&#x1e5c;" horiz-adv-x="693" 
d="M565 0l-165 282h-17h-185v-282h-106v762h291c157 0 262 -96 262 -240c0 -105 -56 -184 -147 -220l193 -302h-126zM139 827v78h357v-78h-357zM198 381h185c95 0 158 56 158 141s-63 142 -158 142h-185v-283zM314 -154c0 38 30 67 68 67s69 -29 69 -67s-31 -69 -69 -69
s-68 31 -68 69z" />
    <glyph glyph-name="uni1E5E" unicode="&#x1e5e;" horiz-adv-x="693" 
d="M565 0l-165 282h-17h-185v-282h-106v762h291c157 0 262 -96 262 -240c0 -105 -56 -184 -147 -220l193 -302h-126zM194 -208v78h357v-78h-357zM198 381h185c95 0 158 56 158 141s-63 142 -158 142h-185v-283z" />
    <glyph glyph-name="S" unicode="S" horiz-adv-x="706" 
d="M374 -15c-189 0 -315 102 -324 264h122c7 -102 89 -166 211 -166c113 0 184 45 184 118c0 53 -30 95 -146 121l-131 29c-153 34 -218 98 -218 208c0 131 116 218 289 218c159 0 290 -115 299 -244h-118c-9 80 -91 140 -192 140c-96 0 -165 -39 -165 -112
c0 -54 48 -90 151 -118l138 -36c129 -34 199 -101 199 -213c0 -129 -115 -209 -299 -209z" />
    <glyph glyph-name="Sacute" unicode="&#x15a;" horiz-adv-x="706" 
d="M374 -15c-189 0 -315 102 -324 264h122c7 -102 89 -166 211 -166c113 0 184 45 184 118c0 53 -30 95 -146 121l-131 29c-153 34 -218 98 -218 208c0 131 116 218 289 218c159 0 290 -115 299 -244h-118c-9 80 -91 140 -192 140c-96 0 -165 -39 -165 -112
c0 -54 48 -90 151 -118l138 -36c129 -34 199 -101 199 -213c0 -129 -115 -209 -299 -209zM322 827l91 156h119l-135 -156h-75z" />
    <glyph glyph-name="uniA78B" unicode="&#xa78b;" horiz-adv-x="248" 
d="M93 272l-29 490h123l-29 -490h-65z" />
    <glyph glyph-name="Scaron" unicode="&#x160;" horiz-adv-x="706" 
d="M374 -15c-189 0 -315 102 -324 264h122c7 -102 89 -166 211 -166c113 0 184 45 184 118c0 53 -30 95 -146 121l-131 29c-153 34 -218 98 -218 208c0 131 116 218 289 218c159 0 290 -115 299 -244h-118c-9 80 -91 140 -192 140c-96 0 -165 -39 -165 -112
c0 -54 48 -90 151 -118l138 -36c129 -34 199 -101 199 -213c0 -129 -115 -209 -299 -209zM207 976h97l53 -105l53 105h96l-84 -149h-131z" />
    <glyph glyph-name="Scedilla" unicode="&#x15e;" horiz-adv-x="706" 
d="M339 -199c-32 5 -63 24 -79 49l13 71c12 -16 34 -30 55 -33c29 -5 50 8 55 33c4 27 -13 52 -42 65c-171 11 -283 111 -291 263h122c7 -102 89 -166 211 -166c113 0 184 45 184 118c0 53 -30 95 -146 121l-131 29c-153 34 -218 98 -218 208c0 131 116 218 289 218
c159 0 290 -115 299 -244h-118c-9 80 -91 140 -192 140c-96 0 -165 -39 -165 -112c0 -54 48 -90 151 -118l138 -36c129 -34 199 -101 199 -213c0 -119 -98 -196 -257 -208v-13c31 -21 48 -59 40 -100c-10 -56 -54 -84 -117 -72z" />
    <glyph glyph-name="Scircumflex" unicode="&#x15c;" horiz-adv-x="706" 
d="M374 -15c-189 0 -315 102 -324 264h122c7 -102 89 -166 211 -166c113 0 184 45 184 118c0 53 -30 95 -146 121l-131 29c-153 34 -218 98 -218 208c0 131 116 218 289 218c159 0 290 -115 299 -244h-118c-9 80 -91 140 -192 140c-96 0 -165 -39 -165 -112
c0 -54 48 -90 151 -118l138 -36c129 -34 199 -101 199 -213c0 -129 -115 -209 -299 -209zM211 834l84 149h131l84 -149h-96l-53 105l-53 -105h-97z" />
    <glyph glyph-name="uni0218" unicode="&#x218;" horiz-adv-x="706" 
d="M374 -15c-189 0 -315 102 -324 264h122c7 -102 89 -166 211 -166c113 0 184 45 184 118c0 53 -30 95 -146 121l-131 29c-153 34 -218 98 -218 208c0 131 116 218 289 218c159 0 290 -115 299 -244h-118c-9 80 -91 140 -192 140c-96 0 -165 -39 -165 -112
c0 -54 48 -90 151 -118l138 -36c129 -34 199 -101 199 -213c0 -129 -115 -209 -299 -209zM323 -238l10 178h97l-50 -178h-57z" />
    <glyph glyph-name="uni1E62" unicode="&#x1e62;" horiz-adv-x="706" 
d="M374 -15c-189 0 -315 102 -324 264h122c7 -102 89 -166 211 -166c113 0 184 45 184 118c0 53 -30 95 -146 121l-131 29c-153 34 -218 98 -218 208c0 131 116 218 289 218c159 0 290 -115 299 -244h-118c-9 80 -91 140 -192 140c-96 0 -165 -39 -165 -112
c0 -54 48 -90 151 -118l138 -36c129 -34 199 -101 199 -213c0 -129 -115 -209 -299 -209zM308 -154c0 38 30 67 68 67s69 -29 69 -67s-31 -69 -69 -69s-68 31 -68 69z" />
    <glyph glyph-name="uni1E9E" unicode="&#x1e9e;" horiz-adv-x="722" 
d="M92 537c0 146 91 225 258 225h260v-98l-120 -234c116 -27 186 -101 186 -203c0 -140 -105 -227 -272 -227h-122v100h122c105 0 170 49 170 127c0 76 -68 124 -177 124h-55l157 313h-147c-101 0 -157 -47 -157 -133v-531h-103v537z" />
    <glyph glyph-name="T" unicode="T" horiz-adv-x="695" 
d="M295 0v662h-287v100h679v-100h-286v-662h-106z" />
    <glyph glyph-name="Tcaron" unicode="&#x164;" horiz-adv-x="695" 
d="M295 0v662h-287v100h679v-100h-286v-662h-106zM193 976h97l53 -105l53 105h96l-84 -149h-131z" />
    <glyph glyph-name="uni0162" unicode="&#x162;" horiz-adv-x="695" 
d="M295 0v662h-287v100h679v-100h-286v-662h-1v-13c31 -21 48 -59 40 -100c-10 -56 -54 -84 -117 -72c-32 5 -63 24 -79 49l13 71c12 -16 34 -30 55 -33c29 -5 50 8 55 33c4 27 -13 52 -42 65h-30z" />
    <glyph glyph-name="uni021A" unicode="&#x21a;" horiz-adv-x="695" 
d="M295 0v662h-287v100h679v-100h-286v-662h-106zM289 -238l10 178h97l-50 -178h-57z" />
    <glyph glyph-name="uni1E6C" unicode="&#x1e6c;" horiz-adv-x="695" 
d="M295 0v662h-287v100h679v-100h-286v-662h-106zM274 -154c0 38 30 67 68 67s69 -29 69 -67s-31 -69 -69 -69s-68 31 -68 69z" />
    <glyph glyph-name="uni1E6E" unicode="&#x1e6e;" horiz-adv-x="695" 
d="M295 0v662h-287v100h679v-100h-286v-662h-106zM155 -208v78h357v-78h-357z" />
    <glyph glyph-name="U" unicode="U" horiz-adv-x="812" 
d="M406 -15c-202 0 -322 122 -322 328v449h106v-449c0 -143 80 -225 216 -225s216 82 216 225v449h106v-449c0 -206 -121 -328 -322 -328z" />
    <glyph glyph-name="Uacute" unicode="&#xda;" horiz-adv-x="812" 
d="M406 -15c-202 0 -322 122 -322 328v449h106v-449c0 -143 80 -225 216 -225s216 82 216 225v449h106v-449c0 -206 -121 -328 -322 -328zM367 827l91 156h119l-135 -156h-75z" />
    <glyph glyph-name="Ubreve" unicode="&#x16c;" horiz-adv-x="812" 
d="M406 -15c-202 0 -322 122 -322 328v449h106v-449c0 -143 80 -225 216 -225s216 82 216 225v449h106v-449c0 -206 -121 -328 -322 -328zM243 983h76c1 -57 35 -94 87 -94s86 37 87 94h76c0 -99 -66 -164 -163 -164c-96 0 -163 65 -163 164z" />
    <glyph glyph-name="uni01D3" unicode="&#x1d3;" horiz-adv-x="812" 
d="M406 -15c-202 0 -322 122 -322 328v449h106v-449c0 -143 80 -225 216 -225s216 82 216 225v449h106v-449c0 -206 -121 -328 -322 -328zM252 976h97l53 -105l53 105h96l-84 -149h-131z" />
    <glyph glyph-name="Ucircumflex" unicode="&#xdb;" horiz-adv-x="812" 
d="M406 -15c-202 0 -322 122 -322 328v449h106v-449c0 -143 80 -225 216 -225s216 82 216 225v449h106v-449c0 -206 -121 -328 -322 -328zM256 834l84 149h131l84 -149h-96l-53 105l-53 -105h-97z" />
    <glyph glyph-name="Udieresis" unicode="&#xdc;" horiz-adv-x="812" 
d="M406 -15c-202 0 -322 122 -322 328v449h106v-449c0 -143 80 -225 216 -225s216 82 216 225v449h106v-449c0 -206 -121 -328 -322 -328zM230 916c0 38 30 67 68 67s69 -29 69 -67s-31 -69 -69 -69s-68 31 -68 69zM436 916c0 38 30 67 68 67s69 -29 69 -67s-31 -69 -69 -69
s-68 31 -68 69z" />
    <glyph glyph-name="Ugrave" unicode="&#xd9;" horiz-adv-x="812" 
d="M406 -15c-202 0 -322 122 -322 328v449h106v-449c0 -143 80 -225 216 -225s216 82 216 225v449h106v-449c0 -206 -121 -328 -322 -328zM228 983h120l89 -157h-74z" />
    <glyph glyph-name="Uhungarumlaut" unicode="&#x170;" horiz-adv-x="812" 
d="M406 -15c-202 0 -322 122 -322 328v449h106v-449c0 -143 80 -225 216 -225s216 82 216 225v449h106v-449c0 -206 -121 -328 -322 -328zM282 826l91 156h119l-135 -156h-75zM423 826l91 156h119l-135 -156h-75z" />
    <glyph glyph-name="Umacron" unicode="&#x16a;" horiz-adv-x="812" 
d="M406 -15c-202 0 -322 122 -322 328v449h106v-449c0 -143 80 -225 216 -225s216 82 216 225v449h106v-449c0 -206 -121 -328 -322 -328zM228 827v78h357v-78h-357z" />
    <glyph glyph-name="Uogonek" unicode="&#x172;" horiz-adv-x="812" 
d="M430 -194c-64 0 -108 37 -108 93c0 36 21 67 57 87c-186 10 -295 130 -295 327v449h106v-449c0 -143 80 -225 216 -225s216 82 216 225v449h106v-449c0 -182 -94 -298 -253 -323h-2c-5 -1 -11 -2 -17 -2c-26 -7 -44 -27 -44 -51c0 -27 20 -46 49 -46c21 0 44 9 59 23v-72
c-19 -22 -53 -36 -90 -36z" />
    <glyph glyph-name="Uring" unicode="&#x16e;" horiz-adv-x="812" 
d="M406 -15c-202 0 -322 122 -322 328v449h106v-449c0 -143 80 -225 216 -225s216 82 216 225v449h106v-449c0 -206 -121 -328 -322 -328zM306 908c0 56 44 100 100 100c55 0 100 -44 100 -100c0 -57 -45 -100 -100 -100c-56 0 -100 43 -100 100zM359 908
c0 -26 21 -47 47 -47s46 21 46 47s-20 47 -46 47s-47 -21 -47 -47z" />
    <glyph glyph-name="Utilde" unicode="&#x168;" horiz-adv-x="812" 
d="M406 -15c-202 0 -322 122 -322 328v449h106v-449c0 -143 80 -225 216 -225s216 82 216 225v449h106v-449c0 -206 -121 -328 -322 -328zM243 876c5 66 40 107 90 107c71 0 92 -82 144 -82c31 0 54 26 59 67l33 -36c-5 -65 -40 -106 -91 -106c-67 0 -91 82 -141 82
c-33 0 -56 -26 -60 -68z" />
    <glyph glyph-name="V" unicode="V" horiz-adv-x="773" 
d="M314 0l-311 762h115l269 -678l269 678h114l-311 -762h-145z" />
    <glyph glyph-name="W" unicode="W" horiz-adv-x="1066" 
d="M217 0l-214 762h106l180 -672l179 672h132l182 -674l175 674h106l-209 -762h-148l-172 639l-167 -639h-150z" />
    <glyph glyph-name="Wacute" unicode="&#x1e82;" horiz-adv-x="1066" 
d="M217 0l-214 762h106l180 -672l179 672h132l182 -674l175 674h106l-209 -762h-148l-172 639l-167 -639h-150zM493 827l91 156h119l-135 -156h-75z" />
    <glyph glyph-name="Wcircumflex" unicode="&#x174;" horiz-adv-x="1066" 
d="M217 0l-214 762h106l180 -672l179 672h132l182 -674l175 674h106l-209 -762h-148l-172 639l-167 -639h-150zM382 834l84 149h131l84 -149h-96l-53 105l-53 -105h-97z" />
    <glyph glyph-name="Wdieresis" unicode="&#x1e84;" horiz-adv-x="1066" 
d="M217 0l-214 762h106l180 -672l179 672h132l182 -674l175 674h106l-209 -762h-148l-172 639l-167 -639h-150zM356 916c0 38 30 67 68 67s69 -29 69 -67s-31 -69 -69 -69s-68 31 -68 69zM562 916c0 38 30 67 68 67s69 -29 69 -67s-31 -69 -69 -69s-68 31 -68 69z" />
    <glyph glyph-name="Wgrave" unicode="&#x1e80;" horiz-adv-x="1066" 
d="M217 0l-214 762h106l180 -672l179 672h132l182 -674l175 674h106l-209 -762h-148l-172 639l-167 -639h-150zM354 983h120l89 -157h-74z" />
    <glyph glyph-name="X" unicode="X" horiz-adv-x="680" 
d="M2 0l277 389l-263 373h129l195 -290l195 290h129l-263 -373l277 -389h-131l-207 303l-207 -303h-131z" />
    <glyph glyph-name="Y" unicode="Y" horiz-adv-x="707" 
d="M300 0v282l-297 480h124l226 -379l227 379h124l-298 -480v-282h-106z" />
    <glyph glyph-name="Yacute" unicode="&#xdd;" horiz-adv-x="707" 
d="M300 0v282l-297 480h124l226 -379l227 379h124l-298 -480v-282h-106zM315 827l91 156h119l-135 -156h-75z" />
    <glyph glyph-name="Ycircumflex" unicode="&#x176;" horiz-adv-x="707" 
d="M300 0v282l-297 480h124l226 -379l227 379h124l-298 -480v-282h-106zM204 834l84 149h131l84 -149h-96l-53 105l-53 -105h-97z" />
    <glyph glyph-name="Ydieresis" unicode="&#x178;" horiz-adv-x="707" 
d="M300 0v282l-297 480h124l226 -379l227 379h124l-298 -480v-282h-106zM178 916c0 38 30 67 68 67s69 -29 69 -67s-31 -69 -69 -69s-68 31 -68 69zM384 916c0 38 30 67 68 67s69 -29 69 -67s-31 -69 -69 -69s-68 31 -68 69z" />
    <glyph glyph-name="uni1E8E" unicode="&#x1e8e;" horiz-adv-x="707" 
d="M300 0v282l-297 480h124l226 -379l227 379h124l-298 -480v-282h-106zM285 909c0 38 30 67 68 67s69 -29 69 -67s-31 -69 -69 -69s-68 31 -68 69z" />
    <glyph glyph-name="Ygrave" unicode="&#x1ef2;" horiz-adv-x="707" 
d="M300 0v282l-297 480h124l226 -379l227 379h124l-298 -480v-282h-106zM176 983h120l89 -157h-74z" />
    <glyph glyph-name="uni0232" unicode="&#x232;" horiz-adv-x="707" 
d="M300 0v282l-297 480h124l226 -379l227 379h124l-298 -480v-282h-106zM176 827v78h357v-78h-357z" />
    <glyph glyph-name="uni1EF8" unicode="&#x1ef8;" horiz-adv-x="707" 
d="M300 0v282l-297 480h124l226 -379l227 379h124l-298 -480v-282h-106zM191 876c5 66 40 107 90 107c71 0 92 -82 144 -82c31 0 54 26 59 67l33 -36c-5 -65 -40 -106 -91 -106c-67 0 -91 82 -141 82c-33 0 -56 -26 -60 -68z" />
    <glyph glyph-name="Z" unicode="Z" horiz-adv-x="709" 
d="M35 0v122l532 540h-503v100h611v-122l-537 -546h539v-94h-642z" />
    <glyph glyph-name="Zacute" unicode="&#x179;" horiz-adv-x="709" 
d="M35 0v122l532 540h-503v100h611v-122l-537 -546h539v-94h-642zM317 827l91 156h119l-135 -156h-75z" />
    <glyph glyph-name="Zcaron" unicode="&#x17d;" horiz-adv-x="709" 
d="M35 0v122l532 540h-503v100h611v-122l-537 -546h539v-94h-642zM202 976h97l53 -105l53 105h96l-84 -149h-131z" />
    <glyph glyph-name="Zdotaccent" unicode="&#x17b;" horiz-adv-x="709" 
d="M35 0v122l532 540h-503v100h611v-122l-537 -546h539v-94h-642zM288 909c0 38 30 67 68 67s69 -29 69 -67s-31 -69 -69 -69s-68 31 -68 69z" />
    <glyph glyph-name="uni1E92" unicode="&#x1e92;" horiz-adv-x="709" 
d="M35 0v122l532 540h-503v100h611v-122l-537 -546h539v-94h-642zM283 -154c0 38 30 67 68 67s69 -29 69 -67s-31 -69 -69 -69s-68 31 -68 69z" />
    <glyph glyph-name="uni1E94" unicode="&#x1e94;" horiz-adv-x="709" 
d="M35 0v122l532 540h-503v100h611v-122l-537 -546h539v-94h-642zM163 -208v78h357v-78h-357z" />
    <glyph glyph-name="uni013B.loclMAH" horiz-adv-x="625" 
d="M92 0v762h106v-662h420v-100h-526zM294 -238l10 178h97l-50 -178h-57z" />
    <glyph glyph-name="uni0145.loclMAH" horiz-adv-x="853" 
d="M92 0v762h153l409 -647v647h107v-762h-154l-409 654v-654h-106zM368 -238l10 178h97l-50 -178h-57z" />
    <glyph glyph-name="Q.ss01" horiz-adv-x="883" 
d="M613 -163c-108 0 -206 68 -243 153c-195 30 -325 182 -325 391c0 234 163 396 397 396s396 -162 396 -397c0 -213 -136 -367 -338 -392c24 -33 65 -54 120 -54c73 0 123 41 158 71v-110c-28 -31 -101 -58 -165 -58zM154 381c0 -172 120 -295 288 -295
c169 0 288 122 288 294c0 173 -119 297 -288 297c-168 0 -288 -123 -288 -296z" />
    <glyph glyph-name="L.ss02" horiz-adv-x="551" 
d="M92 0v762h106v-662h346v-100h-452z" />
    <glyph glyph-name="Lacute.ss02" horiz-adv-x="551" 
d="M92 0v762h106v-662h346v-100h-452zM106 827l91 156h119l-135 -156h-75z" />
    <glyph glyph-name="Lcaron.ss02" horiz-adv-x="551" 
d="M92 0v762h106v-662h346v-100h-452zM351 561l19 201h97l-57 -201h-59z" />
    <glyph glyph-name="uni013B.ss02" horiz-adv-x="551" 
d="M92 0v762h106v-662h346v-100h-452zM261 -238l10 178h97l-50 -178h-57z" />
    <glyph glyph-name="uni1E36.ss02" horiz-adv-x="551" 
d="M92 0v762h106v-662h346v-100h-452zM247 -154c0 38 30 67 68 67s69 -29 69 -67s-31 -69 -69 -69s-68 31 -68 69z" />
    <glyph glyph-name="uni1E38.ss02" horiz-adv-x="551" 
d="M92 0v762h106v-662h346v-100h-452zM-34 827v78h357v-78h-357zM247 -154c0 38 30 67 68 67s69 -29 69 -67s-31 -69 -69 -69s-68 31 -68 69z" />
    <glyph glyph-name="Lslash.ss02" horiz-adv-x="551" 
d="M92 0v297l-74 -35v109l74 35v356h106v-307l265 124v-109l-265 -124v-246h346v-100h-452z" />
    <glyph glyph-name="L_i_n_k_t_r_e_e_one" horiz-adv-x="820" 
d="M472 856v-209l143 147l83 -85l-150 -143h211v-118h-212l151 -147l-83 -83l-205 206l-205 -206l-83 83l151 147h-212v118h211l-150 143l83 85l143 -147v209h124zM348 -1v280h124v-280h-124z" />
    <glyph glyph-name="L_i_n_k_t_r_e_e_two" horiz-adv-x="4412" 
d="M92 0v762h123v-648h340v-114h-463zM599 687c0 42 34 75 77 75c42 0 77 -33 77 -75c0 -43 -35 -77 -77 -77c-43 0 -77 34 -77 77zM616 0v549h118v-549h-118zM803 0v549h118v-76c35 58 95 91 174 91c128 0 208 -100 208 -259v-305h-118v295c0 103 -45 161 -126 161
c-89 0 -138 -61 -138 -171v-285h-118zM1365 0v762h118v-482l220 269h148l-235 -275l235 -274h-148l-220 268v-268h-118zM1897 169v520h120v-140h140v-98h-140v-283c0 -36 22 -58 56 -58h79v-110h-95c-103 0 -160 61 -160 169zM2209 0v549h118v-68c29 52 78 83 138 83
c18 0 28 -1 41 -5v-110c-8 2 -20 4 -44 4c-87 0 -135 -73 -135 -199v-254h-118zM2514 275c0 159 103 289 268 289c130 0 271 -79 271 -302v-16h-423c9 -98 66 -152 161 -152c68 0 126 37 139 88h120c-12 -110 -126 -197 -259 -197c-170 0 -277 111 -277 290zM2639 344h288
c-17 68 -70 111 -145 111c-72 0 -123 -44 -143 -111zM3105 275c0 159 103 289 268 289c130 0 271 -79 271 -302v-16h-423c9 -98 66 -152 161 -152c68 0 126 37 139 88h120c-12 -110 -126 -197 -259 -197c-170 0 -277 111 -277 290zM3230 344h288c-17 68 -70 111 -145 111
c-72 0 -123 -44 -143 -111zM3673 448v118h211l-150 143l83 85l143 -147v209h124v-209l143 147l83 -85l-150 -143h211v-118h-212l151 -147l-83 -83l-205 206l-205 -206l-83 83l151 147h-212zM3960 -1v280h124v-280h-124z" />
    <glyph glyph-name="L_i_n_k_t_r_e_e_three" horiz-adv-x="4552" 
d="M84 0v762h146v-630h331v-132h-477zM608 686c0 45 37 79 86 79c48 0 87 -34 87 -79c0 -46 -39 -81 -87 -81c-49 0 -86 35 -86 81zM624 0v551h140v-551h-140zM832 0v551h140v-70c35 54 93 85 168 85c130 0 210 -100 210 -263v-303h-140v296c0 95 -41 149 -114 149
c-80 0 -124 -56 -124 -157v-288h-140zM1414 0v762h140v-481l211 270h167l-226 -276l226 -275h-167l-211 269v-269h-140zM1973 183v508h141v-140h140v-116h-140v-249c0 -38 22 -60 57 -60h78v-126h-105c-109 0 -171 67 -171 183zM2307 0v551h140v-67c29 52 77 82 138 82
c18 0 29 -2 41 -6v-126c-8 2 -21 4 -43 4c-87 0 -136 -69 -136 -189v-249h-140zM2637 276c0 159 102 290 276 290c139 0 279 -81 279 -304v-17h-415c9 -89 59 -138 145 -138c62 0 114 33 126 81h140c-8 -112 -120 -203 -267 -203c-177 0 -284 113 -284 291zM2784 342h261
c-16 63 -63 104 -132 104c-65 0 -111 -41 -129 -104zM3236 276c0 159 102 290 276 290c139 0 279 -81 279 -304v-17h-415c9 -89 59 -138 145 -138c62 0 114 33 126 81h140c-8 -112 -120 -203 -267 -203c-177 0 -284 113 -284 291zM3383 342h261c-16 63 -63 104 -132 104
c-65 0 -111 -41 -129 -104zM3817 448v118h211l-150 143l83 85l143 -147v209h124v-209l143 147l83 -85l-150 -143h211v-118h-212l151 -147l-83 -83l-205 206l-205 -206l-83 83l151 147h-212zM4104 -1v280h124v-280h-124z" />
    <glyph glyph-name="L_i_n_k_t_r_e_e_four" horiz-adv-x="4267" 
d="M92 0v762h106v-662h346v-100h-452zM585 695c0 38 30 67 68 67s69 -29 69 -67s-31 -69 -69 -69s-68 31 -68 69zM601 0v548h102v-548h-102zM770 0v548h102v-75c35 57 94 90 170 90c129 0 210 -97 210 -252v-311h-102v301c0 107 -50 170 -134 170c-91 0 -144 -67 -144 -179
v-292h-102zM1314 0v762h102v-480l229 266h128l-242 -272l242 -276h-128l-229 270v-270h-102zM1815 149v537h103v-138h130v-85h-130v-313c0 -38 19 -58 53 -58h74v-92h-90c-89 0 -140 55 -140 149zM2104 0v548h102v-67c27 51 74 82 133 82c17 0 28 -1 38 -4v-94
c-8 1 -19 3 -38 3c-83 0 -133 -79 -133 -203v-265h-102zM2375 274c0 163 105 289 267 289c141 0 270 -94 270 -293v-19h-438c8 -107 74 -173 177 -173c72 0 133 41 151 102h104c-17 -109 -125 -195 -255 -195c-166 0 -276 114 -276 289zM2480 336h322
c-13 82 -74 135 -160 135c-82 0 -142 -54 -162 -135zM2965 274c0 163 105 289 267 289c141 0 270 -94 270 -293v-19h-438c8 -107 74 -173 177 -173c72 0 133 41 151 102h104c-17 -109 -125 -195 -255 -195c-166 0 -276 114 -276 289zM3070 336h322c-13 82 -74 135 -160 135
c-82 0 -142 -54 -162 -135zM3528 448v118h211l-150 143l83 85l143 -147v209h124v-209l143 147l83 -85l-150 -143h211v-118h-212l151 -147l-83 -83l-205 206l-205 -206l-83 83l151 147h-212zM3815 -1v280h124v-280h-124z" />
    <glyph glyph-name="a" unicode="a" horiz-adv-x="613" 
d="M240 -15c-125 0 -202 62 -202 163c0 112 86 174 231 174h181c-3 95 -57 149 -156 149c-70 0 -121 -33 -135 -92h-105c16 100 112 184 248 184c151 0 250 -94 250 -250v-313h-102v89c-48 -65 -122 -104 -210 -104zM139 156c0 -49 45 -81 114 -81c89 0 177 60 194 163h-159
c-105 0 -149 -29 -149 -82z" />
    <glyph glyph-name="aacute" unicode="&#xe1;" horiz-adv-x="613" 
d="M240 -15c-125 0 -202 62 -202 163c0 112 86 174 231 174h181c-3 95 -57 149 -156 149c-70 0 -121 -33 -135 -92h-105c16 100 112 184 248 184c151 0 250 -94 250 -250v-313h-102v89c-48 -65 -122 -104 -210 -104zM139 156c0 -49 45 -81 114 -81c89 0 177 60 194 163h-159
c-105 0 -149 -29 -149 -82zM262 613l91 156h119l-135 -156h-75z" />
    <glyph glyph-name="abreve" unicode="&#x103;" horiz-adv-x="613" 
d="M240 -15c-125 0 -202 62 -202 163c0 112 86 174 231 174h181c-3 95 -57 149 -156 149c-70 0 -121 -33 -135 -92h-105c16 100 112 184 248 184c151 0 250 -94 250 -250v-313h-102v89c-48 -65 -122 -104 -210 -104zM137 769h76c1 -57 35 -94 87 -94s86 37 87 94h76
c0 -99 -66 -164 -163 -164c-96 0 -163 65 -163 164zM139 156c0 -49 45 -81 114 -81c89 0 177 60 194 163h-159c-105 0 -149 -29 -149 -82z" />
    <glyph glyph-name="uni01CE" unicode="&#x1ce;" horiz-adv-x="613" 
d="M240 -15c-125 0 -202 62 -202 163c0 112 86 174 231 174h181c-3 95 -57 149 -156 149c-70 0 -121 -33 -135 -92h-105c16 100 112 184 248 184c151 0 250 -94 250 -250v-313h-102v89c-48 -65 -122 -104 -210 -104zM139 156c0 -49 45 -81 114 -81c89 0 177 60 194 163h-159
c-105 0 -149 -29 -149 -82zM146 762h97l53 -105l53 105h96l-84 -149h-131z" />
    <glyph glyph-name="acircumflex" unicode="&#xe2;" horiz-adv-x="613" 
d="M240 -15c-125 0 -202 62 -202 163c0 112 86 174 231 174h181c-3 95 -57 149 -156 149c-70 0 -121 -33 -135 -92h-105c16 100 112 184 248 184c151 0 250 -94 250 -250v-313h-102v89c-48 -65 -122 -104 -210 -104zM139 156c0 -49 45 -81 114 -81c89 0 177 60 194 163h-159
c-105 0 -149 -29 -149 -82zM151 620l84 149h131l84 -149h-96l-53 105l-53 -105h-97z" />
    <glyph glyph-name="adieresis" unicode="&#xe4;" horiz-adv-x="613" 
d="M240 -15c-125 0 -202 62 -202 163c0 112 86 174 231 174h181c-3 95 -57 149 -156 149c-70 0 -121 -33 -135 -92h-105c16 100 112 184 248 184c151 0 250 -94 250 -250v-313h-102v89c-48 -65 -122 -104 -210 -104zM125 702c0 38 30 67 68 67s69 -29 69 -67
s-31 -69 -69 -69s-68 31 -68 69zM139 156c0 -49 45 -81 114 -81c89 0 177 60 194 163h-159c-105 0 -149 -29 -149 -82zM331 702c0 38 30 67 68 67s69 -29 69 -67s-31 -69 -69 -69s-68 31 -68 69z" />
    <glyph glyph-name="uni1EA1" unicode="&#x1ea1;" horiz-adv-x="613" 
d="M240 -15c-125 0 -202 62 -202 163c0 112 86 174 231 174h181c-3 95 -57 149 -156 149c-70 0 -121 -33 -135 -92h-105c16 100 112 184 248 184c151 0 250 -94 250 -250v-313h-102v89c-48 -65 -122 -104 -210 -104zM139 156c0 -49 45 -81 114 -81c89 0 177 60 194 163h-159
c-105 0 -149 -29 -149 -82zM227 -154c0 38 30 67 68 67s69 -29 69 -67s-31 -69 -69 -69s-68 31 -68 69z" />
    <glyph glyph-name="agrave" unicode="&#xe0;" horiz-adv-x="613" 
d="M240 -15c-125 0 -202 62 -202 163c0 112 86 174 231 174h181c-3 95 -57 149 -156 149c-70 0 -121 -33 -135 -92h-105c16 100 112 184 248 184c151 0 250 -94 250 -250v-313h-102v89c-48 -65 -122 -104 -210 -104zM123 769h120l89 -157h-74zM139 156c0 -49 45 -81 114 -81
c89 0 177 60 194 163h-159c-105 0 -149 -29 -149 -82z" />
    <glyph glyph-name="amacron" unicode="&#x101;" horiz-adv-x="613" 
d="M240 -15c-125 0 -202 62 -202 163c0 112 86 174 231 174h181c-3 95 -57 149 -156 149c-70 0 -121 -33 -135 -92h-105c16 100 112 184 248 184c151 0 250 -94 250 -250v-313h-102v89c-48 -65 -122 -104 -210 -104zM122 613v78h357v-78h-357zM139 156c0 -49 45 -81 114 -81
c89 0 177 60 194 163h-159c-105 0 -149 -29 -149 -82z" />
    <glyph glyph-name="aogonek" unicode="&#x105;" horiz-adv-x="613" 
d="M240 -15c-125 0 -202 62 -202 163c0 112 86 174 231 174h181c-3 95 -57 149 -156 149c-70 0 -121 -33 -135 -92h-105c16 100 112 184 248 184c151 0 250 -94 250 -250v-313c-36 0 -63 -23 -63 -53c0 -27 20 -46 49 -46c21 0 44 9 59 23v-72c-19 -22 -53 -36 -90 -36
c-64 0 -108 37 -108 93c0 39 24 72 66 91h-15v89c-48 -65 -122 -104 -210 -104zM139 156c0 -49 45 -81 114 -81c89 0 177 60 194 163h-159c-105 0 -149 -29 -149 -82z" />
    <glyph glyph-name="aring" unicode="&#xe5;" horiz-adv-x="613" 
d="M240 -15c-125 0 -202 62 -202 163c0 112 86 174 231 174h181c-3 95 -57 149 -156 149c-70 0 -121 -33 -135 -92h-105c16 100 112 184 248 184c151 0 250 -94 250 -250v-313h-102v89c-48 -65 -122 -104 -210 -104zM139 156c0 -49 45 -81 114 -81c89 0 177 60 194 163h-159
c-105 0 -149 -29 -149 -82zM201 694c0 56 44 100 100 100c55 0 100 -44 100 -100c0 -57 -45 -100 -100 -100c-56 0 -100 43 -100 100zM254 694c0 -26 21 -47 47 -47s46 21 46 47s-20 47 -46 47s-47 -21 -47 -47z" />
    <glyph glyph-name="atilde" unicode="&#xe3;" horiz-adv-x="613" 
d="M240 -15c-125 0 -202 62 -202 163c0 112 86 174 231 174h181c-3 95 -57 149 -156 149c-70 0 -121 -33 -135 -92h-105c16 100 112 184 248 184c151 0 250 -94 250 -250v-313h-102v89c-48 -65 -122 -104 -210 -104zM138 662c5 66 40 107 90 107c71 0 92 -82 144 -82
c31 0 54 26 59 67l33 -36c-5 -65 -40 -106 -91 -106c-67 0 -91 82 -141 82c-33 0 -56 -26 -60 -68zM139 156c0 -49 45 -81 114 -81c89 0 177 60 194 163h-159c-105 0 -149 -29 -149 -82z" />
    <glyph glyph-name="ae" unicode="&#xe6;" horiz-adv-x="1033" 
d="M731 -15c-118 0 -207 57 -249 153c-43 -94 -130 -153 -239 -153c-124 0 -202 62 -202 163c0 112 87 174 232 174h180c-3 95 -57 149 -156 149c-69 0 -120 -33 -135 -92h-104c15 100 111 184 247 184c94 0 166 -36 208 -102c47 63 119 102 209 102c142 0 270 -94 270 -293
v-19h-438c8 -108 74 -174 177 -174c72 0 133 42 152 103h104c-18 -109 -126 -195 -256 -195zM142 156c0 -49 46 -82 115 -82c88 0 176 61 193 164h-159c-105 0 -149 -29 -149 -82zM560 336h322c-13 82 -73 136 -160 136c-82 0 -142 -55 -162 -136z" />
    <glyph glyph-name="aeacute" unicode="&#x1fd;" horiz-adv-x="1033" 
d="M731 -15c-118 0 -207 57 -249 153c-43 -94 -130 -153 -239 -153c-124 0 -202 62 -202 163c0 112 87 174 232 174h180c-3 95 -57 149 -156 149c-69 0 -120 -33 -135 -92h-104c15 100 111 184 247 184c94 0 166 -36 208 -102c47 63 119 102 209 102c142 0 270 -94 270 -293
v-19h-438c8 -108 74 -174 177 -174c72 0 133 42 152 103h104c-18 -109 -126 -195 -256 -195zM142 156c0 -49 46 -82 115 -82c88 0 176 61 193 164h-159c-105 0 -149 -29 -149 -82zM477 613l91 156h119l-135 -156h-75zM560 336h322c-13 82 -73 136 -160 136
c-82 0 -142 -55 -162 -136z" />
    <glyph glyph-name="uni01E3" unicode="&#x1e3;" horiz-adv-x="1033" 
d="M731 -15c-118 0 -207 57 -249 153c-43 -94 -130 -153 -239 -153c-124 0 -202 62 -202 163c0 112 87 174 232 174h180c-3 95 -57 149 -156 149c-69 0 -120 -33 -135 -92h-104c15 100 111 184 247 184c94 0 166 -36 208 -102c47 63 119 102 209 102c142 0 270 -94 270 -293
v-19h-438c8 -108 74 -174 177 -174c72 0 133 42 152 103h104c-18 -109 -126 -195 -256 -195zM142 156c0 -49 46 -82 115 -82c88 0 176 61 193 164h-159c-105 0 -149 -29 -149 -82zM338 613v78h357v-78h-357zM560 336h322c-13 82 -73 136 -160 136c-82 0 -142 -55 -162 -136z
" />
    <glyph glyph-name="b" unicode="b" horiz-adv-x="652" 
d="M351 -15c-77 0 -141 31 -185 83v-68h-102v762h102v-282c44 52 108 83 185 83c155 0 260 -124 260 -289c0 -166 -105 -289 -260 -289zM166 274c0 -116 69 -196 172 -196c104 0 176 83 176 196c0 112 -72 196 -176 196c-103 0 -172 -81 -172 -196z" />
    <glyph glyph-name="c" unicode="c" horiz-adv-x="607" 
d="M315 -15c-156 0 -274 119 -274 290c0 163 113 288 274 288c129 0 233 -78 257 -200h-105c-18 67 -79 108 -152 108c-102 0 -176 -82 -176 -196c0 -116 75 -197 176 -197c75 0 136 42 153 111h104c-24 -121 -125 -204 -257 -204z" />
    <glyph glyph-name="cacute" unicode="&#x107;" horiz-adv-x="607" 
d="M315 -15c-156 0 -274 119 -274 290c0 163 113 288 274 288c129 0 233 -78 257 -200h-105c-18 67 -79 108 -152 108c-102 0 -176 -82 -176 -196c0 -116 75 -197 176 -197c75 0 136 42 153 111h104c-24 -121 -125 -204 -257 -204zM282 613l91 156h119l-135 -156h-75z" />
    <glyph glyph-name="ccaron" unicode="&#x10d;" horiz-adv-x="607" 
d="M315 -15c-156 0 -274 119 -274 290c0 163 113 288 274 288c129 0 233 -78 257 -200h-105c-18 67 -79 108 -152 108c-102 0 -176 -82 -176 -196c0 -116 75 -197 176 -197c75 0 136 42 153 111h104c-24 -121 -125 -204 -257 -204zM167 762h97l53 -105l53 105h96l-84 -149
h-131z" />
    <glyph glyph-name="ccedilla" unicode="&#xe7;" horiz-adv-x="607" 
d="M275 -197c-32 5 -63 24 -79 49l13 71c12 -16 34 -30 55 -33c29 -5 50 8 55 33c4 26 -12 51 -40 64c-138 17 -238 131 -238 288c0 163 113 288 274 288c129 0 233 -78 257 -200h-105c-18 67 -79 108 -152 108c-102 0 -176 -82 -176 -196c0 -116 75 -197 176 -197
c75 0 136 42 153 111h104c-22 -109 -106 -188 -220 -202v-12c31 -21 48 -59 40 -100c-10 -56 -54 -84 -117 -72z" />
    <glyph glyph-name="ccircumflex" unicode="&#x109;" horiz-adv-x="607" 
d="M315 -15c-156 0 -274 119 -274 290c0 163 113 288 274 288c129 0 233 -78 257 -200h-105c-18 67 -79 108 -152 108c-102 0 -176 -82 -176 -196c0 -116 75 -197 176 -197c75 0 136 42 153 111h104c-24 -121 -125 -204 -257 -204zM171 620l84 149h131l84 -149h-96l-53 105
l-53 -105h-97z" />
    <glyph glyph-name="cdotaccent" unicode="&#x10b;" horiz-adv-x="607" 
d="M315 -15c-156 0 -274 119 -274 290c0 163 113 288 274 288c129 0 233 -78 257 -200h-105c-18 67 -79 108 -152 108c-102 0 -176 -82 -176 -196c0 -116 75 -197 176 -197c75 0 136 42 153 111h104c-24 -121 -125 -204 -257 -204zM252 695c0 38 30 67 68 67s69 -29 69 -67
s-31 -69 -69 -69s-68 31 -68 69z" />
    <glyph glyph-name="d" unicode="d" horiz-adv-x="652" 
d="M301 -15c-155 0 -260 123 -260 289c0 165 105 289 260 289c77 0 141 -31 185 -83v282h102v-762h-102v68c-44 -52 -108 -83 -185 -83zM138 274c0 -113 72 -196 176 -196c103 0 172 80 172 196c0 115 -69 196 -172 196c-104 0 -176 -84 -176 -196z" />
    <glyph glyph-name="eth" unicode="&#xf0;" horiz-adv-x="609" 
d="M300 -15c-152 0 -259 115 -259 279c0 161 106 274 256 274c63 0 117 -21 156 -58c-14 58 -37 102 -69 133c-6 7 -13 12 -21 18l-33 -66l-86 40l30 61c-23 4 -48 6 -76 6h-33v90h33c44 0 83 -4 118 -12l33 66l88 -37l-32 -64c20 -12 37 -26 52 -43
c72 -80 107 -208 107 -386c0 -184 -109 -301 -264 -301zM136 262c0 -110 68 -187 164 -187c97 0 164 77 164 187s-69 186 -167 186c-94 0 -161 -76 -161 -186z" />
    <glyph glyph-name="dcaron" unicode="&#x10f;" horiz-adv-x="652" 
d="M301 -15c-155 0 -260 123 -260 289c0 165 105 289 260 289c77 0 141 -31 185 -83v282h102v-762h-102v68c-44 -52 -108 -83 -185 -83zM138 274c0 -113 72 -196 176 -196c103 0 172 80 172 196c0 115 -69 196 -172 196c-104 0 -176 -84 -176 -196zM638 561l19 201h97
l-57 -201h-59z" />
    <glyph glyph-name="dcroat" unicode="&#x111;" horiz-adv-x="659" 
d="M332 607v86h154v69h102v-69h77v-86h-77v-607h-102v69c-44 -53 -108 -84 -185 -84c-156 0 -260 123 -260 289c0 165 104 289 260 289c77 0 141 -32 185 -84v128h-154zM137 274c0 -113 73 -196 177 -196c103 0 172 80 172 196c0 115 -69 196 -172 196
c-104 0 -177 -84 -177 -196z" />
    <glyph glyph-name="uni1E0D" unicode="&#x1e0d;" horiz-adv-x="652" 
d="M301 -15c-155 0 -260 123 -260 289c0 165 105 289 260 289c77 0 141 -31 185 -83v282h102v-762h-102v68c-44 -52 -108 -83 -185 -83zM138 274c0 -113 72 -196 176 -196c103 0 172 80 172 196c0 115 -69 196 -172 196c-104 0 -176 -84 -176 -196zM269 -154
c0 38 30 67 68 67s69 -29 69 -67s-31 -69 -69 -69s-68 31 -68 69z" />
    <glyph glyph-name="uni1E0F" unicode="&#x1e0f;" horiz-adv-x="652" 
d="M301 -15c-155 0 -260 123 -260 289c0 165 105 289 260 289c77 0 141 -31 185 -83v282h102v-762h-102v68c-44 -52 -108 -83 -185 -83zM138 274c0 -113 72 -196 176 -196c103 0 172 80 172 196c0 115 -69 196 -172 196c-104 0 -176 -84 -176 -196zM149 -208v78h357v-78
h-357z" />
    <glyph glyph-name="e" unicode="e" horiz-adv-x="619" 
d="M317 -15c-166 0 -276 114 -276 289c0 163 105 289 267 289c141 0 270 -94 270 -293v-19h-438c8 -107 74 -173 177 -173c72 0 133 41 151 102h104c-17 -109 -125 -195 -255 -195zM146 336h322c-13 82 -74 135 -160 135c-82 0 -142 -54 -162 -135z" />
    <glyph glyph-name="eacute" unicode="&#xe9;" horiz-adv-x="619" 
d="M317 -15c-166 0 -276 114 -276 289c0 163 105 289 267 289c141 0 270 -94 270 -293v-19h-438c8 -107 74 -173 177 -173c72 0 133 41 151 102h104c-17 -109 -125 -195 -255 -195zM146 336h322c-13 82 -74 135 -160 135c-82 0 -142 -54 -162 -135zM270 613l91 156h119
l-135 -156h-75z" />
    <glyph glyph-name="ecaron" unicode="&#x11b;" horiz-adv-x="619" 
d="M317 -15c-166 0 -276 114 -276 289c0 163 105 289 267 289c141 0 270 -94 270 -293v-19h-438c8 -107 74 -173 177 -173c72 0 133 41 151 102h104c-17 -109 -125 -195 -255 -195zM146 336h322c-13 82 -74 135 -160 135c-82 0 -142 -54 -162 -135zM155 762h97l53 -105
l53 105h96l-84 -149h-131z" />
    <glyph glyph-name="ecircumflex" unicode="&#xea;" horiz-adv-x="619" 
d="M317 -15c-166 0 -276 114 -276 289c0 163 105 289 267 289c141 0 270 -94 270 -293v-19h-438c8 -107 74 -173 177 -173c72 0 133 41 151 102h104c-17 -109 -125 -195 -255 -195zM146 336h322c-13 82 -74 135 -160 135c-82 0 -142 -54 -162 -135zM160 620l84 149h131
l84 -149h-96l-53 105l-53 -105h-97z" />
    <glyph glyph-name="edieresis" unicode="&#xeb;" horiz-adv-x="619" 
d="M317 -15c-166 0 -276 114 -276 289c0 163 105 289 267 289c141 0 270 -94 270 -293v-19h-438c8 -107 74 -173 177 -173c72 0 133 41 151 102h104c-17 -109 -125 -195 -255 -195zM133 702c0 38 30 67 68 67s69 -29 69 -67s-31 -69 -69 -69s-68 31 -68 69zM146 336h322
c-13 82 -74 135 -160 135c-82 0 -142 -54 -162 -135zM339 702c0 38 30 67 68 67s69 -29 69 -67s-31 -69 -69 -69s-68 31 -68 69z" />
    <glyph glyph-name="edotaccent" unicode="&#x117;" horiz-adv-x="619" 
d="M317 -15c-166 0 -276 114 -276 289c0 163 105 289 267 289c141 0 270 -94 270 -293v-19h-438c8 -107 74 -173 177 -173c72 0 133 41 151 102h104c-17 -109 -125 -195 -255 -195zM146 336h322c-13 82 -74 135 -160 135c-82 0 -142 -54 -162 -135zM241 695
c0 38 30 67 68 67s69 -29 69 -67s-31 -69 -69 -69s-68 31 -68 69z" />
    <glyph glyph-name="egrave" unicode="&#xe8;" horiz-adv-x="619" 
d="M317 -15c-166 0 -276 114 -276 289c0 163 105 289 267 289c141 0 270 -94 270 -293v-19h-438c8 -107 74 -173 177 -173c72 0 133 41 151 102h104c-17 -109 -125 -195 -255 -195zM131 769h120l89 -157h-74zM146 336h322c-13 82 -74 135 -160 135c-82 0 -142 -54 -162 -135
z" />
    <glyph glyph-name="emacron" unicode="&#x113;" horiz-adv-x="619" 
d="M317 -15c-166 0 -276 114 -276 289c0 163 105 289 267 289c141 0 270 -94 270 -293v-19h-438c8 -107 74 -173 177 -173c72 0 133 41 151 102h104c-17 -109 -125 -195 -255 -195zM131 613v78h357v-78h-357zM146 336h322c-13 82 -74 135 -160 135c-82 0 -142 -54 -162 -135
z" />
    <glyph glyph-name="eogonek" unicode="&#x119;" horiz-adv-x="619" 
d="M341 -191c-64 0 -108 37 -108 93c0 35 19 65 53 84c-149 14 -245 124 -245 288c0 163 105 289 267 289c141 0 270 -94 270 -293v-19h-438c8 -107 74 -173 177 -173c72 0 133 41 151 102h104c-14 -89 -89 -163 -186 -187h-1c-9 -2 -18 -4 -27 -5c-21 -8 -35 -26 -35 -48
c0 -27 20 -46 49 -46c21 0 44 9 59 23v-72c-19 -22 -53 -36 -90 -36zM146 336h322c-13 82 -74 135 -160 135c-82 0 -142 -54 -162 -135z" />
    <glyph glyph-name="uni1EBD" unicode="&#x1ebd;" horiz-adv-x="619" 
d="M317 -15c-166 0 -276 114 -276 289c0 163 105 289 267 289c141 0 270 -94 270 -293v-19h-438c8 -107 74 -173 177 -173c72 0 133 41 151 102h104c-17 -109 -125 -195 -255 -195zM146 662c5 66 40 107 90 107c71 0 92 -82 144 -82c31 0 54 26 59 67l33 -36
c-5 -65 -40 -106 -91 -106c-67 0 -91 82 -141 82c-33 0 -56 -26 -60 -68zM146 336h322c-13 82 -74 135 -160 135c-82 0 -142 -54 -162 -135z" />
    <glyph glyph-name="uni0259" unicode="&#x259;" horiz-adv-x="619" 
d="M302 563c166 0 276 -114 276 -289c0 -163 -105 -289 -267 -289c-141 0 -270 94 -270 293v19h438c-8 107 -74 173 -177 173c-72 0 -133 -41 -151 -102h-104c17 109 125 195 255 195zM151 212c13 -82 74 -135 160 -135c82 0 142 54 162 135h-322z" />
    <glyph glyph-name="f" unicode="f" horiz-adv-x="359" 
d="M104 625c0 95 52 152 139 152c42 0 81 -16 101 -39v-85c-20 19 -46 31 -75 31c-45 0 -63 -24 -63 -83v-53h138v-85h-138v-463h-102v463h-92v85h92v77z" />
    <glyph glyph-name="g" unicode="g" horiz-adv-x="647" 
d="M299 -238c-145 0 -253 88 -253 207h99c0 -69 69 -121 162 -121c110 0 174 63 174 173v61c-44 -52 -107 -83 -183 -83c-153 0 -256 122 -256 282c0 161 103 282 256 282c76 0 139 -31 183 -82v67h102v-521c0 -168 -105 -265 -284 -265zM145 281c0 -110 70 -187 170 -187
c98 0 166 76 166 187c0 110 -68 188 -166 188c-100 0 -170 -78 -170 -188z" />
    <glyph glyph-name="gbreve" unicode="&#x11f;" horiz-adv-x="647" 
d="M299 -238c-145 0 -253 88 -253 207h99c0 -69 69 -121 162 -121c110 0 174 63 174 173v61c-44 -52 -107 -83 -183 -83c-153 0 -256 122 -256 282c0 161 103 282 256 282c76 0 139 -31 183 -82v67h102v-521c0 -168 -105 -265 -284 -265zM145 281c0 -110 70 -187 170 -187
c98 0 166 76 166 187c0 110 -68 188 -166 188c-100 0 -170 -78 -170 -188zM161 769h76c1 -57 35 -94 87 -94s86 37 87 94h76c0 -99 -66 -164 -163 -164c-96 0 -163 65 -163 164z" />
    <glyph glyph-name="gcaron" unicode="&#x1e7;" horiz-adv-x="647" 
d="M299 -238c-145 0 -253 88 -253 207h99c0 -69 69 -121 162 -121c110 0 174 63 174 173v61c-44 -52 -107 -83 -183 -83c-153 0 -256 122 -256 282c0 161 103 282 256 282c76 0 139 -31 183 -82v67h102v-521c0 -168 -105 -265 -284 -265zM145 281c0 -110 70 -187 170 -187
c98 0 166 76 166 187c0 110 -68 188 -166 188c-100 0 -170 -78 -170 -188zM170 762h97l53 -105l53 105h96l-84 -149h-131z" />
    <glyph glyph-name="gcircumflex" unicode="&#x11d;" horiz-adv-x="647" 
d="M299 -238c-145 0 -253 88 -253 207h99c0 -69 69 -121 162 -121c110 0 174 63 174 173v61c-44 -52 -107 -83 -183 -83c-153 0 -256 122 -256 282c0 161 103 282 256 282c76 0 139 -31 183 -82v67h102v-521c0 -168 -105 -265 -284 -265zM145 281c0 -110 70 -187 170 -187
c98 0 166 76 166 187c0 110 -68 188 -166 188c-100 0 -170 -78 -170 -188zM174 620l84 149h131l84 -149h-96l-53 105l-53 -105h-97z" />
    <glyph glyph-name="uni0123" unicode="&#x123;" horiz-adv-x="647" 
d="M299 -238c-145 0 -253 88 -253 207h99c0 -69 69 -121 162 -121c110 0 174 63 174 173v61c-44 -52 -107 -83 -183 -83c-153 0 -256 122 -256 282c0 161 103 282 256 282c76 0 139 -31 183 -82v67h102v-521c0 -168 -105 -265 -284 -265zM145 281c0 -110 70 -187 170 -187
c98 0 166 76 166 187c0 110 -68 188 -166 188c-100 0 -170 -78 -170 -188zM247 620l56 203h73v-203h-129z" />
    <glyph glyph-name="gdotaccent" unicode="&#x121;" horiz-adv-x="647" 
d="M299 -238c-145 0 -253 88 -253 207h99c0 -69 69 -121 162 -121c110 0 174 63 174 173v61c-44 -52 -107 -83 -183 -83c-153 0 -256 122 -256 282c0 161 103 282 256 282c76 0 139 -31 183 -82v67h102v-521c0 -168 -105 -265 -284 -265zM145 281c0 -110 70 -187 170 -187
c98 0 166 76 166 187c0 110 -68 188 -166 188c-100 0 -170 -78 -170 -188zM255 695c0 38 30 67 68 67s69 -29 69 -67s-31 -69 -69 -69s-68 31 -68 69z" />
    <glyph glyph-name="uni1E21" unicode="&#x1e21;" horiz-adv-x="647" 
d="M299 -238c-145 0 -253 88 -253 207h99c0 -69 69 -121 162 -121c110 0 174 63 174 173v61c-44 -52 -107 -83 -183 -83c-153 0 -256 122 -256 282c0 161 103 282 256 282c76 0 139 -31 183 -82v67h102v-521c0 -168 -105 -265 -284 -265zM145 281c0 -110 70 -187 170 -187
c98 0 166 76 166 187c0 110 -68 188 -166 188c-100 0 -170 -78 -170 -188zM146 613v78h357v-78h-357z" />
    <glyph glyph-name="h" unicode="h" 
d="M468 301c0 110 -59 170 -147 170c-94 0 -155 -61 -155 -179v-292h-102v762h102v-279c40 51 103 81 178 81c134 0 226 -91 226 -253v-311h-102v301z" />
    <glyph glyph-name="hbar" unicode="&#x127;" horiz-adv-x="652" 
d="M-6 607v86h91v69h102v-69h161v-86h-161v-124c40 51 103 81 178 81c135 0 226 -91 226 -253v-311h-102v301c0 110 -59 170 -147 170c-94 0 -155 -61 -155 -179v-292h-102v607h-91z" />
    <glyph glyph-name="uni1E2B" unicode="&#x1e2b;" 
d="M468 301c0 110 -59 170 -147 170c-94 0 -155 -61 -155 -179v-292h-102v762h102v-279c40 51 103 81 178 81c134 0 226 -91 226 -253v-311h-102v301zM150 -74h76c1 -57 35 -94 87 -94s86 37 87 94h76c0 -99 -66 -164 -163 -164c-96 0 -163 65 -163 164z" />
    <glyph glyph-name="hcircumflex" unicode="&#x125;" 
d="M468 301c0 110 -59 170 -147 170c-94 0 -155 -61 -155 -179v-292h-102v762h102v-279c40 51 103 81 178 81c134 0 226 -91 226 -253v-311h-102v301zM203 620l84 149h131l84 -149h-96l-53 105l-53 -105h-97z" />
    <glyph glyph-name="uni1E25" unicode="&#x1e25;" 
d="M468 301c0 110 -59 170 -147 170c-94 0 -155 -61 -155 -179v-292h-102v762h102v-279c40 51 103 81 178 81c134 0 226 -91 226 -253v-311h-102v301zM244 -154c0 38 30 67 68 67s69 -29 69 -67s-31 -69 -69 -69s-68 31 -68 69z" />
    <glyph glyph-name="uni1E96" unicode="&#x1e96;" 
d="M468 301c0 110 -59 170 -147 170c-94 0 -155 -61 -155 -179v-292h-102v762h102v-279c40 51 103 81 178 81c134 0 226 -91 226 -253v-311h-102v301zM124 -208v78h357v-78h-357z" />
    <glyph glyph-name="i" unicode="i" horiz-adv-x="230" 
d="M64 0v548h102v-548h-102zM47 695c0 38 30 67 68 67s69 -29 69 -67s-31 -69 -69 -69s-68 31 -68 69z" />
    <glyph glyph-name="dotlessi" unicode="&#x131;" horiz-adv-x="230" 
d="M64 0v548h102v-548h-102z" />
    <glyph glyph-name="iacute" unicode="&#xed;" horiz-adv-x="230" 
d="M64 0v548h102v-548h-102zM77 613l91 156h119l-135 -156h-75z" />
    <glyph glyph-name="uni01D0" unicode="&#x1d0;" horiz-adv-x="230" 
d="M64 0v548h102v-548h-102zM-38 762h97l53 -105l53 105h96l-84 -149h-131z" />
    <glyph glyph-name="icircumflex" unicode="&#xee;" horiz-adv-x="230" 
d="M64 0v548h102v-548h-102zM-34 620l84 149h131l84 -149h-96l-53 105l-53 -105h-97z" />
    <glyph glyph-name="idieresis" unicode="&#xef;" horiz-adv-x="230" 
d="M64 0v548h102v-548h-102zM-60 702c0 38 30 67 68 67s69 -29 69 -67s-31 -69 -69 -69s-68 31 -68 69zM146 702c0 38 30 67 68 67s69 -29 69 -67s-31 -69 -69 -69s-68 31 -68 69z" />
    <glyph glyph-name="i.loclTRK" horiz-adv-x="230" 
d="M64 0v548h102v-548h-102zM47 695c0 38 30 67 68 67s69 -29 69 -67s-31 -69 -69 -69s-68 31 -68 69z" />
    <glyph glyph-name="igrave" unicode="&#xec;" horiz-adv-x="230" 
d="M64 0v548h102v-548h-102zM-62 769h120l89 -157h-74z" />
    <glyph glyph-name="ij" unicode="&#x133;" horiz-adv-x="478" 
d="M64 0v548h102v-548h-102zM47 695c0 38 30 67 68 67s69 -29 69 -67s-31 -69 -69 -69s-68 31 -68 69zM174 -214v85c19 -19 46 -31 75 -31c38 0 62 23 62 76v632h103v-649c0 -98 -60 -152 -139 -152c-43 0 -81 15 -101 39zM294 695c0 38 30 67 68 67s69 -29 69 -67
s-31 -69 -69 -69s-68 31 -68 69z" />
    <glyph glyph-name="imacron" unicode="&#x12b;" horiz-adv-x="230" 
d="M64 0v548h102v-548h-102zM-62 613v78h357v-78h-357z" />
    <glyph glyph-name="iogonek" unicode="&#x12f;" horiz-adv-x="230" 
d="M64 0v548h102v-548h1c-36 0 -63 -23 -63 -53c0 -27 20 -46 49 -46c21 0 44 9 59 23v-72c-19 -22 -53 -36 -90 -36c-64 0 -108 37 -108 93c0 39 24 72 66 91h-16zM47 695c0 38 30 67 68 67s69 -29 69 -67s-31 -69 -69 -69s-68 31 -68 69z" />
    <glyph glyph-name="itilde" unicode="&#x129;" horiz-adv-x="230" 
d="M64 0v548h102v-548h-102zM-47 662c5 66 40 107 90 107c71 0 92 -82 144 -82c31 0 54 26 59 67l33 -36c-5 -65 -40 -106 -91 -106c-67 0 -91 82 -141 82c-33 0 -56 -26 -60 -68z" />
    <glyph glyph-name="j" unicode="j" horiz-adv-x="248" 
d="M45 -253c-43 0 -81 15 -101 39v85c19 -19 46 -31 75 -31c38 0 62 23 62 76v632h103v-649c0 -98 -60 -152 -139 -152zM64 695c0 38 30 67 68 67s69 -29 69 -67s-31 -69 -69 -69s-68 31 -68 69z" />
    <glyph glyph-name="uni0237" unicode="&#x237;" horiz-adv-x="248" 
d="M45 -253c-43 0 -81 15 -101 39v85c19 -19 46 -31 75 -31c38 0 62 23 62 76v632h103v-649c0 -98 -60 -152 -139 -152z" />
    <glyph glyph-name="uni006A0301" horiz-adv-x="248" 
d="M45 -253c-43 0 -81 15 -101 39v85c19 -19 46 -31 75 -31c38 0 62 23 62 76v632h103v-649c0 -98 -60 -152 -139 -152zM94 613l91 156h119l-135 -156h-75z" />
    <glyph glyph-name="jcircumflex" unicode="&#x135;" horiz-adv-x="248" 
d="M45 -253c-43 0 -81 15 -101 39v85c19 -19 46 -31 75 -31c38 0 62 23 62 76v632h103v-649c0 -98 -60 -152 -139 -152zM-17 620l84 149h131l84 -149h-96l-53 105l-53 -105h-97z" />
    <glyph glyph-name="k" unicode="k" horiz-adv-x="584" 
d="M64 0v762h102v-490l270 276h133l-220 -222l232 -326h-118l-180 259l-117 -119v-140h-102z" />
    <glyph glyph-name="uni01E9" unicode="&#x1e9;" horiz-adv-x="584" 
d="M64 0v762h102v-490l270 276h133l-220 -222l232 -326h-118l-180 259l-117 -119v-140h-102zM219 762h97l53 -105l53 105h96l-84 -149h-131z" />
    <glyph glyph-name="uni0137" unicode="&#x137;" horiz-adv-x="584" 
d="M64 0v762h102v-490l270 276h133l-220 -222l232 -326h-118l-180 259l-117 -119v-140h-102zM254 -238l10 178h97l-50 -178h-57z" />
    <glyph glyph-name="uni1E35" unicode="&#x1e35;" horiz-adv-x="584" 
d="M64 0v762h102v-490l270 276h133l-220 -222l232 -326h-118l-180 259l-117 -119v-140h-102zM120 -208v78h357v-78h-357z" />
    <glyph glyph-name="l" unicode="l" horiz-adv-x="230" 
d="M64 0v762h102v-762h-102z" />
    <glyph glyph-name="lacute" unicode="&#x13a;" horiz-adv-x="230" 
d="M64 0v762h102v-762h-102zM76 827l91 156h119l-135 -156h-75z" />
    <glyph glyph-name="lcaron" unicode="&#x13e;" horiz-adv-x="230" 
d="M64 0v762h102v-762h-102zM218 561l19 201h97l-57 -201h-59z" />
    <glyph glyph-name="uni013C" unicode="&#x13c;" horiz-adv-x="230" 
d="M64 0v762h102v-762h-102zM57 -238l10 178h97l-50 -178h-57z" />
    <glyph glyph-name="uni1E37" unicode="&#x1e37;" horiz-adv-x="230" 
d="M64 0v762h102v-762h-102zM42 -154c0 38 30 67 68 67s69 -29 69 -67s-31 -69 -69 -69s-68 31 -68 69z" />
    <glyph glyph-name="uni1E39" unicode="&#x1e39;" horiz-adv-x="230" 
d="M64 0v762h102v-762h-102zM-63 827v78h357v-78h-357zM42 -154c0 38 30 67 68 67s69 -29 69 -67s-31 -69 -69 -69s-68 31 -68 69z" />
    <glyph glyph-name="uni1E3B" unicode="&#x1e3b;" horiz-adv-x="230" 
d="M64 0v762h102v-762h-102zM-78 -208v78h357v-78h-357z" />
    <glyph glyph-name="lslash" unicode="&#x142;" horiz-adv-x="499" 
d="M24 212v109l175 82v359h102v-311l174 81v-110l-174 -81v-341h-102v293z" />
    <glyph glyph-name="m" unicode="m" horiz-adv-x="987" 
d="M823 301c0 105 -52 169 -134 169c-91 0 -143 -65 -143 -178v-292h-97v301c0 105 -52 169 -138 169c-93 0 -145 -63 -145 -178v-292h-102v548h102v-65c37 51 94 80 164 80c90 0 157 -45 191 -122c34 76 103 122 193 122c130 0 212 -97 212 -252v-311h-103v301z" />
    <glyph glyph-name="uni1E3F" unicode="&#x1e3f;" horiz-adv-x="987" 
d="M823 301c0 105 -52 169 -134 169c-91 0 -143 -65 -143 -178v-292h-97v301c0 105 -52 169 -138 169c-93 0 -145 -63 -145 -178v-292h-102v548h102v-65c37 51 94 80 164 80c90 0 157 -45 191 -122c34 76 103 122 193 122c130 0 212 -97 212 -252v-311h-103v301zM460 613
l91 156h119l-135 -156h-75z" />
    <glyph glyph-name="uni1E41" unicode="&#x1e41;" horiz-adv-x="987" 
d="M823 301c0 105 -52 169 -134 169c-91 0 -143 -65 -143 -178v-292h-97v301c0 105 -52 169 -138 169c-93 0 -145 -63 -145 -178v-292h-102v548h102v-65c37 51 94 80 164 80c90 0 157 -45 191 -122c34 76 103 122 193 122c130 0 212 -97 212 -252v-311h-103v301zM430 695
c0 38 30 67 68 67s69 -29 69 -67s-31 -69 -69 -69s-68 31 -68 69z" />
    <glyph glyph-name="uni1E43" unicode="&#x1e43;" horiz-adv-x="987" 
d="M823 301c0 105 -52 169 -134 169c-91 0 -143 -65 -143 -178v-292h-97v301c0 105 -52 169 -138 169c-93 0 -145 -63 -145 -178v-292h-102v548h102v-65c37 51 94 80 164 80c90 0 157 -45 191 -122c34 76 103 122 193 122c130 0 212 -97 212 -252v-311h-103v301zM426 -154
c0 38 30 67 68 67s69 -29 69 -67s-31 -69 -69 -69s-68 31 -68 69z" />
    <glyph glyph-name="n" unicode="n" 
d="M468 301c0 105 -56 170 -147 170c-97 0 -155 -66 -155 -179v-292h-102v548h102v-65c40 50 102 80 178 80c138 0 226 -97 226 -252v-311h-102v301z" />
    <glyph glyph-name="nacute" unicode="&#x144;" 
d="M468 301c0 105 -56 170 -147 170c-97 0 -155 -66 -155 -179v-292h-102v548h102v-65c40 50 102 80 178 80c138 0 226 -97 226 -252v-311h-102v301zM289 613l91 156h119l-135 -156h-75z" />
    <glyph glyph-name="ncaron" unicode="&#x148;" 
d="M468 301c0 105 -56 170 -147 170c-97 0 -155 -66 -155 -179v-292h-102v548h102v-65c40 50 102 80 178 80c138 0 226 -97 226 -252v-311h-102v301zM174 762h97l53 -105l53 105h96l-84 -149h-131z" />
    <glyph glyph-name="uni0146" unicode="&#x146;" 
d="M468 301c0 105 -56 170 -147 170c-97 0 -155 -66 -155 -179v-292h-102v548h102v-65c40 50 102 80 178 80c138 0 226 -97 226 -252v-311h-102v301zM270 -238l10 178h97l-50 -178h-57z" />
    <glyph glyph-name="uni1E45" unicode="&#x1e45;" 
d="M468 301c0 105 -56 170 -147 170c-97 0 -155 -66 -155 -179v-292h-102v548h102v-65c40 50 102 80 178 80c138 0 226 -97 226 -252v-311h-102v301zM260 695c0 38 30 67 68 67s69 -29 69 -67s-31 -69 -69 -69s-68 31 -68 69z" />
    <glyph glyph-name="uni1E47" unicode="&#x1e47;" 
d="M468 301c0 105 -56 170 -147 170c-97 0 -155 -66 -155 -179v-292h-102v548h102v-65c40 50 102 80 178 80c138 0 226 -97 226 -252v-311h-102v301zM255 -154c0 38 30 67 68 67s69 -29 69 -67s-31 -69 -69 -69s-68 31 -68 69z" />
    <glyph glyph-name="uni1E49" unicode="&#x1e49;" 
d="M468 301c0 105 -56 170 -147 170c-97 0 -155 -66 -155 -179v-292h-102v548h102v-65c40 50 102 80 178 80c138 0 226 -97 226 -252v-311h-102v301zM136 -208v78h357v-78h-357z" />
    <glyph glyph-name="ntilde" unicode="&#xf1;" 
d="M468 301c0 105 -56 170 -147 170c-97 0 -155 -66 -155 -179v-292h-102v548h102v-65c40 50 102 80 178 80c138 0 226 -97 226 -252v-311h-102v301zM166 662c5 66 40 107 90 107c71 0 92 -82 144 -82c31 0 54 26 59 67l33 -36c-5 -65 -40 -106 -91 -106
c-67 0 -91 82 -141 82c-33 0 -56 -26 -60 -68z" />
    <glyph glyph-name="o" unicode="o" horiz-adv-x="646" 
d="M323 -15c-166 0 -282 123 -282 290c0 159 111 288 282 288c166 0 282 -122 282 -289c0 -160 -111 -289 -282 -289zM139 275c0 -113 73 -197 184 -197c112 0 185 84 185 196c0 111 -75 197 -185 197c-111 0 -184 -86 -184 -196z" />
    <glyph glyph-name="oacute" unicode="&#xf3;" horiz-adv-x="646" 
d="M323 -15c-166 0 -282 123 -282 290c0 159 111 288 282 288c166 0 282 -122 282 -289c0 -160 -111 -289 -282 -289zM139 275c0 -113 73 -197 184 -197c112 0 185 84 185 196c0 111 -75 197 -185 197c-111 0 -184 -86 -184 -196zM284 613l91 156h119l-135 -156h-75z" />
    <glyph glyph-name="uni01D2" unicode="&#x1d2;" horiz-adv-x="646" 
d="M323 -15c-166 0 -282 123 -282 290c0 159 111 288 282 288c166 0 282 -122 282 -289c0 -160 -111 -289 -282 -289zM139 275c0 -113 73 -197 184 -197c112 0 185 84 185 196c0 111 -75 197 -185 197c-111 0 -184 -86 -184 -196zM169 762h97l53 -105l53 105h96l-84 -149
h-131z" />
    <glyph glyph-name="ocircumflex" unicode="&#xf4;" horiz-adv-x="646" 
d="M323 -15c-166 0 -282 123 -282 290c0 159 111 288 282 288c166 0 282 -122 282 -289c0 -160 -111 -289 -282 -289zM139 275c0 -113 73 -197 184 -197c112 0 185 84 185 196c0 111 -75 197 -185 197c-111 0 -184 -86 -184 -196zM174 620l84 149h131l84 -149h-96l-53 105
l-53 -105h-97z" />
    <glyph glyph-name="odieresis" unicode="&#xf6;" horiz-adv-x="646" 
d="M323 -15c-166 0 -282 123 -282 290c0 159 111 288 282 288c166 0 282 -122 282 -289c0 -160 -111 -289 -282 -289zM139 275c0 -113 73 -197 184 -197c112 0 185 84 185 196c0 111 -75 197 -185 197c-111 0 -184 -86 -184 -196zM147 702c0 38 30 67 68 67s69 -29 69 -67
s-31 -69 -69 -69s-68 31 -68 69zM353 702c0 38 30 67 68 67s69 -29 69 -67s-31 -69 -69 -69s-68 31 -68 69z" />
    <glyph glyph-name="ograve" unicode="&#xf2;" horiz-adv-x="646" 
d="M323 -15c-166 0 -282 123 -282 290c0 159 111 288 282 288c166 0 282 -122 282 -289c0 -160 -111 -289 -282 -289zM139 275c0 -113 73 -197 184 -197c112 0 185 84 185 196c0 111 -75 197 -185 197c-111 0 -184 -86 -184 -196zM145 769h120l89 -157h-74z" />
    <glyph glyph-name="ohungarumlaut" unicode="&#x151;" horiz-adv-x="646" 
d="M323 -15c-166 0 -282 123 -282 290c0 159 111 288 282 288c166 0 282 -122 282 -289c0 -160 -111 -289 -282 -289zM139 275c0 -113 73 -197 184 -197c112 0 185 84 185 196c0 111 -75 197 -185 197c-111 0 -184 -86 -184 -196zM200 612l91 156h119l-135 -156h-75z
M341 612l91 156h119l-135 -156h-75z" />
    <glyph glyph-name="omacron" unicode="&#x14d;" horiz-adv-x="646" 
d="M323 -15c-166 0 -282 123 -282 290c0 159 111 288 282 288c166 0 282 -122 282 -289c0 -160 -111 -289 -282 -289zM139 275c0 -113 73 -197 184 -197c112 0 185 84 185 196c0 111 -75 197 -185 197c-111 0 -184 -86 -184 -196zM145 613v78h357v-78h-357z" />
    <glyph glyph-name="uni01EB" unicode="&#x1eb;" horiz-adv-x="646" 
d="M323 78c112 0 185 84 185 196c0 111 -75 197 -185 197c-111 0 -184 -86 -184 -196c0 -113 73 -197 184 -197zM41 275c0 159 111 288 282 288c166 0 282 -122 282 -289c0 -146 -93 -266 -239 -286c-21 -9 -35 -26 -35 -48c0 -27 20 -46 49 -46c21 0 44 9 59 23v-72
c-19 -22 -53 -36 -90 -36c-64 0 -108 37 -108 93c0 35 19 65 53 84c-150 14 -253 132 -253 289z" />
    <glyph glyph-name="oslash" unicode="&#xf8;" horiz-adv-x="630" 
d="M4 0l87 96c-35 48 -55 110 -55 179c0 159 111 288 283 288c59 0 112 -16 156 -43l27 30h124l-84 -92c38 -49 59 -112 59 -184c0 -160 -112 -289 -282 -289c-62 0 -118 17 -163 47l-29 -32h-123zM135 275c0 -39 9 -74 24 -104l251 277c-26 15 -57 23 -91 23
c-112 0 -184 -86 -184 -196zM222 104c27 -17 60 -26 97 -26c111 0 184 84 184 196c0 41 -10 78 -28 109z" />
    <glyph glyph-name="oslashacute" unicode="&#x1ff;" horiz-adv-x="630" 
d="M4 0l87 96c-35 48 -55 110 -55 179c0 159 111 288 283 288c59 0 112 -16 156 -43l27 30h124l-84 -92c38 -49 59 -112 59 -184c0 -160 -112 -289 -282 -289c-62 0 -118 17 -163 47l-29 -32h-123zM135 275c0 -39 9 -74 24 -104l251 277c-26 15 -57 23 -91 23
c-112 0 -184 -86 -184 -196zM222 104c27 -17 60 -26 97 -26c111 0 184 84 184 196c0 41 -10 78 -28 109zM280 613l91 156h119l-135 -156h-75z" />
    <glyph glyph-name="otilde" unicode="&#xf5;" horiz-adv-x="646" 
d="M323 -15c-166 0 -282 123 -282 290c0 159 111 288 282 288c166 0 282 -122 282 -289c0 -160 -111 -289 -282 -289zM139 275c0 -113 73 -197 184 -197c112 0 185 84 185 196c0 111 -75 197 -185 197c-111 0 -184 -86 -184 -196zM160 662c5 66 40 107 90 107
c71 0 92 -82 144 -82c31 0 54 26 59 67l33 -36c-5 -65 -40 -106 -91 -106c-67 0 -91 82 -141 82c-33 0 -56 -26 -60 -68z" />
    <glyph glyph-name="oe" unicode="&#x153;" horiz-adv-x="1085" 
d="M323 -16c-166 0 -282 124 -282 291c0 159 111 289 282 289c101 0 183 -45 232 -118c46 72 123 118 220 118c141 0 269 -95 269 -294v-19h-437c8 -108 74 -174 177 -174c72 0 133 42 151 103h104c-17 -109 -125 -196 -255 -196c-102 0 -183 43 -230 117
c-48 -71 -129 -117 -231 -117zM139 275c0 -113 73 -198 184 -198c112 0 185 85 185 197c0 111 -75 198 -185 198c-111 0 -184 -87 -184 -197zM613 336h322c-13 82 -74 136 -160 136c-82 0 -142 -55 -162 -136z" />
    <glyph glyph-name="p" unicode="p" horiz-adv-x="652" 
d="M351 -15c-77 0 -140 32 -185 84v-307h-102v786h102v-68c45 52 108 83 185 83c155 0 260 -123 260 -288s-105 -290 -260 -290zM166 275c0 -116 69 -198 172 -198c104 0 176 85 176 198c0 112 -72 197 -176 197c-103 0 -172 -82 -172 -197z" />
    <glyph glyph-name="thorn" unicode="&#xfe;" horiz-adv-x="652" 
d="M351 -16c-77 0 -141 32 -185 84v-306h-102v1000h102v-281c44 52 108 83 185 83c155 0 260 -124 260 -289s-105 -291 -260 -291zM166 275c0 -116 69 -198 172 -198c104 0 176 85 176 198c0 112 -72 197 -176 197c-103 0 -172 -82 -172 -197z" />
    <glyph glyph-name="q" unicode="q" horiz-adv-x="652" 
d="M301 -15c-155 0 -260 125 -260 290s105 288 260 288c77 0 140 -31 185 -83v68h102v-786h-102v307c-45 -52 -108 -84 -185 -84zM138 275c0 -113 72 -198 176 -198c103 0 172 82 172 198c0 115 -69 197 -172 197c-104 0 -176 -85 -176 -197z" />
    <glyph glyph-name="r" unicode="r" horiz-adv-x="401" 
d="M64 0v548h102v-77c31 56 87 92 149 92c34 0 53 -5 73 -15v-103c-13 12 -41 22 -72 22c-98 0 -150 -79 -150 -202v-265h-102z" />
    <glyph glyph-name="racute" unicode="&#x155;" horiz-adv-x="401" 
d="M64 0v548h102v-77c31 56 87 92 149 92c34 0 53 -5 73 -15v-103c-13 12 -41 22 -72 22c-98 0 -150 -79 -150 -202v-265h-102zM178 613l91 156h119l-135 -156h-75z" />
    <glyph glyph-name="rcaron" unicode="&#x159;" horiz-adv-x="401" 
d="M64 0v548h102v-77c31 56 87 92 149 92c34 0 53 -5 73 -15v-103c-13 12 -41 22 -72 22c-98 0 -150 -79 -150 -202v-265h-102zM63 762h97l53 -105l53 105h96l-84 -149h-131z" />
    <glyph glyph-name="uni0157" unicode="&#x157;" horiz-adv-x="401" 
d="M64 0v548h102v-77c31 56 87 92 149 92c34 0 53 -5 73 -15v-103c-13 12 -41 22 -72 22c-98 0 -150 -79 -150 -202v-265h-102zM56 -238l10 178h97l-50 -178h-57z" />
    <glyph glyph-name="uni1E5D" unicode="&#x1e5d;" horiz-adv-x="401" 
d="M64 0v548h102v-77c31 56 87 92 149 92c34 0 53 -5 73 -15v-103c-13 12 -41 22 -72 22c-98 0 -150 -79 -150 -202v-265h-102zM39 613v78h357v-78h-357zM42 -154c0 38 30 67 68 67s69 -29 69 -67s-31 -69 -69 -69s-68 31 -68 69z" />
    <glyph glyph-name="uni1E5F" unicode="&#x1e5f;" horiz-adv-x="401" 
d="M64 0v548h102v-77c31 56 87 92 149 92c34 0 53 -5 73 -15v-103c-13 12 -41 22 -72 22c-98 0 -150 -79 -150 -202v-265h-102zM-78 -208v78h357v-78h-357z" />
    <glyph glyph-name="s" unicode="s" horiz-adv-x="541" 
d="M286 -15c-138 0 -236 79 -238 194h105c2 -64 60 -108 139 -108c74 0 123 30 123 76c0 33 -19 59 -97 77l-94 21c-105 24 -161 77 -161 155c0 98 86 163 213 163c122 0 220 -80 222 -184h-104c-1 55 -57 97 -125 97c-66 0 -110 -30 -110 -74c0 -35 32 -59 102 -76l98 -25
c94 -24 148 -77 148 -160c0 -93 -89 -156 -221 -156z" />
    <glyph glyph-name="sacute" unicode="&#x15b;" horiz-adv-x="541" 
d="M286 -15c-138 0 -236 79 -238 194h105c2 -64 60 -108 139 -108c74 0 123 30 123 76c0 33 -19 59 -97 77l-94 21c-105 24 -161 77 -161 155c0 98 86 163 213 163c122 0 220 -80 222 -184h-104c-1 55 -57 97 -125 97c-66 0 -110 -30 -110 -74c0 -35 32 -59 102 -76l98 -25
c94 -24 148 -77 148 -160c0 -93 -89 -156 -221 -156zM242 613l91 156h119l-135 -156h-75z" />
    <glyph glyph-name="uniA78C" unicode="&#xa78c;" horiz-adv-x="297" 
d="M116 428l-29 334h123l-29 -334h-65z" />
    <glyph glyph-name="scaron" unicode="&#x161;" horiz-adv-x="541" 
d="M286 -15c-138 0 -236 79 -238 194h105c2 -64 60 -108 139 -108c74 0 123 30 123 76c0 33 -19 59 -97 77l-94 21c-105 24 -161 77 -161 155c0 98 86 163 213 163c122 0 220 -80 222 -184h-104c-1 55 -57 97 -125 97c-66 0 -110 -30 -110 -74c0 -35 32 -59 102 -76l98 -25
c94 -24 148 -77 148 -160c0 -93 -89 -156 -221 -156zM126 762h97l53 -105l53 105h96l-84 -149h-131z" />
    <glyph glyph-name="scedilla" unicode="&#x15f;" horiz-adv-x="541" 
d="M253 -200c-32 5 -63 24 -79 49l13 71c12 -16 34 -30 55 -33c29 -5 50 8 55 33c4 27 -13 52 -42 65v1c-121 11 -205 87 -207 193h105c2 -64 60 -108 139 -108c74 0 123 30 123 76c0 33 -19 59 -97 77l-94 21c-105 24 -161 77 -161 155c0 98 86 163 213 163
c122 0 220 -80 222 -184h-104c-1 55 -57 97 -125 97c-66 0 -110 -30 -110 -74c0 -35 32 -59 102 -76l98 -25c94 -24 148 -77 148 -160c0 -82 -70 -141 -177 -154v-15c31 -21 48 -59 40 -100c-10 -56 -54 -84 -117 -72z" />
    <glyph glyph-name="scircumflex" unicode="&#x15d;" horiz-adv-x="541" 
d="M286 -15c-138 0 -236 79 -238 194h105c2 -64 60 -108 139 -108c74 0 123 30 123 76c0 33 -19 59 -97 77l-94 21c-105 24 -161 77 -161 155c0 98 86 163 213 163c122 0 220 -80 222 -184h-104c-1 55 -57 97 -125 97c-66 0 -110 -30 -110 -74c0 -35 32 -59 102 -76l98 -25
c94 -24 148 -77 148 -160c0 -93 -89 -156 -221 -156zM131 620l84 149h131l84 -149h-96l-53 105l-53 -105h-97z" />
    <glyph glyph-name="uni0219" unicode="&#x219;" horiz-adv-x="541" 
d="M286 -15c-138 0 -236 79 -238 194h105c2 -64 60 -108 139 -108c74 0 123 30 123 76c0 33 -19 59 -97 77l-94 21c-105 24 -161 77 -161 155c0 98 86 163 213 163c122 0 220 -80 222 -184h-104c-1 55 -57 97 -125 97c-66 0 -110 -30 -110 -74c0 -35 32 -59 102 -76l98 -25
c94 -24 148 -77 148 -160c0 -93 -89 -156 -221 -156zM222 -238l10 178h97l-50 -178h-57z" />
    <glyph glyph-name="uni1E63" unicode="&#x1e63;" horiz-adv-x="541" 
d="M286 -15c-138 0 -236 79 -238 194h105c2 -64 60 -108 139 -108c74 0 123 30 123 76c0 33 -19 59 -97 77l-94 21c-105 24 -161 77 -161 155c0 98 86 163 213 163c122 0 220 -80 222 -184h-104c-1 55 -57 97 -125 97c-66 0 -110 -30 -110 -74c0 -35 32 -59 102 -76l98 -25
c94 -24 148 -77 148 -160c0 -93 -89 -156 -221 -156zM208 -154c0 38 30 67 68 67s69 -29 69 -67s-31 -69 -69 -69s-68 31 -68 69z" />
    <glyph glyph-name="germandbls" unicode="&#xdf;" horiz-adv-x="620" 
d="M317 -16c-28 0 -64 7 -94 16v105c28 -15 61 -23 94 -23c91 0 153 58 153 136c0 80 -76 138 -217 138v94c113 -1 175 54 175 127c0 55 -49 102 -131 102c-77 0 -131 -53 -131 -125v-554h-102v554c0 130 95 223 233 223c144 0 235 -84 235 -200c0 -75 -38 -138 -102 -167
c89 -27 144 -100 144 -194c0 -135 -103 -232 -257 -232z" />
    <glyph glyph-name="t" unicode="t" horiz-adv-x="359" 
d="M237 -15c-87 0 -139 57 -139 153v325h-92v85h92v138h102v-138h143v-85h-143v-302c0 -58 18 -82 63 -82c29 0 55 12 74 30v-84c-19 -24 -59 -40 -100 -40z" />
    <glyph glyph-name="tbar" unicode="&#x167;" horiz-adv-x="369" 
d="M16 257v85h92v121h-92v85h92v138h102v-138h143v-85h-143v-121h143v-85h-143v-96c0 -58 18 -82 63 -82c29 0 55 12 74 30v-84c-19 -24 -59 -40 -100 -40c-87 0 -139 57 -139 153v119h-92z" />
    <glyph glyph-name="tcaron" unicode="&#x165;" horiz-adv-x="359" 
d="M237 -15c-87 0 -139 57 -139 153v325h-92v85h92v138h102v-138h143v-85h-143v-302c0 -58 18 -82 63 -82c29 0 55 12 74 30v-84c-19 -24 -59 -40 -100 -40zM266 588l19 201h97l-57 -201h-59z" />
    <glyph glyph-name="uni0163" unicode="&#x163;" horiz-adv-x="359" 
d="M6 463v85h92v138h102v-138h143v-85h-143v-302c0 -58 18 -82 63 -82c29 0 55 12 74 30v-84c-14 -18 -40 -32 -70 -37v-11c31 -21 48 -59 40 -100c-10 -56 -54 -84 -117 -72c-32 5 -63 24 -79 49l13 71c12 -16 34 -30 55 -33c29 -5 50 8 55 33c4 27 -13 52 -42 66
c-60 17 -94 69 -94 147v325h-92z" />
    <glyph glyph-name="uni021B" unicode="&#x21b;" horiz-adv-x="359" 
d="M237 -15c-87 0 -139 57 -139 153v325h-92v85h92v138h102v-138h143v-85h-143v-302c0 -58 18 -82 63 -82c29 0 55 12 74 30v-84c-19 -24 -59 -40 -100 -40zM160 -238l10 178h97l-50 -178h-57z" />
    <glyph glyph-name="uni1E97" unicode="&#x1e97;" horiz-adv-x="359" 
d="M237 -15c-87 0 -139 57 -139 153v325h-92v85h92v138h102v-138h143v-85h-143v-302c0 -58 18 -82 63 -82c29 0 55 12 74 30v-84c-19 -24 -59 -40 -100 -40zM-25 840c0 38 30 67 68 67s69 -29 69 -67s-31 -69 -69 -69s-68 31 -68 69zM181 840c0 38 30 67 68 67
s69 -29 69 -67s-31 -69 -69 -69s-68 31 -68 69z" />
    <glyph glyph-name="uni1E6D" unicode="&#x1e6d;" horiz-adv-x="359" 
d="M237 -15c-87 0 -139 57 -139 153v325h-92v85h92v138h102v-138h143v-85h-143v-302c0 -58 18 -82 63 -82c29 0 55 12 74 30v-84c-19 -24 -59 -40 -100 -40zM146 -154c0 38 30 67 68 67s69 -29 69 -67s-31 -69 -69 -69s-68 31 -68 69z" />
    <glyph glyph-name="uni1E6F" unicode="&#x1e6f;" horiz-adv-x="359" 
d="M237 -15c-87 0 -139 57 -139 153v325h-92v85h92v138h102v-138h143v-85h-143v-302c0 -58 18 -82 63 -82c29 0 55 12 74 30v-84c-19 -24 -59 -40 -100 -40zM26 -208v78h357v-78h-357z" />
    <glyph glyph-name="u" unicode="u" 
d="M163 247c0 -105 56 -170 147 -170c97 0 155 66 155 179v292h102v-548h-102v65c-40 -50 -102 -80 -178 -80c-138 0 -226 97 -226 252v311h102v-301z" />
    <glyph glyph-name="uacute" unicode="&#xfa;" 
d="M163 247c0 -105 56 -170 147 -170c97 0 155 66 155 179v292h102v-548h-102v65c-40 -50 -102 -80 -178 -80c-138 0 -226 97 -226 252v311h102v-301zM263 613l91 156h119l-135 -156h-75z" />
    <glyph glyph-name="ubreve" unicode="&#x16d;" 
d="M163 247c0 -105 56 -170 147 -170c97 0 155 66 155 179v292h102v-548h-102v65c-40 -50 -102 -80 -178 -80c-138 0 -226 97 -226 252v311h102v-301zM139 769h76c1 -57 35 -94 87 -94s86 37 87 94h76c0 -99 -66 -164 -163 -164c-96 0 -163 65 -163 164z" />
    <glyph glyph-name="uni01D4" unicode="&#x1d4;" 
d="M163 247c0 -105 56 -170 147 -170c97 0 155 66 155 179v292h102v-548h-102v65c-40 -50 -102 -80 -178 -80c-138 0 -226 97 -226 252v311h102v-301zM148 762h97l53 -105l53 105h96l-84 -149h-131z" />
    <glyph glyph-name="ucircumflex" unicode="&#xfb;" 
d="M163 247c0 -105 56 -170 147 -170c97 0 155 66 155 179v292h102v-548h-102v65c-40 -50 -102 -80 -178 -80c-138 0 -226 97 -226 252v311h102v-301zM152 620l84 149h131l84 -149h-96l-53 105l-53 -105h-97z" />
    <glyph glyph-name="udieresis" unicode="&#xfc;" 
d="M163 247c0 -105 56 -170 147 -170c97 0 155 66 155 179v292h102v-548h-102v65c-40 -50 -102 -80 -178 -80c-138 0 -226 97 -226 252v311h102v-301zM126 702c0 38 30 67 68 67s69 -29 69 -67s-31 -69 -69 -69s-68 31 -68 69zM332 702c0 38 30 67 68 67s69 -29 69 -67
s-31 -69 -69 -69s-68 31 -68 69z" />
    <glyph glyph-name="ugrave" unicode="&#xf9;" 
d="M163 247c0 -105 56 -170 147 -170c97 0 155 66 155 179v292h102v-548h-102v65c-40 -50 -102 -80 -178 -80c-138 0 -226 97 -226 252v311h102v-301zM124 769h120l89 -157h-74z" />
    <glyph glyph-name="uhungarumlaut" unicode="&#x171;" 
d="M163 247c0 -105 56 -170 147 -170c97 0 155 66 155 179v292h102v-548h-102v65c-40 -50 -102 -80 -178 -80c-138 0 -226 97 -226 252v311h102v-301zM178 612l91 156h119l-135 -156h-75zM319 612l91 156h119l-135 -156h-75z" />
    <glyph glyph-name="umacron" unicode="&#x16b;" 
d="M163 247c0 -105 56 -170 147 -170c97 0 155 66 155 179v292h102v-548h-102v65c-40 -50 -102 -80 -178 -80c-138 0 -226 97 -226 252v311h102v-301zM124 613v78h357v-78h-357z" />
    <glyph glyph-name="uogonek" unicode="&#x173;" 
d="M163 247c0 -105 56 -170 147 -170c97 0 155 66 155 179v292h102v-548c-36 0 -63 -23 -63 -53c0 -27 20 -46 49 -46c21 0 44 9 59 23v-72c-19 -22 -53 -36 -90 -36c-64 0 -108 37 -108 93c0 39 24 72 66 91h-15v65c-40 -50 -102 -80 -178 -80c-138 0 -226 97 -226 252v311
h102v-301z" />
    <glyph glyph-name="uring" unicode="&#x16f;" 
d="M163 247c0 -105 56 -170 147 -170c97 0 155 66 155 179v292h102v-548h-102v65c-40 -50 -102 -80 -178 -80c-138 0 -226 97 -226 252v311h102v-301zM202 694c0 56 44 100 100 100c55 0 100 -44 100 -100c0 -57 -45 -100 -100 -100c-56 0 -100 43 -100 100zM255 694
c0 -26 21 -47 47 -47s46 21 46 47s-20 47 -46 47s-47 -21 -47 -47z" />
    <glyph glyph-name="utilde" unicode="&#x169;" 
d="M163 247c0 -105 56 -170 147 -170c97 0 155 66 155 179v292h102v-548h-102v65c-40 -50 -102 -80 -178 -80c-138 0 -226 97 -226 252v311h102v-301zM139 662c5 66 40 107 90 107c71 0 92 -82 144 -82c31 0 54 26 59 67l33 -36c-5 -65 -40 -106 -91 -106
c-67 0 -91 82 -141 82c-33 0 -56 -26 -60 -68z" />
    <glyph glyph-name="v" unicode="v" horiz-adv-x="560" 
d="M213 0l-209 548h104l171 -466l172 466h105l-210 -548h-133z" />
    <glyph glyph-name="w" unicode="w" horiz-adv-x="872" 
d="M172 0l-168 548h101l138 -464l127 464h136l126 -465l134 465h102l-165 -548h-141l-124 454l-124 -454h-142z" />
    <glyph glyph-name="wacute" unicode="&#x1e83;" horiz-adv-x="872" 
d="M172 0l-168 548h101l138 -464l127 464h136l126 -465l134 465h102l-165 -548h-141l-124 454l-124 -454h-142zM397 613l91 156h119l-135 -156h-75z" />
    <glyph glyph-name="wcircumflex" unicode="&#x175;" horiz-adv-x="872" 
d="M172 0l-168 548h101l138 -464l127 464h136l126 -465l134 465h102l-165 -548h-141l-124 454l-124 -454h-142zM286 620l84 149h131l84 -149h-96l-53 105l-53 -105h-97z" />
    <glyph glyph-name="wdieresis" unicode="&#x1e85;" horiz-adv-x="872" 
d="M172 0l-168 548h101l138 -464l127 464h136l126 -465l134 465h102l-165 -548h-141l-124 454l-124 -454h-142zM260 702c0 38 30 67 68 67s69 -29 69 -67s-31 -69 -69 -69s-68 31 -68 69zM466 702c0 38 30 67 68 67s69 -29 69 -67s-31 -69 -69 -69s-68 31 -68 69z" />
    <glyph glyph-name="wgrave" unicode="&#x1e81;" horiz-adv-x="872" 
d="M172 0l-168 548h101l138 -464l127 464h136l126 -465l134 465h102l-165 -548h-141l-124 454l-124 -454h-142zM258 769h120l89 -157h-74z" />
    <glyph glyph-name="x" unicode="x" horiz-adv-x="579" 
d="M4 0l227 287l-207 261h124l141 -187l142 187h123l-206 -260l227 -288h-123l-163 213l-163 -213h-122z" />
    <glyph glyph-name="y" unicode="y" horiz-adv-x="561" 
d="M129 -238l92 220l-217 566h104l164 -447l179 447h106l-329 -786h-99z" />
    <glyph glyph-name="yacute" unicode="&#xfd;" horiz-adv-x="561" 
d="M129 -238l92 220l-217 566h104l164 -447l179 447h106l-329 -786h-99zM242 613l91 156h119l-135 -156h-75z" />
    <glyph glyph-name="ycircumflex" unicode="&#x177;" horiz-adv-x="561" 
d="M129 -238l92 220l-217 566h104l164 -447l179 447h106l-329 -786h-99zM131 620l84 149h131l84 -149h-96l-53 105l-53 -105h-97z" />
    <glyph glyph-name="ydieresis" unicode="&#xff;" horiz-adv-x="561" 
d="M129 -238l92 220l-217 566h104l164 -447l179 447h106l-329 -786h-99zM105 702c0 38 30 67 68 67s69 -29 69 -67s-31 -69 -69 -69s-68 31 -68 69zM311 702c0 38 30 67 68 67s69 -29 69 -67s-31 -69 -69 -69s-68 31 -68 69z" />
    <glyph glyph-name="uni1E8F" unicode="&#x1e8f;" horiz-adv-x="561" 
d="M129 -238l92 220l-217 566h104l164 -447l179 447h106l-329 -786h-99zM212 695c0 38 30 67 68 67s69 -29 69 -67s-31 -69 -69 -69s-68 31 -68 69z" />
    <glyph glyph-name="ygrave" unicode="&#x1ef3;" horiz-adv-x="561" 
d="M129 -238l92 220l-217 566h104l164 -447l179 447h106l-329 -786h-99zM103 769h120l89 -157h-74z" />
    <glyph glyph-name="uni0233" unicode="&#x233;" horiz-adv-x="561" 
d="M129 -238l92 220l-217 566h104l164 -447l179 447h106l-329 -786h-99zM102 613v78h357v-78h-357z" />
    <glyph glyph-name="uni1EF9" unicode="&#x1ef9;" horiz-adv-x="561" 
d="M129 -238l92 220l-217 566h104l164 -447l179 447h106l-329 -786h-99zM118 662c5 66 40 107 90 107c71 0 92 -82 144 -82c31 0 54 26 59 67l33 -36c-5 -65 -40 -106 -91 -106c-67 0 -91 82 -141 82c-33 0 -56 -26 -60 -68z" />
    <glyph glyph-name="z" unicode="z" horiz-adv-x="513" 
d="M24 0v87l334 376h-313v85h433v-87l-333 -376h334v-85h-455z" />
    <glyph glyph-name="zacute" unicode="&#x17a;" horiz-adv-x="513" 
d="M24 0v87l334 376h-313v85h433v-87l-333 -376h334v-85h-455zM213 611l91 156h119l-135 -156h-75z" />
    <glyph glyph-name="zcaron" unicode="&#x17e;" horiz-adv-x="513" 
d="M24 0v87l334 376h-313v85h433v-87l-333 -376h334v-85h-455zM98 760h97l53 -105l53 105h96l-84 -149h-131z" />
    <glyph glyph-name="zdotaccent" unicode="&#x17c;" horiz-adv-x="513" 
d="M24 0v87l334 376h-313v85h433v-87l-333 -376h334v-85h-455zM183 693c0 38 30 67 68 67s69 -29 69 -67s-31 -69 -69 -69s-68 31 -68 69z" />
    <glyph glyph-name="uni1E93" unicode="&#x1e93;" horiz-adv-x="513" 
d="M24 0v87l334 376h-313v85h433v-87l-333 -376h334v-85h-455zM179 -154c0 38 30 67 68 67s69 -29 69 -67s-31 -69 -69 -69s-68 31 -68 69z" />
    <glyph glyph-name="uni1E95" unicode="&#x1e95;" horiz-adv-x="513" 
d="M24 0v87l334 376h-313v85h433v-87l-333 -376h334v-85h-455zM59 -208v78h357v-78h-357z" />
    <glyph glyph-name="uni013C.loclMAH" horiz-adv-x="230" 
d="M64 0v762h102v-762h-102zM57 -238l10 178h97l-50 -178h-57z" />
    <glyph glyph-name="uni0146.loclMAH" 
d="M468 301c0 105 -56 170 -147 170c-97 0 -155 -66 -155 -179v-292h-102v548h102v-65c40 50 102 80 178 80c138 0 226 -97 226 -252v-311h-102v301zM270 -238l10 178h97l-50 -178h-57z" />
    <glyph glyph-name="a.ss01" horiz-adv-x="654" 
d="M304 -16c-154 0 -263 120 -263 290c0 169 109 289 263 289c76 0 141 -31 187 -83v68h102v-548h-102v67c-46 -52 -111 -83 -187 -83zM139 274c0 -116 74 -197 178 -197c102 0 174 81 174 197c0 115 -72 196 -174 196c-104 0 -178 -81 -178 -196z" />
    <glyph glyph-name="aacute.ss01" horiz-adv-x="654" 
d="M304 -16c-154 0 -263 120 -263 290c0 169 109 289 263 289c76 0 141 -31 187 -83v68h102v-548h-102v67c-46 -52 -111 -83 -187 -83zM139 274c0 -116 74 -197 178 -197c102 0 174 81 174 197c0 115 -72 196 -174 196c-104 0 -178 -81 -178 -196zM280 613l91 156h119
l-135 -156h-75z" />
    <glyph glyph-name="abreve.ss01" horiz-adv-x="654" 
d="M304 -16c-154 0 -263 120 -263 290c0 169 109 289 263 289c76 0 141 -31 187 -83v68h102v-548h-102v67c-46 -52 -111 -83 -187 -83zM139 274c0 -116 74 -197 178 -197c102 0 174 81 174 197c0 115 -72 196 -174 196c-104 0 -178 -81 -178 -196zM156 769h76
c1 -57 35 -94 87 -94s86 37 87 94h76c0 -99 -66 -164 -163 -164c-96 0 -163 65 -163 164z" />
    <glyph glyph-name="acircumflex.ss01" horiz-adv-x="654" 
d="M304 -16c-154 0 -263 120 -263 290c0 169 109 289 263 289c76 0 141 -31 187 -83v68h102v-548h-102v67c-46 -52 -111 -83 -187 -83zM139 274c0 -116 74 -197 178 -197c102 0 174 81 174 197c0 115 -72 196 -174 196c-104 0 -178 -81 -178 -196zM169 620l84 149h131
l84 -149h-96l-53 105l-53 -105h-97z" />
    <glyph glyph-name="adieresis.ss01" horiz-adv-x="654" 
d="M304 -16c-154 0 -263 120 -263 290c0 169 109 289 263 289c76 0 141 -31 187 -83v68h102v-548h-102v67c-46 -52 -111 -83 -187 -83zM139 274c0 -116 74 -197 178 -197c102 0 174 81 174 197c0 115 -72 196 -174 196c-104 0 -178 -81 -178 -196zM143 702c0 38 30 67 68 67
s69 -29 69 -67s-31 -69 -69 -69s-68 31 -68 69zM349 702c0 38 30 67 68 67s69 -29 69 -67s-31 -69 -69 -69s-68 31 -68 69z" />
    <glyph glyph-name="uni1EA1.ss01" horiz-adv-x="654" 
d="M304 -16c-154 0 -263 120 -263 290c0 169 109 289 263 289c76 0 141 -31 187 -83v68h102v-548h-102v67c-46 -52 -111 -83 -187 -83zM139 274c0 -116 74 -197 178 -197c102 0 174 81 174 197c0 115 -72 196 -174 196c-104 0 -178 -81 -178 -196zM246 -154
c0 38 30 67 68 67s69 -29 69 -67s-31 -69 -69 -69s-68 31 -68 69z" />
    <glyph glyph-name="agrave.ss01" horiz-adv-x="654" 
d="M304 -16c-154 0 -263 120 -263 290c0 169 109 289 263 289c76 0 141 -31 187 -83v68h102v-548h-102v67c-46 -52 -111 -83 -187 -83zM139 274c0 -116 74 -197 178 -197c102 0 174 81 174 197c0 115 -72 196 -174 196c-104 0 -178 -81 -178 -196zM141 769h120l89 -157h-74z
" />
    <glyph glyph-name="amacron.ss01" horiz-adv-x="654" 
d="M304 -16c-154 0 -263 120 -263 290c0 169 109 289 263 289c76 0 141 -31 187 -83v68h102v-548h-102v67c-46 -52 -111 -83 -187 -83zM139 274c0 -116 74 -197 178 -197c102 0 174 81 174 197c0 115 -72 196 -174 196c-104 0 -178 -81 -178 -196zM140 613v78h357v-78h-357z
" />
    <glyph glyph-name="aogonek.ss01" horiz-adv-x="654" 
d="M304 -16c-154 0 -263 120 -263 290c0 169 109 289 263 289c76 0 141 -31 187 -83v68h102v-548h1c-36 0 -63 -23 -63 -53c0 -27 20 -46 49 -46c21 0 44 9 59 23v-72c-19 -22 -53 -36 -90 -36c-64 0 -108 37 -108 93c0 39 24 72 66 91h-16v67c-46 -52 -111 -83 -187 -83z
M139 274c0 -116 74 -197 178 -197c102 0 174 81 174 197c0 115 -72 196 -174 196c-104 0 -178 -81 -178 -196z" />
    <glyph glyph-name="aring.ss01" horiz-adv-x="654" 
d="M304 -16c-154 0 -263 120 -263 290c0 169 109 289 263 289c76 0 141 -31 187 -83v68h102v-548h-102v67c-46 -52 -111 -83 -187 -83zM139 274c0 -116 74 -197 178 -197c102 0 174 81 174 197c0 115 -72 196 -174 196c-104 0 -178 -81 -178 -196zM219 694
c0 56 44 100 100 100c55 0 100 -44 100 -100c0 -57 -45 -100 -100 -100c-56 0 -100 43 -100 100zM272 694c0 -26 21 -47 47 -47s46 21 46 47s-20 47 -46 47s-47 -21 -47 -47z" />
    <glyph glyph-name="atilde.ss01" horiz-adv-x="654" 
d="M304 -16c-154 0 -263 120 -263 290c0 169 109 289 263 289c76 0 141 -31 187 -83v68h102v-548h-102v67c-46 -52 -111 -83 -187 -83zM139 274c0 -116 74 -197 178 -197c102 0 174 81 174 197c0 115 -72 196 -174 196c-104 0 -178 -81 -178 -196zM156 662
c5 66 40 107 90 107c71 0 92 -82 144 -82c31 0 54 26 59 67l33 -36c-5 -65 -40 -106 -91 -106c-67 0 -91 82 -141 82c-33 0 -56 -26 -60 -68z" />
    <glyph glyph-name="k.ss02" horiz-adv-x="526" 
d="M395 548h128l-242 -272l242 -276h-128l-229 270v-270h-102v762h102v-480z" />
    <glyph glyph-name="uni01E9.ss02" horiz-adv-x="526" 
d="M395 548h128l-242 -272l242 -276h-128l-229 270v-270h-102v762h102v-480zM219 762h97l53 -105l53 105h96l-84 -149h-131z" />
    <glyph glyph-name="uni0137.ss02" horiz-adv-x="526" 
d="M395 548h128l-242 -272l242 -276h-128l-229 270v-270h-102v762h102v-480zM215 -238l10 178h97l-50 -178h-57z" />
    <glyph glyph-name="uni1E35.ss02" horiz-adv-x="526" 
d="M395 548h128l-242 -272l242 -276h-128l-229 270v-270h-102v762h102v-480zM80 -208v78h357v-78h-357z" />
    <glyph glyph-name="n.ss02" horiz-adv-x="607" 
d="M444 301c0 107 -50 170 -134 170c-91 0 -144 -67 -144 -179v-292h-102v548h102v-75c35 57 94 90 170 90c129 0 210 -97 210 -252v-311h-102v301z" />
    <glyph glyph-name="nacute.ss02" horiz-adv-x="607" 
d="M444 301c0 107 -50 170 -134 170c-91 0 -144 -67 -144 -179v-292h-102v548h102v-75c35 57 94 90 170 90c129 0 210 -97 210 -252v-311h-102v301zM267 613l91 156h119l-135 -156h-75z" />
    <glyph glyph-name="ncaron.ss02" horiz-adv-x="607" 
d="M444 301c0 107 -50 170 -134 170c-91 0 -144 -67 -144 -179v-292h-102v548h102v-75c35 57 94 90 170 90c129 0 210 -97 210 -252v-311h-102v301zM152 762h97l53 -105l53 105h96l-84 -149h-131z" />
    <glyph glyph-name="uni0146.ss02" horiz-adv-x="607" 
d="M444 301c0 107 -50 170 -134 170c-91 0 -144 -67 -144 -179v-292h-102v548h102v-75c35 57 94 90 170 90c129 0 210 -97 210 -252v-311h-102v301zM247 -238l10 178h97l-50 -178h-57z" />
    <glyph glyph-name="uni1E45.ss02" horiz-adv-x="607" 
d="M444 301c0 107 -50 170 -134 170c-91 0 -144 -67 -144 -179v-292h-102v548h102v-75c35 57 94 90 170 90c129 0 210 -97 210 -252v-311h-102v301zM238 695c0 38 30 67 68 67s69 -29 69 -67s-31 -69 -69 -69s-68 31 -68 69z" />
    <glyph glyph-name="uni1E47.ss02" horiz-adv-x="607" 
d="M444 301c0 107 -50 170 -134 170c-91 0 -144 -67 -144 -179v-292h-102v548h102v-75c35 57 94 90 170 90c129 0 210 -97 210 -252v-311h-102v301zM233 -154c0 38 30 67 68 67s69 -29 69 -67s-31 -69 -69 -69s-68 31 -68 69z" />
    <glyph glyph-name="uni1E49.ss02" horiz-adv-x="607" 
d="M444 301c0 107 -50 170 -134 170c-91 0 -144 -67 -144 -179v-292h-102v548h102v-75c35 57 94 90 170 90c129 0 210 -97 210 -252v-311h-102v301zM113 -208v78h357v-78h-357z" />
    <glyph glyph-name="ntilde.ss02" horiz-adv-x="607" 
d="M444 301c0 107 -50 170 -134 170c-91 0 -144 -67 -144 -179v-292h-102v548h102v-75c35 57 94 90 170 90c129 0 210 -97 210 -252v-311h-102v301zM144 662c5 66 40 107 90 107c71 0 92 -82 144 -82c31 0 54 26 59 67l33 -36c-5 -65 -40 -106 -91 -106
c-67 0 -91 82 -141 82c-33 0 -56 -26 -60 -68z" />
    <glyph glyph-name="r.ss02" horiz-adv-x="340" 
d="M64 0v548h102v-67c27 51 75 82 133 82c17 0 28 -1 38 -4v-94c-8 1 -19 3 -38 3c-83 0 -133 -79 -133 -203v-265h-102z" />
    <glyph glyph-name="racute.ss02" horiz-adv-x="340" 
d="M64 0v548h102v-67c27 51 75 82 133 82c17 0 28 -1 38 -4v-94c-8 1 -19 3 -38 3c-83 0 -133 -79 -133 -203v-265h-102zM158 613l91 156h119l-135 -156h-75z" />
    <glyph glyph-name="rcaron.ss02" horiz-adv-x="340" 
d="M64 0v548h102v-67c27 51 75 82 133 82c17 0 28 -1 38 -4v-94c-8 1 -19 3 -38 3c-83 0 -133 -79 -133 -203v-265h-102zM43 762h97l53 -105l53 105h96l-84 -149h-131z" />
    <glyph glyph-name="uni0157.ss02" horiz-adv-x="340" 
d="M64 0v548h102v-67c27 51 75 82 133 82c17 0 28 -1 38 -4v-94c-8 1 -19 3 -38 3c-83 0 -133 -79 -133 -203v-265h-102zM70 -238l10 178h97l-50 -178h-57z" />
    <glyph glyph-name="uni1E5D.ss02" horiz-adv-x="340" 
d="M64 0v548h102v-67c27 51 75 82 133 82c17 0 28 -1 38 -4v-94c-8 1 -19 3 -38 3c-83 0 -133 -79 -133 -203v-265h-102zM19 613v78h357v-78h-357zM56 -154c0 38 30 67 68 67s69 -29 69 -67s-31 -69 -69 -69s-68 31 -68 69z" />
    <glyph glyph-name="uni1E5F.ss02" horiz-adv-x="340" 
d="M64 0v548h102v-67c27 51 75 82 133 82c17 0 28 -1 38 -4v-94c-8 1 -19 3 -38 3c-83 0 -133 -79 -133 -203v-265h-102zM-64 -208v78h357v-78h-357z" />
    <glyph glyph-name="t.ss02" horiz-adv-x="298" 
d="M152 150c0 -38 19 -58 53 -58h74v-92h-90c-89 0 -140 55 -140 149v537h103v-138h130v-85h-130v-313z" />
    <glyph glyph-name="tbar.ss02" horiz-adv-x="298" 
d="M152 150c0 -38 19 -58 53 -58h74v-92h-90c-89 0 -140 55 -140 149v537h103v-138h130v-85h-130v-121h130v-85h-130v-107z" />
    <glyph glyph-name="tcaron.ss02" horiz-adv-x="298" 
d="M152 150c0 -38 19 -58 53 -58h74v-92h-90c-89 0 -140 55 -140 149v537h103v-138h130v-85h-130v-313zM217 588l19 201h97l-57 -201h-59z" />
    <glyph glyph-name="uni0163.ss02" horiz-adv-x="298" 
d="M152 150c0 -38 19 -58 53 -58h74v-92h-74v-3c31 -21 48 -59 40 -100c-10 -56 -54 -84 -117 -72c-32 5 -63 24 -79 49l13 71c12 -16 34 -30 55 -33c29 -5 50 8 55 33c4 27 -13 51 -41 64c-53 20 -82 69 -82 140v537h103v-138h130v-85h-130v-313z" />
    <glyph glyph-name="uni021B.ss02" horiz-adv-x="298" 
d="M152 150c0 -38 19 -58 53 -58h74v-92h-90c-89 0 -140 55 -140 149v537h103v-138h130v-85h-130v-313zM118 -238l10 178h97l-50 -178h-57z" />
    <glyph glyph-name="uni1E97.ss02" horiz-adv-x="298" 
d="M152 150c0 -38 19 -58 53 -58h74v-92h-90c-89 0 -140 55 -140 149v537h103v-138h130v-85h-130v-313zM-73 840c0 38 30 67 68 67s69 -29 69 -67s-31 -69 -69 -69s-68 31 -68 69zM133 840c0 38 30 67 68 67s69 -29 69 -67s-31 -69 -69 -69s-68 31 -68 69z" />
    <glyph glyph-name="uni1E6D.ss02" horiz-adv-x="298" 
d="M152 150c0 -38 19 -58 53 -58h74v-92h-90c-89 0 -140 55 -140 149v537h103v-138h130v-85h-130v-313zM103 -154c0 38 30 67 68 67s69 -29 69 -67s-31 -69 -69 -69s-68 31 -68 69z" />
    <glyph glyph-name="uni1E6F.ss02" horiz-adv-x="298" 
d="M152 150c0 -38 19 -58 53 -58h74v-92h-90c-89 0 -140 55 -140 149v537h103v-138h130v-85h-130v-313zM-17 -208v78h357v-78h-357z" />
    <glyph glyph-name="f_f_j" horiz-adv-x="946" 
d="M104 612c0 103 72 165 201 165c63 0 123 -16 169 -49c34 32 87 49 155 49c65 0 126 -17 173 -52v-86c-49 36 -112 45 -164 45c-74 0 -108 -23 -108 -87v-49h352v-649c0 -98 -60 -152 -139 -152c-43 0 -81 15 -101 39v85c19 -19 46 -31 75 -31c38 0 62 23 62 76v547h-249
v-463h-102v463h-222v-463h-102v463h-92v85h92v64zM206 548h222v64c0 18 2 35 7 51c-40 16 -83 21 -121 21c-74 0 -108 -23 -108 -87v-49z" />
    <glyph glyph-name="f_j" horiz-adv-x="622" 
d="M104 612c0 103 72 165 201 165c65 0 126 -17 173 -52v-86c-49 36 -112 45 -164 45c-74 0 -108 -23 -108 -87v-49h352v-649c0 -98 -60 -152 -139 -152c-43 0 -81 15 -101 39v85c19 -19 46 -31 75 -31c38 0 62 23 62 76v547h-249v-463h-102v463h-92v85h92v64z" />
    <glyph glyph-name="f_t" horiz-adv-x="698" 
d="M104 612c0 103 78 165 206 165c66 0 150 -15 228 -91v-138h144v-85h-144v-302c0 -58 18 -82 63 -82c29 0 56 12 75 30v-84c-20 -24 -59 -40 -101 -40c-87 0 -139 57 -139 153v325h-230v-463h-102v463h-92v85h92v64zM206 548h230v107c-45 25 -86 29 -122 29
c-74 0 -108 -23 -108 -87v-49z" />
    <glyph glyph-name="zero" unicode="0" horiz-adv-x="706" 
d="M353 -15c-186 0 -302 152 -302 394c0 245 116 398 302 398c185 0 302 -152 302 -395c0 -244 -117 -397 -302 -397zM158 379c0 -180 75 -293 195 -293c119 0 195 114 195 296c0 181 -76 295 -195 295c-120 0 -195 -115 -195 -298z" />
    <glyph glyph-name="one" unicode="1" horiz-adv-x="382" 
d="M224 0v598c-34 -36 -81 -57 -139 -57h-34v103h28c89 0 145 42 145 115v3h107v-762h-107z" />
    <glyph glyph-name="two" unicode="2" horiz-adv-x="648" 
d="M55 115c309 185 429 305 429 420c0 86 -62 142 -156 142c-96 0 -165 -62 -168 -151h-109c5 144 124 251 277 251c156 0 265 -100 265 -242c0 -140 -124 -281 -376 -435h380v-100h-542v115z" />
    <glyph glyph-name="three" unicode="3" horiz-adv-x="660" 
d="M330 -16c-167 0 -274 89 -279 229h109c7 -79 72 -128 170 -128c103 0 171 51 171 128c0 87 -82 139 -220 139v91c113 0 184 49 184 125c0 63 -57 109 -135 109c-83 0 -143 -43 -149 -107h-106c6 124 109 207 255 207c140 0 244 -90 244 -209c0 -75 -35 -132 -95 -162
c83 -29 130 -97 130 -193c0 -138 -110 -229 -279 -229z" />
    <glyph glyph-name="four" unicode="4" horiz-adv-x="668" 
d="M51 153v95l225 514h115l-228 -510h230v206h107v-206h117v-99h-117v-153h-107v153h-342z" />
    <glyph glyph-name="five" unicode="5" horiz-adv-x="642" 
d="M318 -15c-155 0 -265 102 -267 248h104c0 -89 67 -152 161 -152c100 0 169 73 169 175c0 103 -67 175 -167 175c-69 0 -126 -39 -157 -107l-104 19l65 419h421v-100h-339l-34 -202c39 42 99 67 169 67c148 0 252 -111 252 -271s-113 -271 -273 -271z" />
    <glyph glyph-name="six" unicode="6" horiz-adv-x="661" 
d="M339 -16c-180 0 -288 144 -288 383c0 264 107 411 297 410c137 -1 236 -82 259 -211h-108c-13 71 -71 115 -151 115c-112 0 -182 -91 -201 -259c40 60 112 97 197 97c159 0 266 -106 266 -266c0 -161 -109 -269 -271 -269zM168 253c0 -101 69 -173 166 -173
c100 0 170 72 170 173c0 100 -70 170 -170 170c-97 0 -166 -70 -166 -170z" />
    <glyph glyph-name="seven" unicode="7" horiz-adv-x="609" 
d="M155 0l289 662h-393v100h507v-86l-289 -676h-114z" />
    <glyph glyph-name="eight" unicode="8" horiz-adv-x="659" 
d="M330 -15c-166 0 -279 108 -279 234c0 87 45 156 125 193c-59 35 -90 92 -90 154c0 118 103 209 244 209c140 0 243 -91 243 -209c0 -62 -31 -119 -90 -154c81 -37 125 -107 125 -193c0 -126 -112 -234 -278 -234zM156 219c0 -73 68 -135 174 -135s173 62 173 135
c0 78 -68 141 -173 141s-174 -63 -174 -141zM191 570c0 -61 53 -113 139 -113c85 0 139 52 139 113c0 58 -52 105 -139 105c-88 0 -139 -49 -139 -105z" />
    <glyph glyph-name="nine" unicode="9" horiz-adv-x="661" 
d="M322 778c180 0 288 -144 288 -383c0 -264 -107 -411 -297 -410c-137 1 -236 82 -259 211h108c13 -71 71 -115 151 -115c112 0 182 91 201 259c-40 -60 -112 -97 -197 -97c-159 0 -266 106 -266 266c0 161 109 269 271 269zM157 509c0 -100 70 -170 170 -170
c97 0 166 70 166 170c0 101 -69 173 -166 173c-100 0 -170 -72 -170 -173z" />
    <glyph glyph-name="zero.zero" horiz-adv-x="706" 
d="M353 -16c-186 0 -302 153 -302 395c0 245 116 398 302 398c185 0 302 -152 302 -395c0 -244 -117 -398 -302 -398zM158 379c0 -105 26 -187 71 -237l146 534c-7 1 -15 1 -22 1c-120 0 -195 -115 -195 -298zM318 89c11 -2 23 -3 35 -3c119 0 195 114 195 296
c0 114 -30 201 -82 250z" />
    <glyph glyph-name="zero.tf" horiz-adv-x="698" 
d="M349 -15c-186 0 -302 152 -302 394c0 245 116 398 302 398c185 0 302 -152 302 -395c0 -244 -117 -397 -302 -397zM154 379c0 -180 75 -293 195 -293c119 0 195 114 195 296c0 181 -76 295 -195 295c-120 0 -195 -115 -195 -298z" />
    <glyph glyph-name="one.tf" horiz-adv-x="698" 
d="M240 0v598c-34 -36 -81 -57 -139 -57h-34v103h28c89 0 145 42 145 115v3h107v-762h-107z" />
    <glyph glyph-name="two.tf" horiz-adv-x="698" 
d="M77 115c309 185 429 305 429 420c0 86 -62 142 -156 142c-96 0 -165 -62 -168 -151h-109c5 144 124 251 277 251c156 0 265 -100 265 -242c0 -140 -124 -281 -376 -435h380v-100h-542v115z" />
    <glyph glyph-name="three.tf" horiz-adv-x="698" 
d="M342 -16c-167 0 -274 89 -279 229h109c7 -79 72 -128 170 -128c103 0 171 51 171 128c0 87 -82 139 -220 139v91c113 0 184 49 184 125c0 63 -57 109 -135 109c-83 0 -143 -43 -149 -107h-106c6 124 109 207 255 207c140 0 244 -90 244 -209c0 -75 -35 -132 -95 -162
c83 -29 130 -97 130 -193c0 -138 -110 -229 -279 -229z" />
    <glyph glyph-name="four.tf" horiz-adv-x="698" 
d="M51 153v95l225 514h115l-228 -510h230v206h107v-206h117v-99h-117v-153h-107v153h-342z" />
    <glyph glyph-name="five.tf" horiz-adv-x="698" 
d="M334 -15c-155 0 -265 102 -267 248h104c0 -89 67 -152 161 -152c100 0 169 73 169 175c0 103 -67 175 -167 175c-69 0 -126 -39 -157 -107l-104 19l65 419h421v-100h-339l-34 -202c39 42 99 67 169 67c148 0 252 -111 252 -271s-113 -271 -273 -271z" />
    <glyph glyph-name="six.tf" horiz-adv-x="698" 
d="M342 -16c-180 0 -288 144 -288 383c0 264 107 411 297 410c137 -1 236 -82 259 -211h-108c-13 71 -71 115 -151 115c-112 0 -182 -91 -201 -259c40 60 112 97 197 97c159 0 266 -106 266 -266c0 -161 -109 -269 -271 -269zM171 253c0 -101 69 -173 166 -173
c100 0 170 72 170 173c0 100 -70 170 -170 170c-97 0 -166 -70 -166 -170z" />
    <glyph glyph-name="seven.tf" horiz-adv-x="698" 
d="M188 0l289 662h-393v100h507v-86l-289 -676h-114z" />
    <glyph glyph-name="eight.tf" horiz-adv-x="698" 
d="M330 -15c-166 0 -279 108 -279 234c0 87 45 156 125 193c-59 35 -90 92 -90 154c0 118 103 209 244 209c140 0 243 -91 243 -209c0 -62 -31 -119 -90 -154c81 -37 125 -107 125 -193c0 -126 -112 -234 -278 -234zM156 219c0 -73 68 -135 174 -135s173 62 173 135
c0 78 -68 141 -173 141s-174 -63 -174 -141zM191 570c0 -61 53 -113 139 -113c85 0 139 52 139 113c0 58 -52 105 -139 105c-88 0 -139 -49 -139 -105z" />
    <glyph glyph-name="nine.tf" horiz-adv-x="698" 
d="M356 778c180 0 288 -144 288 -383c0 -264 -107 -411 -297 -410c-137 1 -236 82 -259 211h108c13 -71 71 -115 151 -115c112 0 182 91 201 259c-40 -60 -112 -97 -197 -97c-159 0 -266 106 -266 266c0 161 109 269 271 269zM191 509c0 -100 70 -170 170 -170
c97 0 166 70 166 170c0 101 -69 173 -166 173c-100 0 -170 -72 -170 -173z" />
    <glyph glyph-name="zero.tf.zero" horiz-adv-x="706" 
d="M353 -16c-186 0 -302 153 -302 395c0 245 116 398 302 398c185 0 302 -152 302 -395c0 -244 -117 -398 -302 -398zM158 379c0 -105 26 -187 71 -237l146 534c-7 1 -15 1 -22 1c-120 0 -195 -115 -195 -298zM318 89c11 -2 23 -3 35 -3c119 0 195 114 195 296
c0 114 -30 201 -82 250z" />
    <glyph glyph-name="zero.dnom" horiz-adv-x="354" 
d="M176 -15c-79 0 -141 65 -141 147c0 81 62 145 141 145c81 0 143 -64 143 -145c0 -82 -62 -147 -143 -147zM107 132c0 -41 31 -73 71 -73c39 0 70 32 70 73s-32 73 -71 73s-70 -32 -70 -73z" />
    <glyph glyph-name="zero.numr" horiz-adv-x="354" 
d="M176 485c-79 0 -141 65 -141 146c0 82 62 146 141 146c81 0 143 -64 143 -146c0 -81 -62 -146 -143 -146zM107 631c0 -41 31 -73 71 -73c39 0 70 32 70 73c0 42 -32 74 -71 74s-70 -32 -70 -74z" />
    <glyph glyph-name="fraction" unicode="&#x2044;" horiz-adv-x="666" 
d="M5 0l534 762h122l-536 -762h-120z" />
    <glyph glyph-name="period" unicode="." horiz-adv-x="239" 
d="M120 -16c-44 0 -79 36 -79 80s35 79 79 79s78 -35 78 -79s-34 -80 -78 -80z" />
    <glyph glyph-name="comma" unicode="," horiz-adv-x="215" 
d="M41 -141v269h133l-60 -269h-73z" />
    <glyph glyph-name="colon" unicode=":" horiz-adv-x="239" 
d="M120 -15c-44 0 -79 36 -79 80s35 79 79 79s78 -35 78 -79s-34 -80 -78 -80zM41 460c0 44 35 79 79 79s78 -35 78 -79c0 -43 -34 -80 -78 -80s-79 37 -79 80z" />
    <glyph glyph-name="semicolon" unicode=";" horiz-adv-x="242" 
d="M58 -141v269h133l-60 -269h-73zM41 459c0 44 35 79 79 79s78 -35 78 -79s-34 -80 -78 -80s-79 36 -79 80z" />
    <glyph glyph-name="ellipsis" unicode="&#x2026;" horiz-adv-x="734" 
d="M615 -16c-44 0 -79 36 -79 80s35 79 79 79s78 -35 78 -79s-34 -80 -78 -80zM41 64c0 44 35 79 79 79s78 -35 78 -79s-34 -80 -78 -80s-79 36 -79 80zM288 64c0 44 35 79 79 79s78 -35 78 -79s-34 -80 -78 -80s-79 36 -79 80z" />
    <glyph glyph-name="exclam" unicode="!" horiz-adv-x="283" 
d="M92 236v526h102v-526h-102zM64 64c0 44 35 79 79 79s78 -35 78 -79s-34 -80 -78 -80s-79 36 -79 80z" />
    <glyph glyph-name="exclamdown" unicode="&#xa1;" horiz-adv-x="283" 
d="M193 320v-526h-102v526h102zM64 492c0 44 34 80 78 80s79 -36 79 -80s-35 -79 -79 -79s-78 35 -78 79z" />
    <glyph glyph-name="question" unicode="?" horiz-adv-x="607" 
d="M212 221c0 84 38 141 126 192c86 49 114 87 114 141c0 71 -61 124 -143 124c-85 0 -151 -65 -154 -152h-104c4 144 115 251 259 251c141 0 246 -95 246 -223c0 -85 -48 -146 -150 -209c-70 -44 -92 -76 -92 -126v-26h-102v28zM187 65c0 44 35 79 78 79
c45 0 79 -35 79 -79s-34 -80 -79 -80c-43 0 -78 36 -78 80z" />
    <glyph glyph-name="questiondown" unicode="&#xbf;" horiz-adv-x="607" 
d="M395 333c0 -84 -38 -141 -126 -192c-86 -49 -114 -87 -114 -141c0 -71 61 -124 143 -124c85 0 151 65 154 152h104c-4 -144 -115 -251 -259 -251c-141 0 -246 95 -246 223c0 85 48 146 150 209c70 44 92 76 92 126v26h102v-28zM263 489c0 44 34 80 79 80
c43 0 78 -36 78 -80s-35 -79 -78 -79c-45 0 -79 35 -79 79z" />
    <glyph glyph-name="periodcentered" unicode="&#xb7;" horiz-adv-x="283" 
d="M143 269c-44 0 -79 36 -79 80s35 79 79 79s78 -35 78 -79s-34 -80 -78 -80z" />
    <glyph glyph-name="bullet" unicode="&#x2022;" horiz-adv-x="331" 
d="M167 259c-57 0 -103 46 -103 105c0 56 46 101 103 101c58 0 103 -45 103 -101c0 -59 -45 -105 -103 -105z" />
    <glyph glyph-name="asterisk" unicode="*" horiz-adv-x="533" 
d="M231 325v140l-98 -99l-52 51l102 99h-142v74h142l-102 96l53 50l97 -102v143h72v-142l96 101l52 -51l-99 -95h140v-74h-139l99 -98l-52 -51l-97 96v-138h-72z" />
    <glyph glyph-name="numbersign" unicode="#" horiz-adv-x="750" 
d="M347 0l56 210h-157l-57 -210h-109l57 210h-130l23 99h134l40 150h-136l23 98h140l55 205h109l-55 -205h157l55 205h109l-55 -205h141l-23 -98h-145l-40 -150h147l-23 -99h-151l-57 -210h-108zM273 309h157l40 150h-157z" />
    <glyph glyph-name="slash" unicode="/" horiz-adv-x="507" 
d="M41 -145l317 945h108l-321 -945h-104z" />
    <glyph glyph-name="backslash" unicode="\" horiz-adv-x="507" 
d="M466 -145h-104l-321 945h108z" />
    <glyph glyph-name="asterisk.ss01" horiz-adv-x="533" 
d="M133 368l-52 48l105 101h-145v71h145l-105 98l52 49l95 -100v143h77v-142l94 99l50 -49l-103 -98h146v-71h-145l102 -101l-50 -48l-133 135z" />
    <glyph glyph-name="hyphen" unicode="-" horiz-adv-x="502" 
d="M64 294v100h374v-100h-374z" />
    <glyph glyph-name="endash" unicode="&#x2013;" horiz-adv-x="836" 
d="M64 294v100h708v-100h-708z" />
    <glyph glyph-name="emdash" unicode="&#x2014;" horiz-adv-x="1084" 
d="M64 293v99h956v-99h-956z" />
    <glyph glyph-name="underscore" unicode="_" horiz-adv-x="639" 
d="M0 -126v100h639v-100h-639z" />
    <glyph glyph-name="parenleft" unicode="(" horiz-adv-x="407" 
d="M183 -114c-92 134 -138 284 -138 458c0 172 46 322 138 455h132c-109 -134 -163 -284 -163 -456c0 -175 53 -325 161 -457h-130z" />
    <glyph glyph-name="parenright" unicode=")" horiz-adv-x="407" 
d="M94 -114c108 132 161 282 161 457c0 172 -54 322 -163 456h132c92 -133 138 -283 138 -455c0 -174 -46 -324 -138 -458h-130z" />
    <glyph glyph-name="braceleft" unicode="{" horiz-adv-x="475" 
d="M355 -114c-126 0 -187 51 -187 159v171c0 65 -24 97 -76 97v59c52 0 76 32 76 99v170c0 108 61 159 187 159h28v-101c-73 0 -107 -23 -107 -72v-167c0 -63 -24 -102 -73 -117c49 -16 73 -55 73 -118v-167c0 -49 34 -72 107 -72v-100h-28z" />
    <glyph glyph-name="braceright" unicode="}" horiz-adv-x="475" 
d="M120 -114h-28v100c73 0 107 23 107 72v167c0 63 24 102 73 118c-49 15 -73 54 -73 117v167c0 49 -34 72 -107 72v101h28c126 0 187 -51 187 -159v-170c0 -67 24 -99 76 -99v-59c-52 0 -76 -32 -76 -97v-171c0 -108 -61 -159 -187 -159z" />
    <glyph glyph-name="bracketleft" unicode="[" horiz-adv-x="446" 
d="M92 -114v914h262v-88h-159v-739h158v-87h-261z" />
    <glyph glyph-name="bracketright" unicode="]" horiz-adv-x="446" 
d="M354 -114h-261v87h158v739h-159v88h262v-914z" />
    <glyph glyph-name="quotesinglbase" unicode="&#x201a;" horiz-adv-x="290" 
d="M64 -141l31 269h134l-92 -269h-73z" />
    <glyph glyph-name="quotedblbase" unicode="&#x201e;" horiz-adv-x="472" 
d="M64 -141l31 269h134l-92 -269h-73zM246 -141l31 269h134l-92 -269h-73z" />
    <glyph glyph-name="quotedblleft" unicode="&#x201c;" horiz-adv-x="470" 
d="M229 775l-31 -269h-134l92 269h73zM244 506l92 269h73l-31 -269h-134z" />
    <glyph glyph-name="quotedblright" unicode="&#x201d;" horiz-adv-x="470" 
d="M244 506l31 269h134l-92 -269h-73zM64 506l31 269h134l-92 -269h-73z" />
    <glyph glyph-name="quoteleft" unicode="&#x2018;" horiz-adv-x="290" 
d="M229 775l-31 -269h-134l92 269h73z" />
    <glyph glyph-name="quoteright" unicode="&#x2019;" horiz-adv-x="290" 
d="M64 506l31 269h134l-92 -269h-73z" />
    <glyph glyph-name="guillemotleft" unicode="&#xab;" horiz-adv-x="616" 
d="M555 110l-233 116v141l233 116v-120l-146 -66l146 -66v-121zM64 226v141l233 116v-120l-146 -66l146 -66v-121z" />
    <glyph glyph-name="guillemotright" unicode="&#xbb;" horiz-adv-x="616" 
d="M64 110v121l146 66l-146 66v120l233 -116v-141zM322 110v121l146 66l-146 66v120l233 -116v-141z" />
    <glyph glyph-name="guilsinglleft" unicode="&#x2039;" horiz-adv-x="359" 
d="M297 110l-233 116v141l233 116v-120l-146 -66l146 -66v-121z" />
    <glyph glyph-name="guilsinglright" unicode="&#x203a;" horiz-adv-x="359" 
d="M64 110v121l146 66l-146 66v120l233 -116v-141z" />
    <glyph glyph-name="quotedbl" unicode="&#x22;" horiz-adv-x="445" 
d="M94 521l-30 279h142l-30 -279h-82zM241 800h142l-30 -279h-82z" />
    <glyph glyph-name="quotesingle" unicode="'" horiz-adv-x="224" 
d="M71 521l-30 279h142l-30 -279h-82z" />
    <glyph glyph-name="uni0E3F" unicode="&#xe3f;" horiz-adv-x="704" 
d="M291 -129v129h-199v762h199v125h101v-125h5c133 0 230 -85 230 -202c0 -74 -33 -133 -88 -167c75 -31 119 -97 119 -185c0 -128 -95 -208 -245 -208h-21v-129h-101zM198 100h93v243h-93v-243zM198 436h93v226h-93v-226zM392 100h21c85 0 139 46 139 120
c0 75 -54 123 -139 123h-21v-243zM392 436h1c77 0 128 46 128 114c0 67 -51 112 -128 112h-1v-226z" />
    <glyph glyph-name="at" unicode="@" horiz-adv-x="997" 
d="M499 -128c-267 0 -454 187 -454 452c0 266 187 453 454 453s453 -183 453 -442c0 -152 -76 -252 -191 -252c-56 0 -98 30 -117 78c-38 -49 -96 -78 -163 -78c-130 0 -220 102 -220 244c0 141 90 241 220 241c61 0 114 -24 152 -64v49h85v-319c0 -38 23 -68 55 -68
c54 0 92 73 92 179c0 202 -150 344 -366 344c-215 0 -367 -150 -367 -365c0 -214 152 -364 367 -364c71 0 166 32 229 78l49 -71c-71 -57 -185 -95 -278 -95zM345 327c0 -97 61 -162 147 -162c85 0 141 65 141 162c0 94 -56 159 -141 159c-86 0 -147 -65 -147 -159z" />
    <glyph glyph-name="ampersand" unicode="&#x26;" horiz-adv-x="772" 
d="M307 -16c-161 0 -262 87 -262 224c0 90 65 177 174 237c-55 53 -89 116 -89 169c0 99 73 163 189 163s190 -64 190 -163c0 -72 -54 -140 -152 -192l170 -199c24 52 36 120 32 173h89c9 -75 -15 -174 -59 -241l138 -155h-121l-73 82c-61 -61 -144 -98 -226 -98zM145 212
c1 -80 64 -134 155 -134c61 0 126 26 173 67l-199 237c-80 -44 -130 -108 -129 -170zM230 620c0 -33 28 -82 75 -132c65 38 107 90 107 130c0 46 -36 75 -93 75c-55 0 -89 -28 -89 -73z" />
    <glyph glyph-name="copyright" unicode="&#xa9;" horiz-adv-x="871" 
d="M436 -15c-229 0 -391 163 -391 396s162 396 391 396c228 0 390 -163 390 -397c0 -232 -162 -395 -390 -395zM125 381c0 -190 129 -324 312 -324c181 0 309 133 309 323c0 191 -128 325 -309 325c-183 0 -312 -134 -312 -324zM214 378c0 141 94 240 226 240
c103 0 190 -71 210 -170h-88c-15 51 -65 88 -122 88c-82 0 -140 -65 -140 -158c0 -92 58 -157 140 -157c58 0 109 38 122 91h88c-20 -101 -106 -172 -210 -172c-132 0 -226 98 -226 238z" />
    <glyph glyph-name="registered" unicode="&#xae;" horiz-adv-x="871" 
d="M436 -15c-229 0 -391 163 -391 396s162 396 391 396c228 0 390 -163 390 -397c0 -232 -162 -395 -390 -395zM125 381c0 -190 129 -324 312 -324c181 0 309 133 309 323c0 191 -128 325 -309 325c-183 0 -312 -134 -312 -324zM277 172v431h170c92 0 154 -55 154 -136
c0 -55 -29 -98 -76 -120l114 -175h-90l-98 159h-4h-92v-159h-78zM355 396h83c49 0 86 30 86 71s-37 71 -86 71h-83v-142z" />
    <glyph glyph-name="trademark" unicode="&#x2122;" horiz-adv-x="788" 
d="M353 449v314h86l86 -226l85 226h86v-314h-58v222l-87 -222h-51l-89 225v-225h-58zM45 708v55h269v-55h-106v-259h-57v259h-106z" />
    <glyph glyph-name="bar" unicode="|" horiz-adv-x="290" 
d="M92 -124v945h106v-945h-106z" />
    <glyph glyph-name="cent" unicode="&#xa2;" horiz-adv-x="586" 
d="M249 -98v89c-122 25 -208 135 -208 284c0 143 84 256 208 282v94h102v-92c102 -17 180 -90 200 -196h-101c-14 51 -51 87 -99 101v-380c49 15 87 52 101 105h99c-20 -106 -96 -182 -200 -200v-87h-102zM136 275c0 -93 45 -163 113 -188v375c-68 -25 -113 -96 -113 -187z
" />
    <glyph glyph-name="currency" unicode="&#xa4;" horiz-adv-x="639" 
d="M320 130c-53 0 -102 16 -142 44l-61 -61l-76 75l66 66c-20 35 -31 76 -31 120c0 50 14 96 39 134l-63 63l75 76l64 -64c38 22 81 35 129 35c47 0 91 -13 128 -35l64 64l75 -76l-63 -63c25 -38 39 -84 39 -134c0 -44 -11 -85 -30 -120l65 -66l-75 -75l-62 61
c-39 -28 -88 -44 -141 -44zM172 373c0 -83 64 -148 148 -148c83 0 148 65 148 148s-65 149 -148 149c-84 0 -148 -66 -148 -149z" />
    <glyph glyph-name="dollar" unicode="$" horiz-adv-x="694" 
d="M302 -126v116c-149 21 -244 117 -252 259h120c5 -79 54 -135 132 -157v255l-16 4c-151 34 -215 98 -215 208c0 117 91 199 231 215v110h106v-112c130 -22 232 -125 240 -239h-116c-7 62 -56 112 -124 131v-242l57 -15c127 -34 196 -101 196 -213
c0 -119 -96 -197 -253 -208v-112h-106zM182 561c0 -49 38 -83 120 -109v218c-71 -10 -120 -48 -120 -109zM408 84c92 8 149 51 149 117c0 53 -30 95 -143 121l-6 1v-239z" />
    <glyph glyph-name="Euro" unicode="&#x20ac;" horiz-adv-x="938" 
d="M551 -15c-167 0 -303 104 -352 262h-154v100h135c-1 11 -1 22 -1 34c0 16 1 32 3 48h-137v99h159c52 147 183 249 347 249c175 0 313 -100 349 -251h-118c-28 94 -116 152 -231 152c-101 0 -187 -59 -231 -150h331v-99h-361c-2 -16 -3 -32 -3 -48c0 -12 1 -23 2 -34h362
v-100h-337c42 -99 132 -163 237 -163c115 0 203 60 233 155h116c-37 -153 -175 -254 -349 -254z" />
    <glyph glyph-name="uni20A6" unicode="&#x20a6;" horiz-adv-x="1123" 
d="M92 429v99h135v234h153l148 -234h261v234h107v-234h135v-99h-135v-82h135v-100h-135v-247h-154l-155 247h-255v-247h-105v247h-135v100h135v82h-135zM332 347h192l-51 82h-141v-82zM332 528h79l-79 126v-126zM590 429l52 -82h147v82h-199zM705 247l84 -133v133h-84z" />
    <glyph glyph-name="uni20A8" unicode="&#x20a8;" horiz-adv-x="1182" 
d="M596 0l-167 285c-15 -2 -30 -3 -46 -3h-185v-282h-106v762h291c157 0 262 -96 262 -240c0 -95 -46 -170 -123 -209l200 -313h-126zM198 381h185c95 0 158 56 158 141s-63 142 -158 142h-185v-283zM689 179h105c2 -64 60 -108 139 -108c74 0 122 30 122 76
c0 33 -18 59 -96 77l-94 21c-106 24 -161 77 -161 155c0 98 85 163 213 163c122 0 220 -80 222 -184h-104c-1 55 -57 97 -125 97c-66 0 -110 -30 -110 -74c0 -35 32 -59 102 -76l98 -25c94 -24 148 -77 148 -160c0 -93 -89 -156 -221 -156c-138 0 -236 79 -238 194z" />
    <glyph glyph-name="uni20B9" unicode="&#x20b9;" horiz-adv-x="618" 
d="M616 734v-95h-192c19 -26 32 -55 38 -89h154v-96h-155c-16 -86 -76 -148 -163 -172c137 -31 248 -128 318 -282h-121c-63 149 -205 244 -403 271v95h121c72 0 125 34 145 88h-265v96h265c-19 55 -72 89 -145 89h-121v95h524z" />
    <glyph glyph-name="sterling" unicode="&#xa3;" horiz-adv-x="603" 
d="M50 103c102 0 171 55 171 134c0 28 -9 57 -21 87h-150v98h106c-18 43 -33 89 -33 138c0 126 90 217 222 218c135 0 225 -90 225 -224h-103c0 73 -45 122 -111 122c-71 0 -119 -52 -119 -128c0 -41 16 -83 34 -126h200v-98h-161c10 -32 18 -66 17 -101
c-1 -51 -19 -93 -51 -120h273v-102h-499v102z" />
    <glyph glyph-name="uni20A9" unicode="&#x20a9;" horiz-adv-x="1215" 
d="M3 429v99h143l-65 234h106l62 -234h235l62 234h131l63 -234h234l61 234h105l-64 -234h136v-99h-163l-23 -82h186v-100h-213l-68 -247h-147l-66 247h-209l-65 -247h-150l-69 247h-222v100h194l-23 82h-171zM276 429l22 -82h137l22 82h-181zM324 247l43 -157l42 157h-85z
M535 347h156l-22 82h-113zM582 528h60l-30 113zM767 429l23 -82h137l21 82h-181zM817 247l42 -157l41 157h-83z" />
    <glyph glyph-name="yen" unicode="&#xa5;" horiz-adv-x="707" 
d="M67 278v100h174l-238 384h124l226 -379l227 379h124l-239 -384h168v-100h-227v-49h227v-99h-227v-130h-106v130h-233v99h233v49h-233z" />
    <glyph glyph-name="uni20B9.bold" horiz-adv-x="639" 
d="M511 0c-66 156 -213 254 -419 282v99h126c95 0 159 56 159 141s-64 142 -159 142h-126v98h545v-98h-200c28 -38 44 -87 44 -142c0 -31 -5 -60 -14 -86h163v-100h-236c-25 -19 -55 -34 -89 -43c144 -33 258 -133 332 -293h-126z" />
    <glyph glyph-name="plus" unicode="+" horiz-adv-x="722" 
d="M311 73v248h-247v86h247v247h103v-247h247v-86h-247v-248h-103z" />
    <glyph glyph-name="minus" unicode="&#x2212;" horiz-adv-x="765" 
d="M64 321v86h640v-86h-640z" />
    <glyph glyph-name="multiply" unicode="&#xd7;" horiz-adv-x="624" 
d="M127 114l-63 62l187 188l-186 187l62 62l186 -187l187 187l63 -62l-187 -187l187 -188l-63 -62l-186 187z" />
    <glyph glyph-name="divide" unicode="&#xf7;" horiz-adv-x="765" 
d="M64 321v86h640v-86h-640zM309 182c0 43 33 76 75 76c43 0 76 -33 76 -76c0 -42 -33 -76 -76 -76c-42 0 -75 34 -75 76zM309 523c0 43 33 76 75 76c43 0 76 -33 76 -76c0 -42 -33 -76 -76 -76c-42 0 -75 34 -75 76z" />
    <glyph glyph-name="equal" unicode="=" 
d="M64 411v85h506v-85h-506zM64 232v85h506v-85h-506z" />
    <glyph glyph-name="notequal" unicode="&#x2260;" 
d="M80 95l91 139h-107v86h164l60 93h-224v86h281l91 139h117l-91 -139h108v-86h-164l-61 -93h225v-86h-281l-91 -139h-118z" />
    <glyph glyph-name="plusminus" unicode="&#xb1;" horiz-adv-x="765" 
d="M64 55v86h640v-86h-640zM88 426v86h247v247h103v-247h247v-86h-247v-248h-103v248h-247z" />
    <glyph glyph-name="percent" unicode="%" horiz-adv-x="714" 
d="M176 485c-79 0 -141 65 -141 146c0 82 62 146 141 146c81 0 143 -64 143 -146c0 -81 -62 -146 -143 -146zM29 0l534 762h122l-536 -762h-120zM107 631c0 -41 31 -73 71 -73c39 0 70 32 70 73c0 42 -32 74 -71 74s-70 -32 -70 -74zM395 132c0 81 62 145 141 145
c81 0 143 -64 143 -145c0 -82 -62 -147 -143 -147c-79 0 -141 65 -141 147zM467 132c0 -41 31 -73 71 -73c39 0 70 32 70 73s-32 73 -71 73s-70 -32 -70 -73z" />
    <glyph glyph-name="perthousand" unicode="&#x2030;" horiz-adv-x="1067" 
d="M176 485c-79 0 -141 65 -141 146c0 82 62 146 141 146c81 0 143 -64 143 -146c0 -81 -62 -146 -143 -146zM29 0l534 762h122l-536 -762h-120zM107 631c0 -41 31 -73 71 -73c39 0 70 32 70 73c0 42 -32 74 -71 74s-70 -32 -70 -74zM395 132c0 81 62 145 141 145
c81 0 143 -64 143 -145c0 -82 -62 -147 -143 -147c-79 0 -141 65 -141 147zM467 132c0 -41 31 -73 71 -73c39 0 70 32 70 73s-32 73 -71 73s-70 -32 -70 -73zM749 132c0 81 62 145 141 145c81 0 143 -64 143 -145c0 -82 -62 -147 -143 -147c-79 0 -141 65 -141 147zM821 132
c0 -41 31 -73 71 -73c39 0 70 32 70 73s-32 73 -71 73s-70 -32 -70 -73z" />
    <glyph glyph-name="arrowup" unicode="&#x2191;" horiz-adv-x="686" 
d="M130 399l-66 66l280 277l281 -277l-67 -66l-168 176v-575h-91v575z" />
    <glyph glyph-name="uni2197" unicode="&#x2197;" horiz-adv-x="684" 
d="M227 475v93l394 -2l2 -394h-94l6 244l-407 -407l-64 64l407 407z" />
    <glyph glyph-name="arrowright" unicode="&#x2192;" horiz-adv-x="867" 
d="M463 522l66 66l277 -280l-277 -281l-66 67l176 168h-575v91h575z" />
    <glyph glyph-name="uni2198" unicode="&#x2198;" horiz-adv-x="685" 
d="M530 360h94l-3 -394l-394 -3l1 94l243 -6l-407 407l65 64l406 -407z" />
    <glyph glyph-name="arrowdown" unicode="&#x2193;" horiz-adv-x="686" 
d="M130 257l169 -176v575h91v-575l168 176l67 -66l-281 -277l-280 277z" />
    <glyph glyph-name="uni2199" unicode="&#x2199;" horiz-adv-x="684" 
d="M461 65v-93l-394 2l-3 394h94l-6 -244l407 407l64 -64l-407 -407z" />
    <glyph glyph-name="arrowleft" unicode="&#x2190;" horiz-adv-x="867" 
d="M407 87l-66 -66l-277 280l277 281l66 -67l-176 -168h575v-91h-575z" />
    <glyph glyph-name="uni2196" unicode="&#x2196;" horiz-adv-x="685" 
d="M158 143h-94l2 394l395 3l-1 -94l-243 6l407 -407l-65 -64l-407 406z" />
    <glyph glyph-name="arrowboth" unicode="&#x2194;" horiz-adv-x="980" 
d="M643 102l-66 65l170 164h-516l176 -168l-67 -66l-276 280l276 280l67 -66l-176 -168h526l-180 173l66 66l276 -280z" />
    <glyph glyph-name="arrowupdn" unicode="&#x2195;" horiz-adv-x="698" 
d="M73 206l65 66l164 -170v516l-168 -176l-66 67l280 276l280 -276l-66 -67l-168 176v-526l173 180l66 -66l-280 -276z" />
    <glyph glyph-name="arrowup.ss01" horiz-adv-x="684" 
d="M130 430l-66 66l280 279l279 -279l-66 -66l-213 215zM298 0v465h91v-465h-91z" />
    <glyph glyph-name="uni2197.ss01" horiz-adv-x="706" 
d="M250 492v94l395 -1v-394h-93l1 303zM64 70l329 328l64 -64l-328 -329z" />
    <glyph glyph-name="arrowright.ss01" horiz-adv-x="900" 
d="M494 522l66 66l279 -280l-279 -279l-66 66l215 214zM64 263v91h465v-91h-465z" />
    <glyph glyph-name="uni2198.ss01" horiz-adv-x="705" 
d="M551 395h93v-395h-395v93l304 -2zM64 516l64 64l329 -329l-64 -64z" />
    <glyph glyph-name="arrowdown.ss01" horiz-adv-x="684" 
d="M557 225l66 -66l-280 -279l-279 279l66 66l214 -215zM298 190v465h91v-465h-91z" />
    <glyph glyph-name="uni2199.ss01" horiz-adv-x="706" 
d="M459 64v-93l-395 1v394h93l-1 -303zM251 223l329 329l64 -65l-328 -329z" />
    <glyph glyph-name="arrowleft.ss01" horiz-adv-x="900" 
d="M409 145l-66 -66l-279 280l279 279l66 -66l-215 -213zM374 313v91h465v-91h-465z" />
    <glyph glyph-name="uni2196.ss01" horiz-adv-x="705" 
d="M157 145h-93v395h395v-93l-303 1zM251 289l64 64l329 -329l-64 -64z" />
    <glyph glyph-name="uni0308" unicode="&#x308;" horiz-adv-x="0" 
d="M324 626c-38 0 -68 31 -68 69s30 67 68 67s69 -29 69 -67s-31 -69 -69 -69zM50 695c0 38 30 67 68 67s69 -29 69 -67s-31 -69 -69 -69s-68 31 -68 69z" />
    <glyph glyph-name="uni0307" unicode="&#x307;" horiz-adv-x="0" 
d="M118 626c-38 0 -68 31 -68 69s30 67 68 67s69 -29 69 -67s-31 -69 -69 -69z" />
    <glyph glyph-name="gravecomb" unicode="&#x300;" horiz-adv-x="0" 
d="M185 605l-135 157h120l89 -157h-74z" />
    <glyph glyph-name="acutecomb" unicode="&#x301;" horiz-adv-x="0" 
d="M50 606l91 156h119l-135 -156h-75z" />
    <glyph glyph-name="uni030B" unicode="&#x30b;" horiz-adv-x="0" 
d="M50 606l91 156h119l-135 -156h-75zM191 606l91 156h119l-135 -156h-75z" />
    <glyph glyph-name="uni030C.alt" horiz-adv-x="0" 
d="M50 605l19 201h97l-57 -201h-59z" />
    <glyph glyph-name="uni0302" unicode="&#x302;" horiz-adv-x="0" 
d="M50 613l84 149h131l84 -149h-96l-53 105l-53 -105h-97z" />
    <glyph glyph-name="uni030C" unicode="&#x30c;" horiz-adv-x="0" 
d="M50 762h97l53 -105l53 105h96l-84 -149h-131z" />
    <glyph glyph-name="uni0306" unicode="&#x306;" horiz-adv-x="0" 
d="M213 598c-96 0 -163 65 -163 164h76c1 -57 35 -94 87 -94s86 37 87 94h76c0 -99 -66 -164 -163 -164z" />
    <glyph glyph-name="uni030A" unicode="&#x30a;" horiz-adv-x="0" 
d="M150 598c-56 0 -100 43 -100 100c0 56 44 100 100 100c55 0 100 -44 100 -100c0 -57 -45 -100 -100 -100zM103 698c0 -26 21 -47 47 -47s46 21 46 47s-20 47 -46 47s-47 -21 -47 -47z" />
    <glyph glyph-name="tildecomb" unicode="&#x303;" horiz-adv-x="0" 
d="M285 605c-67 0 -91 82 -141 82c-33 0 -56 -26 -60 -68l-34 36c5 66 40 107 90 107c71 0 92 -82 144 -82c31 0 54 26 59 67l33 -36c-5 -65 -40 -106 -91 -106z" />
    <glyph glyph-name="uni0304" unicode="&#x304;" horiz-adv-x="0" 
d="M50 606v78h357v-78h-357z" />
    <glyph glyph-name="uni0310" unicode="&#x310;" horiz-adv-x="0" 
d="M213 598c-96 0 -163 65 -163 164h76c1 -57 35 -94 87 -94s86 37 87 94h76c0 -99 -66 -164 -163 -164zM145 902c0 38 30 67 68 67s69 -29 69 -67s-31 -69 -69 -69s-68 31 -68 69z" />
    <glyph glyph-name="uni0312" unicode="&#x312;" horiz-adv-x="0" 
d="M179 823v-203h-129l56 203h73z" />
    <glyph glyph-name="dotbelowcomb" unicode="&#x323;" horiz-adv-x="0" 
d="M118 -223c-38 0 -68 31 -68 69s30 67 68 67s69 -29 69 -67s-31 -69 -69 -69z" />
    <glyph glyph-name="uni0324" unicode="&#x324;" horiz-adv-x="0" 
d="M324 -222c-38 0 -68 31 -68 69s30 67 68 67s69 -29 69 -67s-31 -69 -69 -69zM50 -153c0 38 30 67 68 67s69 -29 69 -67s-31 -69 -69 -69s-68 31 -68 69z" />
    <glyph glyph-name="uni0326" unicode="&#x326;" horiz-adv-x="0" 
d="M50 -238l10 178h97l-50 -178h-57z" />
    <glyph glyph-name="uni0327" unicode="&#x327;" horiz-adv-x="0" 
d="M129 -201c-32 5 -63 24 -79 49l13 71c12 -16 34 -30 55 -33c29 -5 50 8 55 33c4 27 -13 52 -42 65v16h75v-29c31 -21 48 -59 40 -100c-10 -56 -54 -84 -117 -72z" />
    <glyph glyph-name="uni0328" unicode="&#x328;" horiz-adv-x="0" 
d="M158 -184c-64 0 -108 37 -108 93c0 39 24 72 66 91h87c-36 0 -63 -23 -63 -53c0 -27 20 -46 49 -46c21 0 44 9 59 23v-72c-19 -22 -53 -36 -90 -36z" />
    <glyph glyph-name="uni032E" unicode="&#x32e;" horiz-adv-x="0" 
d="M213 -238c-96 0 -163 65 -163 164h76c1 -57 35 -94 87 -94s86 37 87 94h76c0 -99 -66 -164 -163 -164z" />
    <glyph glyph-name="uni0331" unicode="&#x331;" horiz-adv-x="0" 
d="M50 -208v78h357v-78h-357z" />
    <glyph glyph-name="uni0326.loclMAH" horiz-adv-x="0" 
d="M50 -238l10 178h97l-50 -178h-57z" />
    </font>
</defs>
</svg>
